<mxfile host="app.diagrams.net" modified="2024-04-25T03:13:53.354Z" agent="Mozilla/5.0 (Windows NT 10.0; Win64; x64) AppleWebKit/537.36 (KHTML, like Gecko) Chrome/124.0.0.0 Safari/537.36" etag="02SnMzxsZHS5TBiUGRe2" version="24.2.8" type="github">
  <diagram name="Page-1" id="Kfr3T6sJj13u1YqVxDvC">
    <mxGraphModel dx="2188" dy="734" grid="1" gridSize="10" guides="1" tooltips="1" connect="1" arrows="1" fold="1" page="1" pageScale="1" pageWidth="827" pageHeight="1169" math="0" shadow="0">
      <root>
        <mxCell id="0" />
        <mxCell id="1" parent="0" />
        <mxCell id="812OO95H252z22CbX1z0-1" value="" style="shape=image;verticalLabelPosition=bottom;labelBackgroundColor=default;verticalAlign=top;aspect=fixed;imageAspect=0;image=data:image/png,iVBORw0KGgoAAAANSUhEUgAABAcAAAKXCAYAAAD+ciM7AAAAAXNSR0IArs4c6QAAAARnQU1BAACxjwv8YQUAAAAJcEhZcwAADsMAAA7DAcdvqGQAAP+lSURBVHhe7J0FYBRHF8dfjBgESdDg7u4OxVooTktLgdIi9a+l7tSNUqNIodBCW4oULe7u7u5OSAJxu2/+727DERKsIQTy/4Xh7nbnZmdn93bmvXnvjcuZU2dsQgghhBBCCCGEkAyLiy3BRuUAIYQQQgghhJB0D4XXOweVA4QQQgghhBBC7gkSHK8k9aFygBBCCCGEEELIPYHNxfGGpDqujldCCCGEEEIIIYRkUKgcIIQQQgghhBBCMjh0KyCEEEIIIYQQcm9A6fWOQeUAIYQQQgghhBCSwaFbASGEEEIIIYQQksGhcoAQQgghhBBCCMngUDlACCGEEEIIIYRkcKgcIIQQQgghhBBCMjhUDhBCCCGEEEIIIRkcKgcIIYQQQgghhJAMDpUDhBBCCCGEEEJIBofKAUIIIYQQQgghJIND5QAhhBBCCCGEEJLBoXKAEEIIIYQQQgjJ4FA5QAghhBBCCCGEZHCoHCCEEEIIIYQQQjI4VA4QQgghhBBCCCEZHCoHCCGEEEIIIYSQDA6VA4QQQgghhBBCSAaHygFCCCGEEEIIISSDQ+UAIYQQQgghhBCSwaFygBBCCCGEEEIIyeBQOUAIIekZF0eySPqZEEIIIYSQVIDKAUIISa8kVQo4QyUBIYQQQghJRagcIISQ9Ehygr/ZZkuwmf/MeysRciex7sPk7jnHPpvZhsT7kZA0Qn9zjh8cfocp/U6t7YQQcpO4mIGm9QghhBCS3kgyuMMTm+M9kmZYN1uCXRg5d+6cHDt+XA4c2K/vQ4JD5HLYZYmNjTVZTWbenITccdAPuLq6iI+Pj2TLlk1TiRIlpHChwpInTx7x8vKy/xat3yNH+oSQm4TKAUIISe84C1x8YpM0JCIyUo4dPSo7tu+QEydOSEJCgnhkyiShoSESFRVlBBQ3k8smcXFx9i8QQtIEV1dXcXf3kJiYGHF3cxP/gABJiI/Xff7+/lKyVEmTSkmO7Nl1GyGE3AxUDhBCSHrHxT5rGxsdK/Fm8Ofl7SUuLpyiJf8djACsW8n5fWRkpBw9elQ2b94iO3fulKCgCxIcHCxly5WVihUqSt48eSWbETry5MktWbNmtX+JEJKmwGLn+PETqqy7cOGC7Nq1S3+vUNYF+AdI4cKFpVq1alKmbBnx8/NzfIsQQlKGygFCCEnvGIENM7bhYeE6GIQw5oYZW+oHyH8ACqeEBJu4udvDD8XHJaipclBQkGzdslVWrFwpu42w4Wfut/bt26nZcrHixXTGEvej2FzExeS/Sk/FEQUhdx7rN2d+b/gN4w1+l9h+6tQpObD/gCxbtkyVe/ny5ZN69eqZVFcC8weKqwvDjRFCUobKAUIISe9gIOj8pLbeUzlA/gMQ8GNjYiWTZyb9HBMdIxeCLsiSJUtk5r8z1Y+5e4/uUqdOHd1PCLm3gPXPxAkTZdasWdKqVStp36G9xiTw9fUVNze4BBFCyNVQOUAIIemdpMoBQlIBmB5HRERoUDNYpMBi4PPPP5egC0Hy+OOPS8tWLdWFhfceIfcucfHxcuTwEfnk4481bsjTTz8tzZo3l4AAf7u1ASGEOEHlACGEpHeoHCCpjcPqBK4FcbHxsnHjBnnzzTelVq3a0rNnTyldupS4ubvZ7zskWqmkL+6na4LzSLC/5X12BzBtasb6EhEeIb+PGSMjRoyQ559/Tlq0aCF5cudJtBwihBBA5QAhhBCSQYHlwOrVq+WTTz6Rtm3bSrt27aRgwYLi4eFhF9SoHEif3IfKASiqEMOCpCLWfWKSLd4mYeFhGktk+LDh8sADD0jnzp0kb968mpUQQgDtiQghhJAMCFwJDh48KN988420b9deFQMFChYQD3cPRw4HlNfSBRpA0makaIewp4LfvYp1Dk73Fk4HwfU4ZZWKOLUvVrjJkiWLNGhQX3r27CFbtmzWWAShIaGOHIQQIuI24MMBAxzvCSGEEJJB2L9/vwwaNEgKFCiggQehGMjk4TAxdhIqyPXBOvPDhg2To0eOSu7cuTWGQ2ow7q9xsmL5Cg0MmSNHDiM8Q3C2SXx8gri5pe7czqVLl2T8+Akya+YsOXDgoOTLl1cyZ87s2Jv6QCk1dcpUDZhXukxp1Qzg/HDjQYi9agWMNGbPnj0yf958OXf2nBQtWtSx9T7AoYzJlCmTuhMcPXpM1q9bJ67mXipfvrw9DyEkw5N+LAeoKSaEEELSBAhlmDUMCQmVJ3s9qabF6koAqBi4JWCB8euvv8qcOXMkODjYsfW/8+eff2o6duyYXpOzZ87qKhJjx4xRwVW5mWtll7lT5PLly7JixQr54Ycf5JcRI8wx/pWLFy869t4ZDhw4ICNHjJRJkybpZ1hEQPHxXweD0dHRsmnTJhk5cqSu9x8VFeXYc/Ps3LFTRv82WubMnePYcp9gNa9J2bJll4cffliVH5s2bpJ169ZpFuW/XQJCyD1OulEO2DsFAwclhBBCyB0DAuzKFStl48aNuipBmdJlxN1SDNwHpIpZ+i2MRbAkJGbCz5w9o4qC1KJw4cJSokQJyZI5i/nkokqCyZMny8SJE3Wm3+JG52vtTilfaGio3g87dmyXcmXLSuPGjSV79uyOvXeGy5cu6wz9ocOH9DPGgPakH28P810E3Zsze44qOvbv269WHbfKxeCLsnfvXrtS5n7DtBGCE8IyA0FHW7dpI65ubvLvv//KuXMOhRMhJEOTLpQDMCWLT4h3fDJQQUAIIYSkOpYgi1lVBB5s06a1bvNwdzd7Tef7X4SzdIIKmeY1Pj5ehfW4ODO+cDov7A8PD9f9OHd7brsFALYnnW1Gfsyunzt3XgXpuNg4hyB7bWNheUgI7idPnpSTJ07q95ID3w0LC5MzZ85ownEtUCfQt19fefa5Z6VY8WISEx0tFy4EyalTpyToYpBERkYmHl/PwVEfHBvlhYSE2LdhvzlPYM+jbxPBNpQFwRCWI126dFEXk5w5c+o+gNn48+fPq7UJlsKDj7q1zwJtp4oRsxltcDHoogrX1rkkB9wHPNw8tCworNBmsFiIjU1eoEc+tD/aAPVAXmfhH9czJDREBft9+/bZ6+MEvo/64HzOnj0rp0+d1jzXq+N9BcbW+hO3/4Hy5cupkgDXav369botyS1CCMlgpJuYA9Bk4sHt6uKa+NBS+JQi5D+DQRghhEAgXb5suQpYj3V9TPIXyC/uqhgwmD74fnlW4DwgJG7evNkI3hE6E+7u5i7RMdGybds2NaOPjIgUv6x+6oMdGxcre3bvVfPqGCOc5suXT4VNCNowU1+3br1aWhw8cFAFUDdTlp+fn5G1XFRARewGCNR58uSR/fsPyLJly2Tzls0qhKJ9ETMAvt0Y62BmeseOHbpKxMqVK2X7tu1y+owRVE0dEDAO+bH+PEzvIbwGBATIkSNHZMmSxbJt+zYVznE+vr6+ekwItxDeUSbOa83qNXLw0EFVFKBuiFmgy1LaW8a0jeOtISgoSFatWi1Lly3VY5QsUVI8PT0lW/Zs+op6oU2WLFmi9UXbnTx5Sry8vCWraTs3N3u5u3bt0n1QSpwyQvfixYtl3dp1UqtWLadjXwH5Z86cKdlzZJcaNWrKvLnztPxDpt5QAKANfLx9Er+L88B3Fi1cpPk2b94ihw8f1tU2vL29Nc4DzmXePHs5OJfixYubenrp+SMPyoW1wtq1a2X58uWyxZRhV0bEaltCOYL7Btcb1y9//vyqLLkfsf/OXUw7e2hbnz59Wn8vtevU1rgjHDMQknG560sZqiYX0XdNLaCt98jkIW6ubnwwEZKK4PfE3xQhBMLR77+PMQJlvHz11VeOrQ4wGrhPHhOYZPjisy/U97xR40YyYMAAKVSokM44P/HEE7Ji5Qpp3KixfP/D9+pWceb0GTVFnzJ1ijz9dG957fVX5cypMzJm7FgZOnSoEdZdxDOTp4Resgvm3R7vJs8+/6wE+AeodQAESX9/f/Hzy6oz8dExUap8QHs2adxEvvjiCylStIjEx8XLX3/9JSN+GSFHjx3VMiHcQ8gtVbqUvP/++9L0gaZ6LUqXLq3bhwwZojO7P/z4gwY9BIgR0fbhtvLV11+p1QGCF/72229y4uQJcfdwl+ioaBWIH3igmXz00QBVArmaP/vkyxUFAZQJaJs1a9dIVGSUnk+1atW03JwBObXMP/78Q86ePacCuFXX1q1byxtvvK5uD1CufPjhhzJq1GgpWLCAKjMgYPtl8ZN169ep4J2USRMnSe/evcU3s6/UqlVb1qxZrfWFsJ45cxZ58sme0qtXL/WJx0w/FAOoJ5QO8Jd3d3Mz1+KSFClSRHr06C6PPvqoWh6gTAi5kVGRkiN7Dqlbt6688847Uq5ceRX4f/lluCxeslivYUx0rISEBMtDDz0kL77wolSvUcMc21dGjBghn376qdSuXVvGjx/vqPF9RJLfOZRgs2fNlt/H/C4vvPCCNGjQQJVThJCMyV23HMBDCT5i3l7e5n2ChAaHSCavTHYNrumMmZiYUiHdLyN+QshtA2X8woUL5fjxYyoAlCpVyrHHwX30mEgw4wmY9W/fsV0tAcqVLac+/JghfeONN+yWim6u0q5tOxW0t23fLrNnz5J4I/x2fbSrzvQjKN1nn3+qSoVnnnlGmjdvrtYChw4dUqsACFlox5joGPn2u2/VNB8z1W3btlXBtlSp0qqM2G7KDjFjm4daP6T16v5Edzl77qz06N5D3nzzTalTp46cO3/OCMhr1OWjZ8+eeg6DBw/WWW0I4rVq1lIFLwTg7EY47tmjp7Ru01oCAwNl3LhxMuj7QXpOTz31lNY/V65cGsBw9ZpVaj7frFkzFeLt/cEVIARi5hiz6lAsPP3001r/UiVLyejRo2XkqJF6nh06dDQC+5MqMEP5MXXqFLVMqFy5srYVZuwXLVok58+dV7eC+vXqa97GTRpr+UmBsD9t+jR10YiMjNC2QGBMuIDAJeDC+Qvq9lKufDkV9j94/wOZO3euVKlSVV7t31+X3YSCYOvWLbJr9y61uKhTt44qaNBGOOenej0l3bp1k4oVKsqqVSvl+++/k40bNkqrlq3k7bfflmLFiptzCFXrjeCQEClTpozkM/cCFBuwLMAqHp07d3bU+D4iye8c43AoYODasXfvPr1XCCEZGFgOpGmKd0r47CAhIcEWEhxqC7scZouOirbFxsTaTKfBxMSUCik+zvzgkv4WmZiYMlSKioyyvfnGm7Y3XnvDFhEeYTZe2XdfJQOeedu3brf17PGkrVLFyrbvBn2n5zxv7nybEY9tnh6eNiMY2xbMX2AzwpFt5IiRNiMc2h595FFbZHikbdeOXTa/LH62MqXL2Pbs3mOLjIh0pCjbTz8Otvln97e1aNZCj3cp9JLNCKda7qCBg2wnjp2wGaFe23vC+Am2IoWL2KpXq2ELunDRtnL5SluxIsX0u0sXL9V8MTExtuXLluuxH3rwIVtMdIyWawR0W4H8BWwzps+wJcQn2ObMmWNr2qSprXat2rb9+/ZrvSNMnSpXqmwrXKiwbdLESTYj5NmMcK6vS5cstRUtUtSWJ3ce27mz53WcdVU74aPZduDAAdsz/Z6x+fj42GbNnGULCwuzHTl0xPZwm4dtxYsVt30/6Htb+OVwbZeIsAjbmVNnbFkyZ7G5u7nblixeouUY4d2WI1sOW4P6DW2T/5ms545xXNLjWWni+Ik2Xx9fW968eW0T/p5gi4yMNPnj9Nwff+xxW/7AArZvTVuGmnHh77/9bvPx9jHnXccWfDFY64GEOn3y0Se23Lny2Lo+2tW0RYTt5ImTtke6PGLL5JHJ9vdff2t+tN2777xry50zt61f335aJtoOfSPaqVWLVtpGaD+MTX8Z/ou2Z9dHH0u27vdNcgK/F1xLtLGSXH4mJqYMkdLcrcAc1iRxmDmLaqD37tmrZl7mwaTmefDxi4q+9eVnCCHJo3NFN5gVxG8Sv88c/jmkRrUa0qBhA52xgkko/D3hf0pTQ0LuXXZs3yGDfx4s+QPzy1tvvSXumdx1Vvi+wzzrjMwrcbGxep5//vmX9Or1pPTv31/++OMPNTN/7tnndJnA5557Tno91UuGDhuqM/CYHX/9tdfVBL1jx07StGlT+WjAAPXtjzDjFbg/wqcd5vZx8bHqHlC8eAkpUDC/lC1TVn788Uc1y7d88RHk7fPPP5eNmzbq0n2VKlaSRo0ayfGTx9XdAMvJwfoAbgmRkWbc42LTWX88s53dCtq0aaOz819+8aVu+/OvP9USAvEFHu/2uFo39Ov3jFSsWFHHVhhnHTlyWH766Set78QJE9W9Aqb7SYElxJdffmXK/ENmzpwltWvVkrVr1qqLAywNXnkFM/VtHblFXRbeevst+f333zXWQocOHeSnH3+SYcOGqXUE3B8QLyCp+bozcCvo16+flDLnCIsAWIt6OiwbcE0mT56i1hq4brBgGD1qtLzyan+z71nxcL+yssZff42T70wd8gXmk59//lmtI954/Q11D5kwYYK6FcBVAS4JS5cuVUsAxNpAhH69RqZ+3w4cqDEPYFL/ZK9epg3+VTeQOrXraDvftyS5NqtWrZKXXvyfDBs6VKpUrZJ4DxNCMhZppxwwR0FsAbgOIHIu3iPYDjosBLtp1ry55DYdYiHT2cXERGvcAcQfgNkfISQVuM4vXRV2eGP+gx8nloA6cGC/Bt+qbwau8OMMCPBXBQIh5N5k1qxZRlBcI1WrVlWzbPjR35fgtBCA3rwOGzpMBfYKFSuo8AdBe8uWLTLUbIcJfq2aNaV3n94yYeIENf9/tf+rUr9+fRkzZowKwAhmB9P9RIHUPCsvh11Wt4CCBQqqcFy1ajUpUrSw1K/XQAYO/EbKli1rz2vAqhDff/+9LhX3zTcDpb1p9/ETxquS5uSJU5I5c2YN7AeFQPXqNeTRRx/RGAgY/1yjHDAC7BdffqHb/vrzLylYqKCM+X2MvPveu2oWnjt3bo0LYIFtOtkSFaX5m7doftV+CygHvvjySyNo/ymzZ82RmjVryPjxE8y5fauuEVCq1K5dy5HbXu5nn32uwvjLL7+s8QGgLBk+bLi0bd9W66v9DVIKt5ilHChfvrwsXrJEy/Ty9FTlwAsvvGj2T5S+Zn/HDh1Mu30jK43gCjeLVg+21MCSFhO0noPEx9dHBXooTKAcGD9xvB4DyzKuNWPMr778SpYvX6ZuB1CAA6s/09UdgkPUxaN37z4yd+4cVcLATQHKpPsZ9P02Mx7Hpdq3d5/8YO5VuFdglQwoWgghGY80Vg7YJD4uTuLi49Sfa86cuRoUplKlSlKmbBnJjoiypuNyc/jAIUothRFCUonr/dKtfebnBmues+fOyVkzYMKg8d8Z/0pg/kBVECD6c4rWA9ZPNW2eKISQWwQC3IULF1RgqlK5irh5uN33v1es3w/hEcv/YZYeAm25cuV0Fr+9ETzhb9269UNGgFyrs90ffPihESBzyMhfRmpQvkqVK0nlSpXFy9tbl3vEbComL/AczJM3j7R+yG5dVbRYUWnUqLEGeSxrxjMWUDh8/933Gkjv22+/NcJtK1Uu7N61W3aZtHnzJtm6davGJkC5tevWloFfD9QAglAyXE85UKBgARk+/Bf59NNPVDGAlQHwakftxfS5jOjz8OfHCgzJzQbbLQegHPhLZs2arcoBBK388ccfpEqVKqocgELJwlk5AOuCxx7rKr/88osqB9q1byc/D/nZfl8hpTCEc1YOYCUEWKfBegATQi+99JJMmDBR+vbpI23btVWhf/2G9TL297FSv0H9q87BUg5k8sykQQQRRwPKgXHjx+kxENxx6ZKlqmBAME7EQahZs6aORyEZa4BGx0qGTZo00RgK4/7+W9ujbt06MnbsWPvO+xHHbx8Wg5iwwyoTM6ZP1xgOAwcO1PgZhJCMR9pNy5sOAoI+HuqrV62WBQsWqjKgffv22jGXKFFcAnIGqOYYD3koB6gYICSNwE/N8XNDcNBCBQpKjRo11FwUa15jMIgZKgSRIoTcm2D5QkTLz5o1q/337hAO7mcw8YB09OgxmTNnjgbRgxCdNVtWVRKcv3BOJypOnTylpvmwEoDpPYRzCE25AnJpULtnjCDb68le0qNHD2nStKnkzJVLfH0zqzm7Wjia9kRAP8zSOxMSEqrL6sEtC9YBeL9m1RrxDwiQdm3byosvvqiR/mFCnzNXTnUTwJKEWBXgRmCMhKUTsawiVghAgEJYQfQxQnUf89q5S2cpWLCQWiFAaXArZuIoD8qS0NBLcskkZ9Aup829hMCDaCsI9QrGbLcxboO1ALCL6uamdBSB42Dlgrz58qnSetPmTRr8EdstsHQiEvotrE5ggToh6TU07Q4LEChxoOSAxcjTJj31tHl9+mkpbsafyJs5S2ZVAoEMMfzEOZqE9oeyy9fXR4NzYinOm7n/CCH3J2lqs4+H7e49u9X/LUvmzGrWWK5c2atmImEtoJ8zwoOZkHQKBp2uLq46c9CqVStdJurY8WOyYMECnWXCoNCe0ZGc4W+XkHQJ1tyHsIRo9ylaAN1nIJI+ZszDwsJkw4aNRpj1kbp164m7EQYrV66keXbs2K4KUETHz+rnp6b+UBxgZYJ9+/epYAqhqVjxYipk7t+3T/79d4Zs375NFQNWWx42z8ZFixZqtHzIrzBX37BhvRw5ekS/W6hwIY2iP2rUKPln0iStE2bO4af/YKsHpZAR5LGaAYRdZwE4KVjBAH70OG6VypUlT57ccur0KQkNCdVri+P4B/jr9Z4yZYpG4098ZicDjoQYDQDPfvxVqlRRherdu3fpcoQ4HoiOiZZt27bpTH7OnAGqTPEygrl+7zYkap3BN1+DgGoJpOh7UCvMZqMOsHIJD4/Qczl95rTEJ8RrPlhb7Ni5Q6JjY6RkqZJ6nVEHXZXB/MXFxiHoti6HCHcDKBbQJlCS5DZtBsUKlGUzZ86UOXPnyLlz502b2usRExMrsSbd9zj6cLQ/7nsou7Cix/XuP0LI/U2ajg7CI8JlxowZEmU6YZjWlS1XVh9A+hDCc8g5EUJSj1v5TSUzvkNQp4cefEh9EtetXecInOXYCZJ+xzHgSEyEkLuLeQZcvnRZZ5Exa347gty9CoTA/PkDJcKMQfLmzaOCv5sR6mFiDmE6PDxcZ9axZj6sFmGGD4ESS/pBsMeShtOmTVPLg/F/j9dAd4cPH1ZhFMK8RawRwBHUcNSvo+Tvv//Wdf8RawB+/lhLH/nhigClwcx/Z8off/6hAu+UyVNkxr8zVKmAPKVKl0pWeZPFL4vO6GO5QATcQ+yEQkUKScuWrSTscpj8888/eny4gsHcHkH8sIQfluRLSRmkYzAjDMOdE4oOvMfsPVzIatWupUqTqVOnyZgxY/WYMNUfPny4WqG0avWgTvD4+HhrORCq8f2bBd+BWwdwdXW4uJgE4V3LM20LC9Nq1apKtapVZcPGjWrmj/PDMogIVLh27Vpz3QpL0yZN9b7GeQbmz6/lItDhsqXLtF5YChJtu2LFSvn111/ln0n/yOR/Juu5zJ4zW61AoBiCYgIKAo3HkRF+Io42B1Cq4P4KCQm2j8sJIRkStwEfDhjgeH/H2b5tu3aC5cqXV+UAOmE8yFPqtAghdxmnwRF8ajdv3ixhZiBd2AzGcuTI7thDCLkXmDhpogpICLiXkcAMMNZwhwVAo4aNpGOnjqocQVsg/hF8+CG8t2zZUuMgAQhKJUqU0MDJCCq4zYxfFi9epP7xyI8YAE899bRkyZJZZ+WnT5tuBOXy5psuGmQZKwtsNcI7xjnNmjWXxx9/XMvGqgdBQUFy8NBBWb5suQq3ixYukhUrV5j9OeSRR7pIp06ddFwEhQTcEVq0aKHKCpi+wy0C5WOVJwTXg/tXkUKFdaUnzOjDLQFxFlasWKHWXogZ8MYbb6jlQ3JjLQiB4WHhcuzYMdNGIXqswMB8Wm+UDyF7z+7dpq7LdAUH1BdKYrRV3759tV7Ii9gKJ0+c0NUSGjdpbC/8OsI1XDDwnUKFCuoKAqqsMtXDDDbOD1YBVatV1RgDCDaI+AqI07Bx40ZdSQFWbJs2btL27NSps7Q09YZbABQKEOxxXXfs2CnRMTEauwErSaD99u3bp/Ef0PZ6PuvWapyC559/QWpUry5e3l5y/Phx9b8vXbqMPPBAU0eNMwaISYIVLhBnAvceISTjkabKgYkTJ6mGHg/7YsWKqTkZ3Ai0A3FOhJC7SzK/RQysYO56+LDdfxYDKkLIvcPkKZNVSKxTp45jS8bA08tTZ0Qh7NevV1/dBywg2FaoUEGFXURpt8DsNVwSGjdqLHnzGMHaCK9Z/bJK6VKl5ZFHH5Hu3bvr8oMQriHYZsmcRToaob5lyxZGyM+mgnX1mojb0l5jK8Gs3aJ2ndoq1ObI4S/ZsmdX03xYMTzatav6w1tgNr1kyVLqJ4/yYPaNOuEV1gDNmjWTfHnz6T7UHybhmPXH87lkyZJ63J49e6qCIKVJGNQdS1qiLrCoKFmyhLpO4PzVpL9KVVUAWGbnCCCNgH4I2Ic6oP2A9gmmrtVrVJfAfIG67XrjObiswToBZRUrWizR793F5qLm/2iT6jWraxwIrBQBhTRWc8iVK6fExMZKTnM90Y7PPf+8rgCBusGVwNPbU68LxpoVKlTU4JsIEIk2QjuinV1cXMUvSxZd7aFB/Qby2eefqXuGt4/dPQLnAqUFFB04x4wEFFcjRoygcoCQDEzarVZg+Oijj8zAJJ88+GAr1QInQuslQu4JMIOGta0xuMayYISQewTTzz7R/QkVkDDwJzeBEW5jo2NVeIbvOgRHneE2YORkmV5jKTjLX97dw1193bFsMyY/PMzna8Y4pgj4uuM7EMI1oOGtjIOuI3QncqPyUH99NeflbEJvTgPDQihDrG3qLmC24XzwirpbSgEtx2zDagOwoMD5e2YyQqWli0ihHuYrWi6WtnYzZbm62Q+G2AdoYytGAtoP5VvuGzqhBBzlqluCeY92VFCMdS7IYxK+j7d6Sk7nBXAuuLYo17q2itNbxXG8+x1YVsAaBZYbWbJkcWwlhGQkklcl3yFg4uXnl0X9/xQ8bG/ePY0QcpeBWSxmsxBISwdlSQdQhBByH4EYDZiR1lltJ+ERb9U33bzBEoSwrEJCXrx6eXnq0ofJCpVmG4RZ5NMZ/VsVPJH/RulGmPqrnAzFALC+5zgvvFqgjip8m/04v0TFAHCUAesM38y+dsUAuEE9cGzEfUD7XoP5HtpO28+AY+L4Vh2cy0XdtA2BU50T8zjqh3NKvH5WGSahTFeUa+0DeOuURxMhhGQQ0lQ5cDE4SDW40CwnPmydH+aEkHQNgnbFx8fJxYvBOiAmhBBCErmNMZ1aKThwNQU4y+k3AoqDq2b8bwMc/6oSqAwghGRg0lQ5ANMtAJ8yYrA00reSCLmLYJZFTTyxlBR/xoSQ/0JyfdydSLfLzXwXz0E+C6/mVtsD+a1rlfS7N7oGVvs7f+9Wr3nSYzpj1etuJEIIuQukqXLgKvjgS0T94W4ysd1IuoL3IyHkP5JcX2cl5/3Xw/k71yZHJkJuk2TvK8e+5Egu31XbUkqOvIQQcrdIW8sB8+AjBjSDc1PAJO5mEyGEEHIvc6M+0HBVFsf2awQpp3TV95Mk8z8ht8aN7lEksz+5exEJ+xOLwGeQ9PvJJWcSCyCEkLTj7lkOZDASO40ER8cB0A8k6RdulDjK+W9Y10GjJCdJideIHTIhhNw+5vmJ56j1rEXwUkSFRwR6JHxOsF2JRnxNX6fB4+yviX1kYkb74znxMY0dZrvuSiGx3yS3jHXfOFJy9xWSdW8l3o8A+/BiMmge5/v4JpL9yyYZdEwCl9zEwgkh5M5C5UAaog95/LmYp7xzB3CrifwncB301elPPzu2ay/MdiaEkNtDn59OT1ir78Or473i3K8lSZaC4KptmrDdUgZcea848iWbCLkVkruHnBMwr1ffj1c+6z4zwk7uPr6VhPFi4u+FEELSACoH0grzkLd3EiaZv8RB0k0nCK+mHPYRt4S2GTpZC1wHR+ftnKztmhevhBBCbh+n5yvW8Uf/hyVQjx8/LmfPnbULPCk9alPo6/AdrL++Zctm2bFjh1y4cN6+3eTVr2hf6Zz0S/Z0DxAZGSkHDhyUQ4cOq8XFLZP0PO/geaNt9+7dK0ePHpXIqEjH1jTEHD/x+jpznXMOCgqSnTt3ypEjRxxbroOjbBzjqvvISha4h6EEcNzrKd7TFs7fdeLc2XOye/duOXXylOax7mFTqv52dFKJEELSACoH0gDtXBJskhDvMK90JHx2TupycL2knYWjUHRAN+qEiLaZYtoK761roKatseY6OCfHNbG3tf1rhBBCbgE8O9HnWc/bOPvzNTYmVtauXSvff/+9TJ40WT9bea+bnLgUeknGjv1DXnv1NfnwwwGycuVKfVZr34jndnySZD3LUygvWdKobw0NDVVFSUhIiNYf4POgQYNk+PDhEhtr2ud2sM7xZs71P4A6f/PNN/L772PkxPETjq1pRwKuuUmXwy6rwujMmTPah1+PFStW6n0zZsxYxxaD1U5Jrzm2m6T3Fq6P4/NV+R3fwbU6f+68Kh30vgbYl/Q7zp+TpIULF8qXn38p06dN1+NZYxXnsWJiPQgh5A5C5cCdxnQQMC3DzImbu5u+QjCNjYuVmNiYq1J0THSyCXnjE+JMYTZMxtixOhXAziJFbJZfq2mjuNg4iYmxtzXa1HS34uHpkZjcPdwd1wiaevvXCCGE3AIOocnV1UWfpx6Z7M9XT09P2b9/v/wz6R/ZunWreHl52fPiWev4TmLCNmu7hXm/ZMkS8/1JajVw5vRpFbCd87i6ul6dMJvr2HddnPvQtOhbTaVmzpopr7/2ukwzwmBMdIwqMiDg/vPPP7J+/bobCrpX4VRnI8pKApQiVzbckfPAcrbLli/TdN5hwZFW2M8OwnKCrDQC/3vvvqdKldAQcz8AXHQrOXHw4AEjhC8wQvxh/axtZPLoa9I2ctyDuIdwL191nyYBs/4jR46UZ555Rk6fOW3Ga45rZ+W3voNX53Kc0pHDR1TZtXffXrUUwG8HYxJrXIKE7df8LgghJJXBY4bcSayO2dHxnD55Wn4Z/osM/nHwDdPPP/0sw4YOk7/H/S3LliyTC+eDtNNRTbbp/BV0EryKN8Y0V3RMjEwyA9NPP/lU05TJU1Qbf9U1ck6EEEJuHfRLSZ6nEHbr168v3wwcKP2MEJVcnhul/fsPyIWgC9K+QwcZOmyYPPHEE/Z9hkQB7kYpObDdErgc5d3pvvWsESi379ghmzZulGPHjmnfXqp0KfnOCLl9+/YVDw8PR86bwOn8IEDaFdxJ2iOV0Vnsu8TlS5dV2Y86XA4Lk4OHDsrmzZvl0KFD9nPFnICVUgBuG5ERkeZy2yTscriW5wzmFeLjEnRCIXEf7gnn+8SRwiPCZdv2bbJy1Uq1otD8TvtvJuH660QQlELJ7L8mEULIHeIOdBkkRcwD/eixo/L555/Ll199ecP0xZdfyKeffiqvvfaaPNH9CalXr6480uURmTt3ngq6iWaH7ChuCCJjY6Zj/vx5MmTIEE1z5869fdNNQgghyZO0TzIClbubu5QrV07atW8rlSpV1DxQzu7etVtnzi0we75zx041FU+KKsZNcnNzNcKzu3l1s8vwLi76LN+3d58smL9Q/p3xr2zatEndEJyJDI/UGVoLvF+8eLH6eYdcDJELFy5IVHS0Cp8H9h2QObPnyN49e1VAtDh9+rRs27bdCPTHHVsMOF9LaDRgH/JYCTEEnEG9gi4ESYQRKmHJFhdvFyZz5MghzVs0lwceeEBcXd2uaUe4HaC+EISvAjruBJt9RQgjmMK0PTY6VoLOB8mK5Stk9arVt2aJYMA5LFy4SCZPniJLly6TU6dOO/YkD9puzeo1Wr/krp3FhfP2fFOnTJX58+bL0SNHHXtuHksxYX815+2Iz+Du7q5tkKgQcbomFhoXwBBtrvOWzVtk4YKFsmPHdomIitDtFsiG+wz5IfDv2b1HdmzfKfv27JPLly87com5hhFqOaD3prqxJLloDs6dOyfLTDuuX7fesYUQQtInLuZhlvyT7A7QpEkT1Yg/1vUx+4ZkHtz3O8uWLZPmzZqrhvhWgZlkjuw5pErVqvLkk09Kx44dxNPL85oBBHFg7q+EeJvOomDAgA69d+/eZrAzWXc/8sgj8ttvv9nNW8lNA2UVGDhwoL4SQu4BTD8BJXNV03/079/fsTHtwEhj0qRJMurXX6Vq9Wry2aef6jO5VatWUqVyFfHx9ZF9+/bJyZMnVdD38/OTZs2ayQcffCBRUVHmufO6zJ8/3witRyVb9uxSuVIl6dXrKe0HIeT/+defMnXaVImOitZZWLgxNG3SVK0LcM7oPzds2CAvvfiSVK5SWbf99ddf4uPtI2+99ZZs3bZVZs+aLcWKFzPHziqLFi6Ui8EXtX/o3r27lCldRmbMmCHrN6xPrF+9evWkT+8+UqRIEXEx/Qza+JdffpEpRvA9ffqU48ztQn/r1q3l1Vdf1c89evSQpcuWytmzZyV7tuxSpUoVefTRR6V8+fImz2tS3NThp59+Em9vb80/duxYmTp1qj34X2SkCsF58+aVNm3a6JgqU6ZMmu+jjz5Wl40SJUpoHVetWiVhYZdViVK5cmX56quvJE+ePJr3erz++uuyevVquXjxorpBwooB59ipUyfT5r00DxQmFSpU0H2ly5SRMHMtce0wI583T15p1ryZjvUKFCygbQ/+/vtvmTBhgrqX4Pturm6Swz+HXue3335brxn46KOPZOPGjdK1a1d5/PHHdRuAIN6uXTsJ8A+Q995/TxYsWCDj/honBw4c0P6+UuVK8ugjj0rffn2vGRfh/vvuu0E64YL2rlGzpvz77wwV6FG/YsWKyRtvvCF169Z1fEO0vYcMHSIL5i/Qz3BSgfBfs1ZN6fVkL32F8uWjjz+SLVu3SEhwiFQy92XLli2lX79+UrBgQVXkjBv3tyxZsljCw8P1Wlj3A8Yj2c29DFCvESNG6Pn9+OOPuu1ugN9gjRo1VMGTJUsWx1ZCSEaClgN3meLFi8tDDz0kXTp3uSp17tRZ2rZtq50m8qADRqcbHBIsa9asltGjR8nMmTOv6QDJ1VizBOjQ8d76TMg9A25Z59s26WdCboa7fs/Y5PjxY7La9F+HDx82n2wqwG7fsV397MePH68CIwRkKMH37Nkj06ZNU598PLfz5csnmTNnVkEuf2B+I+BVlUKFCmoQuN9+/03++OMPnTVv0aKFtGzRUjL7ZpbZs2ebvnJ04kw7VkuAcD9p4iT1UT996rT4ZfVTBQBmh5cvX651WTB/vpQxAi/6Xwiew4YNkwFGYN28ZbMK5RD6zp8/r7Pq442wa3XDv/3+ux7v5MkTKmA9/ng3adCgoQrZf/75p8yaNVuFbewrUbyEKiZy584tpUuXljy582gMBazEADcDtA+u2bhx42TUqNGyY/sOPW6HDh1UgIUFw4hfRsjvv/0uly5d0rz79++TefPmalssXbpE26dp06Y6Sz5v7jz59ddf5dSpK0qLpKD9Bw8erAp0XJuH2zysyo86deqo4A8hd926dZrX6k9PnjgpWzZtFs9Mntpe1apVl1Ombr+btoDyXU3l4+JVMQDhFxH5ixcrrooNnEdISKj8PuZ3GTp0qARfDNa+GgIqFDlJ6wrrBxwf1wGCNgT6vPny6rnj3ihetLjkzJkzhXERxgCuqmjatm2bzDD3FfK3ad1GFSYoF/XdsmWL5t63b7/WaeKEiXotWph7qkGDBqqIgbUBYgysWbNGvHy8zDFzibeXtwr+ZcqUNdezjPj4+GiZw4f/ovcxxnCtH2qt54x7CkokXA9cR0IISU/cHeUABil3faCSPqhuOtK+ffpK/1f7J0mvqvYe2vTPPvtM3xc3gwl0xphtQacDrTkGOyQF7GMrBe2GQdltLQ/lDO9dkpZc717jvUjuMdT02iQ3x0yyFfPl7Plz0qhRIw3o9r+X/icvvvSiPND0ATWjh7UABKvOnTvpTH2WLH5Sp3Zt6dixoxQoUFAFNMyqZ8uWTT7++GN59tln5bnnnjN95zsq9EGJDqEfYMbd18dXQkJD1MXhzTff1PxFihbRPgLCZy4j6MGq7Lnnn9PZ344dO2mcg0uXQnVW9/XX39D08MMPq3XAetMX47tgoemTEUugffv28uKLL8mTT/ZUKz+4CUCJAZN7HAN1r1mjpmTxy6IWDF26dJEqVaskCrUQfOFqceFCkArqEPqbt2ihVluYbX7hhRfkhedf0Hr9PORnXaIP5aJ/w+x69uzZtK6vvPKKnh9m2bHc4MyZs1SpkRLoI2EdAbcHWDL06dNHevTsIU8//bTUqVNX9u7doy4GFlDURERGqPKgT98+eqyXX/6fWkbAfWD69Olq1YFjwo0ACobWRhh/9bVX5Zlnn5EXXnxB2/hSyCX5deSvcubsmcQ+GoI2UnK4ubnrsXFc3DdQsBQqVEivG7YlB66RO4L6mVdYZDz44IPy+huv6zlifIV7ZdGiRRrsEuOqdevWyhRzX2GWf8CAAfJUr17S75l+8u5770rpMqVlydIlel8VKVxEunTuLCVLlNT7tIO59k2bNtFZdyinVqxYLhUrVlCrBHz/+eef1/c4BpQRaBNCCElP0HLgLoPZEJg41qpV66pUu3YtHQjBFQMDB3QoMOlDfoCZAnS615sFIAaM2cyAy9XFVWJj48wA6j8qBwhJK5IK/o7PRrayCxEOQYKQewGYZONP30OYNvcvYsFgVrZAgfzy2GOPSfPmzbU/xGuDhg10xhum9xAES5YsafIVEE/PTJLbCHL4TkxMtBHmdqrwWbduPZ1VL1WqlKYHH2qlgiMEXsxEI5I9hE3M6GL293kjXHd9rKvOBvv7++sxkEqVLq0CMSwTSpYqacqto1YIEOJbtsLscX1N6KdhBo+ZX9UNmPNp1qy5vPjii2oKX6RIYRV0IbRriouX8+fO6bbAwEA1J/dw99CZ7qJFi0pAzgD9jUNhEnY5TMvbt3evHDh4UK0H27SxzzoXLlxYFRsPPvSgtsmOnTvkxImTEhUZrW3r6+srDRs2lJ49e5pxRG1zPqWkXdt2Rsj114B9UDykBITuhx9uawT8l3VmPyAgQCcjYNEQFxurs+4nneIJ4HoWKlhIrR8bN26s7gxop4dM3WABAuXOmdNntP0xWw5lTosWzaVuvbqat2KlipoXddy3f58cO3pMrzlAzAWNu5AMUPKgT8d1y5c3n2TJnEXdPNBOKbpN4BqZhHsA7Q1BvV79etqeTRo3kdy582jcBJwrlC47d+4070PUNaWtaRN8p0TJEuoGU7NmTV1JCoEQUV7ZcmUlew67ewCsO3LmyqnttmvXLlWG4TrAWgR1hCIDionq1aurwgguFpzkIYSkJ6gcuEeAKWOHDu21g7K4dPlSsoF/MBCBSaDzTDmWNoKvIrTUe/bs1cEU9l+DGZBAiEYnCX+7Xbt2y14zQEGnjQBK8Oe8ETgmykYdUBdnMDCBQuPA/gPaKWLwgFkKFXhuEpSPzvTggYPqX7l58xY1VdSyLpmyrJUcnLAPRrE9+QNh4HbmzFkdwCBAllVeeFi4du6EpDnJ3XYqhJgd1j7emuQeAs9hCOAQKi0rAlCkcFHJb4R9y8ceJuKWL/b1uHgxWIXzbNmyq7BugXIthQIU6piBP2ae5wB1wKxu9erVroo3AyWFu4eHKSur+Af4O2RJF/HwyKRKDPTBEEJ1hwFm9L6+me3CNroX0+9ASK5YsaJs3LhJzc6HDx8uv/46Uk36bwarXVBHLAGJvijc9HWVKlZSIdYZKDiKFS2mCgb01dHRUbod54ZxAmbSUS+UhTJhWYH4A8n2+w4w8434CrXr1NaYA7+O+lVdKoYPG65WD8mBWARQ2uDaWcoQHAvCL4Itwqphv+lXw8LDpESJ4irMW88tCPi41mgz1NWKqXANyO9o90SSfr4JoHjBLYf6QTmB+iJBwM9kzt1SRiB4IAR3uLdAgQDcPNzsYwtzXCgAYGGCMRFcQJKCY8B1BvcnxkFwCRk7dqyMHDHS3A+jZOLEiXpcAHeWS5cuJ7YJIYTcbagcuIcoVKiwZM2a1fEJJoDxqsl3Jjw8QtfKhTnbwoULNUoyOtsDB/arvyP8E3/++WfNA822BToqCNa7jFAMdwUsnzjKdGKDB/9k8g+RUaNGyd/j/5a58+Zq9OXrmSYeMEL7/PkLtA4IiITjo+xNZsD077//ypgxY3TAgWUafxv9m5ruYV1nKCSuBwYd8EmELyJMFDHw+m7Qd/Ltt9+qnyR8PadPmy4bNm7Qzt0aeCqmQ8fgLymYpTh48KC2FXxC4R+IsgYP/ll+/32Mni+UGFFm4IUBYmIRGJjcxuCEkFsC91uS21YVXbz3yD2IXTmAGeGrhx56T98GUBIHBwcbAdNXZ40BHvsqZDsCzaHsyMiIxNlZCIIQDpPDyxMCv6/9A6pkyoJ1AJTHKMe5nvb+BAFv7QIlgiDOnPmvfPDB+/L222+pcmD27Dm68oK1Rr1+P4VTRZ3xT4VG5DHpxMkT2n9CUQAlwFWY/R6ZMulsf0S4XYmtyxc642gLEB8Xd027O4PvR0VFqisAAgLCRQM+8StWrJCgixd1vf2kqOWHvcH13FB3KB/Qxpglx+x60MUgnYFH7AEofHzNtdLv4J95dXWzKwigKICLwpUJBXv7pjZY2QL1w7HVrcVgXRtcHlxXBBaExUomz0ySK1cuPT+A9sN3MQ5DnTFZEhISYt/phM20A1Z7CA65qMoRHbNMnSaTp0yRKSbN/HemXAy6qMorWBLAEiK58QkhhNwNqBy4h4AvIbTQFr6+9mBGzsAyAH6J8Hns0aOnCrzbjTD//Xffa5Rh+B7+/PNgWbRwkZrPAXToEPYXLFgon3zysUZ3ful/L8knn36iQjwUBB+b7TCXhO/hW2+9qYGYsORUckyYMF66dXtc64DozLt27pK5c+aqHyki/L7zzjsy6LtB8t3338mHAz6UZ57pp76K8BuFwkIHDknAgAMzRPCHhMkjzD4HfjtQxowdI3/99acGDoJf4LPPPauRuBEV+0YuFxh0bd++QwYN+k4ee/wxeeON1+VbU+aw4cPMeQ/VtsCxvvnmG9myaYtEhEXYZw6sMQv7cpKWmPsNQgqCriX3GyEkvQMBzBWCGBL+II0ZILDdDvAhz2QE58jIKJ3pxe/CZgTWOCNgQujEkoSY2YdQmjfv9aP0279rTxZYzAlB+gDqa6GPf9MXIKlAafLhOFgNYPv27TrbjFUWrKBzr7zSX4VKFc5T+umaghAwD0Ki1S5QCOC4cDNIOhEAwfaS6cMhTMM1AbP+15SNYkzCsaG80E3Oba0nYk94rkBR/uxzz2jkfayq9MH7H8iQn4fIcNMndu/eQ79igXIwdoBArzPyjr4RQn6UuR4wzcf5FixYSBUsyA+lPQRv5MV3UXcI2Lh2+JwnT14jkHtqnTHWQdvjGmgyxwhNsjTlrYL7DveFtrMpU6+1o430GI5rCqsMKIlgObh7zx77lw34LoDFJiYq0O4FCxTUbc7gXCDwYzUGKK0Q1+B7M94ZNOhb+e677+THn36Ud959V/qb+wIuFlmyZL7qviOEkLsJlQP3CBCOV69elSjworPHgCd//vz6OTnQ2WD9XnREEHhhUgjQSTsPEDCjguWFEEgIEaNDQoJ1UALfzMyZs6iGHFGV0dkh6vKcOXPkww8/kK+//voqZUVyQGv+17i/pNsT3dRMEes5w5QTJojogDF4wOw9okljMIWZlqRmjzgPKCJglvfyKy9rACqAwRDqiE4c5aF+GKDBKgIzH19/9XXiwC45MKODYI9Dhw5R7b9VHuqHslCP42YQAAXL+x+8L4cOH9bzxQAicVBFSBqBASeUZ5iJ0xkv3n/kHgP9Dp75Vv8DIU0lM/13pU+6WeBznj9/ASNgRhnB9oD2JRA4UTzW+j9gtsEiDc9zFcyvA/oZ/MYShTRThrPSAkK7808O73EeXp5e+nvctnWbms5Xq1ZNnn/uecfShOUkc5YsEhx8UU3sERQQfYizIJioZDDvkVAHC/iqZ8ueTf3fjxw9ouv524VlKAYuybr16/Vc4eOOIq/MuifhymlcjXVQk1A39K04fv169eWll17SmAyIAYF+dc+e3foVC5wD/jAhcT7ovMQlxNmFZ1MWFAMb1m9QpQAC+uXOlVv7e7gBwk/fqicUCeER4eqbj/63YIECksmMPTD+wOQF4hVER0aZOtmXIsYqEiktA416p3j+iVgnfAXrvjCtaq6jPagjXFEwqw+FzOHDh7RcVWiY6xwRHimHDh6SM+fOik9mX8lh7sHkqFChvOTKnUuvdxY/P43FgDgadevV0eDSCGYIqwxM+tzo3iSEkLSET6R7hM2bNqsZPXzhAfz8EIBJTd5S4PKlS7pu84QJEx1bTLdoRhIQ9GGOaB+YiXZQWGrHipqLDh3+m2+8/oZaDvw8+Gd59bXXpGbNWok+obA0QBTldWvXXbdDxowA1uy1BH5EaO7+RHcdPD304EO6HrIFFA9ffvGFXaDH2MkxfkIHjWNhht8y4YNyBNGTEW0a6wP/738vS7Wq1XQAAjAgnDxlslosJFU2WBw+cljmz5+nHXNWv6watOk5U6/evftIPdO2/v4BkskD7eSi/oOTJ/8jmbyg0HAMLq4eYxByR8F9CnNo/OZx/xNyT6FymYvOpiLhM4RvCLe3oxgAEOAQvPf0mdMy2rHcH2bAYcaPaPLrjfCMYIJYex5+8dcDQqGzYK44Vcsuz18R6i3UlD+F6qMfmmL6rh9++MGx5VrOnT+nCVjqB1WemLeNmzRWBciq1atUuY6AhrGmf8RKAHDbCzLlI/p/0aLFJGtWPz3vlHBWSCQH+v3y5cqLVyavq65HUNBFWbJkqSxevMSxxQ6EZYBxw5DBQ0yeJXp8+OBjOUjMuD/Y8kEpWaKEBjcMzBeoSxBivIFJDgjaJ0+d1FUKoDDAMn9FihUxAreP5MmbV5X+CFK4afMmtURArKQfMJYw1zc54F6C/NcDZ6X3nP2jgrbWLeZ0MFZAOxUrXkyVPJjcmDh+oioDMA5BWrBgvq4WlTd3HqlapYr4+WVxlOSEKQsTN6VKlpLjJ47L9BnTdPlEAEXL7NmzdDlqtBkUWlBeEUJIeoHKgTQGHQ9mzy0weBnz+xgZOmRosmnwT4PliW5PqAYfHRK00IgO3KF9Bw1+dL1BlTVTERcXq8F3MHhCED/MQsC0PzDQvvIB4gIgoW4YiHTr1k0mTJxgBO7/Sbt2baVjp47yyisvy5AhQ3R5JgRmQl7EEYCZf0rCN0A+dL4IpoSgRnAD+PyLz+Xtd95WawZYH2B2BKCcQ4cPyfp167UTxnfNP41VsGzZMp19AbCYeOvNt2SsKQuzG0/1ekpdAkaZzhbmewDfxcwDrBZSsm5AHlhFtG/XXtc2/vGnn1TZ8K5pG5iC9uvb1whiOTXeAPwPly9fIZERkWYA6RhkOV4ISUtUcMDPPuWfPiHpEty64RERdpc0894y076egH098FuoYgS03k/3VlPvDp066JJ6dWrXlb69+xqBco906txJFb/6u7kOsBpDQr9w06Daplwo7rCCQIniJXR2HCsFYEk9RKWH5R6U1nExcbo+Pvo8KMKh2MCsOhTf6M/g6w+cj49y+/Xtp8oNTA5gNYa2bdtK48ZN5Isvv5DA/IHSv/8r4m/KUW61T0KTOBJiCuQLDFQlwdLlS6Wt6fuhLIDyZciQn1VxgnpD6Q6rPGtVAdR348aNWs8ypctIy5Yt5ffffzfnlt1ci77im8VXPL091XqwTJkyMvq30fJo10fV7RCR/0eMGKEKnO49uqsvP5QGWD2gUqXKstgIz1j5oZapw6NdH9GxDCz7nGfaEcgSCdaHWCLw66+/cexJHpwf4iGoSsBcO50kMeePbbDS8PTy1HxYbQGuFJhEeKDZA1rXB1s9qO6RJ0+flIdaPyT16tXX88e4qWnTpmoF0K59Ox2XYEIBy0liQmTevHm6pGWXzl2k66Nd1W0TeZGvcJHC9mtACCHpBLcBHw4Y4Hh/x0GHAW1shQoVHFsyHphJRztYoLPdvmO7zgrAHN5KK1au0LRy1UrdD189mNN5enhK165d5eneT6t2293NzYwHYJJoehfzD1p+DDac/e0xSPn888+lWbNmusxP1mxZ1QIAJn1g1uxZietA49pgph9ab3TCGNQg4X327DkEaz1j8AP/f3SyGAw0b9H8Ks03BHmcDwR8gOWQ4LuIgU3efPYZARwfr5jNgeUBAgJi8IFOH4MfrB2M48bGxmgAw0kTJ6mQDmEeA4f3339fl4NCOaiHvX7ZtZOGAI+1iqFswGwC1rxGWXCfwJrXWH0BYGDWunVrtTyAJUZmUx+U420GiFh/GuVh3WVo/FFHHKf3009rRGu1HsigHToGOqBFixb6StIADh5JKoC+AcrdlNaCv6OYezgsLFzNxxHJvk7t2ipYoW/DMm+61FsWP0dme4wd9Gs1a9Uy+6rrNvwM8uTOo+vIIyI/LGgQnR9L4UEwR+R3KN/Rl2C5OTz70Z/kzZtPPEwfBVcDCLWIjo9Zeed+C/0Djo+6la9Q3r7RCNuYtcZ2lAeBHv0W6nExKEgt6KCcaPpAU7WGqFCxggqcUEwjpg2E4d69e2scHyj10X9Vr15DTc7xGX06hNJixYrp8os4J/RpsILDUsY4P/TFZcuW1aUOY0z90a9CiMZyhXCLg1IC/RsULGhP9GWoK16diY6K0TbG964JyGhOCEKyj4+3jhMS4hI0RgECIaKtINh27tzZ1DWruX7uUrFSJVVYYJyBfr1xo8YaKwD1w3Gx9B9WPYAZPfpNXEdE+IfA7eGeyR5byBwW/TWWTkTww+rmGkM5g/OAdZS/fw79jDEB3AxQd+TLljWbHrtOndraDuin4fvv4+OrCgnUF/uvwZwjVmLKar5frWpVex7HeUNvFBocqtcE7Y5XnGupUiV1YgNjD7g4wJoQqy288Pzz8sgjj0g+M57BNcI5otwjRw7r76tBg4ZaPs4Zio38gfnNmOmMYNUM3H+lS5bWyRYs/4j6W6skYIUJTJZgMuduAWsJKGwQuwnnRQjJeLjY4MCWRmDN/r59++p6xhkVmJFBw3wjLPPCpGD5JAjknbt0Vp9GBLvBFbQmRfbt228GIt00Oi6AWRtm07GmLwY1Wqwjr3UI+PJDaAYYhHzw4Qf6PjmQDwMS+CaiY4ZVwzcDv1Gh2gLC9qBBg9QFAB0fLBywogA68ORmb7CCwfOms4X5HVweMCvRrXs3LR9moh99/JGuToABRrESxeTzz76Q9u3bJVsWAgj9PuZ3eeGFF/QzBmOwCkCni0EoAh9aMzQlS5TUwSO0+Fa7WL8GRBtGvAEETfzhh+/12BgkzJ07zzEozbhGNwh4CQYOHKivhJB7Awip8H3GwD/NMc9XKMPPnT2vQmjBQgUl3gihWEkH/UeevHm0f7NQn/MzZ7TfsmLrIMBgiNmOfgUrFFhAeYuysbIMBGQkKH+hQEYfAAEQCl0I7CdPnFSBEzO2zjPQcAFAsLzMWTJrXQBM52Ehh8jy2A7FOgRx9BcISHfs+DGtX/ESxfVc4BuPGWP0NXCPQx3Q90BwPXfurJYDId+KUI/lctFPokzkhaID5wzFPWbDrfpFhEeo6wEENwiXEEjRBlBWAGsMgHPAikUwdcd+C8QowHnD6i137lxX9dfJsXfPXgkOCdZ2RT8MH/xM5tqcPHlC64tJBiTEQbCWd0TdcH1QNiYEsmfLrkp2Z6DwwTkjL4CiCOMCtJH25+afNS6BYh8We7gPoOjH+WA8c/TYMT1XuCR6edvPA9cI7QbFCRQOuO7XYL6Dsi4GBev38pr6a7thn2nmUydPqSIIy1jinFEPKG9QV7hO4LxxrXHdMAbA9bLqikJwbFhlAlzfgICcps08dB/O4/DhIzpxgbEDFEKVKlfS66gkmLpdClUFFRQiztcurdm3b58qYmCJg/uREJLxoHIgjUmqHICGGgI+OgQLXBBVDmCQgz/zCneAo8eOqok8ZiignYdyACsQOK9/nFQ5gFmT9957T2dDFBSuvaHBceUxwIFWHKAzx2xHUoLNoAkBnyZMmCB//PGHdsQ3oxyABhxWAzApTAkI3Ag0uHfPHlUOwCoApqEYiCEWApYrhDICAyXMeP0z+R8dACSS5A5G52bNbmPwgRkPdLbooJ2VA5jtgGmmro+dpF3wswg19R/03Xfy6WefmF32mQ8oKTA7lNipZ0CoHCDk3uRuKwcU63mNz0me3fcs5lyw0m0y+ur7Fo3PYM4XfWNyivrbIsk9oW91iIpj4MOV3bd8ROsLzgU4HSu1QbUTD2HeOB9O35sMqdZuqQiVA4SQjDv9mU6oVr2azuz3f7V/YnrVDNxefcW8N69Y6uaVl19Rgax7t+6qEYc2H7MTWK4PgX+uB8wpr2uiZvomCL01a9VUU0EoKZYuWapr8cLvHv6RX3zxhXz11Zcy8JuBMm3qNLu/6E3i7WWfIboe0KQj8B/qEm+L15kR7TjNH5QWmEHAZ18fXylcuEiKWnXkQSpZqqRaDjz//AvSr18/VSQ4zxBZ+GX103O/BlMPdNpwL/D2vjo4k/NbQgghNwkkI2dhzPn9vY45l4ykGEA/iD5VV00x7/VSpsb1THp/mKT9egJWkTCfzbHQztrWSLeCo7xEnN/fARLr6FTPqz867SCEkHQElQN3mcKFCkvtOrWlUaNGV1LjRuqLZiVYGsBC4PXXX5fOnTqrggBa+0OHDsm/M/5Vc8GU8PX1sZvIJcWpl4KpJXz0sYzh0KFDZeC3A+XLL79Uc35YHbz77ruqJECQwv0H9tu/lIpgkAF/UAjhGAhoAEFTNwSrCr10ScLCw/V8fTP7SmC+fCl26jqIcOzUd5jKuQ4wD7RWX0iK1TxXKQYIIYSQjA66WatrxHvte1OZxK7XjAvM/+jf70USlRlAT8QkbMPoO/EcCSEk/UDlQHpFOxR7FGQkmLGXKFlCrQxgWg9hGT6NCJi3du1ax5dujNU3wZcSnS18EXfv2q0rIyDiP5QA/878V9atX6d+dvDNg/8c3Biw3jH85LB2b2qCc4l1WvEAQrua25mKIoAU/A3xGS4CqI9Gtk48Ef2KAkHeWZhXZYHT/qQg2M41gZkIIYQQckMwLrGbxl/pd1MTFK3jIJP0MBZJ+v50TUp1vZfOgRCSoaBy4B6jdOnSGpzJ0qJHR0VftTLBjbALzPYUHxcv586ek7/H/y3jJ4zXyMsQzP1zBEjJEqWkcqXK0rxZc11K6KUXX5JvB34rHw34WOrXq+8o7Q6SpNPEAMHL00uDS+n6ylbH6kjaHjqAMCMIvDV/iM2g8xnIQwghhJBUw1LGo9u9SnhPRexl40h36AB3A45JCCHpGCoH7jEwy26ts28pCG4FRGzW5OYq7pncdWmruXPnarRfWCggKvHTTz+lgQBXrVwl48aN05gDzz73rDRq2EiXF0Id7gQ4n6QDAHd3N12uEccMiwjTIIe6NjbuXKcEawKY6aGMqKhouXgxWIKCgyQ4+KIuyUQIIYTcNZKTbdGFW+leA3VOK3kdx0G6V9vKwjoPQghJx0C0IvcQJ0+e0iWbbht0rJDtzSssBxDYEJYHMN2HRQLWM/7s88+lVOmS4untKZk8MyUmCOUQzhH13yLRxP8OdXjlypaTAgUK6Hss54S1ghPizQFxTKdzsYASYemSJdKiRXMpWqSoLle4Z88eexwDQgghhBBCCCHJQuVAegXyr2U+79A2Q/DdsmWzHDECvUUO/xzSoGFDx6ebBPK8KRuWAhD0sRoAgNUA4hlgpl5n8HFs52RA3tOnT9s/GLSOd0gxANSc0GGviDWKt23bKju2b9f6YNWGyKjIqywZsPzO8hXLNcAi1gyG0gPnBXcJQggh5LZw6gthtAcLvptJzhZ+cHNDP7Zzx04JDQlVqzbE/cHSuZrvSlZCCCHkrkDlQHrFyMM6K2/+xcXEaWC+xYsWy8gRI2Xzls2aBUv6VapYSUqWLKmfbwXLhw8CtiVcR0VFSfBFu6IgOdatXSdzZs9JjHGAwYx+19RRlQR3gAYNGkjZsmX1Pep65MhRGTN2jH6GNUCmTJn0vTUA27lzpyxZskSDNWJf5cqVNfCgpWAghBBCbhl0IY6E7iTRRe8Gyep7oFj/6suv5MGHHpTHuz0uc+fNVUVBou4glbtQKMcPHzosx48fd2whhBBCbgyVA3eZ3bt3y+xZs2XK5CnXJMQD+Pvvv3VZwaefflre++A9nRW/fPmyfhdr9D/wwAO6Fv8tYx+vSIB/gGTJkkXfY2lExBo4deqKZQA4e/acTJo0SQZ9N0gWLlyogreF5c+PbZgBSW2y58guDRs0lKpVqupnxBBAHT/59FNdglEVKAYEVpwwfoKMGDFCrQaAn5+fdOnchVYDhBBC7hpQXgcFBckvI36RzZs2q8K7cOHC4uWFvhtagetoBm6wOzkwRoAi/40335CpU6c6tt4CqaGouJUyUuN4hBBCUgUqB+4ymzZt0gHDwIEDr07fDpRvv/1Wvhv0nfw66leZOHGiztxjpgEzEeXLl5fuT3SXRo0bOUq6PWrXri2lSpXS9whKuHjJYnn33XdUITFq1Chd2vC9997TusybN0/CwsMSl/+DpcHKVavkm6+/kVXmFTMVltIhNWnYqKE83Lat5MqVW60Fjh49KiNHjpTX33hdPv/sc3nnnXfk7bffkUGmrWA1gPPw9vbWNnr44YepHCCEEHLXgGVdZESk9l2IhYPYPrD4g1UbOs1E64FUIiY6RuMJLVu2TJX+t8oNq3MH+nlCCCHpAyoH7jJnz52VzZs3y+o1q69Ka9as0bR+w3odUERFR+nsg7+/vzR7oJk8++yz0uWRLhIYGOgo6fao36C+tGndRooUKaKfz507J3/88Yf8+OOP8v333+vr2LFjZO3aterG8Oijj6rADWAtsGvnThkyZIjMnTNXgxUCxDJAArqU4H8EgRI7dOhgjv2I5MyZS+MIHD9+TEb9OkoG/zRYfv75Z1PHsbJ+vV15ksvkad26tbZRocKFEutCCCGEpCUIpLtv3z7tQ6HYh+L6wvkLGlgYym54HQQFXTD9/hr5Z/Jk0//+KRMmTJCNGzdKRESEWuSh77cS4gTBgu/PP/+U0aNGq4XhunXr1G0Bbn6wGti7b6/s279P++gjR46oYv/ChQty4MABfb971261vLPAksgHDx6URQsXaT7U6/Sp06r0hyXeoUOHVfE+Y8YMdSu0lBn79+2XpUuXqWXhX3+Nkzlz5mg5qKczKBPHRZ2RcH7WhIJzzCBCCCF3H7cBHw4Y4Hh/x/n999+lWrVqUqFCBceWjAdMCzdt3CT58ua7bsqbN68m63OZMmV0lh9uBPBXbNWqleTKlctR6hViY+Nky+YtKhDnyZNH6terr0EGr8JJ6581a1YJCAgQN3c3HSygU8fMOzptKAowmIH7Anz3O3bsKE/2fFJKm7og8B+EdCQMQKpUriK1atfS8o4eOaoDGJhMlixVStq1a6dKjZQ4c/qMGazsksy+mSUwf6DWuWLFig6TSzu5c+eWQoXsgj5iCWDQhBQeHq4DGT+/LFIgfwH9Hnw6e/boqW3kDAYh27dvV4sHtE316tW1PRNJMhuCGAcHDh5Qn03kL1q0qLRv30GVJBk5hgEGeaBFixb6Sgi5N4AgiX7lmj6B3DEuGMF/+fLl6ioIJQFWCTpx8oT2q1B8Q3CePXu2/PHnH7qsMJQCCxcs1Jl/9DPo59EXIkbQoYOHtJw///pT82zbtk02bd4kO3ftlMuXLkuu3LlUOYBnNNwKzpw5I2GXw+T8+fNStWpV2bptq47D0LfBrQGudwCKCrg3jhkzRvtQ9Ne7du/SiYLt23foij//TP5HNqxfLyVLlpLAfPlkvXmPevz777+ydOlSWWbSxk0b5WLQRS03X2A+tZgICQ6RP//4U0aNHi0rV64wdd4u69aulZ07d+lSxWgHnJ+l/AAZuX+922CMCvfM/v37OyxbCCEZDRfz8P7vU7s3SZMmTaRv377y2GOPObZkPCBwI7DgrVLAdKAVKpRPjA9wPebPny9nz9iXGyxTtowqZBLB1bb6Xaf3J0+clLXr1uoMxJYtW+wbDbBMwKCiZo2aKuhnzeqnAvmOHTtlzpzZOhMBevbsKbVq1ZLMmTOrGeO2rdt0hiGPGYh26tRR86QELCPWrF6j77FcIpYfLF2mdLIdE44N5QcGKnv37tVBDsByh2XKlJUaRuCvULFCoutDUlasWCFHDh/R94WLFJb69evr+6vaBZjP0dHRGuBw2/ZtuilL5izSsmVL8c3sm6EHL6+99pq+wv2FEHLv8MQTT+jzHAN/kjagz1+2bLlMnTJFxk8Yb/qm7HoNnnvuWe2b58yZqy585y+ckwrlK6jCAIL51q1bVeEN1766detqXwfh/ccffhQPDw+pUq2K5A/MrwqAOXPnSiaz7ZtvvtHJF4wBxo8fL5s2bzZ5ArXfeuWVV3Q7nttQ7L7wwguJwX6hiPj6q69VQYHYPQ0bNVJB/qOPPlJLACgL0B+XK1dOnn66tyrKX3rpJdm4YYP2vcVLFNf+En3ypdBL0rxFc62Lj7ePKg+ef+F5yZEjhyrkc+fKLUeOHpH169ar0v/HwT+ZdqiqigQo8DEB4OKCpFUjaQwUWDVq1NAJoJsZbxJC7kOgHEir1LhRY9tff/6V7D6mNErxKbxPrYSXhARbTHSMLTI80hYfZw6SXL70lpK2hfkcHRltC7sUdlUKvxxuS4g3GZzzZrD0av9XNSW3j4mJKf2mbo93s3078Ntk9zGlfkow/UhsTJwtyvQlO3fstHl5etkaN2xsO37suMlgs61etdrWoX0HW8UKFW3ff/e9LTwsXL8XdjnM9mTPJ205/XPaPvnoE9uxI8dsBw8ctL315lu22rVq6zVEP4T8kRFRtnZt29n8svjZvv3mW9vZM+ds58+etw36dpAtZ85ctpdefMneDxt+Gf6LrVjRYrbnnn3etmvnrsR6Hjx40NavTz+br4+vbeaMmbbw8HDbgvkLbA3rN7QZAd/WuVNn/XzqxCmt24TxE2yZfTPbWjZvaduwboMtNjbWFh0dbZv8z2RbnVp1bBUqVLAtWbzE1C/CfLeL5v1+0Pembme1Hrt27ba9+cabtkY6JhyXWD8FdbJemdI87d2zV++lS6GXkt3PxMR0/6f04YydZrYL5KrZ8dTUzFvX0LwmxNm1/14+XmoJcE+QtC3M50yemdRKwDn5+PrQ5JEQQsgNQVcB03kkuOBhZtzHB32I6RdNX7lw0UJ1I4DbIJbtRcwcuPTB9eCpp57S2XZYux0/eVxX7mncuInO3OMV+eLi49SNAK5u7h7uunqQm+lzbS42dfczgzyJio5O7IfNsE+PCysDdzenQL1mW7wtQeMbREbZ4xvBbS8mNlZKlSylcYYeaPaA5A3MK8EhwTJs6DC1FOjVq5e6DyBvVFS0Wj40bdZU4x+sXLlKy0GMBfSZOI/de3ZrbCJYMzz//PPy1ZdfSvXq1ez1w9ghHtYDNlNvR70IIYSkOfeI5EbSPQ55GYMBdPRubm7a2RNCCCHE3j/GJyQY4dcu/cZGx6rSYO26dfLll1/JF198Ia+/9rp88OEHukLQyVMnNe5NaEioZM+WXZo0bSKVK1WSiRMmqHCNGEAlS5aQ8X+PTwwIDFxd7H0wFAU+Rji3+mIoE1RBkATd4tge7Qh+rAoMs6d8hfL2OFHYbZLNCPBw7/P18ZURI0dIv3795IluT8hLL7woAwYMkGlTp2l9ESDYw8Nd+vTpLVmzZZXJUydLu7bt5OE2D8v7778vK1eulGLFi6lLgmLGEK5uLpr00IQQQu4KfASTVAVBk/CXyLXjEEIIISTDYLc2u9IvWtZn8L1HTIKE+Hg5b14RTwdBBvGKAIOlS5WWmjVrqs8/ggoO/OYbad+hvYzW4H4rdfa/c6fO0qBhA8nql1XLBNoHJ9P3wpIAf0mx1+ZK/a7GlOYkrWPlJAQ2RGBf1BFWAkEXgmT//v2qyEBwwRrVa+gSybAgRLyi30b/Jm+8/oZu2717t8ZO6P9qf+nWrZts3rTZUbJIeFi4Wk1w3EAIIXcPKgdI6oLxRUpjDEIIISQD4ursjuZ4i4B8sAho3KixfP/D9/Lz0J9l2PBh8tPPP6nlwKeffaoz80WKFtEVARDcDy4Eb739lvz999/y6eefymuvvyaB+QLVUiCpy9tVVgLmLZQDyWK+ZtVPv+PIlpyVAVYLQkBCWCG89/57MnjwYPl5yBAZ/PNgGTpkqC6B/Pbbb8tTvZ7S70OpERiYX5566mkZ+etI+WvcX/LWW29LqVKlZdOmTfLryF8lIT5BEwItguSOSwghJG2gcoAQQgghJI0pVrSY5M6TWyKjIlW4h/k+VtspW6ashISGyO+/j5G1a9ZqXAG4GJw8eVIVBV26dNHI/yWKldCVebCiQER4hJZ5leVechi5G8srXrp8ST9iCeM9u/fI/AXz9fONBHNYBtSuXUdcXF3UlQGKiXJly0r58uXFx9dXVq1aLWPGjtXlFRGX4J133lE3gsiICJOvnDRq2EhXzXi4TRuJjrKvCIRYDHCvQMwFvN7wHAghhNwxqBwghBBCCLmDJBfItkrVKjoLjyWEhwwZInPmzJGNGzbqUr2wHJg1a5Z+DwI5lAA5sueQ06dOy7y58zQf8sPPf+++fTqTf/TIUTl77qwGzoWfP2IDbN68WRYsWCCxsbFSslRJDayLpYMRG2D2rNkyceJEtUI4fOSwvVLQDVxHP+Dr6ysPPPCAuLu7y7Bhw2XipEmyes0aDTj499/jZMyY32XHju2S2Tez5g+PiJDFixfJ6N9Gy7Jly+TIkSOaoOjw8vaWEiVKqPsBlmrE8odYcnHDxg36XUIIIWkPlQOEEEIIIWkMfPA7d+4sJUuWlEWLFsmgbwcZAXmg/PjDj7Jt6zadXW/cuLG6HmDWvWatmnLu7Dn58acfZdCgQeqKsHr1aqlbp4745/CXpcuWyrq161TQzpcvn7otbN++XU3/T506pWXUq1tPrQbGjx8v3w76VkaPGi0HDxyUalWra50wi59cXAILLy9vqV+/njzV62kJunBB4wd89913muD2kDlzZrVsgOIDLghY0aBAgQIyZ/YcdTn4+puvVfGxdMlSqVihgjzatataIcBiYcrUKTJs2DCNX0AIIeTu4DbgwwEDHO/vOL+P+V2qVatmj3xrYfVBtCIj5J5g3rx5+tqiRQt9JYTcG0yePFny5s0rdYwwSdIWLC0IV4HatWtpkEEs8efp6SlFihSRQoUK6ew53AcuG8E9ICBAlw7s26+vzvbDFz9r1qwadBCrAUGQhjtAlixZpEOHDtKxY0fdjgCFZcuVVWUDrA1wDOSBQI+lEqEsQNmIW+Dl6aWz/1iKsEnjJtL0gaaSDSsiNGks+fPnV0sDULZsOTNmK6/HB6inn5+fVK5c2ZSdWQMThoQEa51Kly4tXTp3kY6dOkquXLk0kCHODXiZc42IipRLoXBnsEmJ4iU0uOKDD7YSNyz1GBsne/fulaNHj5ptD149TiRpRlBQkIwYMUL69++v9ychJOPhYku4w5FfrNJdxXQ6TaRvn77y2OOP2beZfehQ1L+MygFC7glee+01/e0OHDiQv1tC7iHg6121alUd+JO0A+MczMjrEr8pEBERobP7F4ODJV++vJI7V26dUbfA8oQgLCxMTp85LWGXwzQPhHsI7LAowEoCsDLI4pdF80IhcfHiRT02hHXg5moPXIh4AbAgwJKE/gH+uu92OHPmjJw4ccKcm7sqFXLmDLDvMFVPiLdJfFycEf7dVegMDr6oSgAoJeD2kDNXTv3skclDIiMi1U3ip59+kpdfflnatWtnL4ekKfv27ZMaNWroNYViiRCS8bizbgUQ/hO1A/bODZ2ktUkX1Ukpei4hJN2hJqfmN4xf7fVMTwkhhNw8Pj4+Urx4calZs4YK2RCYIURbycIvq59aBlSqVEnyF8ivigGQK3cuKViwYKJiAMJ5Js9MkidvHocCwc0+BjO7kLJlz6b5/4tiAOTJk0eDI1apUvmKYsABVkCAggPhFrCvWLFiaglRomQJDcQIJQXqb391k6lTp0mtWrWlRImSjhIIIYSkNXdMOQAdAIwSIExYxgkwUcJyNZa5msKZR0LuGTC7g2jS7u5u5qfrQgUBIYSkJpb0niRBiFZFgHmPZ6+zwiBZkn7fIYi7OoT1Ow6Oa4Dgjz8AywnUG9us/ZZyw8PDXV0unn32GSlbtoxuI4QQkvbcWcuBJBQpXERNy86ePauftctwcbUrDxwdBSEk/XLy1CkJCMgppUqW0ujYWIqKEEIISQ64MaQExoDqLmHGf8j3zDPPqDUDIYSQu0eaKgeKFisqBw8d1Ei0sCDQeAOmBtBkq2IZCgIqCQhJP+B3aZ/0UbZt2ypRUZFqEooZIA1YxN8tIYRcB/tEyF0lybM8TbCOeb3jWvvMq+ViQAgh5O5xx3sr5w6xXv16GnBn7569Eh8Xry4HiqPz0KA9DhcEQkgqYwnxt5IsHJ83bdqkSgEswYXfL1wMCCGEEEIIIfc+d0w5AOWvpQG2XrHGbu1atXWpmrXr1ib6mlmo/GFLMEKHeecsmBBC/jsOJdwtJQvzftzf4+T8+fO6VBYCZuF3fT2TUUIIIebxaZ6fnBEnhBByL3BHLQesDtHqErEsSsuWLTV67cyZs2T79u2OPXbsnac9N3UDhNxFrvwUlcVLFsu8efN0beu6deuKl7eX/l6xtnbSvIQQQq6Gj0hCCCH3AndUOQASO0SHtF+iVElp2LChxMREy6RJk2Tjho2O+AMmr8kMYcOuVLDnJ4TcHeDmExkZKYsXLZZxf42TAgUKStOmTaVA/gLU3hFCyK1wn4xp0CcsXbpME96D3bv3yJIlS+XggYP6+VaIiIiQJYuXaML76wE3tkWmP5o/f74EBwfrNqzLj8/WZBPKmD9/ganf0sT6EUIIuXnuuHIg6ayiZ6ZMqhxo0aKFLmm4cMFCXdt2melojh8/LuHhYY7lDx0J75mYmP5TgqB/s0RFRcnhQ4dl0cJF8ufYP2XatGmSM2dO6dSpkxQtWsyRixBCSEYDQvl33w2SYcOGSUhIiG5buHCBDDefV69erZ9vBZQ3yJQ3ceJECQsLc2xNHowZhw4ZYo49XONXgdWr18jw4b/IokWL9DPK++GHH2TEiBESGhqq2y5cCJJt27bJnj17bqiAIISQjI6LLY0jAMbHx6s5ckxMjBw+fFiWLFkiK1eukoAAfylZoqT4BwSIr6/PNfEICCG3j7oA3OA3ZTN/bm7uEh0VJfv3H5BNGzdKcEiwWgs89fRTki1rtisWA7TsIeSe44knnpCqVatK//79HVvIfYfziO4OPKcRMwqK4hzZc8io0aM0/syLL74oM6bPkD59+8i7777ryHlz7Nu7T8pXKC8Pt3lYBv88WPLmzevYcy0Q7Nu1bSfuHu7y9ddfS4UKFeTLL7+U0aNHS5s2beTbb7/VSabHuj4m2XNkVwVGYGCgWhtMmTLFvM8n3bt3120keWCJUaNGDTlx4oS6AhNCMh5ppxxI0klhtYLYmFgJNw/7M2fOyH7zQJo7b54ucxhiBBJGQSckjXA8AaAc8Pb2lty580jBggWkePES0vbhh6VQkUJ2xUKaqhEJIalNRlUOYFICFlQeHh5qRRUdHa0WUn5+folKU+TBdsxOY5uXl5fmTw6MT5DPGTw7UwLHRtkWKNseY8k+G47y3NzcJFOmTLrtZkCZOAdn8H1XVzf7cMv8Zx3jVoiOjlG3T7STu7uHeHpm0rpZQEBfs2atvq9du5b4+PhcVzlwvfKwbc/ePVKxYkXT17SVwYMHi7+/v7YVVrry8vLU1XEs0E5wX4iPj1MBNkeOHNcoB8LDw2XFipV67VA/fH/UqFEyZMgQqVK5inz88cdSwPRvGH+ijXQ53iTgXoiLjdP4WLdyTe4HqBwghKSt5QD6KeejOd6nVAV0bLfetRFCruF6PyTnn5/JByWBeS7Ygw06k3ZPCkLIHSCjKgdOnz4tIcEhkr9AfhXGd+3cpUJQp86dJGvWrCqMIg+24dXX11dKly4tRYsWVaHfWchG3mPHjsnRo8ccW0SF3apVq6gwZSkbIKQiL/bh/a5du3U7qFy5kh7DXtZxXQUme/ZsejyU4SyMJweE5AsXLsjmzVscW+wUK1ZM8ucPVIEX1pk4LoTsrH5+OttuAeEXQj7KgaIC5whlw+XLl00b7JeDBw/q9zGLX6JEcX21hGh8F6b7OE+0HeqanHLgZspT5cCePVKxUkV5uE1b+fyLzyXS1OvAgYO6v0SJElLAXDPUD8dBfhwb1wPtBME/qXIA9YO7A+oH5Q8sExDf6u+//5ZChQvJ66+/IWXLlpEjh49oPXFsZ2UNvn/q5Cl1W4D1QcmSJXV7RoHKAUIIhADbXUuEkLQjud+glYB5TYhHsjbYbPFx2Oj4gFcmJqZ7NnV7vJvt24HfJrvvfk4jfhlhq1ypsq3ro11tffv0tXl6eNoK5i9oO3TwkO4f99c4W7069Ww+Xj42b09vm7eXty1fnny2D97/wBYVGXVVWZMmTrLVr1ff5uHukZh8vH1svZ/ubTt75mxivjdef8OWN09eW7MHmtnat2t/VX5ch59+/OmacmrXqm3bsX3nVcdLLm3euNlWo3qNq75rfX/K5Cm2mOgY27Sp02yFCxa2FS1SzLZ2zTpbXGxc4vf37d1ve6Jbd1u5suVsg38crNuMQGzr0qmLOXcfLcvdzV1fq1etbvtjzB9O391n88zkqWVb7ffC8y/YChUoZPv0k08T891MeQmmf9mxbYfNCPK24sWK28qWKWvLlzefLcA/wOaf3d9WIH8BW5/efc1xDmv+y5cu63FLlSxlW7d2nW774vMvbCVLlLT1f6W/fj6w/4Atp39OW5nSZWyHDx229ezR05Ytazabq4urzc3VzVaqRCnbo10e1eP5ZfGz/T1uvJaL7yLt2L5DryWOMfDrgYnbM0rau2evtsul0EvJ7mdiYrr/0/WdkAkh9z82VRIKDHgweQLLAbj9AFdXx4wZrQYIIfcomMXGTPCMGTNk6tSpUr9BfXnwoQd19v6rr76STz/9VC5evChdu3aVTz/7VF55+RUpUKCADB06VL744gvdB8aPH6/B7jATDr/7Mb+PkZdffll92BFQb8CAAXLo0CG1wMIxYRGwcuVK2b9vv3zw/gfy5ptv6gw4grx++OGHarL+yiuvSM+ePXUVmAMHDsiPpvzrPW+3bt2qAfxQhzat28jYsX/I33+PFyMEy9mzZ+WPP/7QYwbmC5TatWtLWNhlWbd2rc6IWyxZstiUs0Vn/vPkzavunG+88YYuV9uoUUPTJl/LkCFD5amnnpKw8DD5fcwYmTVrln7XDB0TXSHwPjluVN6YsWNk9qzZ2tcAtNXJEycFLghPPtlLTf+bNWum27dv3yZLly7RfECPHZvysZ3rB3BNGzRoqFYEJYqX0M/9+vWTp5/urW4ZixctuipIIWbOYc0QEBAglatUcWwlhJCMw91VDuDZntzz3drOxMSUeiklzEBWXXgcegBXF9dE01hCCLkfgMIzV65c8tabb8nPP/8sb7/9tgqFCxYskHNnz0nnLp3lrbfekq6PdpW+ffvKBx98oM9CRL2HmfqZ02dk5syZcuTIERUwP/vsM3mo9UPyv//9zwjoYzUwHxQPiKFkAeG2UqXK8vkXX0ifPn2kd+/e0r59e33eZsuWTXr06CEvvfSSvPfee/Lss88aAT4hMcJ+SgQFBcmuXbtUsP/6m6/lwQdbSfPmzeTxbt20Dgj0DJPwkqVK6rGwAgDqbQnL4OiRo3L+3HkN6Ne0aRN1uVi/bn2iD3/3J55Q5Ue/vv00z6lTJ+WYkxvFjUB7bdy4UQJyBiRb3smTJ+XosaP2fsehgIbyAi4Jffr0lkceeUQ++/wzbR+snPPvjH/V/eJ2qFevnjRs0EBy584tFSpWkI4dO0rNWjXlgQce0Ouzbv26q2I3IOAiElwfatas4dhKCCEZB0oAhJCrcSgLCCHkfiJPnjzS9bGuUqpUKSlUqJAKyefOnZPiJYpLzRo11WcfeWA1UKlyJWlghErM/kPY3rt3r0bCR54mTZpofADMRsNqAAH1qlSpooK4fUlm+PpjhRg3c5yCmj93ntwqcFavVl193FE24j/g+wULFtR4CDYjrJ45e0aXcU6J8uXLq8A9fPhwrQOsBWAVsX3bNrVwgBIAihBYRcBnv2yZsrJl6xbZs2ev+v1DyN63f58qF8qXKy/Zs2eXYsWLyffffy/Dfxku5cqV0zhQx48fk/UbNqggjzJjYmMcNbgxaKPvvvtOVwtIsTxTF4B2gjVFtWrVpH79etoWCEqIMurUqaPXBucHpcftAL95nCusNDL7Zhb/AH9tm7x580iD+g203A2mXpcuXVZrDCx5iOuD60mfe0JIRiR9KAdudoaTEHLnsX6D/C0SQu4TIBwG+AeogG4BIRmCPITofIH5NAirlZBft7m6ysEDB2Xnzp0SGhIqxYsX1+QMhFsI2giiBwEzODjEbHWRLJkz64x1liyZNR8EYWuFBCghIKQCmMJbClnUJyWTeZDZlAmBHjPzCAT4zjvv6oz76N9Ga6BElONiytdAhEYoxkw9rBHWr1+vM+TLli5V0/nyZntVI5Dby8wiRYsVlaVLlqqbw+uvvyYffPChDDfC/e7dVwIp3iwor0iRIrLUHOt65dkVKKiri14XnJuz1RosIcqUKaPKBLRLaoK2b9mqpbbJ8mXLzTW7KNu2bde2wXGrVKnqyEkIIRkLWg4QQggh5L4Gke29vL0cn+wg8j380zFD7OPt49h6LRD+Qy+FSlR0lJqiIzkDYd7y6Ye1gCsEdCPrI8o+ZqtvBlUOmH/XUwwAuBR8881AtRyAUItZbgjjcF/ImTOnKQJ/KE90lrzpAw8Y4TpeFi5YoAL24sWL1cIAqytA8MYMPnzsf/55iMZY2LRps64ykCtXTqlVu5ZaWNwKKG/v3j1aFtLmzSgvLMXyVJmhNb4WtEXStk4toByAawHui/Ub1qviZ69ph+CLwdouFStWcOQkhJCMBZUDhBBCCMlwYGYdwiHcASKjIh1b7UBpALcDCKcQuhGgDpYBp0+d1uQM8uzYuUOXJoQQjLX/IeJDuL2RsA9UMQD0S9ARJC8sw5d/+fLl8u+/M9TyAJYDsBpAzILnn3/+GosGxDWoV6+u5A8MlFWrVsmWLVtk+47tej5wN8DyiVAErFu3Tsb99Zfkyp1Ly0Tshffff9+U+YK6BdwK9vLWy1+mPBzHXt6b1y0PbXQh6MJVQRMB3AkQ3BDXKLVN/GEZAiUArEbgWrBm7RrZuGmjWo2ULVtW3T0IISQjQuUAIYQQQjIclStVVqEfpuSHDh6SmGi7H7z65h89pgJ19mzZJYtfFqlQvoK6JRw5ekT2mvwREXZlAkzeEcAOqwjA3B/J3cMdEq/62lsR+a+PzvXbrRLMd6wgfUlB/AO4DsD8vl7detKnbx8pXbqUKiROnjihs99JgVVB23btVPgeOXKkxk9AkL4yZcvo/sjISA2iCMVGrZq1pF27tlKzZk1TZi6dScfxbgWUd/r0aYmKjNLy2rZ1Km/v3mTLw3nDegFtCEUNQAwAXBcI7lDiwE3hvwKFD87TAkoH1A/bfh35q6xauUpXjShVspQjByGEZDyoHCCEEEJIhgNm7lWrVFUhdOasmbJmzRr1iV+3dp38M/kfiYiMkFYPttLZ5dp1ahtBvLQK17Nnz9YZfHwPs/Gjfh2l2x966CGpVKmSCu92q4GEm7QcwP82iYuP19nzlJQDOXL4S8GChTQPYiBs375dBe65c+epm8GevXvUAgJuA5cuXdLv+Pll0ej/vr6ZdTUFzOw3bNhQgzICDw+PRF9/uFmgPLTBihUr5Y8//9RjQAGCMi9eDNbvXA+UhxgLmIFHeWgjCP4oD9YEqLdVHvYDtBGsIr768itZtHCR5pk/f76sXr1GMnlkknLly0v+/Lc/kw/3DlgKnDx1Uq8XlCwAyoGmTZuqhQWsBs5fOC/Va1SXKlW5hCEhJONC5QAhhBBC7lsgsMLH3NvL27HlCo899piuVPDPP/9Ip86dpPVDrXWpQsyyw1rg1f6vqjUA6Ny5szzwQDNZvnyZdO/+hH5+8sknZeiwoRr4D8vkYYYcQBiFUIpjO4PPiBOAV+fgexCmvTw9xdMzk2PLtfj755AqVSpLyRIlZemypVK9enX7EoH9+ursP+qJ1QCmTpumsQUAXCEqV64klSpWVCEYioH8gfl1H0DARLge4HX+gvnSoX0HadO6jTzySBfZtnWr5oU1wPTp01W5gDr7+PjqOWCpRwAB3tN8hrBtL6+eBhhEeajfww8/LI8++ohs27ZVV4LATP2M6TNk2tRpWh6UE3CJ2LV7t/Tu01saNWwkz/TrJ6tXrZIGpr5wTbDAcX18fRLbDu2Ma4vzBKgT2h3bLHcNBF8sXqy4Kn8+eP8D+fOPP3U7YklYihKUC1cCKIKwWgIhhGRU3AZ8OGCA4z0hhBBC7lMmT56sQhuWiMtIQHCEcFinbh1dIs+ZgoUKSsMGDVXgRj5vH28pUrSIdOnSRUb+OlLy5M2jQi9AML3atesYAbK4RrnHDDiW4IOQ/ttvv6llgSWkembyVFN4LFeIpQKvYHcfqFu3rgqiEGTxGccoaurWuHETKWPKcVYcOIM61DXCfFBQkLpB4JgPtW4tX3z5hRHAu6qfPwRdnCf2AZRVqlRprU+rVg/qev8Qni2gVKheo4YEX7yoAnK+fPmkYaNG8umnn0pHI9xnz5ZNyyxQsKBaRgAsqdiwUUONrxAaekmPW8OUASEfSohq1aprefny5pO8efJK40aN5eNPPpYOHTpKtqxZtTwsW4jy3Fzd5JFHHlUT/8KFC0tkZISULFVS+vbtJ0899ZQuBwlBX2MTXLggrVu3MceqrueAckqWLKWuC1A8xMXHqWsC2qJSpYqqPIDCAtYWUA4hHxQOKNNi546dsnvPbuncuYupX4cMrRzAfTVixAjp379/4r1MCMlYuNjg4EYIIYSQ+5onnnhChVUM/DMS8DVHHAHMFEOYTAoERwj7SBDUIYhCqMSyg0mx8mI2He9hAYD8EIgTAwsaMDseGxOr8Qecj4l6REREqOAFBYIKveYvxuSNNNshyGcxx4VLAoTm5GITQimB5QlRFo6PZAn7KBv1wjGheLBAXtQJSggc21n5AKEb++FyYIF8Vpk4VxxTlSemTCsfggSiHBwTbYz9OO7tlGe1o1VPlIt9KA/XDaBcnDfyWtuRH2XhPcrD9YNLhWW5YV0T1BHXzboHkNcClg1LliyRwYMHS7du3RKVQRkRuIFAyQM3mdQOAkkIuTegcoAQQgjJAGRU5UB6B0IvRmKWHgCDMsi0zsoGkrpAQYGYBuvXrVOlQOEiheWzTz9Ta4iMDJUDhJDk7dYIIYQQcv/AaYB0C5YudHUx/7s6Et5TMXBHOX/+grzzzjvyyy+/qOVGu3btrnE5IYSQjAiVA4QQQgghdwvoAZx0AdQL3Hm8vb2kfv360qFjR/n444+lffv2kjNXTsdeQgjJuFA5QAghhBBCMgwIwvjSSy9q6tGjhwZSRJwCQgjJ6FA5QAghhBBCMgwIOojVEpAycgBCQghJCpUDhBBCCCGEEEJIBofKAUIIIYQQQ3xcfOKydxkNrJoQHh4u4WHhuhwiSR9gqUdriUpCCLnTUDlACCGEkLsDVlFIJyspYK3+EydPyIoVK2T9+vW6fv6dBOUjQShPD0D4XLlipaxatUouXbrk2EpuFdxHaEusgpA02OTtsHjRYlm7dp0EBwc7thBCyJ2DygFCCCGEpD3OMnE6kI83b94sb7/9trRp00aefPJJ2bZt2x2drd21a5fs3LFTLoWmD0E8JiZGvvr6K5k6dapcvHjRsZXcKuvWrZODBw5KZGSkY8t/Y+KkibqiwtatWx1bCCHkzkHlACGEEHK/k56Wx4MiAMm5Tnhvbb9LQDkwf/4CKVq0mLz00ktSvnx5cXNzc+xNXYKCgmTQoEHy6muvyvwF8x1b7x6oz+eff64WE9WqV9No/uTWgAXImTNn5I3X35APP/xQlT+J/AcLgv+99D+JjIiQZcuWy/Hjxx1bCSHkzkDlACGEEELSDktQQsIoBMl5210A5v2hl0LNO5vUqV1bOnXqdEeXtkuIT5DQ0FAVylNrhvm/gLqM+X2MtGrZSho2aChZs2Z17CG3AmJWwOoCLgCxMbGOrf+N8hXKS9ly5eSff/6RhQsXOrYSQsidwW3AhwMGON4TQggh5D5l8uTJkjdvXqlTp45jyx3iBgI+gqtt27ZdJk6cIAH+AbJ121aZO3euLFywUJYtW6bm7UWLFnXkvsJ285358+bLtOnTZM7sOXL06FEVYnPkyKEBBDes3yAzZ82UyIhIyZE9h3h6eur31q5dK78bwffYsaNSsWJF3QbmzJkrM2bM0PocOXxEZs+erXXx8PCQ/Pnzi5eXl2TLlk1cXFzkxIkTsmbNGpk2dZpMnz5dNm7cqPUsUqSIo7QrrF69WiZOmKj5cE5r16zVoHIlS5bU/Tt37tJjLVi4QM8BQQC9PL3Ez89P2wVm/YUKFhJvH29xdbXP4Zw4cVIWL14su3ftlsB8geLq5ir79+/Xa4ql+A4cOKDvT58+LTlz5hQfHx8VUJcsXiLz5s2TqVOmyoIFC3Sbv7+/ZM6cWcsFZ06fkT///FNmz5ktL7/8stSoWUPPPTlwzrtM/eeatouLj5PVq1brcefPny979+7VtsqXL58j9xWWL1+u7YG64BrDZQNlFSpUSGfcT506Jb/99pscOnhIrx3awiLoQpAeD2V4uHvIhQsX9FzwevzYcb13Jk+ZIhs2bDBlRmuZ+/cf0GuLtsR2tHGWLFnE19fXXqghISHhqnw4xuHDhzVPQECA5omOjpatW7bKhAkTJHeu3FpvnMOSJUv0Op89c1avB+75LVu2aDnLli6T8+fPS0x0jLl/suv1iDXnumnjJhk6dJgsWrRI0+HDh/TaZcmcRTwyeejxkgN5Isw9vXbtGvH29pFy5crb2yep9U0qAGXViBEjpH///om/H0JIxoLKAUIIISQDcMeUA0ln/G8gsFy8GKwC3ehfR8mePXtk0cJFsnTpUlljhPiNGzbK9h3bVWCsXLmy5keAN9T9lxG/yKxZs2Tf3n3qf71p0yYViqEYKF68uArsP/z4g5p2V65SWYVgCMsQ1H8d9asKxg0aNEgUPEeP/k1nY3PnziO7dhuBd+48DcQXFhYuoSGhUqtWLcmTJ4+sXLlSBSbkxXG3b98u69auk/0H9ktUZJRUqVpFywPjx4+XX0f+KqvXrJZjR4+paTmEyD1792hsgSpVqqhQP8rUB4Imjnfu3Dnx9vKWsmXLykIj9I4ZM0ZqmmPjWllr8O/YsVPL3m3Kq1ipkgqwEJZ/+OEH/T4E2zlz56hwXrp0aVV4/PXXX3rey5ctV+F75aqVppwdKlCjbSwh/sjRIzJkyBA5fea0fPLpJ5IrV65EpURSoOT4Z9I/pv6jtEwoOXAeSBDCIVzDFQN1sEA9kB/thu+gDRH0EdcOMR3gvgEFBdwa0NYVK1WUYsWKOb4tqnR497131eXhscceU+XEb7//Jrt371aFzcpVq0w775TV5hXtfPbsOfnjj7FaN5QHof3E8RMSkDNASpUqpWXiPCDw//KL/Z46ePCgCu9wLcE5oN2hzEE7Lpi/wAj1Q1U5Nc/cI4sWL1KFE+43lH3p8iWpWaOmntf3P3yv5xIWHq7nivMoVrSYBnn8ZuA3qhSAlcaxY8f0vkAZOfxzqILhepYq/iYPrjeUVFCclShewq4boHKAEJLK0K2AEEIIIamDJaxcR2jBLOppIzhBkJs4caL4ZfGTB1s9KF0ffVSFSghZmIGFkI/ZZcyW//TTT7Jm9RoVrrt16yZPPf2UCkkQ3P784085ddIIYsWLSdjlMJ1VxmwzgCIBQitm6CGUo2yAcjdsWC9hYWEqeFWrVs0cu5RkyZxZKlSoIE2aNpHcuXMbQfOsESBH6EwxZoHbtG4jTz31lNSqXUu2bd0mo38brQIVlBlQPkARgeOVK1dOnuz1pPR6qpc0a95M9u3bJ0OGDlHBMTAwnzRu3FiFfxyjYcOG0qBhA3H3cFdlBgRVlOkcDDHMCLMnjh+XY8ePqUIB+y6cv6DKFVgFwCWiWbNmqvyAYAuhGUqGc0ZQbte+nXTv3l169eql7hMIcLd0ydLEFQkgKO/dt1frA4WBpZBIDihqDh06JDt27pCZ/86UbNmzSYcOHeTxbo/r9Vi1epWMHj1ahWy0Cc7DUgzg2nV9rKs8/vjjUrVqVZ2Rxz6Y4cP6A8LoTiPk45ysumHGf/++/VoerBlQP+zDtYS1Aspv0KC+dO7cRa8/hO8hQ37W/Wjjnj176j0FpciKFSv1WLAGgGLhxx9/VKEdbdb9ie56T+XNl1fvqSlTpujsP9oZx8A1mTBxglpLNG7UWDp36iyVKlaSI0eOyLRp0/ReLV6iuLplePv4SIEC+fW6lytfTu+hOXPm6P3Svl076dGjuybcI1AQYN/xE9ePJYDzhjXLkSOHZac5lwRbgmlfJEcGQghJJagcIIQQQsiNsQIGOiWYZsfFxql/NQRumFLjvS0BGVIGgiMEVcwaP/f8czoz/MGHH6iQCVP9C0Ygg5CImVsE7MOsce3ateX111+Xl195Wd544w157tnndHYXgi32lylTRgX7i8EXVYiGYHn02FE5d/6cWguEhl5SIRN1hjIBM/+Y2S1VupR07NhRHnjgARVAcZz//e9/KrjDwmGBOT6sGF5++X/yyiuvyKuvviqvvfaa1KtXT2e/Z0yfoedyMeiimuujHCgQ+vbrq3V99tlnJWdATp31xSx/gQIFpNeTvbS+sExAfAMIzM4m77eCl7eXKkw++OADefTRR7VtMcsMobZr164aHK9P3z7y3nvvyZM9n9TjbNq8SQVoWD5AYRESEiKVKlW6qQCMsE5wc3VTl4unej2lbfXaq6/J888/L+XKltM2RruhHlBgwMWhVatWqqDo0aOHvPjSi1oPuITAjQCKHP8Af213bIMgj5l1ALP9jZs2qktAxw4dr1JcwP2jZYuW8srLr8gLLzwvTzzxhCovIKj369dPBgwYIJ988om2TdZsWc357jPC9VG7u8WSJXocKHveffc9rRNWqnjmmWelsLn/YPEByxRnIJxDwfL+++/LgI8GyNNPP63XEMoV3Kt4D7eM7NmzqWsD7oFGjRqrBQHcRaAAafNwG+ndu7cm3Mvt2raTrH5Z9bdzI3A/4rcFSw9YH6B99Ud4/Z8aIYTcElQOEEIIISRlHDJIUrAJgvahQ4fVfx8zoLNnz1HzfAjrMPe/HhD0OnXspDOo3t52/3rMkCIhOjvMwxGsD7PgmMGF4A9BcufOnZqwjnzRYkVVUIIAie/DJB0z0Ig/ACERydXFVf20XV1dZMuWrVpn5Ef9INDBxD45IPDPmjVbrQsKFSqswtievXtl48ZNuq1c+fJ67D/++EOFUgjB7dq1U2EfwiyWKVyxfIXODsP0XLmRGbjuvzVb8SZNmmiCOwDAzD7M3SG8V6hYUYVgK2F2Hfkwc46EeiECfiaPTGr+npI7QXK0bdtWKletIpmzZFalAqwBmjdrrm2DWXIARQSEcwjhuJabN22WlStWyvoN66+0iQNYUECAxlKAsLQAUPLA5QTltGjR4irlAJQZNWvVlJy5cqryB0oXAKUBlC2W+wiuL64HLA6Cgi6o9QBcLRC3oXadOqq0se4pP78sUqRIYbXgQD2cwblBgQE3AJxvjgB/tbaAJQKUPhZ2od0OzP7xGffc2XNn5e+//1bFyZo1a/X6QFkChU7hwoUd30iZzL6ZJZNnJgky9T99+owqaZBu8XYhhJDrQuUAIYQQQlIGwkcyCXIJhDUEmMOscZ8+faVvX6Q+8tGAj3Tm+rqY7yPonosR3qFpgGDqkSmTCqr25KGWCJiVjU+Il3Xr18nQYUPlq6++0jR27Fid/Ybwj+B0qAuEZAjpCCwIVwIIfp5eXtK0aVNdonDr1i0607tq1WoVrCBgYlY/OSDUIS8EO7gqfP31N/Leu+9q+vyzz2XWzJkqtMJaAGVBCM2dJ7ds2bpVRo78VT799DNdEvGjjz5SYTNRmEuKoz3tbYo8uvWmKVqkqJ6zBdr95ImTahY/YcL4xPZCQuBBCLKwGMC53S5oG7gJZHUI4Gh7BPGDWT5mwfca4R7XE4I7AgyuWbvGtN/X8q5pO1hdfPf9d3Lq9Cn9rgWsC2DJgesNdxAoGeD/D0sEKDRgou+svIBgnnTJRez38fFNvp0dwBoFFh9Q/syePUu+N3Wx2gdBEaGYwDUPvhjs+Iad+vXrq4WDm7ubJigh3N2TCSRo7mVnBUHZcmWldeuHVEEBd5nWrdvIM888IyNHjFQLCQj8N+Pf7+LqYleOJMDqJlaVG4QQktrwyUIIIYSQ26Z48WLSuFEjI9gV1QS3AMyK3shEHYJc2bLlVMhKMMIUxClXIyFjOxIEvKjoaA1IZwlrMFN3TgjkV7deXQ3mh+NZAQcRdA8z1EePHJX8+QOlbt06GowOs7wwF0cguLJlykmVylW0rskBa4WNGzeohUHmzL6qrLAEfCSYwNerW0+PiWNDqO3/Sn/54vPPZcL48UbA3StVq1RVF4LSpUonfi8lzN4U88DHHOlmwMz4yVMn1d0DlhZI2IZ03rRZgQIFpUaNGhIYGOj4xq2hM+FOwi9wrrerq5sKu2g/WE/ApQGCN4IQwnqgQf0G0rPHk1KmVBnN7wxcMjCLDl/+VStXqaAOxUCbNm0cOa6AIH7+Oa62+sBxofBxViIkBcqBg4cO6nmgbZLeUzDzr1mzpsYQuB6u5nzdrnMci4IFC6qbw8iRI6V7j+4a4+LEiePy7aBvpeeTPeWnH39S94obASUaEu41/GYIIeROQOUAIYQQQm6bRo0aaWA++LkjwZJgzNgx6k9/I6Jjoo0QGacJAdacgfDm7u4mZUqXUWEPQQmxjOGMf2dclRDFHzEILCpXqqyWBDDnh7933jx5VRiuVKmiCqfLli2XdevWarwD+KLrrH0yYJYWPuOYlYc/+j+T/7nquBMmTJDPPvtMWrdurXm/+PILVWQgEB2C/sEsffiI4RqED5Ho3d3cNaWoIDCb7UL2tUMznA/SzYAl94oULqIuFljBAAmR+5FmzZopP/88WOv68MMPO75xO9jUlSJRYYFTMgkKAU/PTFK2bBm1IMBxYMmAeACIHYHlG78e+LU5dhu1GklKkyZNte5wecASg3BDgEVCi+YtHDn+O7D0QGwExJcY+8dYXYUCq2FMnTZNps+YLiOMEP/JJ5/q7H5S4mPjJT7u1gIBwvUE8ShKlCgh3377rQYfxBKQ77//gRQpUlTvU5zvjUgwbQuLASircB8TQsidgMoBQgghhNw2EGgxm5k03Qzurm4Ogdgkh5QOpYCaZZuPmAkuXaa0lofl4+A3bpUPl4EvvvhCl2YcNGiQfhc83q2bxi1AJHqYziOQHHzZIZxh9vzHH39QC4Lq1avp7L+aLKSAJchPmzZdI9Zbx4Y7AwL9PfLoIxprASbqCfFGaDR/UBZg5hmm5zDfP3jgoPr7J55XiseD1YSb2BISZPu2bVpHEBIcIuvXrdcgeTdD9hzZ1bz//LnzusShVWck+O8jqCIEXyzhB1eIMkaQj4qO0iCFEO5vBpwHVl/Aco16PiZh9QG4X8ByAy4HABYfoH379rpqAOqAFSWwAgXyJ6V0mVJaJ7gSjBs3TpdfxDVyXi7yvwJlD2JV4JpNmjRJIqMidaUIKKIQq+Hjjz6Sp57qpTP9SbFfQ3NOjvvTccteF6zIAYsIBLKEkguKoiLFisgzz/aT/IGBqlCCpceNwP2E+zFX7lxaf0IIuRNQOfBfcHSIhBBCCLlJoExwdxc3FzddTQCzzyr4uLpcSchjBEkIQu+9/574evuqz/qPP/wo8+fN1+XjsC7+0CFDNR+i8lsEBPirAIYZVgSpK1K0iAplUBggqJ0V6R2BEOEHnhJQTHz++WeSM2dO+fvvcbr+O5bKQ/r111/ljz//UAEeCgKYeWMdfRz333//1Vlv5Pvhhx/Uvz48MlwF8CVGOI+IjNAlADFzDSXD1CnTZNnSZeLr66MuGhBaR4wcoceDXzpmm2GRcTMR7QGUKXXr1pVDhw/pChBDTBvNmzdPl2T8+KOP1bID/vrFixfXtsueLbsUKlhItm3flijM3wi0HwTpUb+OknF/jZMpk6eY+o6U6dOnq3IAS0MCy7z/t99+l9GjftNzhUIHyhxYjdiVEpsTlRJox/IVymtkfsQcQB0RtA/tmhSsOhAWHub4ZAf1Dwu7rPVLCbgtvPDCC6rMGfTtIF1OEW0CC4KBAwfqMoZwZbiRZQUsPHB+uFddTTviFTEWcC/DdQX3KNwioOyAwgaWJN98/Y0qemARMXzYcF15oETJEjfl4oE4DFB2oW4ITsjxJyHkTkDlACGEEELSDCNDqb82AqpZAq81Q4+ZWMuCANsgFCJWwAcffqgzvAhCiGUPIeRC+IJAjllwWAdYQNjyzWxfFrBQ4UKJkeBVgA8IUBcAKAkg9EM4TgkIfrA2eOuttyRz5izqvvDOO+9ogvCP4HlwZ4DSAXVFPapXqy4bN2zUYITIB0EzT+488uILL6kwPGz4UPW9h+IC34eJ+woj+P9lBGwEEGzYqKG079BB30M5MOi7QbJs+TKN4wB3iZsBbhSPPPKILqW3ffsOtZTAMobfffedrhKAWXwI3FhuD2C1ASgUMKN/8OAhdRe4GWrVqqVLAsJ1AEsG4lzhX4+Ag4gBgXbu1Kmz1K5dRwVj1AOBHBcvXiwlS5XUwHwQ8LEds+fWcRE8smLFivoebYdVEJIjNi5WFSkWULZA6XEj6wfkq1Sxkrz55ptyIeiCKgewDOSXX3wpCxcs1PsHKyygLEvwd0atB8yf4y61/++4f3G/1qxRU4Nkwu0EKxPALaZvn74azHDYsGHySv9XNOE9tmFfHdNG1+PI4SO6cgMUOYi1QAghdwq3AR8OGOB4T24V9AU3mwghhJC7CPyqIfDADP9uAoEcM+cIHIcI8Hny5kkU0iHAQ9iGkF25cmXNByG9aFEEO7Qvw4dYBgULFdRAgFiyDsIkVg2wQJBCuBHUq19PmjdvrsoFWAFAWIVCAEJtByOAY1baObAbllOENUHduvWkQIEryoaCBQtpoEUoIPIYwRufsaRd166Pqbk4ZvwBZrvRvjifvHnzaT4cC0sbNmnSWEqWLGny5JF69eppXtQF54iAitWrVVNFBL6P1QeqVKmsM85Y3g/ngOPAGqBmzVpSoUJ5tXhQ33lTX+RB3axzwXlabhRoM+zLkgWm/pV1+UFYWUD4xvkCzKCHhIbIwoULpZhpZyz7CAE6ORDMb+mSpeqC8Oyzz2obQyGA61HfvH/00a7SrFkzdQXAdcO1KlGiuDmvPFK4cBGtDwISdujYQa89lAhoU7zHMoJqaZAgunzl6TNnNH4D6uxcH7xHW6I9cA2t84BgjvsE9wXaRctybIdlBK4FlsNE3TwyeUgx892Spo2w4gGuRX5zzdHOuKdwjeB+AAME1AvxKbAN+eCCoCsHuLmb+zGnulBUr15DAw1CcYBrC8uJGjVrqGIDihAoqGAdgGsG4R4J92WXLl1UUWUpIlIC8SLWrlsrZUx7tXqwlbY36pDaY0zEh4BSqn///vqbIYRkPFxsSUPOklvjVh7KbGlCCCF3CQSFg7CCgX+6wrkfTdpPWvsc2xFg0ArGhlUGIECnFRCcwsPD9T2UESkdO6V8CQk2OXXypCoPIMDfCCzjB0HTeZnCWwUz67BCCAq6aITgbCrcJjXRh2vEtm3b5cUXX1CBd9zf49QdIzlQFpapHPnrSLV2aG6EdxwjIiLSCL6+9hgOyYBgitHRdisR53z47rlz51V5oMKx+bdo4SIZ+M1ANaH/38v/k86dO2veOwVWRrAsWNA+zssjpuRmYQny13NfsEBeJFiLnDl9xrHVDu6FlBQxzmCJ0K1bt8kT3brJY48/phYHOLalAEmt8SXcIBC8E/E8rudyQwi5f6Fbwc2CfiC5RAghhJA0AVYFmH1GSkvFAMDxdJbcpOsdO6V8rq4uOjt9M4oBAFeC/6IYADgWZqXLly+nM9dJFQNAgz6WLiXP9HtGLQIQOT/SCPs3C4TpwMB8KSoGANw5kCdpPtQvXz77rDkCPiKeBGIYHDp0SMqWK3vTrhT/BczqwxIByVkxACB8X5N0SUG7wJ/s/iQJ+QCUAIWLFL4q3YxiYMOGDZrQThUrVbLX0Wb+JaSSRoAQQpygcuBGUAlACCGE3Dkg41gpKSltJ6kKZom7PNJFXT3WrlkrQReDHHuuBsIu8mbLanf3SE1Wr14jP3z/gwYHhCsE3EWKlyzu2JuOSOMxIQIlItYAXBDgGqIuOKYO6lbA3wchJJWhcuBG8MFLCCGEkPscWBC8+8674pfVL0VzeeSBPz2Wa4Q1AJZeTC0wIw5riZYtW8oLL76osQuIaNwGBL5s1aqVrgQBELQztZUzhBACGHPgZkkNTTFbmhBCyF0i3cYcICQlMPbi2MlOGrQFYw4QQqh2vBlSQzFACCGEEELI7UAlCSEkDaBy4GbgA5kQQgghJG3h+IsQQtIUKgduFnRQ/zURQgghhBBCCCHpECoHCCGEEEJuE6yR/9NPP8nEiRN1Pf+7xfLlK2TmzFly+PARxxZCCCHk1qBygBBCCCHkNomNjZVRo0bJ7NmzJTg42LE17ZkzZ7aMHj1Ktm7d6thCCCGE3BpUDhBCCCGE3CYJCQly6NAhOXv2rCoK7hZHjhyR7dt3yDlTD0IIIeR2oHKAEEIIyQBgjfT4+Hi5fPmyYwu5E4SGXpKzZ89pwvtEbOZfkvhDISEhcvz4cQkKCnJsSRlcN+Q9d+6cY8u12PRP3yRiMweFRQOufbJgRaYkqzKFhoaqi0RkZKRji91CAtucU0rKEBwrad7o6GjH3uRBHZEPbREVGeXYaj8utl28eFHPhdwZ4B6D+zFXrlzi4sJlugjJqLjYEvikJYQQQu53PvroI/Hw8JCuXbtK0aJFHVvJfwVCe/78+aVqlarSu09viYuLM8LsRd0X4O8vVatVlfLly4sZbwmGXG5urrJ37145deqU7N+/X86cOSM5/HNI+XLlpVChQppcXa/M3Rw+fFiOHTum1glQDmD9+YoVK0rBggWlWLFiiXm7desm6zdskFf7vyr9+vaV+IR4FbjXr18vR44ekaZNmkrhwoXF09NT8ysOGTA8PFxWrlgpWf2ySuYsmWXzps0SbYTFOnVqS5kyZVRZsHPnTtm4cZP9Cw6qV6+m5wbFkwXaA64Nm0wZzpQsWVKqVKksuXPn1s8Q9jdt2iQ5cuTQzzhmZFSUnk+RIoWlePHiqhjQtjp5yrSbm5QtV1brkyN7DnFzd9PvkdQB13jRokUybNgwmTJlivj4+Dj2EEIyElQOEEIIIRmAr776SgXXjh07qoBFUgdLOZAtazbx9fU1Aq59tj3KCLrxcfHSrFkzGThooOTOlVtdEKAM+OSTT2TevHk6W+vl5SVR0VHi7eUtnTp2khdfelECAwNVSD59+rR89913MnnyZAkLC9PyITCjnDZtHpa33npTj+3u7q7KgQ0bNkj//q/K008/rW4O//47Q/730v8kV+5c8v7770uHDh0kICDgGksBKCkqVagkZcuWVaF87dq1ki1bNnn3vXelRYsWsnjRYhn882BZu26dEe5zqRVAaEio1K1TV1588UVp2KihZM6cWeu4fPlyGTDgI9m3b6/kzJnTtEO0hIeHmXPKLy+//LI8+ugjeh7Lli2Tdm3bSbXq1bQOJ46fkLj4OFVo5Dd569Sto5YLCLLo7e2lCgx/f3/54IMPpHXr1olKBZI6wDpj7ty5MmnSJPnzzz9Nm3s79hBCMhJuAz4cMMDxnhBCCCH3KefPnZejx46pYIZZXJI6QMAfNGiQnL9wXgJyBki7du3k2WeflZIlSqrQvW//Pgm6ECQtW7ZUc/nXXntNZs2apdYbvXv3lief7KVWAydPnpTZc2arhUHDhg21bFh7TJgwQYXsnj17Sr9+/aRWrVo66/7PP5OMMB6us/u4ppjtPXvmrNSuXUsKFMxv9v8jr7/+umTPll0VQ23btpXsObLbTcaTKAdQ3pCfh6jLwqHDh7TuNWvW1GMdPHhQFRTbd2yXVuYcvv7qG6lRrbokxCfI8hXL5fCRw2rFAKuEFStWyvvvvycHDhyQ9u3byxdffCFVqlSRbKYOu3fvkgumHaAkQF5YQ4weNVqtIYIvBsvLr7wiDz74oJw/f162bdsmmzdvVuVAly5dTOosnp5esmrVSrXKqFevXqIFAkkdoIjCfVmiRAmpW7euWmoQQjIgsBxgYmJiYmJiur/ThnUbbD2697R9/NHHye5nur10KfSSzS+Ln81FXGxffP6l7fixEzYjONvi4+Jtf/35l83b09tWrmw5W2REpG3G9Bm2/IH5bXVr17UtXrjYFh8fb0tIMHnN6+JFi22Z3DPZAnIEaJmbNm62VatazVatSjXbP5P+0fKscnfv2q3Hc3N1s+3bu0/r0evJXrYqlavYvvn6G9ugb7+zZcnsZwvMF2j75qtvbGGXw2zRkdG2uFiU4ai7E/v27bN5ZfLS9OH7H9qOHTlm8saZczlue/WVV2358uaz9X+5v55DTHSMLd6Ug/2NGzW2ubq42t568y3bnt17bN8O/NaW2Tez7aEHH9L9Vn3x/vXXXrflDMhpe/qpp20nT5y0LV28VM83a5astt9G/WYLDQm1xcTE2GbPnG1r2qSprWCBgrZPPv5Ev48UEhxiy+qXVY+3ZPES+zngXKzzYfpPadXKVbbq1WrYVixfodcruTxMTEz3f2JAQkIIISQDUKFiBSlUqCCDut0hmjdrLi1aNJe8efPo7DzcAgoVLCT169eXiPAIWb5subp1oP2rVK1i8uXVPFZe/wB/zYtgfps3b5GdO3dIRESElCtXLjEOQWJef38154c7wa6du9Sc38X8HT1yVH784Uf5btAgKZA/v/Tv31/6PdtPMnlmEhfXFILMmdsB33V1c9XUoWMHyReYT2eO4et//MRxDVIH83/ErHBzc9c6YH+1qtXUXQLnhBn/Y0ePSWC+QOn+RHfdb9UX78uULqP74BJhP6z5M9/DOTzY+kHJ4pfFYdVgt2woVLiQVKpUSVxdTL1MGVo/Rxtgv70MeyKpA+JRVK9eXa8XISRjQuUAIYQQkgHIlCmTmgwjIvyMGTMcW0lq4eXtpX7azoJVYP5AqVOnjgYHhPvBihUrVOCHS0HWbFmvkmyzZs2qAjhiCmzbulVXOoAgXaRIEcmTO48jlx0IyQhMCEEZcQYQZT42LlbjH5w+c1rTsePHZM6cOfZ8ljTtjDk29ESqLDK7cX9kzpxFk3UOiAEQHxevcQrKlS1njucYNjqKg5Ijd57c6o4AJQVcBRAoEG4OSVHFgtkHF4bTp07rNnzOXyC/+Pr46rm4uriZY9sVAJ6ZPMXH2xEUT4/nYsrIJO5u7uadiyTYErR9bOZVz8GpLcmtsWfPHpk/f766qFwVsJIQkuGgcoAQQgjJIEA5kJBgkzVr1jq2kDtJcHCIHDh4QIVYJAR9g2UAtiNgoeIQauFff/ToUfPRppYBUABAIL4cdlkiIiPsmZIBAQmhlED5UELAX7xv3746Sw/f/2lTp6nFQrLCsxGqE0yCMA6LgExGgMfEfFJQN9Qd+ZAsIOSHXQ5TBYSnl+cNlysEUByoYsQBAjJauJqyLesAPY5JjsUZ8VaVFi5oF1RBN8P6wHpPbhfcd1u2bJUmTZo4thBCMipUDhBCCCEZBAQirFypkiQYAfXQwUOOrSQ12L59u87cOxNmBHssWeju4S7FSxTXJQgxMwuXAVhwJGKE29iYWA1cCOG4orlGXiYfBGQENbRm2i1gXXD40GFVCKBMCOcAgQsh4D3//PPS66leGvn/px9/0jJguQCZ+opo70Cla7tgDtcD/CUFLgM4P4e8nsjF4Iuq5IByAu4FcI3A51OnTzlyXAHtAKsBnD+WybOE/kTwEeU7/iycc2kdnY6vFgNJyyG3xL59+3TpSSwfCZcCQkjGhsoBQgghJIOA5d8qV6msAtq0adMcW0lqcOTIETXNPnHihH6GqT8ELywpWLxYcSmQv4A0bdJUBeNNGzfJrl275fLlMM0LoXnrlq1y8tRJXUowX7686m/vZ4T+nTt2yrbt20x5oZoXCoiNGzfKuvXrtMw8efOoSwAEZSynmC9fPl2SEJH/oTjAsoSTJk6yKy4gWDsJ14r12byqUO60H1YJMPvHOaxZs0YunL+i0EC9YI4OSwAsvVi6TGl1PYCFwcKFC/Wc7MK7yOHDh2XL1i26HCFcFFSZYXZZ+69CpX8rOerkRKLlgioKruQjtweUPnv37pVGjRppbAlCSMaGygFCCCEkA4Fl5+ALv3HTRtm0aZNjK0kNxv01ToYOGSqjRo2SX375RdeMh0DcvHkLcffwkFKlSknt2rUlJDREJk/+RyZOnGBeJ8vw4cNlzNgxOkPfoUNHVd5UqlxJ82Imfvr0GfL3uHGq0BkxYoQmLAGIZRMtq4GkQLB/6qmn1EUByyGu37Be65IUCN8Q0qOjoiUsPEytESxwr6AOWDZwzdo1MvLXkTJv7jwZPXq0/Pjjj7J69WopX768VKtWTZcnrF6juhQtUlQWL16s54TlFHF+vwz/RXbt2qUKD7g9pFTnpKBuluiPOiKuguUioWoBVRDoG/sGcn2gi3EkLKuJZSoPHjykS01WrVpVsxBCMjZuAz4cMMDxnhBCCCH3OZjphXB25swZWbpkqa5lj9nsxBlZckvAxB9KgQIFC6jfPWb1YUGAGXv44Ldo0UIee+wxyZc3r3hk8lDT/9DQUNmyBSsS7NQghUuXLtX2x/r9zzzzjOTKmUuD9WXPnl3CwsJl27atsm3rNlm/fr3MmTtHj1mzZk353//+p0oA+OKvWrVKhf8aNWqoEA5Tf1gRwJLh6LGjqnCoUKGCEQSzOWoO7MI1rApmzpyp98UT3Z+4Kg/uDcQFOHTokK64gNc///pTrQkQWLFHjx4adBF5cG/55/BXH3ac08qVK2XJkiWm/tvUpaVXr17StGlTzWvdf6VLl5YOHTpowEJw9sxZOXQYAmtWqWXOEecHoBSYPn26+Plllc5dOplzC3QoCBCjQLOQG6B2GrDWMO0FVxO0Z3DwRWnZsqVUrlxZ8xBCMjYuWM/Q8Z4QQgghGYStRtj86KMB0qrVg9KpY0fJniO7IwgeuRWgAPjqq6+kdu06Rjj20cBup0/Zfe4rVqoojzzyiL5XycwhxGLGFsK4FfcBCoP6DeqrabfilPfo0WMyf9482bFjh37GqgZ16tYx162VfrZYtGiRBiCEKwFm+wHqtnv3blVYIBDiww8/rEsoJgVBD+fMmqPvWz3Y6pqZ/UuXLsmG9Rtk2vQrrihYxhCuCzlz5XRssQNLBwies2fNVusUWCKULVNWuj7WVcqUKePIJWr5MHXKVFUONGnaRJc0BIhNsG/ffn1fskQJVXCgLbBywsx/Z6mSoGGjBpIzwBzXqZ3IjUEwUpu5HghwOWbMWFm4YIG0aNlCFVKEEAKoHCCEEEIyKPCTb9u2nbzy8svmtS0VBITc58C6BIqeESNHSLly5dTyAzEjCCEEcARACCGEZFAQHO7dd96Rzz7/XKZOnSrBF4Mdewgh9yNYmeCjjz6SCuUrSM+ePakYIIRcBS0HCCGEkAwKgryFhYXJ9GnTZdjw4dK6dWs1/y5cqJAjByHkfgBxKqZOnSaDBw+W9u3bSYf2HTROBuJVEEKIBZUDhBBCSAYGCgIEyEPguj/G/qHvH3n0EV0vnxBy74KYExcuXJAD+w/oyhFYZrJuvboaK6JAgQKJQSAJIcSCygFCCCGEKIiev3LFStm4aZOutd+xY0eNcE8Iufc4efKkLn85Y/oMqVcfAS8bSvHixdWdiIoBQkhyUDlACCGEkEQgUGD5OSy1FxERoWvcIzI+Zhrz5MnDJQ8JSccEBwfrbxhLaW7atElXgQgMzK8BR0uWLMGAo4SQ60LlACGEEEKu4vLlMNm1a6euU3/w4CFdIx9L0lWvVk1KGAEjU6ZMkj17DsmVK6eug08ISXuwPCXcBk6fPq3uQUePHtUlSqEgwO81a1Y/qVWzltSuU0cCAvwd3yKEkJShcoAQQgghyQLLgb1798m8eXN1bf7cuXJLvsBAFUiy+vlJ5iyZHTkJIXeD+PgEOXb0qOTNl09XGzl79oz4ZfWTOnXqmlRbcuTI4chJCCE3hsoBQgghhNwQzEQiaOGBAwfVXPkSghiePCHnzp1z5CCEpCWw6Clbpqy+r1qtmpQqVUoKFSoovr6+uo0QQm4VKgcIIYQQQgghhJAMDqOSEEIIIYQQQgghGRwqBwghhBBCCCGEkAwOlQOEEEIIIYQQQkgGh8oBQgghhBBCCCEkg0PlACGEEEIIIYQQksGhcoAQQgghhBBCCMngUDlACCGEEEIIIYRkcKgcIIQQQghJAZuLPRFCCCH3O1QOEEIIIYQQQgghGRwqBwghhBBCUsDFZk+EEELI/Q6VA4QQQgghhBBCSAaHygFCCCGEEEIIISSDQ+UAIYQQQgghhBCSwaFygBBCCCGEEEIIyeBQOUAIIYQQQgghhGRwqBwghBBCCCGEEEIyOFQOEEIIIYQQQgghGRwqBwghhBBCboSLIxFCCCH3KVQOEEIIIYTcCJsjEUIIIfcpVA4QQgghhKQElQKEEEIyCFQOEEIIIYSkBN0JCCGEZBCoHCCEEEIISQkqBwghhGQQqBwghBBCCEkJuhUQQgjJILjYEmzs8gghhBBC7iIhISGyYsUKWbBggX7esmWLREVF6XtCCEkrvL29pXq16vq+UeNGUr9+fcmWLZt+Jvc/VA4QQgghhNwFjh49KqtXr5a1a9fKyZMnJW/evFK4cGHdV6BAAcmUKZO+J4SQtCI2NlZOnDih7/GMOnXylGTPkV3q16svDRo2kIIFC+q+28HmcNFyofSZbqFygBBCCCEkDTlw4IBs3LhR9u7dK9HR0ZI9e3bx9/eX/PnzS7FixTQPlAMeHh76nhBC0gooB44fP67vjxw+IseOH5OzZ87KhQsX9JlUtmxZqVO3TuKz6lagciD9Q+UAIYQQQkgaMXfOXFm2bJkZgYkE5guU4iWKS7ly5SQwMNCRgxBC0gkOKRHWA1s3bZVdu3bJxaAg8fHxkcpVKknr1q1F3Bwh7MxLbFyCRCWIxLu6iAsSlAHms4fZ7u3pmqgcQLnWW5K+oHKAEEIIIeQOEhcXp4Pr9RvWy4rlK8Td3V0eeOABqVWrlprrEkJIugRSIpIR8CVeJDjoomzetEmWLV0mFy6cleYtWkgj8yzzy+4nLh6uEhkVL5Emf4x5H+fiIi7my542F/GIjJesWdyushygciB9QuUAIYQQQsgdwjLR/WfSP7JmzRppYQbT7Tu0l9y5cztyEEJIOsVZOaDvzX/m/dkzp2Xy5H9k/rx50qnzI9K4eWPJlS+P2eWmFgMJ7i4SFm8yxsWLn7urxMe5ibfnlWJczX9UDqRPqBwghBBCCLkDQDFw7NgxmT5tusydO1feevstqV2rtnh5ezlyEEJIOgeSIqR6YDNvVHS0SVhEpMyaNlVG/zpCOnXuLK3at5O8gfnFzc3Nni82RiTGJA93sXn6qDIgTgsRcaNyIN1C5QAhhBBCyB3g+LHjMnHiRFUMvPf+e1K3bl37wJkQQu4lrCl/h2JAX11dJN7sWLVosXzz9VfSufvj0qp1G8kZkFNcYmLFFh2peRPcM4nN20vgZJCg/1M5kJ5xRJAghBBCCCGpyZatW2TBggXy3nvv6VrhVAwQQu5JHDoBFeltRnxESnAVtzgX82xrIp07dZNxk2fKys3bJNbkibO5S7RbZgnPkk3Oe3ubr7rqdpL+oXKAEEIIISSVWbp0qcybO0+tBWrWqikuGrabEELuQfD4sh5heHV1fHB1ExcPd+n8+CPyUJuHZNasWbJwwUJxc3OVeDcXCU6Ik/gEm4TFxEkmk51PwfRP6igHVJNECLkXsNGTiBBC7ihHjx6V5cuXi6urq/Tu01s8PT0dewgh5B4mBenex8dXunZoJ5liImTjgkVycvcBVQrEuLiJlxl2ukdEiYsZf7qpDQHHoekZWg4QkoGAXoC6AUIIubMsXrxYzpw+oysT5MmTx7GVEELuI6AocFIW5MyRXVo1byYRly7J+vXrdMWCOJcEiXdxEU93N7HFxIst4UpAQ5I+oXKAEEIIISSVOHnypOzYvkP8/Pykdp3ajq2EEHIPAyUApMYUks0Fwn681K1TU7Ln8ped+3fLqQMHxTM4UjKb77p7uYsLQq6oexWCEjppFUi6ApeUEEIIIYSkAtu2bhNvb2+pUbOG+Pv7O7YSQsg9jF2mv46SADsSxD/AXypUrSQx8bGyefVayZbgJj4uLuLi7ibxrvGqHED8FdoNpF9wOQkhhBBCSCqwY8cOyZcvn9SpU8exhRBC7m/sBgFG5DeSZZVq1SSLn59s3bpFMmf2tu83OxCDAC4F+CPpFyoHCCGEEEJSgdCQUDl//rz4ZfVjrAFCSAbDCP0uCZI7bx7xy5ZdzgcFSXBwsCDMAHB38VAlAuwGaDuQfqFygBBCCCEkFdi0aZNkz55d8ufP79hCCCEZBFgPOMibJ59kzpJV1mzeIpGxdlsBVzc3tSCwxxtwykzSFVQOEEIIIYSkAqvXrNY4A4UKFXJsIYSQjEfevHklS+4AWXPqoJx1jZV4sUmc2W4TmBEg0XIgvULlACGEEEJIKrBz5051KyCEkIxMrty5JFeuXBJ84YJkdveQmNhY0cUKaDWQ7qFygJAMBHy9XDVqDCGEkFTHJlKmTBkpUKCAYwMhhGQQbEb8t7mbN66S3zwDC+bKLSHb94q/GXdmcvNIFDppM5C+oXKAEEIIISSV8PDwEDc3zJERQkjGxM3dTWJjouXC2TNqMeCmSx0C2A7QeiA9kzrKAV5fQgghhGRwQkJDJCo6yv7BGv9yHEwISddcNs+os+Y11P7xtoEawG45gGdevC1eQkMvysH9B5I8As0nPhPTLbQcICSjwQfyvQWuV3KJEJLuiI6Olvj4eP5GCSH3Di6x5r8I8xpj/3zbQKxEsh6ANomNjZHQ4BDHZ3IvQOUAIYSkVyhgEEIIIeROYvM2/2Uzrz72z/8JM3C5ZuzCKAP3ElQOEEJIeuRGigEqDgghhBDyn/E28nt28+pr/3jbYGDiGJy42JzGKVQO3EtQOUAIIfcS6bWPRb3Y/xNCyL0Bn9eEkGSgcoAQQtIjDmHbZrNJQoJNXxVLE28N7Bz5ElNa4nw8pwkDQggh9wBp3WcQQtI9VA4QQkg6xK4USJC42HiJjYmR+Lh43WZtN+/sGS2h/G4I5+Z4qEeCLeGqpHVLqS4cjBJCyF0Hz+nEfoQQQhxQOUAIIekQrAPs6uIqHh7u4unpKW6ubhIVGS2XQy/LpZBLEh4WLnHxcckrBdJgvAcFRWxsrESERcjFoIty7uw5TcEXgyUqIkriYuOuWDsQQghJV/D5TAhJDhdbAp8OhBCSLoCQ7/REPnz4sMyePVtm/PuvbN++Tdxc3cXVxUXc3NxUOC9WrJg0faCptGndRipUrOD4lgFlOCkMJk+eLAsXLpKLFy9KhQrlpfsT3aVAwQKOvdeyevVqmTTpH/Hw8JC+fftI0aJFHXvsnDp1SqZNnSbzFyyQI0cOy5mzZxIHmi6mfoUKFpbChQtLly5dpHHjRpIjRw7dpzjVbezYP2Tt2rVy+fJl+4YUKF++vHh5eUnLli2kZMmSjq2EpD+aNWsmvXv3lq6PdXVscYKjLZKOwJKbeF67unKekKQWVz/k/ho3TgZ+842MHD5cqtas6djqBJ+J6RIqBwghJJ0AATsqKkpCQkJk5r8zjYA+SXbt3mWE+mCJiAjXgRzAK/JCYM6WNZuULlNaOnXqJI8++qj4+/trjAJX1yvagW+//VZGjx4tJ06ckObNm8s3X38jhYsUduw1OHqB+IR4nfEf/stw+eTTT6R06TLy048/SZkyZVRRgDIXLFggI0aMlNWrV0loSKhERUepBYEzsHRACggIkNat20jPnj2katWqus/0OeLiqNsrr/SX6dOnqdLievj4+qoVRfbs2VQ58Pjj3aRjxw6OvYSkH6gcIPcKVA6QO81f4/5S5cAvv4yQ6jWqO7Y6wWdiuoRPBEIISS+YgVrQhSD54YcfZOCggbJ8xXIV6N3cXKVWrVrSqWMnTR07dJS6deqKt7e3nD5zWmffBw8eLJ9/8bkEGUHbUiJYxMTESFhYuFy6dEkiIyMdW51AdpMwSNy9Z7ds2rRJLl8KE28vb7UAcHd3k/DwMBk1apR89dVXMm/eXK0X/FULFyosTRo3kV69ekmPHj2ldu3akidPXomOjpZDhw7JhAnjZejQYVpHqKKdxwIRERESGnpJLQeQPz4+QZUHsIpAncPDTZ0vX5LTp07JyZMnZMeOHTJ37lxT3hBVnBBCCCEk/UL5/97DbcCHAwY43hNCCLlbmB40NjZGfvnlFxk3bpwcPHBQfHx8pH69+tK7T2955JFH5IGmD0jdunU11a5TWypUqKBWBseOHTNCdqj6/GfLll2q16jmKNTOihUrZOPGjZqnRIkS8tBDD0m27Nkce6+AGf2FCxfKv//+q5+bN2smD7dpo0EGV61cJUOHDE10A6hQoaI88cQT0qNHd2nZoqU0btJEateuJTWq15CGDRuYemSTs2fPqgvC6dOn1BWiSpXK5px8E5UXOM7u3btVYdG8eQvp07ePdOjQXlo92EoefPBBrWfrh1pLtarVJF++QHOuwRIUFCTnz5/XstE+ZcuW1bIISQ+MGTNGrWTKVyjv2EJI+gTWZ3gWJ1UmE5JabN+xXVatWiVtH24r+QLzObaS9A6VA4QQkh4w47MlS5bIT4N/kn3794m7u7vUq1dPnnvuOenYsaOUK1dOAvMHJibEG4C5v5+fn1obnDx5UsLCwuSSEdw7duigbgDWoO9mlQMYLE6bNk3mzJkjBQoUUFcFmPHD1eH999+XNavX6DEQA6BHjx7SvfsTUqdOHSlSpIjkyZPbpDxSrHgxrWuhQoVVKQDFxYULF0wZ0ZI/f34V5q9VDkRIu3Zt1Ry7foP6UrlyZalSpYpUrVZVqlWvpuXhXOEyAcXA8ePH5dy5cxISEmr2ldXjEpIeoHKA3CtQOUDuNFQO3JvQrYAQQtIBmJ0fO3asHDhwUGKiY1SIh3DeokULyZo1qyPX1WTJkkXatm2rygP/AH8JjwiXvXv2yNatW9U0/1bBbDwEb7gf5MyZUypVqqyKgS1btmpgxOCQYJ2tb9++vXTu3FldDlKifPlyRuBvr0I9OHz4kMydO0ffJwcGqtcsq4WPJqEu1atXlz59+qgFRaFChVRJsXXrFlOvlMskhBBCCCE3D5UDhBByl4FgDJcAaNhDQkN0W6NGjTR4IITx6wEFQeUqlaVJkyZSulRpnZ0/ePDgbSkHNmzYoN/19c2ssQSKFy+mvv/Tp0+XuDj70oSlzDEaN26sAvqNqF+/vslr6lW6tOTOnfuawIXX4KwbcCgGnLfBcqBdu3bStGlT/QyXCrTZ5UuXtW6EEEIIIeT2oXKAEELuMhC8ly9fLmHhYdAUqKUAzO+vNzPvDGbn+/TuI2++8aa89OJLUqNmDfXxv1UQT2DP7j0SGJhPypYrqwEK/8/eWQBWcXRt+MQDCe7u7k6xYm0phSpQKNTd3b/vq/91d/fSIi11WhxKcXd3QggW4rr/vGd3bzaXmxAgQID3CcO9d3d2dnZ2dmfOmTNnUlNSZc7s2erZGsCSoXbtOvr9cFSoUF59CDz88CPy4IMPydChw5w9h6KWAxDwvQoBWLv6WbxiigGmHERGFvNZD8BR4dEoQwghhBBCSA5UDhBCyEkGgjfm86elpulvOB5s2bKlfj8sRnjGlILuZ3eXa669RpdQg7IgOOTIXu+wEMDqArtid0mDhg10NQQ4KExITJB/Zv4jmVmZqnA499xzpI53GcTD0K5dO13K8LrrrlUng3niKgW8yoE8qFatulojAEx7WLJ0iU95QQghhBBCjo7CUQ54R3lc6N+EkKKBv7B1GMGLnBwgnLuj3zVr1ZSKFSrq9xPF3LnzZFfMLnVOhSkFLVq2kOSkZNmwYaNvHeyaNWvp8onHBddKwA35UMuUTws6fCOEkKOGzggJIYEoHOWA25nzF0D4ziHkxGCeNThzgyM7gLnduma8vyKAioEiiyuA+yjo+xP3NK9wBGCFgvUb1uuUgfr16+tqCbAcCA0N8Sktshy/AycbdmgJIeTY4HuUEBKIICu7EHp6SMG8Y7QDaT6DzB9GwbZv3y7ffvutrF+3XjZs3HB4Z1SEkALj79kdwmWJqBJSr0E9adOqjfTp00edxoWHh+tz6cN5XknRAabxDz30kK5WgOUG77nnHl3CEEJ6YfD888/Lhx9+JFu3btFlDN95+x2p7Tc1YMCAATJx4kS58MKL5L777pXOnTvrlIKJEybKpZddKiHBodKwQQP56uuvdOWAo0FdCpj/goPtCnjzzbfI2LFjZd++vXLvvfea894n1apV0335sWjRInnjjTe0vLCSwVNPPSXXXXedXdcJOYn07dtXl+TE9J5DOPbeFiGFh1sf2R8gx4nvRn4nL7/8snz80cfSvkOAfgPfiUWSY1MO4EjzUkFnDwoBK8h2KLVu7TrT4ftRVixfLtEloqVFixZStWpVXXebEFI4+CsH8CTDcmD7dnspuk0bN0mdunXkkksukZatWua8hJ3nlhQdTppywKkLWPrwuuuvk0ULF8kTTzyhQjpWQUhOTpbp06bLwAsHSlZ2ttSqUVO+/+F76dSpk53wEYL2QZUD8Idgzk3lADndoHKAnDKwL0COM1QOnJoUinIgO9uyzZPMP3i1/uXnXyQtPU1atmwldevUkbr16uoyVjBTJYQcHyB04bnbuWOn7N+/X73OQ+gLjwhXD/M9evRwYhrQIeBLucjgrxwYMWKE3HP3PdK2XVsnxuHBPd+yZYt+hxVJ8+bNfVMVDmc58Omnn2qcFJOP5559Vq655hrdjlUUFi9eLJ06d9L6BcuU3//4XZcoLGgdio8/KJs3b5KYmBgpU6aMWh2EhIbosUerHPj777/lhRdekKlTp1I5QIoUVA4QQogNlQOnJkfncwA307mh9kgQ5jZny6x/Z8mPP/4kScnJcvHFF8sVVwyT7j26a2ePigFCjiPmeYSCLjIiUqcStG7dWk3BL7zwQomOipZJkyapQEWP7kUTCPENGjTwCbfbtm6TuD1x+r0g7Nu3T6cEvPjii/LWW2/JnNlzCnSv8f4GU6ZMlb1790qd2rWlYsUcR4hYnQDLKpYpXUaCg4LNuz3JCPm79B2PQ3EOKBDyY/bsWfLuu+/Ja6+9Lj/88IPvnMfCtm3bZOXKlfodFmk1qtfwKUIIIYQQQsjRcXS9KYwYOUFNm80nlsCaMOFvSUtLlUGDLpPu3btzGgEhJxLIXHgcYcVjPqGQ69ipoyoJoDT44/c/ZPXqNTlxSZEB96p3795SvHhx/Q0fLZs3b5aUlBT9fTjWr1+vI/AQvn///XdJz0g/rBCO/fADs2vXLlmwYL4cTDioyw7Wr5czlQF1KSIiQurWqavf4VcGwj6UF1kZmZINp5f5VKbExCSZOnWajBk9WubMmS1bt249ZuUA8rtmzRrZvXu35q1mzZrSqnUrCQkOcWIQQgghhJCj4aiHWtC9czuF8DcAT9dYo3vwoMGqGCCEnEA8CjuMoMJsG8o5jEQ3bNhQzj3vXClRsqT89NOPkoq19O0H2A7kpIN71qxZM6ldu7YKvHDmOnv2bBX6D0daWposX75c5s2bp78jIyOlQ4cOOup/ODKMgP/PjH8kKSlJoqOj9d3dsFFDZ68NFBZdu3b1pTdhwgQdtcdUCPgOyE8JvHLFCllhQkJCglQoX0FaNG9xzHXun3/+0QBKlSotXbp0lerVq+vKCoQQQggh5Og56mkFGP2xsi3JzszWjuyCBQvV+ZnORSWB8QpkRxsIOQowzaBNm9YyZ85cI3Cusze6CgVycvHcg8GDB0uVKlX0+7Rp0+SXX37REfK8wKow69atU0XCpk2bVDGAkf+OHTvmqxzAqwSWADj1+L/G69SApo2bSrly5XS/F0wruPa6a3W6AdJcu3atEc5nyEZzvox8phRghP+nn36SxYsX6W/4nUE9PNo6B+eI8Knwxx9/6PUiL1WrVpFevXo6MQghhBBCyLFwdMoBcxSWosKoUWh4qC5XiLWw69SpY3f8/AXaIw2nKyibYw2EHAUQpGB+jZHpn8f9fLRPPjmemHcfViho2rSpjsZjWsHnn3+ujnzgUwBTDCDEI0ApgNF4jOB/+OGHqkSA9QGsRB56+CEnwcDAqh/KXUwRQBq//vqbKiBguQDnfv6EhYdpukOGDJGSJUvq+T/84EN59513ZPmyZSaNRJ2eoP4HMjI1n3CO+I7Z/93336nyGEoLrJhxwYAL8lRaZKRnSKJJCw4Z/QOuHwqBhx9+WK8VwLkhLBouuOAC/U0IIYQQQo6No7Yc8Anx5jMrK1vOOquLNG7c2N4WSKg9kkAIKVQgDMJRYc+eZ8vuuLxHoslJwH2XOu++m266yR5hN8CXy0svvySXX365KnWwTOzmTZtl4cKF8uorr+r2d999V4V7CO7wGXDeeefpsYcDAv3GTRslPS1Nsq1s6da9m9SoUcPZ68HkDz4RHn7oYalTp64qIbAqxmeffy7XXHOt5gMrGmBUf9WqVTLup3Fy/fXXy/vvv6++CRB/wIABcscdd0hICBzTBn7Jz5k7V1586SW577775YH7H5AHH3hQw0MPPqSrN6BcoBiAogBgNYYrr7xSvxNCCCGEkGPn2MYPnU7tzJn/SGRkhM8clhBStIAJOUZaYSL+77//SnaWK5GSogaWnYTQD+E3PCxcEhMTZcY/M+T2O2+X3n16y9k9z5ZLLrlE3nzrTZ1KAOG7fPnyMnDgQLnrrrucVA4PzPSxikVqWqpEhEfovH34HfDH9S2D0f9nn3lG8wX5PjMrUzZsXC/vvvuODLxwoHTt1lX69esnd9x5p0yeNFmtEsA55nquufYaadiwkamHptHBfwFYsmSxjBr1g/zww/cy8vuRugSSG2bMmKHODJFXTG+4+uqr5aknn/IpUQghhBBCyLFTKMbFcEwF4SO/Oa6EkJMLhEgsRwcHdqSIYuTmyGKRcuVVV8pzzz0nlw+9XCpXqixZmVlyYP8B2RW7S2JiYiQ2NlbN9yGwn3POufLKy6/I008/nWO9VQBSklN0+Vk4r+zfv79Uq14tz3c4LE+KRxdX64KvvvxKHnn4EXOuRpqvvfv2StzuONkTt0diYmMkPv6AJCQmSKtWreSRRx7R0X84SAwLc5azhW4ggG4KUyWgsEDAkoluSExK1GkWbdq00bS++OILeeqpp6R9+/a+pR8JIYQQQsixE2RlYwbqsdGrVy81+Rw2bJizhRBS1ICAByd3t952q6xcuSoP425yssEyhBDSkxKT1O8AVizYvm27bNu+TQVozO0PD4+QSpUqqhPYOrXrqi+JChXKOykcCpwWwuwfCgWMvLdo0UK9+y+cv1D2H9gv1WtUlwYNGkjxYlEa3zu4D8sBKAFCjXCPpQsBRvHdvMF64WD8QTlw4IBElYiW2rVqSZWqVXT5w2rVqqlVQ1TxqBzFgyftJUuWqLIDUxxcfEsjui2TiQ8lQKkSpaRylSpSyeS/eJS95CMhRY2+ffvKDTfcIEOHDXW2eDjm3hYhhJw6wPLv5ZdfVt9J7Tu0d7Z64DuxSELlACFnAO5TPm36VLn55pt1nXi+lIsmEP5hiQVLDzgNhEIAUwsgfGMftsEHAKYAlClbRqcE4F4e7VJ+UBrhfPZ3R3b3Swp+ZUJC7PwEmXy5FQpTB1xnibBEiIiMkLJly+r0FVg1IF03ffcchJzOUDlACCE2VA6cmtBnOSFnAD6xTIU/CmlFGYywQzEA8AkhG6Pv9evXl0aNGkmTJk10lB8+XiIjbAH8WNb49wrt+tU/KfPbzU9QULDudoV9OEGE1QLy1LZdW13xAPkqXry4HoM47ichhBBCCCnaUDlAyJmAkc0on5GjwrUmMLAKEULIaQJHbQkhAaBygJAzEXYKyJFA7QAhhJx+sC9ACPGDygFCCCGEkEIA7jjUJQeFLlLEgfNXnwNYQghxoHKAEEIIIaQQyM7OMv87AperJHADIUUIOIsl5KTB6ldkoXKAEEIIIYSQMwgoB6ggIIT4Q+UAIYQQQgghxwEsR3vw4EFJSkp2thBCSNGFygFCCCGEEEL8yM62jjns3bNXVq9aLVu3bClSU0yO2XLAvZaCBJf89hUFAuXvaMJJIDs7W9atXSdrVq+R/fv3S1YWpjgVYejguMhC5QAhpxrmhYpGIDMzUz8JIYSQPXv2yDvvvCuDBw+RN998y9l6Ypk2bZpceOGFct1118ny5StO+TYqKChIUlNTZdiwoXLxxRfJihXLdduRhH9nzZInnnhCPv/iiyJhxn/rrbfqPcK9OiZhFsJdHmH58uXy4EMPyZDLh8gLL76o1hOB4mk4DuCezZw50zwLg/VakZ8CESh/+YTPPv9MLrzoQnn11Vf1N847ffr0Iz9vIQBlAM79f//3fzJ3zlxJpqUKOUpOnHLg5L8PCTk1cRtvJ2RlZpkPS4JDgvUzO8t0vvziHBIIIYQcOa4gcAqQmpIqS5culT///FOWLFnsbD2x7Ny5U3777TeZOHGi7N2795Sf025keyN0Zcr48eP1unBN2FbQAGXCxAkT9Lh69eqa5tgerddyOUlFM3nKZPn1t19l+/btko28ICOFnJe9+/bKv//O1HqAOpmljjpF1q/foIL0U089pcL78QKCckxMjPzxxx9636A4Ox6sXLlS01+4aKH+zjR1ZYd5Bo73eQMBRVTFihVl5aqV8sknn8iq1aucPYQcGUXPcqAwXlAFSGPXrl3y1VdfyciRIyUjI8PZeoTgPEeYX2hP16xZo5q9sWPGSmJiorPHwU3zCNM9bfC/9tOgHFavXq2dtUmTJsnWrducrUfHqlWr5L1335Pxf463OynmL9ui9QAhhBQaZ2r7SwodjM4j1KlTR/qf399WDJjtRUFnomoB03/wKXAKMU9lypSRrl27yaWXXiqtW7eWkJAQ3Y6+9y+//Crvvfee/PPPP7rteBAWFiaNGzeWIUOGyLBhw6RSpUrOnuNLeHi4NG3aRAYOHCgXXXSRlC9f3tlz/EEZd+jYQdq0aaOKgcmTJ8u2bcfW5yRnJidMOVAg7XEhvpjyOx2UAZj/9fzzz8srr7yimj2Yvvm0uQVEX6xHkmkTFecaNWq0PPfcc7Ji5Urb1MrF7EdqvhSPIOkTgjdzQc7ncUBPYdLHrTjSe3IIbj6PIYljZfbsOfLhhx/Kd9+NlPXr1ztbjwBcgxNSUlLky6++lA8++EBWrFihu4ODzWPsiRMwEEIIKTj+bcYp8h51l1IMCbaFsRMNBJSIiEjn1+mHlX34Pom7G6PKMPNOSU1RAblK1SrOsSexQ+LFZOOY+lf5UKNGDbniiivkrrvukv79z9d+ijvFBI8SHDQiHC9sIb2pPPDAA/LII49IzRo1nT2FB/pj3j486gbO27x5c7nvvvvkoYcekpo1C/+8eQHLgcqVK0uvXr2kWLFiMmHCBFm+7MRNayCnDydOOYA/vIQOJ6y4+9xPfXnZn4fFm24+LzzMCYqNjVXzN4S43XFqqh1wbpybjDffzjZcT4FfrCZaUnKSLF68WMaMGa1aTGgVS5Qo4URAFBOpoOmdBPQeOn+FirdsDW6ZQqOd5ShtjhWkcET3qxBBXcO8s02bNkly8rHNAWvbtq1qw2FBMH3adDWbw/QCQgghhYRfmwT279sv27dtP64CTb5oI2Z/RR8GimZ0/t0we/Zs2b17tworaOdCQ0PtyB4O7D+gSmWMZMOaDWHGjBmybt26Q+YnQ/DZuHGjmoRv2bJFR3znzZsnv//+uwYIvdiea4DDEBYWLtHRUc6v3CQkJGi+cU43HZjro18UF2f6YR4Halu3bpU5c+bo+XFdgYBZ/KKFizTguwv6cps2bdaRaVwjzoMyWrBgQZ5pAexDHMRFvpBP+E2Ijz/o6zsgj4frR9h9DZEff/xJZs+aLe3atTMCcn/dh3v377+zzLXNln379uW6ZlgDLlmyRO8lysQfXCPKBPfQ25fA9a5atVrz671epIFz5AUsV1GnMT/dvR84HvfZmy8X1InNmzfnun8YnV5oyh8DX/CD5FIsspiULVNG81a2TFmxsixZYcpyhekLxR+M13py4EC89o10dNvzvOE+4DpxD3COv//6W8vkSEbBcV48q/a9yH2/0tPSJWZnjNYbPAvuteA7+mm4RwUB6bv3AefA1AmcNyU5RSIiIiQyMlKVIqjbUBQtWrRIyy8QuBd4DhFnx44dzla7vrnH//XXX5pPTNXAPcIzeQjmUqGIgnIAZQsLgqSkJGcnIQXEyjZV+hhDz7N7Wt99+13AfW7Iysy2srPM90BgO4KJZx4sO2Thh/lntmeZ7/rbiRMomEM0jgZzLl+aAY5JSkyypkyeYg0ZPMS6csSV1ro166yM9AwrMyPTd14EPbeblouzzd6XpcGbdl4B6S5etMS66sqrrFKlSll33H6HZV4g9n4koXm3vwcMfukda8D15pd37EMcLQ8TDdeM8nHLCbj3yv5xlMEf51xIFudKT023z+d/3OGCA9LBtWRmIGRaplGwMtLMdeG+euMfx/DC8y9a9erWs3r17G39+stvAeMUOJjywbPWoX0Hq03rNtbHH39imYYscNwAAfW+UcNGAfcxMDAUsYB3v38IFI/huARvf2Dh/IXWG6+/YY38dqS1ds1aK/5AvG+fNxSkP3RUwdx75Gf/vv3W5EmTrdtvu8MqW7qsL3Ts0NH673/+a5137nlW8WLFrVtuusV3LI7bHbvb+vbrb62hQ4Za9erUs4pFFNPQuFFjjfvn73/m9ElMWLN6rfXfx/+r/aQn/veE9cpLr1jdu3W3giTICgkOsRo1aGQ99shj1pzZc62Egwm+svpx7E9W+XLlrRrVa1hTp0zztd/od/35x3iT79u1DUIaYaFhVlTxKKv/+f2tt996x1q/br2Vlpqm8T/64COr19m9rCGDhlg/jPzBly9vePutt/V6B1822Br53UjdhjbeCKHWgw88ZDVr2syKjIjUPJcpXcbq07uPHrNp46ZD0sI27EMcxEW+mjRuYl0++HLr448+toywq+lM+GtCvn0nBPRh9u3db116yWWazuOPPe7rO21Yv8G03W31fv304zjrwP6cevTH739YFw28SPdddullVmpKTtuOcnnzjTetszqfZd1z9z3Wtq3bfNsXmLp59VXXaLl6r/eC/hdYX3/1jRW7a7cvHYSGDRtCWrauufoa6/FHH7fO6nSWHoOA68R9nvnPzFz1IS0lzZo3d5718IMPa7ng/kWa+lO1SlXr3HPOs957931rzao1vjxv3LDRetnUmUHm3nzx+RdWclKydbOpZ40aNtb6iXPVr1ffGnr5ML0ugDpkhHaT1nt6nSg7xCtZoqTVqWMn68knnjT1Mucc+QXEmTNrjnX5kMutSy6+xFq2dJlv37q166zXX31d606Deg00P8ESrM/F/fc9oNeOOu1NL1DYFbPLuv666zWPw4YO03uM886fO9+66MKLrQvNvcR5x/853rr1llutfuedbz337HO5ytUN/87817rrzru0znxjnlNsQ3pbt2zVejn8iuFaDjgXnq8e3XtYr7z8ipYHni1fWk4bcfNNN1vlypYz9eJqa8niJTn7T3D49ttvrdatW2vdCUiAYxhOfjhhygFXMIMgk5FhhDMjtWVmZlrJyclWQnyCPoip5uXji5ecaiUlJVmJiYkaEA8PyiFpa4NpP0R4QNBgH9h/wHweNGkmqnDpbeDdgG04xm24EPAdDzYeXBUgTbqZ6SaPiclWfHy8BnzHNlUOGIGzoMoBvMDxgsSLu0H9BtbK5StzH4sPUyZpaWlWQoIpDyfgmlAega7BDUgnMSHRijeNDK4dZYlr8F6bNyAvO7bv0HLHNejLBAH7DTgODdvWLdu0jHBunANpuuljG9LB9wP7DhxSDjgOeUJ8NySZssvvOrAP5Y97uN+kiWPc68jvuLwC7lG6uY+7TcMYGxNr7d+/39q5Y6e+0NFQBToGAXnX63LyfTD+oOYrUFxvQD5xvxBQT1A+yHdBlAO4x279xfmQP+TjkLjmmnAeNOpRxaNNgzFCO0KHxMsjHBflAPB+9+KN5w0u3m1uPfQG7z5vXP/gxX+bN57/PpdAcfIKbl5c3O1e3G2Bgvf6vCG/eP77jjR48f/txf+4QOFEEOi8bjhSjjSNQPHzCv4E2u6Nf6TBWwcKqy4wHD7gw7TH6IdomRvQHkO5HxkeqcITBFYI3P5tSaErB8z50Y5A4Ewx+fnenLda1epWcHCwVbpUaatK5SoqoJWILmGVLlnaKh5Z/BDlANqiV15+1apQvoIVER6hwgWOqVSxklWqZCkrLCTMqlmjpgpTbr8BCohuXbtZVSpV0eAeV61qNQ0QPlEWvXv1tiZNmKRtGI7LSzkwbep0U249rOCgYBX6cD4I78iDK3jfcfudKrihP/Hl519arVq00v1333n3Ie0h2mQIfjgOQvC///yrx2Gwp3vX7lZoSKgVHVVCj8e1Ik/of6GccBzaWzctfMc27EMcb/lgG87hhoIqB8aMHmO1b9feate2nfXtN99qfwTbVxsBOtq03SiHq0ZcpddrH5NlhOmXfeepXau2tXLFKt+5Nm7YpNcJofzBBx7UbSiTpUuWWnVq17HCw8KtsmXKWpUrVbYqVqiodQP3DAL4Sy++5Ls/CK5yAOfB9UKIxPXiWNxXNw9zZs/xHbd61WrrlptvVYUSlFEQpDu076h1AWWEfN1+6+0mzys1/qx/Z1vn9+uv9evWW24zZZysigLUXeQL8SHsoj9yzz33mIyZ+2D6/FBw4TpQh5Ev93pwjuioaKtrl66aL7de5RVQP/6Z/o9PwYC+D7anGZngk48+sWrXrK37UM7n9DnHql6tul47FFbnnXOeNeHvw9/nQMoB9B2/+3ak5r96tRpaDjj3ueecq/HO6XuO3jP/tHDdNarX1IEfV9GF9F988UUrKCjIKl68uFWxYkWrSpUq+hwj7yhDvIumTZ2Wk5bJMj4/eP8Dq2mTpqpkGT1qdM7+ExyoHDg1wwm1R9b5V9Omy/p168W8jGXL5i3yy7hf1HPpm2+8KcuXL1NPn2HhYbJr9y51uvbxRx+b8ImMHT1WVq9e46TkIcj8MwHmPfPnz5evv/5GHba9/tpr8tWXX6r5dSATIWzbvGmz5sF0ApytoiZdMKuCKQ7S3bd/n4wdO1aefeZZDfiObdjnb3aYC7/9mPczdcpUMS9D6dSpkzRp1sSeK+5iXtXmJSyzZ82Rt958W8M7b78rX3zxpZpspaWlOREPBdf+ySefyuOPPy6PPfqYvGuu/++//1aTc39gooRymmbuA0yX/J0xYj/M0KZOnaoBJlOYx4S8whxw0qTJatKWkZkh27fvkNGjx8gjjz6iZk9e1q5dq/PiH3zwQQ2Y8/XDDz+oWWEgTGXU65g0cZLev+eefVY+/fRTXbPVvHD1Hpm+moaCgrmXME8b++OP8vTTT8sT/31Cvv/+ezXb2rNnrxPrUGDaBWc5mC+GAN8UyNch+N1/mIuZl7oGnGf+vPn53jcvMLf7fuT38uSTT8kLL7wov/z8i9bPQGBOZ8+ePaVRo4ayePEiNe88rrh12e96lUDbvOR1nItnP+6seSf5QoEpSB68BIrvyUe+uNnyZi+/9PzT9RznvV7fBk8wr2jdh78C4X8ul0Db8sNNx5ue/+/jTV7nOtrz+5VtvuR3bu/2QOnkdawXN06g4OJ+99/vbifHF6ee6LPplLkR6OTKEVdKt27d1Fx96LCh+v2nn36yIxwvzPnRBiNDaHv/HP+n7Ni5XR2dvfDCC9ruoC2/5557pUTJkjq/3R+Y/r/37ru69jn6Hz+aNhHHwDT5f//9n9SuXVvbSsyT9u8v7YrdpaFDhw4yatQoNW3fsGGDXH/99TotcsrUKTJ7zmyddpEfb731lixYMF+PGTp0mPzxx59q9oz2GCb3mAbx7rvvqONe5LNX714akK9/Zv6jfTkviIf+G8BUu7O6nKVT+EaPHq3x0Ze57bbb9BpxreirnHPOuWq+PX/+Ahlp2lsXfMc27EMcxMUxCxcu1DnrRwP8WmGagAtuIe5j6dKl5dprr1WHeevWr/OZfO/duy9XfPQdMC3ANe9Hn2qfKeOyZctqALj3r776mk7BwNz2zz//XB1e//vvv6bf8oLea9wr9L38y8+lV6/epr/yg14v4rzlWQLz7rvv1n47QD9jhgkVKlSQG264QdZvXC9z587R+nD77Xeol/zRY0bLzJn/anx/gs21jx49SkaZvHTu3FnL4eGHH1aHza+//rr2RTdu2CjvvvOuHDhwQC677DIxgqXW+RnTZ8jdd92tTg5xP2+55ZYCm/77s3DhAvnr77+0Lzr8iuE6jeDvCX/rlIX33/9A6tatq7+NQH/YOl1Q0F9r0aKFfkfdxr30B1M1tm/fJtWqVdMAcD9QRng2hg8brtMgdph+N6ZyXHXVVVoPILN8/PHHGt9L+/bt1f8A+u1H5euKnNn4awuOJhTUcuDCgReqlhsa2iuGXWHVqlHL1giWKKHBvHTUZA9aVmjXoDWEJg8B36EFg1mcVwOKMOqHUToqaxpLNdmHNhLp4TvShznSxAkTffETDyZaY0ePVa0wNK5GcNc0kccbrr9BzzVi+Ajr1VdetTp26KRa5OjoaA343q1rd9UEQquYp2bRARp/aIx/HPuj1a5NO6tB/YZqMmXvzAmmkbPMC1avAfnXULKkXgO0hC++8JK1c0dMrmP2xO2xPv3kUy1TaImhVUWAphbX0LljZ9W+e4+BVtN0BFQz+8xTz1ibN22xNY2OtnHPHpPmx5/qvUEcmPnpcfEJ1gP3P6DpDrhggPXGa29YdWvX1XsDDaar/d65faf13DPP6YgA8oF9bkDcszp3scwLzpcfBGhHcc7WrVpb5mVnX3fJ0hofWmloZDEy4T3mcCF2V6xlOiNWpUqVtAwxolK+XAXNP+4h6iDMuPyPMx0lrWfevENjXatmLa0TMM/y3XNgPrdv226ZBlU1vm59RcB9O7v72VYXc83ly5YPaDmAUSeYEbpaa9w/nA9lD638O2+/myu+e59QhjD3LBFd0rrpxptzx8knHJHlQGFRkDTNPndkBcFXJ53rRYDFDqyLkpNStNxgFaT7C4KTxmEJFM/Zdkj+jgak5V4XgpN2rm35BTf+4cLpQFG4Jpw3UNkfKd5j8zreu997z/MIAZ8Tf5x47rQqBIxuIbi/AwVvHH3fec+jaeakh3DIVL7DBTev+Dxc8D8uUPCP449//EBxvGC/SQvl5j7zCBi5h+mvO7KKUUa8q+vWqatm8LD8Ol7TClDOb7zxho4g1qlTxzJClJWYkKR9DOyHxdkzTz+refFaDqB9hck5RojRxvz5x59qSeCmCWu6d956R0eysX/RgkX6bnUtB3CdffucY43/8y+fBR3OCUvKgQMGar+ob+++OtKKfYEsB0Z+972aouMcMA3H1AjUL28e0J6h/Tu7x9mWEQZ1O0a8cX60vxhVR3z3Hv/nsf9YNarVsOrXrW+9947pU5ltOA59J4xMP/zQI2qSjXSwD23H5ElTrEsuvlTb2IsuvMhOzwR8x7ZOpr83etQYjYvtOBZ9ILTRuNfIS0EtB2CyDuuFiy+62Jo+bbpvHywt0a7DWgL5dEd9F5pyHzH8Sl/dKlemnPXEf5/wlfmjjzyq/QT0oWCVsG/vPuuzTz/TPgru908//qSWjrg3KFtYbv487hftd6D8YDni5gF9AJwDn7Bodc+B64JV6b333Kd58+YPU0iiikVpP/arL78yCdlpISxftkKtBGrXqmN9/NEnus3fcsA1pZ85Y6beY/TFYGKvaRi2bt2qVgGwTIBVCeof8oU84XqQL9R51CH0d9EX85cFvCEvy4GxY8bqefCcvPD8C7mOQb/irjvu0uksqFN7du/Jtd8/FNRyAHE//+wLq0XzlibvZaxrr7kuVzoY2cf0HqTz/P89r88nRtpRV5FOm1Zt9BnJzDR12YDz4F4/9eRTWh6wUNGReaTnPB8om6GXD1XrAkwxiIuNy3XOExVoOXBqhkM91hxHTGOiTkswChsUHCwloqOly1ld1IkH1gM1LzN57PHHdMQMI9FVq1ZVbSi0wdAeYmQZSwBedPFFqnUFcKSCJQGhwTRCpZzV+SypU6euZGZkyKLFi01YKIuXLJbvf/heNe2tWrUSI66rdh0a6aioKBM30zcKBC0uRs7h9GPKlCm6rUuXrprHLZs3qwYO2m94n0cezjrrLI3jI8DIjnmg1XHP6jWrpXHjJupUzgv2/d//PS9jx46R0LBQMS8uadS4kaSkpMqihQt1/dQ333xDsNbuFcOHS61aNcU0DOrs5qWXXjR5TtbTnnfeeVK9enXVPkPLi+t+97139fzXXX+dngtli2OhNU1OSdHRdS/m5aRxdsbs1ONcrbWWmYl/wNzDmf/MVEuImF0xGgdeYN1lar777jv5+uuvZeOmjep0EaMN2IcyNcK43g+MykMj3axZMzGdKfnzz/Hy4ksvqXMVUyvlnHPOUW/HcIYEDesff/6h2lac+9JLL9Hz5AecB02ZMlVMZ0JMQyz169eX5i2aa/1APVq5YqU6uilWrLjWsVq1aqmWHqMw33zzjWqQ4dAFmlcAzTa071gXeMXKFarZxj2MiIyQ9Ix01W6///77mn9ca4MGDTRN5B33AGUUyILANCxyzz33yNRpU/V+dDZ1t1y5clr3N27cIMuWLdXRFtS7l15+yTnKplGjRqoVTk5Okq1bt6iGuUmTJs7eoyBAvS0QGF3LtrRugpCQUAkOxhCJ/rTBd+f58n0C57u7CdHsETIPnp/BocESHhJs4ttHoK7qfhj+uPHw6U3QH+zz247BQdR5bPal6cX57e5HEubdaZ/XAds16/7HunlxCRQHBNoWCKTnnyZwj8c+b1qeuPZ1Ot6iTWZ9ZR3o3N5zFDRvgcgvr35o/jxWXKbTc/xc5mpZ5Nhk6P1zvvu+BMq7S86BNu5vpKsfnvoE3Hj5pW22ab0yX2AppfmDtRQ+zX1zf6Mt8u7DOzwrK1uynPc13tXYr0k6llZw7Io00S7COg/PrDdNkJOWCZkmaB7s4/RcThp6jJM+zuVuN0JJzndP2na6dlp6jeY7rgHxMaLty6/+s9MFOBZ5TU/P0Dy5ddc9v21JZrabT/zWfDvXj7T1HJquk1/9ivKz85IJJ8Qa13zqNjddc6yez/z25B8JoA8DyzIXvNvRNmH7s889K+9/8L62FccDWAJipBzWfHj3Dxo0yPRfijt7RUfk+/bto47uvI7KEB+O1jAye/XV10jDho3UozpAe4URX/SLateqLTt27tDlnR986EHd7wIrta5du6qTNYB3B9rTpk2a6kjuBtNe7doVq/sCsXTpEh0NRpsPT+4YNXZBHjAaffnll6tFBhwCum0pvM2jj4V+F0aVAe4Z3g2LFi+S2N2xMtz0ibr36K73AGWPtjTa9C1vvPEGqVKlqqYDIiLCpWPHDtq/+OWXn7XNXLZsme7Dd5RTt+7dpE2b1hoX4FiU9Ygrr5QJEyfo/S4oaPNRj6pWzRkJBsjbgAsukEcffUT7myg39OFgOYsAK4769eqrRca3330rDzz4gJa765jx/PPP13LESD/KC3nCaHeXLl20DuDeYKQZAf0QLKGIPuusWRjRv8/OhMM5fc+RTh07+e4rLERRH2699Vb55JOP1ZIC/R/csypVqmhAGX/x+Rfq8K5Tp87m2qpqH+utt97UPiLiHA0or2VLYT2cpRY66Ed584X+JPKB+4G6tGb1GqlXr55PFigo7nsCzshhUYHrwBKTdevV1e+o+7gO1NFSpUs5Rx07qHsIK00fcu3aNfoewTWCJUuWqnzTsmUr83w21OcT93qZuefR0SVM/e4hZcqW8dVlyAmlSpXSsob1AOQqWIu4fVaAckG54d2FZ+JA/AEpX+HELatITm1OqHIAoMFFJe3R42y57rrrzIPQQLehUsN82/XkOWLECDUrwksVwhKEdQiVW4wghIYCjQYqP8zSIHTjQUb8a6+9Vl+QeCDQmH7x5ZfylxEE8dJBw4pGsCDg5YNzw3SuZ89eZoulL8rHHntMGy94C4Wp0CHKAS+mM4LO4S406lu26gsHjTny7mXt2nXaKKCTMXTYMHng/vulpHnw8QKLMS8wTBWAgmDq1Glqxli9ejVZ5aydj/KqVq26HoMGEg0PXrLnnnuuebl/olMIfhr3kzRp2iTvvLodVmD3aLVTdgjot5lwMOGgdgwefPAh0zh0lOioaH1xwzxwytSpsmnzJunevbvcfNPNAiUH7m9ySrK89cZb8tsfv8kvv/4iF5jGEQ3cGvOS/Puvv8yLeoe++J944gkV2PESxAsNZowwgcSLT5UNpp7UqFnDzk8erFixXD75+GPtYKDRfOONN6RylcoSFhqmde+zzz6T0aNGa6cGHn2vvvpqWbNmrQr5UAxgfVrUP+QHoC7gnkMxhfoGs7tXX3tVlyWComTylMlq1geFAszdcH9xHw7GH1TlDM6BjocXvMx/+eUXVVIkJCbIgw88KOf166dmczCXw3QBXLt6Wx7/p+mc2PlRgcmARgyNJOLDrG/WrFnHphw4HLj3+EAHGz/wxQF1PATLZpmsBRSQAbbhEOd41AkX97tPWDWosOZVMrjHmri+Y/V8ToScQ3N/R1T8RnAOs9PBh/3FTRPbYPqI8+YpmJp0gpCOiYdj3PPrh/31UBDfizee2ecTYDQ/SAsn0RI4NN28zmHQa1BhxhZ0IBxlZdqCkO8anf14P7rBe4wXbLeFs3TtgGr+dId9Lm8aGiCQWVm+/b54SNtzDl988x3KAGzLCTjG3o/jVcDT+Dg79tvbEVcFYpO/tPQ0Td/dbmcRcf3y6AiM7nXht3te9x5oPCe/mo43DY3rfHcC4mmaTjzkAZ/uKit2QD4R3z63lr/Zbv7T/bnAfXfuMe6/fpr6aNczex++658T0d2POovOoD43PuzvqNf4iucUinlfOuYYN7adjv3bjoPfdjx9HvBd/9P/FTuOE3Id72zDn/k0/9nx3WOcuCG58ovYHkw8KBqLFy9mnx+bnLhu2oiDpN384VPTxp/uQxw9wvlwtztx3d+aHxOc4xAZ+bMPwTb9qp32L02fYty4cfYGB8SpWKGi3HHnHTpN8niwe3ecb0ADgyYQqP1Bu1y8eI7CAODZjYnZqfVyimmrYmN3aZvtAqUBFP1xe+K0Pu6O2619DxcIH2iTA61A0K59Ox3YQbt58GC8s/VQ0PdBmhAi0W75g/IrV668tvsQmN3pjlCCo9+yZPESbYPRTtepU1vmzZ2n7R7iQUBEQD/R7T+iD3TfvffZKzaYe5fzLFp6HMoC7SymtwJ8xzZMT/AK8gBtbefOnXyC2ZGCOgPP/C5IB/eubdt2auKOga22bdv4zL/PPvtsGTx4sEycNNFZVStG7zn6h+hXoN8EoX/lylWmzBP0nYIVt2688UYJDbGv1wV9qI0bN2n5B1JatWjZQmrVruX8skGZVa5cSe8JQN8F5YwVF1q3aS0//vSjzJ03V+KeiZNKFSuZuljLlFsjadO6jbQx14EBjiMF9wurB2BFL1wA+kbzF8z3KbFc0BdDwL3C9Im+fftq2RwJ6CdhEBHTNqH4ePvtt+WnH3+SEiVLaP+6TZu2JrSR8uWP/DryA0oa3DvIJxgsw3QNVzkA5R22QYZBHAB5A4N0uB+TJ0+SYUOH6ftdcZqNrduMXJGcoqsiQLmQF7j/qAuEFJSTohyAhrpfv/NkwIAL9GVnXtnaAL3yyiv6ksADM2DAQDn3nHOlmOkYYJvOmXvvPX0pQNCvV7eeCnvR5kGDlhUv2osvvkQFNBe8QDHCjXlSaFjj83l4/EFjM3jwENVmezWhw4ePUI0t5ikFfNjMQ4trBOho4B/mla1bt1a3o2HAy8F9uAHSwfWhM1LKNO54WaM8QJ3ateXa666TRv820gYdo91ZGVk6Rx1LuyAeynHQ4EEqPLsvdDTm0Ezi5QetOOZs5avIcBsUky+7E4yRL3ejDe4TOrrQLPc7v59cf/11quV2+eP3P3RkHo0rtNv9L+ivL26kh9GZ22+/3TQq83xzJKG5xTI/02dM17xDWdTPCMheoB1FPAjKsCSARUJ+ygG8IJea+jHHNLioWxdfdLEqTVwNNIDSAOWCsHTJUkkwDeyPP47VF22Z0mVkiLnvffr00Y6WizvX7cuvvpJJkyeroqlEdAn1i7F40WK9ZuQdjbp3VATWBbAgQMPuBZ0pWJ+gMezQoaMMHTpUmjZr6msM65v6B4sWWDmgg/D33xO04xLu6WSgk1W5UmV98cfF7XG2Hh22kGOEFnOfcJ/xzwvqA4QpPH/Q7Otom9YTRyDCfghy5hOdQFfoyxHqTDDbNGlsN8eZDz0eaSLY8ZEHE7DTRPbuQx71E/H0097njgS6aePTFsDMdnOMO0pqp2Of0xXS3PR8wWzPEUhzgn2cnQ7iuGXiC/jTT92Rc6wjgNppeOJhG9LKsssdZePmxwVfsR2CLMrUFWz90WfeBPt5tZ9bOye2AkO36Xsh53nWbzjM2eYTjpx4qiTBd3s3krBxfrvH4cO+HnuXmw46Ma7w5UZ1j0Le8A2fOA4C4CHH2NF96dqnz30dTiwtN/d4FU7Nd/s3zuKWRU5aAO9hu6OFGPqh6BHO8W7APmw3P/AvF7ofybtxdKP9XY83edBfussuV+xHmfniO+TEx3dchx7pK1PdjmPMP71W57seh4A/Jw1ffP10ytZs1+s2afuOwxcHu/y8aeTkQXGPMdvd63Djayznux1s4ds+znsv9KcvHiyN8GlHsz9d8BN5gsDj2+eLawL+nGu1r8n+7kRxvttBY7u/zS/73utm3eY93lYQOteoRWVvB2iDvAIL2rd2pu8xfMRwtdrr0aOHfPHFF87ewiU9PU3STD8BgyJRxaN8eTocqGvoX4CdO3aq5aDv+g2oE0gTbV9IaMgh6ULwQAgEjoGPKPTRMtJz+y/yAutIWEIWN/mGVWBBQT8GCgK8/9BuY9S1Zo0aqnCHgh2KeIy0QoBHe5nsLMeI+FAm4Drdd6r3fY8+DIRYvJfRH3GVEbif/teKNNAPKWh5FwSM/J5v+lBrjYCLPirqFa4H/RQIrwgY2MAAF/pUxU2/D0qTeqavCyET1wuQI1wdBEn4R9A82peruNeLa/VXGgH0Rd20DkfjJo3VhwP6IRisgbIB/dAoHRyqqPUf/gsGDbrskAGww4H7BSUE7geuAcoqKKkCgTyjviYmJWqbeKSg/K66+irTz64tkyZOlAULF8i06dN0HwT2GqZ+wSLiAtN/hZIA/cjCAOXcrFlzTRMWK+PH/2X67gN0AGjz5k36XEAxgfMDlElaappkhWWp0ujA/gP2/fWrhqXLlNb+aX4grSOxejl2PJVQQab9Mk6KNCdFOYAXBywFvCY7XsG2rXlAGjSoL5HmYUIVg4CFlzPA8dAQZ2Aky3xv366d2VdSH2A89BAk8RDE7orVEe558+fraHF4WESBHg734UNa3bp1PcRECpYHXqHxEEyGTbY0b0gKHQw4MIRWEHmsWqWqEzGHihUr6IsbVw+N+NtvvW2b+dWpraMR/fufr5rlDNP4QWuOl+I2I8jGmZdnSxPviiuGm5dDWXO8XX74gIDaulVraVC/gSxZukRN8Fy8HQPFOQygIw3BLyDOdUEoRSfIqxgA0PTuMi/1Xr16af7R0CI+BBx0QDp07CAPPHC/jlBgP7TdK1et1HuGFyY0z1hz1wsEcAjeKLv95uWIBgma9UCg3NHAoqFFY1mrZi25YvgV2pD4MNfavkN7ufPOO/WF27hRYy1POHhB/Ti759mqHfe/x2XLlZWuXbupw0toruGgCXV27bq1Wh/79OkrvXv3zqUYAB07dtS6BEWEF5hA4p6go9m1SxftLOyOzd0YomOEOoDOARRBt99+m4jnUlBnikcVV8WDv/IhP1AXX3zxRecXsCuA3isUYgAQA3UD2PH0qwH3196jgrPZYQvGukX/aedTO9S5hULdif/tDycX+O1sd/YD990AtJ6bfzgPGj33XIjjE1zsiAFwNuIcmoz5gyDgE16Qf+QPAjsEeBPPBF9OnLz5hAcnDaDlYn/T79geHIJnDfvdFOy4+K1ndIQbC5YXBsgoeD5dAU7zgOs0QZUrGsn8c65Tr9knyDm/9RTu9wDb8M29Zmd/MEaUnXh2HPPnxPEJlJqEJuTEdYNu0e/IOz5xTO44/kGTMdjH4DzudfvimG1uunZ897sJ+OU5TstDryfneDs9E9M9xgm4h3baNrn2Gez8mHTc8+EcSFfTzx3c+xToux6neTv0E+ATf/YP/NP/7J9OHBvvd9Qj7+8c3OfPPhb5y0lHz6Qb9KeNr1L7pep+cfajVrvPpJvfQGm5cRSzH7t1iy9PNrniHQ4nHeCmdQjeOM5+fRLdqGanxvDkST9NXF88NwGDGxc78OxBYHaBg7gN6zdoZ7xD+w6qREZ/5oIBFzgxjj8QGI7kfY86B+ESUykvuugigTWfVwBG+4g16QHqLNp3r0CEwYtAAyEoG0yrQ7uJdiiyWE6a/rcJ58DzmRdIC0pw/z4a2jgIybB8RN8AQmmf3n3U4SDKAI4MIaz6g/Pde++9OYMCuJ96v+1bjW+4xmrVq6kA7q2f/iBPMTGY8uh3UccA3o8YvX4/4n2dqgjBfk/cHlVa1KldR4V5WNeOHPmdEcCXa/mj3cbIduXKnj6pyXeoSQt9kbvvvVv7E+Y14FxrTn6Rd/++CUDfBRaOJU0f+nCgT4TzQxkDh4JQqqBfg3yhXwZlDLbBwgSWESjSnFL1lF2AosZAnyvgIq8YLMF9V8uPAKD8kI9ACo98MdlAvxSDiLC+QT8UCidY5CBg6gauA9eVkpys14w4Rw+uO+fa0X9v1bqVKgTQp4PF6YQJE1Xx0759O52+470mKLQwIHjJxRfrcaooxXPkKUOUF+o5yiMv8Dx4B8iOL5577cUKcONJkeWEKwcATLzzm5eEF7Y9uu5UsgAvbrdhh/AE6wIIUGPGjDENzG7zMs/QFz5eWnONsI1GpFKlyoGSOQQ0EviLMi+4QC/TgoDzuFnXD+c7BF0IfP7UNwI8vMrixQqNIl4YDc1LAg979WrVdd5+9RrVpXnzZvpiw0g0/Aqg0S9dqpQK1oEat4qVKmrAyDKEZhe34x4ICCPqgyEAbmMDRUSDBuZFhCSca3P9SWAEAdMcEFxwr3A+NACYy4bjsA3WDO48RVwPVoIIBCxFcK0pKcn5jpCjgwELEXh8RYcO86tatmzp7M0ByobLBl2m14p8oGHDfEYcD2E+0H1HuUNh5V4wGlW9Xpg0mzTgByLQuQAa+9KlctKECSO0wADnxH3HHL5cSgzDbnMOzEVE52S36TjhPIFAevtNXS8oSM87JxU3RAVNj/DjbnfBJtwDV7hxP/UPO/EPv01A/TL/7HhGSEIDDwWfu9+LK+T60nYEKhWuEN/57R6L4AphXnKEMXNuTcdOL0d4dD8RcLiTnnuMybAtXCLYecJ373UB8813jJs2ghc3Prajs+b+toNzfux38qyputvMMVp+ENZ9+ckdxw5OHjWOnSYpGHk9R0WLvG5o3jc6KAhCLK7N1AndYteXgpBfLKR22HTM7pyz5qBb/I4taJ78CZSWP27ampc8orqb9TnKJx6qCZSPaEvwCc/lEFCbNG2q/n2gSMb89RMFhIYoE/C+hyCDNtPfhBsrCHk93gO0K1BQYwUmWETCQs/fdB7tGdpjKDMxau21joBgirYOAgzaQRf4pUB5YMTXneJmlyXqYO5nDP0eCCcY1NizJ/fKRgDtIKYDpqWlq2DpHc3GIETfvufoaguY9w8lPPpAEO7RXsNCFIRHhKtpOECbg1HZmqZdxnfcZ7xbU0zZbTTtPQYl0MfEKC36Aa6yBH0vlIV3ygb6NJhOiPeG1q886kteJCUlavCCvOBeQKiHX6KZM2fq4ACmVqD/i7KEj4evv/5KfV9hQAX9WShCMEIPUJ6uRQPKCysIoExcCz/cAvR9161fb+pLrK+cvGCABH1lr3JA+wceZUh5kycopGA5ibioO5i2inNg9YQ9prxWrFwpL7/8svZf0RfHwA/KyX0efe/cPMoOddTb74Jnf5jY+9dv1HuUB+4p+r15WbTkBXKx3PQncd0VKlaQtiaNnuY5Rh2Av405c+botCHcj7lz56oy5FiUA7mu23yF8gcDdni+MLgHpdD06dO0j4777X0ucY3FzPMeHhEmXcy+K4YNM98jzPsI7b1dkHgOsFoB6nKjho10WyBQP1SmOmE4122A8qpEdCnfvczZc8SPEjmRZJvai6D/HWUo6GoF8FBqXtLWHbffYRmBzOxwMPvhabdkiZK6H15ZjbCmXkpNo6xR4GkU++Dh9bVXXrP2xu1Vj51rVq+x3nj9DfU+inVe4ZkU3vjh+R7e45s2aabefeH1/vPPPved65uvv9H04B138cLF6p0XeYRHenj3vOzSy6yliw9dixSeR5E2joX3XOTRPw6CeUHbHpzNvx++/0FXTKhauar14P32+rT+YeGChdZ/Hv+Peklt3KiJVbFCJSsizF4LtlXLVtbVV16t3mhNw2XNmjVbPaNijeE+vfvo8T5v0Z404bn3kosvUS+75/c7X7cdjE/QFRyMYGLK+TEtZ43vEBsba7326ut6fQgoX+yHF+Zbb7kVz7V6KDadAvsA51xr16y1OrbvqMdgDd6YnblXVtDg5g8fpnx+HvezqTu9NC/wpAwPtfmFrl26qbfaQ9J1AurDH7//oesu456fd26/nP1+4L7BIyw86C5fulzLCNf25utv6trV3nTd43GNuB8IiAevzzgXrvn+++4/9BgnvPD8i1a9uvV8qxWYhlOvA8fh2uHRNtD1ugHH9j//AntdZs89/n7k91bHDh3VW/ZNN9yU65x5hSNarYCBgaFwA57fAgS8z484BEgnV/DmwZsn/+AfP6/gxitI3KIQvPk9XDDxjfDj83SPtmLl8pXW119+bc2bM0/br1xpe8LxWq1g185d1uOPPq59oMYNG2u/Au2Ymxf0ax5/7HFdJQCe99Fe63Exu6xrrr5W+0dtWrfVNsD1To+AlQOwQhTWrW/auKmuNgBP997VCtCPQB/FPQbn3bJ5qzXs8mG6wgHW3586ZarZaa/MhDbJu1oBVh1AWxYdVUI9rKMNRH1F3uFVffOmzboOPDyzX3bJZdb8efN950JekGbF8hUtIzBZffv01X5ej+49cq0CgOtHmcALPvoTr7z0inpox71LTU7V1W4Wmb4e1uKvU6eO6eMN8h2LtHAMVhj47dff1Gs9tiPvG9ZvsG668SYt95DgUGvi3xPz7Pe5AasVYE1/5LP/+f1zrZbl1i9cN9ptIzRp/xT5xooN8PyP1RLQf0PZuwEe+uFp300H9/X1196wwkLCdEWAObPnWKmp5joz7dVG4DX/t19/V4/38Gb/5htv+Y7Fikzo86C/+dOP43wrCaDO792z13r15Vd11QD0PZDuVnOvH37wYat5s+bW3Xfdbe0zdcZb99A3QXni/mLFLzwrOA71AnmDt3w9h2HmPwFWKzBlsmnDJl15Av2rQZcN0vqGeoprwX1AHxR9HpSVEbC1P4Z97jX5Bxw7a+YslSuQJuonVh9BvWhm5IIhg4ZY/8z455DjUFdx3SgzrDrgv98bcA9wvejHeVcrwKprqMtVq1Q1MsMsE9nBHDNp4iSrbZt2ej+vueYafS4rV6qsq66hDrtpu/FQh7Dixcb1G/WacI9ATEyM9fTTT+tz1e+8ftbKFSvtY536hdUMIMeg7qD+xjkrL6AssdIZ+r1Llyy14vfHa/vhnvfYA54NvDftMGbUaGtA/4tN2WCnnT0ni/Z/DEUy5B7yOkGYUzvfAgMtoprj5qNWwig2tG1GyFdfBcuWL1NnN6bhkBtvuEnX64X3ecyLd6cs4O9wuHGORkPsRc/maPeU/C9ZtaBwxvfmm2/Krbfeon4E4NwF/hcwX++bb7+R/zz+H52jb3ulhqlxlk/Dn+tcDuYloFMRTCOgZoUA0VwT4lw4+cO9wbSCQOm5IA5GUryYhtUxoRade4hwCCZJTCHYumWrTvnA6G64udfmxa2WJNddd32+YfDgQT4ngYGANh7aVoy8msrtm2epqOhvfzWNsmCKAqwWMBqEa7VHjoN98xL9wfVihAT7EKpWq6qOYDCKAzBnESMMgcB2eMYOBOq67UjzuoDXjHDllVepg0dcWyCQ//zuFyHk1MJ9po8oOMcelsNFxP6CJObGK0jcUxCUKCxz0G7g3YvRcfj2gRO+kwG8lTcz7R8sCjHK+dFHH8mC+QvECEk6lQ5T47BKEUZX0Z6hTqCtgsUBnCdj5A6rBhjhV4/DMQgTJ06SDz74QLZt36ZteCOTvtdyAGDkHE7icC5YumF0eNSoH9RpHs4B60b/aYZe+vU7X83EMzLS9Rg4mMa5YbUHH0E/mLQw7xvT6y6+9GLty7nAWgF+B3AOI5DKpEmTtC1Get7RZoyMwnqv59k9tT3+8KMPdVQe+UUfCg7ssEoBVq7Cfu+qUeeb/MFaACbl8J2EVbDc60R5ffnFl9qfQpkWlLM6d1aLCUyXQPAHbb/rvBj9Ilhm4LqbNWsqWC0Bx2JaqXvO1qaPiJFnF/Rr4SixUuVK6vD5pZdeMv3DOeoPCfUDDqJhjTl+/J96j1q2tNfZB7i/EeERag0A55oz//1XR9Phnwp1CHULU0bQ/4B1Bfw8wVIBfTfUnSmTp6jfre07tquvJoy0Y0ppiKk/pUqW0mkmIFd5OV9xbtRP9InQB8Pod9yePTp3/tbbbpXoEtFqcv/XX3/pqDjyBTN/+JnASliw7MBIOMonrz4RwLlRnxEHATIDHNi6q0zh2n819xb1AvXDrSPYHn8wXu8NzPzzQ98R+FPrvUPrhm7z2wyLEfgzgLUt6hXqIuosLBS8o/uIN3DgALXkQFmM+3mcXebbtutz+MP3P6gjRbc8/B1SYwoU3gWoX6g37tRs9EdRvnAA/+wzz+o9z8jM21/IkZO7/4x+eGJSgrkHts8ZF3w/tKdNigonRTmguDUjYO3A03Tog+YPGpZ/Z8/SFxSW//vwgw/1RffYo4/KlVddqeZnEIQhKAZ6SAOCaO5Djo+CHBMIz7H6cjINAQRP1/GNN1040VNB1QisWE7l9jtul08/+1SXuPvqq6/logsv0pctTOHgQA8vVvgpwEsJjSWUJN7zuWBePDwTlytfTufsubjR8NJR8zMPEILhJA+NSZ6YBPxfhGg84DAR2+FhFcEfnO+1116T//znvzJt6nQpaV6EELLRAUMD9NBDD8oTT/zvkHDvvffITTfdqEsWwYwwL9AQoKGE+RxegDtMvdCy8QOmg1jBYuR332kZo9GDqR7mXWI5TeTTHzgthMkcygUBDTumtLgvXJjpo7PjD+73JrM9Pt6eRgCghIDCBqBuwONuoGt/5JGH5TbTWN58882qMMI5A4HtXnPPQsetW24ghBwd/s/SiQzkiEC/AebUVpCl72wI50dqxlyYoN3v0aO7jBg+QgW7OUaAhXk3+guYX3/HHXdoG4X2FMIznPNhcAACx+WXD5FLL7XNtN948w1zzB1y5513aXjuuedUWIAw8sILL+qURm9bg/PCge77772vK/s8+OCDMvTyoaZ9ekR9+2De/4UXXugzW0dZQQD0Cm4tWjTXVYAw2AHBGyv/wP/QAw88oJ9IC9Os+p3XT305uO2qC5ahhn8HF6QPhblrYu+C39dce42a5aNNxupBKBfk+drrrlWn1ugbwNfQxRdd5Bwlvryh3EaPGS2Pmj4kVhC65+57NG+Ye47rUh8mBaRR48Za3ugD+Pp9fiCOu3IElCteBQvOiaWr3XvRvVt3n7M6F9yzRx95VKes/vzzz+b+XKXLIz/+2ONy8y03y9fffKX+kuCMGgoiFygT0M8LCgmSUaN/kOtM2dx0001yxbAr5NLLLpUt27ao4gX1xp0CDKUU+pFQOtxqyvX2226Xp596Rp7835Ny7z33qiAPBRqUZ7oCgikqt6/jUzaZbiWWdixbtpwp6yT58ssv5IYbbtQVqaAcuMX0c9q3a6+rSPz3v/81fcX/yOuvvyH333+/3kcohrSePv+C9tvyIzsLS/glSmpaqk7/xH1H361jh47SrWs3nXLx6aef6rKJjz/+uAZ8//vvv6WcyV+P7j0C+rPwov1kc52m6ubqE6NfjfoPB9Ko115ZB88JpiPhXaKygQnwHeZOiXFBPPgIwRQLlCOelf/973/y1FNPyTXXXCNPP/20CvZQYmAKjT/u0pfwr4CVJsLC7OcRwvqqVatl7I9jta5DuROoz3vUoEzg+MINTj3Qn2Y3JA43kKLLyVMOFABXKxcIPJTwxn/AccwDT+9du3dTB2IILhMn2l5tTybQZiPgQYUm2x9o79q1basvaMx5csHLr0PH9vKFeYG6L2i85PCygbdiNNpYNnDMmMBz9bGMIQI6B/5zDMH69ev0BenDFFtsTKwqWKBlzQvTRNovPD/QMJcsUVKFbwQveFmuW7tONdnffvuNbDP7q1Su4viCCFbNOhq3QOAliPxj+UNoj/MDnQpoSfGiRscF5/NvmOHU6KWXX5K33nlLGzS8pNHg4EWOdYWxkoI/uHdYsskFWlpYe7hOdKDZRrr+wJvv0mVLVUvsghUmGjS0l7BB3rDWLpYk8gfaeSi9sEzQo48+po2b4ndrMDIE3xLHDZzPGwgh5FQDXYmCBvOeQxuCETnt9GPbSQa+DzAfffDlg+Wuu+9SoeLAwQMyafIk+fOPP7WD/9BDD8mFAy/UfWjXwsNtwRLf33nnbRky5HJtf5aYfsiff/6hAd8h+L3yyqs6ooljvWCEGoJls+bNdBUgtKnwX4A2HUI1BBY4E4YwhoDVC7CKAQQsL7DmhCNgeGxHGwsh7O+//lZryGIRxXQQBJaTcJiY614Y0KZ7nT5CwINTa7f9dcEoKZTtEDbRRsMxNSwVfvntF9P3WmIEpHC58sor5YMPP5CmzXM86uPa4Ah68KDBOkAye85sFZ5gzQDFxJNPPqllqHWhgKBPAQEbChuEQGDVLte/AVYeQnCBQA3hFIIVwD1yV7FywbHwvI/llUuVKq39lN//+F37MRAcUQZPPvGkLtfnJTw0XPs7D9z/oFx2yWW6isWUqVO0r1IiuqQqab779rtcvsGGXzlc6xfygf4MLFU++fRj+errr3QVKYzkY6lv9NNccA3IIxQdKDvU0SpVKhvhuK80atRY/VnA18T8+fM0PgZoMJqOuf7oy8G/wEcffyh//f2XKm7gjPq1V1+T8/uff0g99QdKskjTh3blCCjU0Kfu2LmjXH3N1dKrd28VlOFI+7vvvtOA77jfWFkL9c21gMgLKG7gZLxJ4yZ6/bhG3K/Spl7C6gNO1/Hc4llBgMIR7xacA9Y0WAqyZMlSMsQ80/iucTz9LPQxYWWDOotzwa8aluKGMs9WFvaQu+66y8gO19kHFBD1y3QEdflYgFVx6VJljFxmP84wKvaIaKSIUiSVA3AoiIcElVeVAwEqEiwCIs2LBA8IgAMUCJy2k7AgNR1/99131ZkdRo81rQI8DKoJxD8oGUxDV1jghYG8wgx9m59HfheY7mFZvPTUdHtKgHmKkhOTtaFTb8Em+zA7gzd9rE8Lb6tbtmyVN954XRsflBniYLoBzK/++WemvpxbtWylLxeAfEATiZfkpo22iZI7ur561Wrzsv9ElpuXdV5oOZryVXNLPy66+GIVeqFZhsCLkQ2AfEFBg4YFjUqN6raZGqwkGpjrKVeurFoafGsaI3iCRiPgats///xzbYQAnCodzgEUHDii04AXNhQf77zzrqYJqwwswYc1f9HgwAoDygmMUmDUHQ6moHiBNQrMCGGa5wKzrYmTJskvv/6iTo/QALrOVeBEBg0wlANoTKHZ9gJLCZiC+YMRgjvvuFPr2rhxP8msWbN0FQStfwbU25/M9s1b4P03WqeZ+DeGrrki7jFGDgghhBQCaN68TVyAPsgJwy8vaNuuv+567Rd89eVX8tSTT8k333yjQhXaeVgCQIn+wEMP5L4Gww3XXy+fffqZjB41WttGBCih0cbC0jIvIIRglPX3336X9957Xz744EOZNHGSvPXWWyoE4zxouxAwSv3dyJHy5Vdf6prtrnALBlwwQN595x35ceyPRsj5XF559VUZNXq0Cj0PP/KwWmcUhF69e/naYH90UKVDB3nVpD1m7Fh54f9ekI8++Eh+/mmcWgvefffdAZ3zYVT+jjvv0L7TRx9+JK+//rq25/MWzJOrr71aVq1ZJZu2bJIuXbsUqC9Zv3497a/AAd3atet8/SF/cO3bt2/Xz3POzenfYFBnxIjh2ifB/ssuu1T7Av5gcKDf+efLKNPnGj9+vNaJjz/8WH4c86N8+smnuYR1F0xTheLj5ptvkqefeVoHZj7//AvThxmp6WBABtMY/EfncW9fM+Xyw6hRMvL7kfLh+x/KRx99LFOnTpWR5p5jOWc48wZQIkBxhOvCqD/6Ka5wjHL5+OOPZPr0GfLLL7+qtQNAv7Jy1cry7HPPqvIIS1jjXqC+Io+wJIDAXBBwvnYd2mk60/GWwiQAAP/0SURBVKZNs49zbhu+P2fOgdUgYC3jhl9+/kW+dqx1dcrKYZ57OHLEKD7KGZYXAEqks87qrP03PJOwUrGFfsvuN5t/GEh77LFHVZHz26+/SrWq1XzyhlYtT/WCIgFTpNGPxMAdyhnhzz//VIXGoEGDnJgeTL6xH9asuCfeJcKhqLnu+utUyeCuTAJF0fEiNStVYtMOyD5P9xVvhCIpfJIcXP8D+t9RhiN1SHj7bberkxfvfq9Dwgfuf8Bat25drv1wooN9rkNCI/hZu3fHWYMHDbFCQ0LVuQkc1Tz4wEPWHbfdYbVr086qXbO2VaOa7ZwHx7Vr104dwW3euDlPh4TDhw1X5yVwADJvbo5THDcU1CGhN8CJyCsvv6rOWtq0amNNmjjZ7MjZ/88M20ELHJPUrVNXHcjAsdAbr7+pznPq16tvhYWFWW1at/E5tjGCvGWES3WEElU8Wp0W3nTjzerg5Zabb9Hz4NrgQOaD9z/wnQvOeeAgr3y58lbxyOLqeOWC8y8w13uJOj+BEyHcB1M19Br9HRKaht661ORPHQ4CJ92cOLepoxU4oWnXtp115fArrTtuv9Pq3LGzVbpkaXONEdbzzz1vOzQ0x2xYt8F64L4HNF0c18nEg0NDOF4afsVwy7xYLfOyVYeOcDbkPd8hwQGOkp584iktm2LFilkd2nWwbrj+RuvKEVdZZ3U+yypr6grygnI6sO+AOirasnmL1bxpc70HcA4Dx0T33Xufhv6mfGrVrKX3AA4uN23cpHUF54RjpRtvuNFXl3Afrrv2OnP+J63OnTpbZUqV0fqE/a5DQhyH+zBv7jxNF9feoH5DdcSE+nu7qb9nd7cd9uA+4b7i+TCNhzqOQZ1Dnh966CHNL5xSep1F5RfwHNEhIQMDA0MBA/D81vew44gtUDheDgl9mO9of+A0D07HYnfFatublJCk2+EUzXXk5p8GtsNhGtoTOJ5DcJ3R+QfXISEcwL36yquadqI5x769+zTg/N5ygBO+LPMbTqTRvsHhnttOugF5wvngwA55xvkTDiaq00E40zNClIl4KGhn33v3PW1HEebMmqPpe9P2D8gfzgMHw8gvygfn9h0HPPHRrmI/8oL4cNqWknRo2WSkZRy234eygF+2RQsXWZdecqm2uW++8aa93/XGVljBgPwkJyZr/uFgDvnHfcb99r8HCOqk0ezDcbgnuOb9pi/k1iPsP+Q4Q0ZGhp7HrUM4DxxaIn6uYwxI260HWl7ONtQZbENeU5JT9RPxfDj5Q8B5cA6cC/cTAX2fXPk6TMB14hyaB2wzoI4iD7hu1C034HdKSoqWSX7PuBsQB3FRd73X76aPbYhj1wccYB+HvCBPiIP8od67ZePGCRRQHrhHCFpmAeKgfn3y8Sfat+9yVhd1sOndj3OgTG80fWL0V+Ew8XDnPaKQZd47WeYZc8LIcWOs7sMGWbFml9ljwS8haoM+Bv7HMhSZUCSVNzDrMtmztWceDZoXk3k1sbrqqit1LhZGXWHWDZP1UaNHqYNCLA+I+Tlt27TVUftVK1apgxl/M3NgykLPCb8A0PJBa1semunDaA4LArSvGCmvXauW7Df59E4dAK1atdR1XZs3byE7d8aotvqLL7+Ut995W0aPHa2OcVo0b6nzClu2tJdVgeZ7xIgRqgWvVq2qXi/M4D76+CMZM3aMjozXrVdPrr3uOhkwMGc+Ekafhw69XAYOvFBNpqBZhDkZlgjavHmTNGzQUJfEMQ2wc0RuMJ0AZekdDXCBRvJOnct4p5qjYc7Tr7/9qo6LFixcoKPumEN/4UUX+hzrYInGocOGyh233SFYInHRooXmHn6row6//f6b7N23V7p17a5a2fxGNhRVaYhqQzFX7vHH/yNly5QzZbNcnblgWgAcDmH5R8zHQz5dsy9MW3jv/fd0/iSsO7AOrauhnTZtquYD6xL/5/HH9dpcixVodeELASM20MCuXLlSNdzQysKxDZa96tWrt+bJC7TamOOI+YwwSdu6dYveg2++/VrnAM6dN1fjXHbZINWqoz7qaIUJqKeYToLRBKwtjTmicNhECCHkNMc0A2h/MOXBnUaHthftObajjUefI5DZNbajnUJ7gv4TAkY6CwLSjjLngCk/gm/KhYMuSWsyhz4C2i6YQbvtpAvyhPNhtBt5xvmxLj6s95A3/xH5bVu3yeRJk2XsmLFqGo90b7n5FvX3g/TzA/nDeWDWjvyifHDuvI5Dnwb7kRfEh2UC2ld/8pty6Q9Gz+EbAfmGxeKihYucPYUL8o4lvZF/jGYj/7jPKFP/ewCQH+zDcbgnuObSpi/k1iPsD3Qc4uI8bh3CeTDCjvi+Y5xbCB9Q2Iby1v4iuvSmbuAeYxvyGhkZoZ+I58VND+fBOXAu3E8E9NeOBFwnzuGdCov8IA+4bvTh3IDfMIPHdRbEOgRxEBdTFpAerg/gXPiNa0AcXXbY06d26xriaL13npvDnRPlgXuE4F9mXkZ+N1KnTECugBzkBY4v//57glqrwn8JZImCXOvREpJpSVSKJaWzzXWb36HmVDibG0jRJAhKAv1S8PfdIfTq1UuFt2HDhjlbDgWnwdwZrJMKBxqYg48H3gUCO+ZJZaRnSPMWzTWO1ylNjBGaIdzh5QOTMbx08WDBq+jCBQuNULlYvaXC/B4PDkzQ23doL/Xr1peZ/87U+VeZmZnqERRO7XTO1JTJ6ikfc/TKmEYKzwfM6yAwq3fc9h20cfGa0MNxIATHfUZYxEOH6yjIg4VGAfPpIMCjsUBZeI+DoAdzfEwPgCMdCKgwc69QvoI+vDDd69ixk5RDPp38YDoA5vbDrwDmzsfG7jb7RFcmgGO+Fs1bqIk9ph/4g/VVFy9eYsp1p87Nh+AOAbl+g/rqMGbG9Okab8iQIXofcF8wDw/m8zCJ73JWF4kqEWUL5H7ADA5rxOIT15Cdma0v9Tp17XtSu1Zt9RirmOPd61i4aKEsnL9Q84MGGMcg75gGgVUK/AXs/EB9ggfgf2b8I+s3rFenjyHmJV7FpIHyRJoQzv3BCxPeeDeYOoCXKChZsoR6RkadgGMXNL7a0OA2mPwjv/CoC+UUyhSgnjZv3szct/rmJR6m9T46Gt6U7ekguPdQgmFNaiiLUK6474mJSaZeh2rHpG7detK2bZtD1tnNysyS70Z+J2++9abmA0qj/J49LzD/g5MmnI8QQsiR4XSZ8mz3C9IfOhWAkhvT4uDbCWbhmE53XPErzr179gr8KY0eNUrbySVLl6jwBhNx9AfyE46OJxg8wr3Pr9+HKuLuRt8Aq0HAvB3KfjgbJqch5p7jzZBPtTjuQMaBMu36G67XqUBwxAmHhF4gWywwMtOqlSulT9++Ur16NZWlCg0Lzg3tdyT44YfR8ulnX8nff42XbNNthoIAe7WszH8nsbhIPpww5UCBOJJaYvKLl7R+NZeQlJQse+LiVDkAr6dVqlbRxgMWBtCgYTte5qqtM8Ka27Bk++b52CfX4vDkw9b35Wywi8lbWGgknK/5AMsGaL+fefYZ1TL++JPtMEc1qg4QFvcf2G8awn2SZh5g5BtCIuYYQngP1Bghv3jYMfccx0FbW8xcI46DRjfPh95cQppTLslGCA4z5QHNMbSYuFz3mvXTOa3bKQL4jnPlKgoH7IPzPHjDhVIB1wVlAPLkvQZNzvyH+PjLzMhUJYn6QDD7cAwcG8GLq3sdOD5QOeQFXpboWMCPAQR2aIeh8MmPhIMJ6mcg2fHFgJENOGWCsiI/oHBy/UlgSR8oWrz318UtW1w38of6GH8gXvOJa8e1ljL3rmyZMrYSxa+M98Ttkf/89z/q1wFWIc889YyOpBQEKgcIIeTocdvBvNqh00U5gCXtMMcZlotYjQBzq48rfsUJhfrI775Xy0O0kxg1hW8geK4/WYqBowVL0aG9hoNB+F4i5HgAmeHTTz+TyZMn6coiUBBgsNQL5KbUlFTtv6vVwhH0pwuEn3Lgu5Hfy8cff6aWM5Y5Fc5mS13mu4lWyGcnhcSpqRxw82o+3ekA+tOynX5AuML0AJ9gpvFQHW3BEs8C4rnHKe5XvzxAkHOFOeUoazKSX7Fsubzxxhtq4n7ttdfKs88+awvjwJMu8uUqLXANev48zovrsrJM6ma/miWFOBE9l6a4x2O7CXr9vg05uGVim0dZOSPkgcB293BvHG+SeR1r0FuCa3XuG4Jer/OyQg6h3MnBdjaZb55cnP0ox1xKDGz3Jnk8ye/acd0mb7BwgMIKcb0jEu5+AOebTpEof/zxhzz99DNqvYJpJVjqEKZtBYHKAUIIOXpy2sjAL/jTRTkAz/ewooTVHaztjvvUNb/ihOXemtVrtK1C2wghB0qKUxFYMULJgmuA1QMhxwMMxM2bO09SUlOlTZvWtlPFE01elgN/j9eteG3iU7+b/wK/RcnJxpGeTzE8tQkNtLv2LL5jFBZCpStYoQbiNwRKO57ZZwROCKYQPH3BEU5zbXO26/nc4I93Xz4Bp65Tr47Ot4cGfNSoUdpg4GFW8KQ4QBmAUW4E7YAgjQD48ms+Ec/XWUFanmBiONeDnQYTDds0XxDGIXCbTzuEaFkhJVWu5HHuQ3DPpefz4GzPhbNNkzZ51vMh/+Z8mE8GYR4B1695cvd7r7EAoFxc6xI9WcEPPf44ZQJFlpaZuT+5FCPmN/KehXrsKVRYQPz22++yZ0+cdpTghTbUWb+WEEIIKQzgy6Bz585y7rnnnhifNmjjnHYOYLnmtm3byhVXXKH+lU5VxQDAMnddunShYoAcV9Bn7nxWZ+nVq+fJUQwEIDg8XEJLREs6fpjuLR5xtztu93ZJUeTUVA540ApmBCqYcbuOSiBcB5uHRIFclWUL0CosGmHLwgit2QV/A3kGRzhXARl4a7M3HAGYL9eqdSsZPHiwjvTCv4E7r13xaxwPh33dtgMiHU138Tx99jXbChEVMoHZrgI4fBegXFRxgPLBTj9FQ35484rk3XTctPz2+wf9wPnNJywVsPaq/nAx322FhaO0MPnVfBUgawBxAwrOON4NJwkoZFBfcf9cJQY+XXB/7OkvcHKTc81bt26TtWvWqOPIc/qeo9MJvMcRQgghhBBysskKDZLEyCBJMH1YDIUioMt6LNbq5PhTtJQDqCyHqzBuHCeeClYm+MtHrjUBhCoIWhCwEFyh3ydw5RWA/+9CoFLFSuohFFrw5cuX69z8oyZQ/vzKwWcV4Fy/4omDbTpiDcHb+X1ImgXETssO7ql8uPcs17kh/DvHmB+58ufGwyZTS6H7UEeM/ukeLX55OeF4zo9r1zrpf3HeMnCA0004U7z1tlulS7cueozPSoYQQgg5lTnZbTMhpNCwUo2McyBeMFybbZ5rPtqnBkVLOeDiNg5uyAcVSFWwdDYcCf7nyS8cLX7pYH45vM+//trrGrAawVFTwHyhbHyCd34cTRm64Nj8jnf3e4M/ga7HU3a+UBC88fyPK2gaRZCePXvK62+8LgMHDpQS0SVUsQPFAiGEEEIIIUWF8OBQKR1SXDDJISTbDrAeyO2ZgBQ1iqZywB9XuMuvJgWKk1/8QMLp8cBfEEae3G3++44G9xoLI63C5mTnJ1B98P4uKnjLyc1jUcwnIYQQQgghBSA9I0OSkhL1uztGCSNgBFJ0OTWUA4FAxfIPR0qgNLzBxfv9aHHTKIy0Dkegc2Cbd3tRE0D983c64BX0/QMhhBBCCCGnC2qq7JsLrP1de7U48xV939Otn3+acuoqB04kFOYIIYQQQgghJA9yS/9wCl68WDHnlw31A0UfKgcKijvieyyBEEIIIacs8N9TIB8+hBByxoF3Y07ASmkJBxNk86bNOpUAqxT4AqKTIknRUA64wrMbCCGEEEIIIYScQniVA9mSmJQoe+L22DMOsJuKgSIPLQcIIYQQQgghhBwDBRT7ORBcpKFygBBCCCGEEELIMWJbDeQEEUu9EZJThcJXDvjXibxCfrAOEUIIIYQQQgghJ4zCVw5AsC9IAM53fGRblgZ3l7svZwMhhBBCCCGEEEKOByd9WgFMTbKzs8xntgb7u59GwKsoKEhwCbTvaAIhhBBCCCGEEHIaUyjKgYYNGsrevXslJibG2XJkQBngDcdMYQv1bnrHGgg5GTj1D8/o9u3bpVnTZqyPhBBCCCGEkFwUinKgSdOmsmtXrGzdui1HEC5IMGC94JCQkFyBawgTUni4j1vMzhhZtXKVNGvWTLcTQgghhBBCiEuhKAcuueQSiY8/IOvWrrU3+DsfDBQ8BPn9nbZ4FSNHGwg5YuypO1u3bZMtW7fK8BHDc6x0WKcIIYQQQgghhkJRDtSqVVPq1Kkra9eulQULFjhbD4O/ssAbCCFHj/+zZD7XrFkjixYtkurVqknduvVsXRMVA4QQQgghhBCHQnNIeO655+jnmLFjCq4gyAsqCAg5OmAMkG1JRkaGpKWmSXp6uuyO3S3Tpk2TnTt2yIUXXiictUMIIYQQQgjxp9CUA82bN5ceZ/eQxMREGT1qtCxZssTZc5S4I58MuQMhhwHTBbIysiQ7O1vWr18vf/zxh+zYsUPO6tJFOnbqSJ8ehBBCCCGEkEMoNOUA6Nu3r1x66aWqIPh+5Pcyfvx4WbZ0mezZs0eysrKcWISQ44Vl/vbv3y8bNm6QefPnybifxsm8ufOkdevWMmzYUAkKCraDiUsdASGEEEIIIcQlKNtZOzCoEOcfr1i+Qj755BOZP3++ekbv0rWLNGjQQMLCwpwYhJDjQbaVLWvXrJX16zfIqlWrJDw8XIYMHiznnHuOREREqlWBrRgw/1M5QAghhUqvXr3kpptukmHDhjlbCCHkzGTkyJHy8ssvy4cffCgdOnbQqa8+2ActshwX5YBLXFycPP/887p82pq1a3T+Mzk1gEl6bGysVKhQQUJDQ52tpEgDed8I/S2bt5TevXvLgIEDpE7dOhIeFm6/kPEi5ouZEEKOG1QOEEKIDZUDpybHVTlATl0SEhKkevXqMm/ePGnYsKGzlZxyuAoBBL6ICSHkuELlACGE2FA5cGpSqD4HCCFFDPdFzJcwIYQQQgghJB+oHCCEEEIIIYQQUqhER0er/zkFA1VuIEUWKgcIIYQQQgghhBQqISEhUjyquPOLnApQOUAIIYQQQgghhJzhUDlACCGEEEIIIYSc4VA5QAghhBBCCCGEnOFQOUAIIYQQQgghhJzhUDlACCGEEEIIIYSc4VA5QAghhYAVxMDAcDoHQggh5HSHygFCCCGEEEIIIeQMh8oBQgghhBBCCCHkDIfKAUIIIYQQQgghxxdO0SryUDlACCGEEEIIIYSc4VA5QAghhBBSCNSvV18OHDggu3fvdrYQQsiZB96BeBfinUhOLagcIIQQQggpBCpVqiTJyckSHx/vbCGEkDMPvAPxLsQ7kZxaUDlACCGEEFII1KhRQxITE2X//v3OFkIIOfPAOxDvQrwTyakFlQOEEFIIBFnOF0LIGUu37t0kNjZW1q9f72whhJAzD7wD8S7EOzEX7CsVeWzlAG4UbxYhhBwTUBAwMDCcnqEgNGvWTDIzMmXnzp2SkpLibCWEkDMHvPvwDsS7EO9EcmoRbLkNHpeWIIQQQgg5Jlq1aiVJiUmyfPlyZwshhJw5rFixQt+BLVq0cLaQUwm1HIB+wAqyAyGEEEIIOTp69Oiho2YTJ0x0thBCyJnDnDlzZceOHdKkSRNnCzmVoM8BQgghhJBCoknTJuqEa9u2bbJq5SpnKyGEnP7E7IyR/fv2SbPmzVRRSk49goOCLNFwBHPqCCGEEELIoYSGhso5554jxYsXl7E/jnW2EkLI6c+PP/0kxaOi5LzzzpPwiHBnKzmVoOUAIYQQQkgh0rxZc2nXvp3ExMTIT6azTAghpzuzZ82WZcuWSvny5aROnTrOVnKqQeUAIYQQQkghEhUdpSa1TZs2ld9//13Wr+PShoSQ05c5c+bIuJ9/lpYtW0m3bt0kIiLC2UNONagcIIQQQggpZKpVqyadO3eWqOJR8vXXX8umjZskOzvb2UsIIac+WVlZsmDBArWQKl6smPTq2VPq1q3r7CWnIo5ygMsUEEIIIYQUJvXr15f+/fvr6gVQEGzevFkyMzOdvYQQcuqSnp4uy5Yuk1GjRktwcIi+62rXqe3sJacqwUeiGHCXO2Q4ukAIIYSQM4dSpUpJ125dZejQobJs2TIZbTrRM2fOlISDCU4MQgg59UhNTdXVWEaNHi3JSUly+ZAh0rxFcylWrJgTg5yqcFoBIYQQQshxIjo6WhUEd951pyxatEhef+11+evvv2Tr1q3awSaEkFOFzMxM2bNnj8ybN09XJjh48KDcfvvt0rRZU4mMjHRikVOZoGzL0gUMC7KMIUe/j41TaanIhIQEqV69uj78DRs2dLYSQggh5Fh47NHH5Mcff5Tzzz9fhg8fLg0bNdROdXg4l/0ihBRN0tLSJCUlRXbv3i3Tpk2X3377TWrUqCHvvPO2E4OcLlA5cAKhcoAQQggh003nety4cbJp0yZp0qSJXHTRRdKhYwcJCsrpaHm/E0LIicQRDxV8nzhhoowZM0bWrF0rHTp0kDtuv53+BU5TqBw4gVA5QAghhBA48kpLTVM/BBMnTpRp06bJrthd0rtXb+nXr5/G6dmrp0RFRel3Qgg5USQlJek7Cfz5x58yecpknR7VqWMnueCCC6RL1y5SvHhxCQkJ0Tjk9ILKgRMIlQOEEEIIcYGZbvyBeDkQf0BiY2NlyeIlsnjxYt23es1qVSIQQsiJJCI8Qho1bqTf27RpI61atZLy5ctLiRIlpWyZMhIVTaXl6QyVAycQKgcIIYQQEggoAnbH7lYLArB3715dQ5wQQk4ksAgoV66cfq9cubJUrFiRPlHOIKgcOIFQOUAIIYQQQgghpCjiW8oQgv/hAiGEEEIIIYQQcjRQpiza+JQDhBBCCCGEEELI8YCKgaIPlQMniFNpSgEhhBBCCCGEkDOLQlUOQAAuSqGwCJT2kQZCCCGEnLp4p1m6oSAcSVxCCCmKeN97xxSQlhNI0YSWA4QQQgghhBBCyBkOlQOEEEIIIYfhaK0CjyQuIYQURbzvvWMJ5p9k20mSIgqVA4QQQgghhBBCyBkOlQMkf4KcT0IIIYQQQgg5SiBWUPgs2vD+EEIIIYQQQgghZzhUDpB88JgNYJIQIYQQQgghhBwFkCzcQIomVA6QfHAeX1cx4FUQ8KkmhBBCCCGEkNOGQlUOYP1Kcjph39BD1iV17zPvNyGEEEIIIYScFhS65YAKkkUkFBaB0j5Tgl6/G7DN+U4IIYQQQgghBcVd0pAUXTitgBwe8xBb1AoQQgghhBBCyGkLlQOEEEIIIYQQQsgZDpUDhBBCCCGEEELIGQ6VA4QQQgghhBBCyBkOlQOEEEIIIYQQQsgZDpUDhBBCCCGEEELIGQ6VA4QQQgghhBBCyBkOlQOEEEIIIYQQQsgZDpUDhBBCCCGEEELIGQ6VA4QQQgghhBBCyBkOlQOEEEIIIYQQQsgZDpUDhBBCCCGEEELIGQ6VA4QQQgghhBBCyBkOlQOEEEIIIYQQQsgZDpUDhBBCCCGEEELIGQ6VA4QQQgghhJATwvbt22X6tOkybtw4+f2332XNmjXOHkLIySYo27Is5zshPhISEqR69Voyf94cqV+/gaCWBAWZHSbgE18V1h5CCCGEHAGrV6+WsWPGyuYtm50tgSlRooS0bt1a+ve/QMqXL+dsPXmsXr1Gfv55nKSnp8s555wrnTt3cvacPDIzM2XatGny+++/S5kyZWTw4MHSuHFjZ2/RYsKECTJ16lRZt26d7N27V5KTkyUkJMTc2/JSuXJlc6/byLBhQ6VUqVLOEYSQEw2VAyQgUA7UqF5L5s2bI/Xq1TdbgiTIsTOhcoAQQgghR8uUKVPk4YcelvkL5jtbAhNVPEoaNmoo/fqdL1dddZU0aFBfgoNPntHrX3/9LU899aSkpqbKffffJyNGjDhh/aD4+HiZNGmSLF68WFq2bCmDBg3S7VBUfPDBh/Lss89KjRrV5eWXX5bevXvrvqLEyJEj5bvvvpNZ/86SzKxMiY6KFoggqWmpsn//fr2vjRo1kvPOO0/uuusuqV27tnMkIeREwmkFJE+C1FTAtHtqNmC3fs4mQgghhJBjIjw8XJo2bSo33nij3HLLLb5wzTXXyCWXXCL16teXRYsWyUcffSg//fSTjpKfTDIyMiQrO0ssaARO8ODIwYMH5ZdfflElAMrCBUJ1tWrVpEOH9tK1a1cpX76Cs6dokJ2dLStXrpS3335bJk6cKBUqVpAhQ4bIHXfcoeH222+Xa6+9Vtq1bSdr166VN954Q8aO/VF27drlpEAIOZFQOUDyJMg0OF5lgPud+gFCCCGEHCuRkZHSrVs3efPNN+W9997zBQiI//d/z6uSoHr16mrN+NOPP8qBAwdU2CQ5QDnQsWMHI2jfKTfffIvUq1fX2VM0gELnjz/+kPXr1+u0h6FDh8kjjzwqjzz6iDz62KPy9NNP6/2/55571FogNDRUvvrqK1m+fLmTAiHkRBLyxJNPPul8J8QHzNTeeustueGG66VU6TISHIRpBbZagMoBQgghhBwtmzdvlokTJsrefXulefPm0q9fPxUKXSIiItTHQOnSpSX+QLzMnjNbzeoHDBgglSpVkpSUFImJiZHExCS1ckxISJSNGzfKzp07VeEQER6ByZB2vJ0xer6tW7fKjh07JHZXrM51R5ywsDCN5wXWAfv27pOtW7bqsbGxsRowQrJ16xb5559/JCsrS7qc1UVatmqp50DaUFzAEkLT9IysJCcla752xezS7cWLFXf22OC6dmzfIVs2b5Ft27bpdeH8ySnJUrJkSc0ftm3ctEl9C8BfQ61ataRt27ZqTVC2bFk9L0JUVJQG5MEF/TmMwiMPm0waKIM9cXskyeQrzJQ5ysElKztbDuzfLxs2bNDrCgkOMfk7aMpviwmbNB3cDwj88AdREFCeX3/9tSxbukzO6nKWXH/9dXrPvSDvDRs2NOnHyvr168z17tTpBc2aNXNimLyZMteyMvlH/vCJgPyhXJGGd8oJlEi4Xvg2KFasmOzbt0/rCI7BNAakhWtBPOz33jOQlJSkZYb4KEPcCxfsw71CvcInygX3AtYkxaNy39+0tDStPzh/dral5Yp8oM7A3wLOfTKnyhDiD2sjyYcgtZqz3VKcYPs5QgghhJzRVKlSRdp37KDfIcRtN0I0BNMFCxbIU08+JW+8/rpMnjxF57Jffvnlqjz455+ZavqflJykPg2e+7//kwEDB0jnzp019OnbR+67/36ZNn2aCojZVrY96mECjttkhODPP/9crr7mGrnwwgt94ZNPPlEhOTMDUxtyBEkIeg899LA8+uijsmTJEhUGvaxes1pefOklufmWW+TXX3+1NzrnS0hMkPF//aX+C849Dw4OO0uPHj1k6LCh8qS5vm3btuv8/K++/kqef/7/ZO7cOXr43Llz5eabb9ZRdwjNq1atlgcffFBee+11Izhv1DgAeYFJP7Zfd9110qVLFz0HygPxJ02eJPEH4/W6kZ+UlGSZMHGiDLviCnnm2Wfl7wkTtCxGjBiux8GXwTXXXivvv/+BKkMK4rZMhfSNmyQ9I119NaSmpEpWpjmfH1AOXXbppXL22Wfr9IgKFXKmR2RnZasA/tOPP8k999yr+937efXVV8nXX3+j1+0te3x/9JFH5b5775OFCxfKp598Kpea9M8991y5/vobdB/u2ZgxY1SB4c+yZcvk6aeeNulfLR999JGz1VbmzJg+Qx544AHp06eP5qFXr15avlCCQBHgLZft5h6+8847ej9/HjdORo0aJVdcMVzv86hRoyUxMdGJSUgRAQ4JGRj8Q/zBBKt8hUrWqlXrrNS0TCszyzSfzr5ceA9iYGBgYGBgYDhMmDxpstWhXQerVMlS1s033WylJKcEjLd1y1br6aeesYIkyIqOirYWLlhkpaWmWx9/+LHVvGlzq16dehqwPyQ4xKpRvYb16y+/WRnpGZYRBq369epbwUHBui80JFQDvmNbZESk9dwzz1l79+z1nW/zxs3WXXfcpem5aXqPqVqlquajTeu2lhFIzUGWNXvWbKtm9ZpWscji1ueff2EdjD+Y6xomT5piDbhgoFWndl3rsUces6wse7sReK3n/+8Fq67Jv38eEaKKR1lNmzS11q9bbz3z9DO+eMgXPsuXK29de821pjzSrDffeMuqUL6i1bZNW2vSxEm+9CdOmKjbvNfiBqRRuWJl6+GHHrF2bN+pxySYvt933460ihcrbtWrW0/zgHjuMUgDaZUuVdq668678rxv3oA499x9jx6DYx9+8GFrw/oNVlZmluYRIdBx3rBr5y7rtVde8127/33B9n7n9bOmTpnqOwb3oWSJkrqvZ4+eVq0atZxyq2B1Oaur1btnbysiPMKUTzsrMSEx1/kQUH+qVK5iNajXwPrisy90G/KK8sJ2bz7cvISHhVutW7fOVQcmT5xsnXvOuVb1atWtRg0b+66heLEo6+233rEO7D/gi8vAUBQCLQdIQGBdFRwUohp1mFrl6MgJIYQQQo4vBw7Eq2f733/7TX/D9LpOndq5TOa3bN2ioVHDRvLIw4/ISy+9LPXr2ysaYLQWZt/wgP/hhx/q2voIWE6vXbv2air+wosvyIwZM9SnAcAqCpNNADBzx9x3mH9PnDRROnTooKPGsEhQjtKo0vS99RNO9+DBH1MVsBoDnAwif/Pnz5e7777HZxa/ZMlSufqqq3WEe9CgwXrsxRdfrBYB8M2QF0uXLjXpf68j4OXKlZOnnnpa08M55s6dJyNGXKlWGN9++618ZMrHny1btqgJ/E033WTK6B9ZsWKFvGzK1wi5akL/ww8/FMhBJCwCjHCs0x3Au++9q84mr7ryKnn7rbc13cOxdNlStWDA1IFWrVrJN19/o8sh/vXXX+rcEFMrcO+++eYb54jczJptr5AAK4D337d9WgwdNkwtBjBFAVYHXuuBDes3qLXB7t27pUrVKjLk8iFqoYEpJT+OHavbYYXw559/ankuXLBQ/vP4fzSNtWvWyhNPPCF79uxxUrPB1BCcC0s23njDjfLcc89Ju7ZtdQoNIUUJKgdIngSHBKvpFxQF3rlYR9EWEkIIIYTkAnO3x40bJ3fecafcduttumrBDdffoOGKK4bJQw8/JMuWL1MTczgoLF68eM5ghfkCga1b9+46deDOu+6S/v3PlxrVq6vpNszQsR/C7WWXXaa+ChBgBv7aa69Ju3btVPj9/PMvjIC3Q7Zt3aZCJOa8n3XWWfL6a6/rNAVMbejcqbMKpDoH/og7QZZYVvYhJvhjx45RxUDr1q1l+PAr1GQf+cPqDdddd61c0P8Cc4lB8tuvv2o5lS1TRooVi9Rj4VcBZeKdB+/P7Nlz5KefflRhFMqGm266UVc1wDmaN28m995zj5zds6cppxiZM3euLFq02DnSBmV3q7knKL82bVpLvXr15LJBg3SZQQBz+DnmHJgmkB+YV9+tezdz3N1So0ZNvRb4Tfjt99/kxZdelMGDBkunTp1k6NCh8vDDj8jUKVN9yhqwYvkKGffTONm2fZvel++//14uuOACqVmzpk6TePHFF9VxZVRUtCoM/v33X+fIHKA8+M9//qPTMODLoGXLFtK4cSOpWrWapKamyAfvvy/79x9wYptzrlyhDhHhDwD3H5+YpoBz7YzZqfm4+uprdHoDyrNxk8Yy4soRqhTA1AlML4AiyQuUPU1MvP/973/y3//9V6688kpp1boVlQOkyEHlAMkXvMxUL5CjGyCEEEIIOWYggMbFxcm4n8fJGCMsY/Qc3xGmT5+uo/YVK1Y0QuPDMnjwoFxWA0FBwUZwqyq9jIDbpw8E64oqLIeEhsiEvyeoEAohEgIkHBu6QNCDYNi9ew8VXHH+9PQ02bhpozohLFmylDob7N6ju0/4hjBev0F9IxR20fwcCVAKoC9lmeBsUM/9GNmHgI3VGmCV4I6s4xrhcHCEER5vvuVmk48eUrJUKduks4Ds27dfHeXB8R6sBvr27avKBHegB+do0rSJNGvWVB0LwkEjyssflGuTJk1UgEVZVa1aRVoYwRplj+tC/nFt+YFz4hxQgHz11Zdq0QGrAShBcOyatWvUh8T48ePlm2++Vl8If43/y/FpIOoUEHFggdCoUWO16ChRsoRah+BeQknQ2GzHfcHo/Lx585wz53DOOedoPcDKF8gLrqeUKdO6depoHYQPBygJXGBxgoD43bt1123IK/IJJUE3sw35h7IKuPcMjjVRLnCCuHnTZlU+eYGCBRYHUNKUK1fWVnYdwX0l5ERA5QDJE7ywdC1fR02OlzQCIYQQQsixAjPxFs1bqLk8HAoOGzbMF7A036uvvqqj/BhVhvDnClL4hHBY2gh4VSpXUUHPBabu/8ycqYJZrZq1Ao6uQ9jv1LGjCrwbNqxX4Xj16jWyfcd2FTjLGsEtOjraiZ1D586djIBc1flVMCBUIk+qIDC/ITzCLB/COATTxo0bqxDqxV3iEU4H+/U7T8qWLWOu2dlZACDAus75cB0YsfYHAnJ0VLSuVpCYmGCE8B3OHhsoE2B1gLy4A0TBQcF6XJSfR/6CAIEYzgZxL++6+y7fEoZYGevWW2+VBg0aqrn+/IXz5ZXXXlGz/uzsLF3RAgoC3KN//50pN9xwwyHhm2+/kbi43XrNBzwWAC7t23dQCwAvuDZMz8B9Wb9hgyoWMNUE0wRWrVyleYEw3/+C/rod0zigDIE1x4wZ0+Xpp57SfLsBFhW4FleBtXrNmlwKFyzjWLduvSNWLhFyoqFygOSJKgdUI2B+UClACCGEkEIEygGY6kO4uuOOO3KF226zpxlgfrpXINfuiBFWg4ODJDQsVAV8L+i3wFQeAjkEsaji9oi8F8RxhWcIgfi+zwihWBKxTJnSRnDMLUi6wITcHeEvKBA+MUUTywTivAhYHs+drw/lBRQSXnBNGFmGvwQItbbpecG1A5jv7s55x4i7V3kSCJjCe83qQckSJSU0JDTXaeGHCvmPiLCnNxQEXP/GDRvVWgIKG5j4t2jRQq0Z4C8Awj3u90MPPage/0uVLCVz5syRRYsWqfUAlgCEcgDHrlq1Sn7//fdDAlZrgLKoRHTg5RUhmKuSwwO29Tj7bM1PQsJBGf/neC0z+HhYtXq13hf4N6hTp46uUIFlLXEt6BuvXbtWJkycIL/88kuuMHXqVKlQvoLUrFlLFQlePwawEjjcfSCkKEDlACGEEEIIOeGoQFeyhDRs2EAFYW+oWbNGwNF7W8C2BzAgufqPXWA7lAkQijHFICj4UKEagjkEdAh7lSpVdoRvm5DgEHNsboWDS0zMLiP0HWp+ny8mg65Q7YLze3/7A4sCKC3cAOG04KoB+3iEghIZWUytEw4HRs1dq42CgOuEE8T33n9PnQ/u2J7bOgFAaMf9hl8ITCmoVbu23js478NoPu4RAoT1nmf3PESJZIfb5fbb75CrrrpK2ndo76ScPxjhxzQJLEMYEhIqf/39t04xmTdvrvougCVDx44dndg5YNlH+KKALwb/cPNNN6u1B/IEnxbutANCTiWoHCB5goYov8aLEEIIIeREAp0Agq0kQB8ldz8l2Aj3EOxglbBixcpDvMYDV/jG8XXr1rVHdUuW0k84vlu5cpUTMzdLliw2x8U6vwpG/MGDTh7sfMLZc8uWLX0KCeTD33kdTOhd7/sTJ06U/QcO2J2yAlKrVk0NICUlVVce8AfWAgmJCWo1AWuJevXqO3vyB/4GYLVREFDOcAz5wQcfyNvvvC3z5s/TEfVAQOGAlSYwug7LieSUZM0bRvah7IHfiPPPP18ef/zxQwIcEvbt00fO7nm2+m8oKDgXVjAIDw+TTZs2yvp169ViYe/ePdK4USNp3aq1xoOSqXyF8qoYgXKgf//+ct9998ljjz2WK9xzzz3SsVNHzUPLFi2O2MqEkKIAlQMkT1Qr76cbwCZCCCGEkJOBLq5s+iZWtiXZRvjEqLIXCK6YTx4SGqrCPEagvY7hMH8cjg6nz5ihwmvlypVUUIeDOVgrwJncypUrdO65F5i4Y5k6fHqBIAulAlYk2Lljp2+6AEBaixcvyrVcH4RgzGXHFAWMXk+bNk0947vKDhwPgfrLL7+SRx55RPfDJ8CRAJN5pI/pCphiMWb0GJ+PAxeY4i9fvkISkxKNAF5OfQIcDvQLQ0KC9ZoLAsoVpvlwAojr/vnnn9Vs353SoffRuW7kDUsKbt+2TfdXrVxVypl8Va5UWU37MeUDK1dgJQPEd8H9GD1qtArmL7zwoq6EUFBw3+AHoXz58qrA+f6H73XKAJQRWEWiVu1aGs+9DkxTwbX/M+Mfk8/tvrwjpCSnqDNETI2AwgL5QF0j5FSDygGSJ9AO+zBtMRUDhBBCCDnZqDCZnS3pGRm5hHEAgfuqK6+UCkbg27hxo/zyy6/qjX7/vv0qSMKx3GeffSYLFy5Q8/Wrr7paHQI2aNhAPeHDfH3xosXy0osvqZAOAR/h119/k5WrVuZSNAAIvs1bNJeM9Az58IMPVLiEoBkbGysjR47UueiB6N//AhU2sfTe7NmzdV49rAg2bdwkf/89Qf76a7xaPwwcONARSkONgG0L5bAswLQIzMfPC3jPR76wYsGECRNk2tRpqvDASgY4z8cffyRTp05Rx4NNmzTR1R4CAjnckcUxRQNl5jrdKwhQCrRv116nD4waNUpGfvedLFmyRE349+y1ywn5QrlhWgG2w1EippuEmetv1LixOmfENf/999+6EgXi4J7gWCyFiXSXLF2i00EaNGjgnLlg4Hr6nddPR/nHjh0ra9askQ7tO0j79rmnJ+Cahw27QuvHqDGj1AoCFh+whICDSZz/1dde07yVMnGwugWnFZBTEZ/0F2Qe/GMN5PQj0Nq8hJDjh4VBscMEQgg509H+CawG/LooGNmFWXfXLl3VQd2oUT8I1ut/6OGH5dlnnlUHeO+9954Ke127dpO27dqpb4Nq1avpigl9+vRVofOLL76QvuY7Vk1AuPPOO9QKQa0qPZQpU1aXtrPMH6YkDBk8RK65+hoj1F8o//vv/1QZ4X8MuPjii9TZIITJ559/Xi4fcrncf9/9ctvtt8kdd96u+bvsskF6Lcgf5sfDSSHACDyc+sG0PS+wFv/lQ4ZKdralqzcMu+IKuc2UA1YJQLojvxupwm2nTp1k4IUDnaPyB9eBFQtyDR4dBig47r33Xh2dh6Lg/Q/eV/8CMOd/4IEH5JprrpWePXtK02ZNZdzPP6nyZcTwEXLxRRdLtapVNfTq1Vu6d++mypqhw4bK7bfdrvcEqw2gDCCo169XX3p073HIqgSHA/UF0xG8gnynzp00eIH1wHPPPauWDLG7YtWqY8SIEXL//fY1DB8+XBU6UIJgigGWkFTYZpNTDFoOkDzBvLhsyzLB/o33mxsIIYQQQo4GmLtXrVZNqlWr7hsNLzBuJ8T0TSpWqqjBh9NJCY8Ml7fffVudw8G8ft26tfLdd9/KBx9+IEuXLtXR/iuMsIx19atCmDRpZWdlqxO5yy8fIq3btJbE5ERZa477+edxGlq1bCUvvvCidO7c2T6XQ/ny5WTgwAHS2wiwGIXesXOHTJw0UZYsXiyVq1RWy4RLLrnUiZ1DkyZN1EnfLTffosL/3PlzZexPY2X6jOlSvFhx6dO7j7z00os6su+COfkFHRnHXP2LLrpQBXOQmZkhM/+dKZ999qk63YsuEa3KAgi5MJl3CTECPFBHjgE6fLaCIMCOPECZdDOC/fz58+X1116Xxo0aq6PBSZMnyQ+jfpApUyfLlq1bNN555/aTV199TR5++GG15HDvZ4cO7eXZZ59VxU1mZqb89vtvek+w3CEUHF26dJH/PfGEXH/99fZJjwAoYbAihuv8ElMYKlWspN8DMWPGDFVsIB+Y8vHDD9+rXwhMd4Ay6csvv5R27dupUgSgvAIphwgpqgQZ4U9Fv8IY+eeI1ukDzKRatmyjplotW7YwL7nQQG3EIRp7QsixUZD3KC21CCGnMjAR3x1rLyEYFR2lc7wxqlxQYFKOEXeM+sLk3rdEnN/7c8e2HTrajOkAMMMHEJoxqo55+XreIAyE2H4L0CXG1AOMDO+M2SkrV6zU7aBX714aH2b6WVnZ5rwVNA2AJeu2bdumAuLcOXN19Ltxk8ZSs2ZNFToxnx79KpzbO7INp4CYGgCfBK6PA5i3QwEAB3yYGuAtF1y368Uf8TANokaNGr5pDBBIkUecE737NJN+3J449bGwbes2XU4Qyz9GRkTqnPqGjRpqntxl/uC/ASbyiA+hGef3N43HvYODQ1wz9rv+BAoCrhX3bd3adTq1AGWJEfbiUcV16kCpUqX1ukub+4l8ekFZ7dwZY47ZJzOmz/BNJ8HUifr1G+j9gMm/C64F5YqyRz5LloSjw7zziWUSUR9hIQCfFe69DQTuFZQdqFsuiA8rD10+09wbVyGA+466npKaoteKtAkpylA5QAKSSznQwlEOBLq/FFIIKVSoHCCEkGPEeY9CQLSyLPXKD6EWQPjzmXw7oCts94aB/QXCb/yBnFUEypUvp8qIwwEBPiszS0qWKukTug8H8gbhF2AEHQJ3XqPNyBcc3SEvh0vfvi7b2R/OAeUFBHkcC4VKQfNX2CAvUAzgOnA/QkNCpYIR7m0w0u58DQCuR1eacMxaS5UupZYoJxqUpc+xogHKFJ+SipBTGCoHSEBc5cAPP/ygyoGIiLCipRzIr66drDwRUghQOUAIIceI+x49gnelqxzQQwvwHiaEkNORgttwkTMOV2vtNphFhsM12mzUCSGEkDMX9FuOsO+CLo92e9iHIIScwVA5QAghhBBCCCGEnOFQOUBOT6j5J4QQQgghhJACQ+UAOfVwzAUx3cEbfCaE3u+EEEIIIYQQQg6LTzkAJ1iHC4ScLFTeN3UQiw1pMBuyzRf/oDupGCCnMHA2eLhACCGEEEJIYUPLAVK0gODjHxxcC4GszGxdYzgzKytXwDrFzuIbuY4jhBBCCCGEEJI/VA6Qkw8EeTf4gU1qJYBgvmea/1IzgyQ53ZIUE1IzzG8nZFhBkhVigqnVFgKtXQghhBBCCCGkQFA5QPIkOChYLLXVLxrYlgOWZGbalgI51gP4zJb0jEzJgPaAEEIIIYQQQsgRQeUAyYMgCQ4JlmwoB07gJGcI/7mDoxTAPhOyYQ4ApYWputkmj/jtWhZkZmZLejoVBIQQQgghhBBypFA5QAISZGTwkJAQI2xnGOHciOEnyETfVQJ4A4CCwJ1agMwEBaHqIlM5AXGysrIkIyNTrQoIIYQQQgghhBQMKgdInoSGhEpGJpQDroh+cvBZD3iyAWVFkP2fs8UGecW0A1gQZEObQAghhBBCCCHksFA5QPIE0wpsxcBJFLI9p3azokoBcKhuQIGlQ2ZGhmSkZzpbCCGEEEIIIYTkR6EqB7j+9ulFiJG8VfY+mffVI/x7FQE+BYGHoOAgCQ4ONiFEI8NZ4cm2eiCEEEIIIYSQU4FCtxyAgoDh9AjBUA7gu3NvTxbQA7i6gAA6AV8GQ0NDJCIiXCJNiIiIkPDwMNuhIiGEEEIIIYSQfOG0ApInGIEPNEJ/PIFCwhu8Z9esmKCfBuwHyCOsBkJDgiU8LFjCTAgPDzGfIepUkRBCCCGEEEJI/lA5QPIkSM0GnJF38/W44Qj9uTQBDpD/EYzsr8EfV0FAyMkGq2z6h2zz4ATanl8ghBBCCCHkZEDlAMkTjMar5QAUA/7hROMITa7sRF8CpKiTkZEhmzZu4dQWQgghhBBySkDlACnyqPWAftGfJ0U3Qcjh8PrrQNiTHiSPbAyTt1ODJD770P15BUIIIYQQQk4GVA6QPNG5/CfabB+n8w/AfKKyBsrOScknIfmQlpYm22N2yeYUkT8X7pUNW3boNkIIIYQQQooqVA6QIg/kfo+O4BCwTUOgnYScIOJNWJuZJL/Gxsn/LUuQL7ZiKU2RvXvT5M8lmTJzuyX7qB8ghBBCCCFFFCoHSL5Y2ZbO78cfISRv4jKTZP6ujfLnmrUyeX+mxJYt7ewRWRsXKnuygiTTvHGTkpI0EEIIIYQQUpSgcoDkCUz1oRjItuhQjZD8yMq2ZM2eFJm+KVWSDlrSv6LIgNpRzl6Rjg2KSfNKIbLyQJqM2pggi/emOnsIIYQQQggpGlA5QPIkKMiveuRn20/IKUygJQWPJCQlJ8uSHdkyf39VKVe6jtxYLVT6hJgXrNlXp3KkXNaplDQtFSpz4zPk89ggmbnXktRUKggIIYQQQkjRocDKAXrRPrOA1UBYWKhkZWXp1AIfRtg5HuAMgQLwfsf5g/QXrBlyQpCpoMiaGwg5kew/cEBSEhIlOjREKpUpIeXLl5fwkCBpWS5CrmpfVkpGhmi8erUjpF6tELGyDsq+fft0GyGEEEIIIUUBn3LAu5RWoEDOPKKjoiU9Pd1UAPMP3v5QD/xDIYBkskzyeQazXyc2mO/BpjKGBGeLlZ2eK2BbqKnNISaxYBNYb0lBQTU51pCZlS2RqZY0K1lMWtcoabaIVC4WIp90KS8Dg4PEnWAQHbxH2tTZI41rmeeKEEIIIYSQIgSnFRBCyIlE5yI43wkhhBBCCCkiUDlACDmjMaJ6IQRMaymAxJ9USTYsrCgbVkY4GwghhBBCCCkaUDlACCHHSLWqlaVs2TISE5MsixbvNJ8xzp7crFubKNu2pkp08VJSoUIFZyshhBBCCCEnHyoHyEkHI6/wFRAooIJ6QwgcJQYHS2RYqC9EhIdKWGiIBMMvAiFHgeuj4mhDRFi41G5oScU6G2XpgVXyyfpg+TlecoVX5sVLVNoBuapmknSpnC1hYWHO2QkhhBBCCDn5UDlAigS5TbTzDlgaLiwkSBUCboiEcsBso26AnEyqlIqW5g0qSMmqJWVxbLZMXHFQtqSLBnyftSVZIiVDOlQvJvUrRjtHEUIIIYQQUjSgcoAUaQKN0kJBEBoc7AshQQhBrMzkpFItOFJ6lqohg+vVlwvrRUhTK17qpOzTgO/Y1rxmWSldrqyEF4uUbFOPAwVTxQkhhBBCCDnhUJ4iSnJSssTHxzu/ApOQkKChqGHkKQ2EnEzKmtA4qJicXbaMDG5eQgY2KCZtIrM14Du2NalRRiKKFdOlOfMKhBBCCCGEnAyCsi1LB6owInu07DUBq3ZnpIpkmhAeLhJd3NY82Ct+k6IOHKht3rRZIiIjpF69ejofesjgIXLrrbdK6zatZd++fbJ+3XqpVr2adOzY0TnqxJNpAtQTqVki8eYHam+JUJFiIabOBYnQBzwpTJJNwLstzfyXkiYSinpm3m1QRuHd5lVKQbDHKoXHSrCp01R2EUIIIYSQE03IE08++SS+HEtndJaVKvNT4mXxlmxZuilEtqWkSlKxA5IcHCTVQuh061Qg3Ug/s2bNkq++/EqCg4MlKChIxv00TurUqSPbtm6Tzz//XGbPni3Va1SXFi1aOEedYIzQdCArS+YlpMvi/Sny195smR+fKXFpaZKQnSXRIcFSygRCCouNWWmyOvmgLI1JlwVbwmSzqXuJkfvkYKh5twWHinlSnJj2OxS171gDFQOEEEIIIeRkcEyWAykmZFgZ8vXBLTJ1zXJJ21RNiic0FAnfKtGVVkr7xk1lRPVGEh4SLlARsNNbtJkxfYY8/vjjMn/BfGnZoqUsWLhAWjRvIRs3bZSUlBS5++67NVSrVs054sSRZUJqRpasiUuSr1btkZjY3RIXUUayTa0qmx4vVUqXkAubVpJuNUpIhBHaQu3DCDkqMhCyM2Xivh0yxbzbYraUFEluKRIWJ5Hl50i7Vq1lROV6Ujw0QsJNHeS7jRBCCCGEnOoctXIA5t1/mR7x4uQVMv+fchK/t5jER4okeOy6S4eny7UNNkn7Gu2kZVAITb6LOHv37pXRo0bL7XfcLk618NGsaTN54oknZNDgQc6WE0usCXPikuSP5ftlcmoJe6Mf7cvtkvPrRkjn8rWlwVEou3xQ0jvjWWHqwLI962TkuuKyav+hKwuEB2fLrc23SJvKTaRFSIQErpGEEEIIIYScOsCK9ZhYunSJHEw46PzKTVpaqtm/VLKy6WbrVKBMmTLSvn17adO6jbMlh4suukg6djp5vgaSs0Ri4pMlLi7O2XIou3fHSmws1AiEHDsrV6+UvXv3OL9yk5WdJfPnz5fUVNhPEUIIIYQQcupz1D4HMi2RP3aLrF1XRjJS4ZorWNJCRdI99tyhWaFSaW91iYgoLY1LB0lEiMgOcyIEqAu843H4vdZsjzMBS9VhSa90J+wxYY3zGeVsc8NmEzaZkGpCmLMNAb8x+odzhZoAR2HuPqaXE7zphaPgI0pIUEQtmTD+H5Gy5r5GlZSa9TrIsKtGSLO2zSUrJKTQ83fAhK3OZ4SzzQ0xTliTKjI/LkM27suQhLDAa8SXSA2R6IwyEhRZSrJKmfTMtvLqJS4n4Dybg039Mt9LePbh6wqzPcaEEBOH9eXMSc+tfwdNwIoDYM42c441pWW7qUjJYebF5UewFSyV4qpKyahyUreEqXd0rUIIIYQQQk5xjnpaQZqJ//IOkVkLEiQlBaKVHDKtIDJDpP3uIGnduoRc1SJIDu7aKhO3FJPNicWlcakE6Vk7W6pWqyrp6emyZt0mGbetmmRkB0n7SknSqn4JKV26mMTtSZJ/N2yVGfu2SsnQCLm4ciNNe82aNZKWliZbjJy4P1wkZc0WSVyyTveBoNAQKTewl/kMlaDFGyVu2SpJOHBASlcoL2VbNRGrSU3b/fisVbJl9SrJzjJ5qVtXIjuYfRVLS9D2OElasEpit26T8IgIqdmsiWR1bmIkx2AJXrJRdiO9/UivgpQz6WU3qaHpBc1eJZtX2elVq1dXItq76cWa9FZI7DakFy41mppjkJ7JZ9DiDU7+4qV0eZO/1k7+kk3+Zq+ULatWS3a2k7/2zUx6ZQ/JX42mjSX7rKaav4Jeb+787dH0dm7aLPEH0yUhI12Knd1EgnC9a/cYwTtVwoOtQ65XZi/1y59Jr5JJb5uTvwJcb6Xm7SSiXhvJTo2XpOVjTf5MellZml7pFmdL9WbtJbxyVVlr8rV0fZzsjizv3OXcVE88KM2iwqVWzUqmYifJ5hXLJWLun7J67Sq1Xqlbq66Etu0lmRVrStj2tZKyeLps3bFNIsIjpGGjppLc6QKxQsIka+VsiV2xqID3I7/rbXlE94P1D+ltLfj1JqdKtql/oFnTphIREel7HzSNLi99a9eTmjVKm/dEpixfs0vG7FwlGVa2nFuhrnSsX933flm0IUWW7SkmJcOz5LK6e6VW7VoydmOwzJifJPNDM2VPlJ4iFyHmldfOvP86tSshgxoHS5UAcQghhBBCCDmVOGrlQIaJPzJF5MdZ0+TgvjqCodpDlANZKdIhcalc0ru39CoXKhkJB2Tz/jA5mB4mZSPSpGZZS0qWLClZRhCM27NP1h8oqQ7mKkenS+VyERIZGSbbt++SqXMXyMSFs2XtylXSqHRl6dChg+zft0+qVK0q2aWLS6nKFaV4dpAkxeSYAAcFB0uZJnX1MyNmnyTs2i1pKalSLCpKoqtUkFAjkFgZWZK+dbfs371b59iXLFtWilWvKMHRkZIVnyTJO3ZLohGYQowAVbpiRQmvWVHNGjJNegdzpVfRpFfqMOklmvRiJTH+gISEhNrp1TLpBQXl5C81RYoVd9ND/jLt9OLiTHrZJr1yUqxaJZNesXzzd3TXm+ykd0Cyzbn2JiTI++O+l+rVq8uwcwZIaSNAH3q9yN8uv/xVyJ2/AlxvyUrVJaJcFcnOTJPkXctNejn5i65cxxxbXRJLlJS5sfEyY+lO2VDCCJoBqJ66XrpXiZCuDZpLmbR02bc7VrK2r5HdTnply5SViKr1JCjK5P3gHkmO2STx8ab8QkKkQgVTrjUao+JIetxWORgbU8D7kc/11qx8DPfjDKp/UZ76p/kz6VVy0jP5811vqkkP+atq8lehlKQlJcvqabP03iclJanjzNiMJEkPEWlYtaac27GztGvXXKpWrSaxcQmy5uBuU7ctqR1dVqqVK6Xvl6TkdNm1N0PiksMkwkj8Dcom6/SafxOD5OeZc+SftHKyJ7yCnsNLiJUl7Q7Mk0vO7ia9K0VJGXrAJIQQQgghpzjH7JBw/MZJsmFFfUlNLH2IcqBEcLIMKDNPLmjfX1oFhx6RQ8IVK1bIwoULZf369ZJshIBixYpJeka61KxZU5o2barL7VWuVFnX5UdnHkoGUjhkZmbKpk2b5NJLLpXmzZsLZp40amxbbJwstpv6OW37fhm/ZLfMCTFCdwCaRK6XfnUipG/t5nRIeAaQkZEhO3fu1O87d+yUrdu2Smpqquzbt08Oxh9UJVdYWJgquOrWqStdu3VVxUNBwBSESatmyq87K8qWtIrO1hxCg7Lk4rKzpF+rs6VNRDQdEhJCCCGEkFOegikHAuzDRIKVwSIbU7bLwgXpsn3rQdmRlS37Q0JNYhkSUSxb6lctL9fUD5aaZWpINQku0PJycCg3Y8YMWbx4sezYsUPCw8OlSeMm0qp1K+3gw+SXHH8wZeOZp5+R1m1aS69evaRcuXLOnpNDggmbE9Nk3tYU+X1PmMTtjrd3OJQuEyVn10iV7lVDpXZ0OalI5cAZy564Parc2rBhg2zavEl2794tGekZ0r5De2nTpo00aNBAihcv7sQOTIwJO5PjZPTmZJm/M1FSkkJEskqaupEuIRH7pVK5MnJ7oxCpVbKKVD1CxSchhBBCCCFFEZ9yIC+CXKdtXpzfmSGWJGVkyJad22Wt6Ygv3ZMmMRkREhGRIZUrB0urBo1kYKU6duR8wLSCvXv2yspVq9SXwD//zJCKFSuq5/x27dpLvbp11XSZnDgwxxzWGw0bNjT3s+iIPnHpIhNiMmXd+l1yMMlURVMXo4uJ1KpZVrrXKC4NOfebeMB0A6yY8tf4v2TV6lVSv3596dSxkyq9qlSpopYF+THlQIzM27lZYneFSdLByhIWniTlKu2Q2tVryPCK9SQs6JgXfCGEEEIIIaRIcHTKAbMNRyWHZKmZLnbvSzgoK/anyaZES8pGhUvrWqUl3Ow43Di/OhXcskWmT58ho0eNkrLlysnNN9+kfgWioijpkdwkm7AtCMoLkQ07zKepYzUqihSPFKlgvrve5gnxAmXXypWr5Ksvv1TfBF3O6iK9evdSZUGJEnlPCthmwgFT33bvE9keJ1KimEiDmiJQVTY29Y2qAUIIIYQQcrpweOUA9gaKAQHNBFhgQ3+QmpUlu4OCZGlsggQnpsvAeo4TL0TIA8wZXr1qtXzy6aem475Szjv3XLn+huvVhwAhhBwPxo//S7744guJjIyQQYMGSc+ePSU6OvDymL53n/c96GoE8nm3EUIIIYQQcqpxdMoB/DYd4wzTSc7KypYMJGF+7w0Olj8XrZGU2H1y33ld7Lh5dKAxkrds6TL59NNPZd369fKfxx+Xzmd1LrDDMEIIOVri4uLkvffek1mzZstFF10oN910U+B3j/vu874HqRwghBBCCCGnIYdVDuTlcgD94hAsWQCwIduSmFCRn5cUTDkwatRo+XHsWOl7Tl8ZPHiwOgg73PxfQggpDNLT0iUxMVEmTZ4ko0ePlmrVqsnrr7/u7PXgvvzw6X6ncoAQQgghhJyGHPWUWVUQmM4x+sewLgiyv0nlSpWkbt26iJInX331tfw1frz07dtXLr30UilVqhQVA4SQE0ZYeJhOXzrvvPNkxIgREhMTI3fffY+zNzD79h2UNWvghYAQQgghhJDTj6NWDhxCkEi5LJFupUpKt6p5L3v3+edfyOzZs6VL164y8MKBUrYsXcgRQk4sQUFBEhQcJCVLlpQePXrI8OHDZdeuGLnvvvslNTXViZXDPvN+m5VsydRY85IjhBBCCCHkNKTwlAOGCEukQmiIlI8IbAUwc+ZM2bRxo7Rv30769TtPKlWq5OwhhJCTQ+nSpX0Kgs2bN8tXX30l8fHxzl6b1CCROCtIdqfDQooQQgghhJDTj8MqB+zJAnZwyfXbE+FgiMiatHRZl3DoyNvsWbNlzOgxUqtWLTn33HN1ji8hhBQFMLWpT58+MmLEcPn1199kxowZcvDgQWevSElLpGFItjSOghcWQgghhBBCTj8KZDngUwTkhaMcSDSpLdq7X+Zv3WlvN8DfIebzwulXalqatGrdSqpXr+7sJYSQokFUVJT073+BNGrUSP74/Q9ZvnyFpKSk6L5oS6RFiXA5q0YeSx4SQgghhBByilMgywH30z9Y5j9vwMb9B/ZLzK5d5odNRkaG/DzuZ9m6daucf34/adCggbOHEEKKFuHhYXL99ddJWnq6TJwwQbZuy3FAWKJEcalevYLzixBCCCGEkNOLAlsOICCyN/gUA+aHBvM9IjxcihcrZvaKZGdny759++Srr7+Wzp07S4cOHdR8lxBCiiLBwcHSpEkTGTToMlmwcIEsXLhQkpKSdV9GRqYkJx86ZYoQQgghhJDTAcj4hUaIJVKrcmVpXK+e/k5OTpbp06ZLiehouXzo5VKlShXdTgghRZnzzz9fl2Sd9e9cWb58pWCNgp37EmXp6h12BEIIIYQQQk4zjkk5EBSUO1Q2Peg+0cWlZ6WS6msgLi5OXn3tNXnggQekXLm8lzckhJCixrXXXKtWA6tXr5ZdQZZMSQ+WCftCnb2EEEIIIYScXhSq5YCX7dt3yOeffSMhISHSoWNHiYyMdPYQQkjRp2mzplK+QnmZO3eBzJ0z39lKCCGEEELI6UmhKgd2h4hMT0qRmXEJsnfvXlm8ZInce++9EhVVXIJgWkAIIacIoaGhctGFF5rPMNm2cLF0D8uWnmUwwYAQQgghhJDTj0JVDmQa+X9jbKzMXLBY1q7ZqA4J+/bto51sQgg51WjZqrlUrFheYrbEiJWYJK0bVnb2EEIIIYQQcnpR6NMKUlKTZPOW9bJl6yZp2bKplClThlYDhJAjx8qyg1j6M3vz35L571OSve5H/a344hwfoqOLS/36dSQrJEJWb98t4aWL20u38JVGCCGEEEJOMwpdOVChQjnTlc+QxUsWSK/ePZ2thBBypGQ7QWTHjh2yZ+0Myd7wq+xfO0W2bNlitkJp4MaxFQjHg4YN60tkVJTMXrxGdsZxKUNCCCGEEHJ6UqjKgeKmf96oZHkpJxHaeW/btq2zhxBCjo7srVMlfeX3krVntf07foukrxgp2ZvG6+/jTa3ataRYhTLyz+b18u+Grc5WQgghhBBCTi8KVTlQOlukVFyCRMQlSYUKFaRcubLOHkIIOXLidu+WlKVfSLVdI6Vc1ibdViprp9TaO0bSF30g+/fu1WVTjydly5aV8CplZZUclPlxm52thBBCCCGEnF4UqnIg3YR1MdtlZ/wead68ub2REEKOkhVLl0riwQTnV24y0tNkw5o16vj0eBMVGiHlQ4tLZKazgRBCCCGEkNOMQlUO7AkRWRstklW7gjRvRuUAIeTYiIyMlODgwK+poKBgCY+IOCG+AZuXry7nl28oFfZABUoIIYQQQsjpR6EqB1yqVa8uXbp2dX4RQsjR0blbNylTroJYQSFiOWoAfOJ3RLEoadmunQSHhOj240n1GjWkXLlysnTpUmcLIYQQQgghpxfHRTlACCGFRejZL8mqBi/J1rB2+js2tJEsqvG0hPX7VH8TQgghhBBCjp1CVw7sjt0tcXFxUrlyJWcLIYQcA+HR0qhlR6lWs47+rFC5mrRo381sL6G/TwQVykdIzRpRzi9CCCGEEEJOPwpVOVA2WyRy405JWL5ewsLCnK2EEHJsFCtWTIo1v1xC+7wtka1vkKioEyuoJ4UGS3LN8hLdroGzhRBCCCGEkNOLoOxCXAcsKEvktVc/kgWLl8m3377tbCWEkKPAyrA/g0Lxn/09F+bVZTnLB+QZp3DYbsK4DZtkw8p18vrAc+2NhBByGrJhwwZZsmSJHDx4UDZu3Cjbt+MNSAghZyZBQXb/Mjw8XJo1bSalSpWS2nVqS8OGDc330pKdnaXOs+FE+3SgUJUDCdkib381StavWiufv/AfZyshhBwFRUg5sN+En+cvldkzFsgH915rbySEkNOAlJQU2bRpk6xatUqdrpYsWVK2bdumTliTk5MlPT1dvxNCyJlKRkaGxB+Ml6pVqsmeuDiJLhEtqamp5n1ZSho0aCBt2rSW2rVrO7FPbQpVORBjwldT/pED23bIC1debm8khJCjoQgpB9JMGPPrZPnx+z9k7Lev2BsJIeQUZv/+/bJs6TJZvmK5/k5ISJCdO3dKq1atdCoXOrply5bVUKFCBY1DCCFnImnpaRK3O05S09Jkw7r1ciA+XlauWKEKVFgNVKpUSRo2aiR16tSWZs2aOUedmhS6cuDnRcskJXav3HdeT3sjIYQcDUVMOfDN97/KNx99L1Mmf2tvJISQoo77WvT09Pbu3atTB1auXCkLFiyQmJgYGTBggHTo0EGaNGmiHV1CCCEBcN6pVrYlGRmZErd7t0yeMlkWLlyoioKyZcvJBRf0V+VqtarVJCj4+PVNjxeFrhwYPXuBJO3aLY9ddL69kRBCjoYiphwYOeZP+f6LsTL+t0/sjYQQUtTxdGTxyty6bZvMmD5dJk2aJImJiXJWl7NMR/YCadSokR2REEJI3rhdzWyRzMxMycjMkNDQUFUMzJg+Q8b+OFZ3t2zRUgZeOFBq1qzpOOkPEsd1QZGnUNXDISbsjdklm9dtsDcQQshpgGkDJLJ8OanapLG9gRBCijLohLodUUt0biymDLzxxhvy8SefSMtWLeXNN9+Uu+68i4oBQggpKBhSRzDv15DQEImMLKbCP5wUDhg4QN577z254fobZOKkifLO2+/I6tWrdcpWVlamFN5w/PGlUJUDlbJESq/bIUmL1jhbCCHk1GevCXtqVJBSPVraGwgh5BQhKztL1qxZI3fdfZesXbtWnnnmabn77rulYqWKthdut7NLCCGkwAQFsAaAv5YuXbvIDz/8IFHRUXLrrbfJb7/+JvHx8Wem5QAhhBBCCDnJOAI/PGyvXLFKhg8fIW3btJU33nhdpxL4rAqgGzhVhrMIIaQoEUjYN69TvFKxrOFDDz0k55zTV77++mv5/bffZf8+rH3lUIRfu4WqHNhtUjtQu6pENmvgbCGEkKMEfgTy9SVgth82TuFQxoQKMXsked4KewMhhBRx0tLSZMmiJXLP3XfLsGFDZfDgwVKrdi01gQ0OCpaQ4BAJMp/uGt6EEEKODVfmDzbv1+joaLnppptkqHn/zpw5U8b9PE727oEtatGmUJUDmaZ9KVO9qtRu1NDZQgghRws6rIfrtBYkzrED9UPq7j2yfSmVA4SQU4N169bJSy+/JL1795YRI0ZI7Tq1JTws3Nlr3pxBQRJMxQAhhBQaeKXi3Wq/X4OlSpUq0r9/f10JZtrUaTL+r/GSlZWlFltqtVUELQgKfVoBzCiioqOdX4QQcnqQmZ4myQkHnV+EEFJ0WbVqlXz55ZeSkpIiw4cPV4/Z4eHhgXWpJ0bHSgghZwSqINBPW0lQoUIFuWDABdK0WTNZtXKVzJo1S7ItuLp2IhYxCl05AIcLWPOREEJOJyKjo6VclSrOL0IIKZrExcXJ1KlTZeXKlXLzzTerxUBwsNPdwyiVO1KlvVf7KyGEkELEfb/COMCEunXrysCBA6RkyZLy5x9/qmUXlAhFkUJVDkRli2Rs2Sm7Vq5zthBCyKlPignZlcpLxbbN7A2EEFLEUL+CJixdslSWLl0qffr0kQEDBtg7CSGEnBQwfQAWBA0bNpQOHTpISmqqTJw40dlb9ChU5UCpbJGo3QckfesuZwspSmCd47lz58pff/0lSUlJztaiwb59++Tvv/+WBQsW6lycY8LpIBFSWCSaEF+2hEQ0rG5vIISQIkZ2dpbs2btHFi1epJ3RK0dc6ewhhBBysrCnGdhTDNq0aSOtW7eWf/+dpdYDRZFCVQ6km4vPjAyX4OhizhZSlNi/f7+8+uprcvvtt8vuY5z6oT40dJiicMAazLfdepu88MILkp6e7mw9QvJTCrj7Au3335ZXGicC1wzJAGXOtm3bZNGixbJr165CLW9yZMAhYXhahmTFFy2lGiGEuGRmZJoO57+yY8cOadeunVSoVMHZQwgh5KQAxUCQrRjA6jClSpeWevXqSkhIiHzzzbd2nLzkk5NEoSoH9oSIJNarKiVacCnDogpG5TMzM49J0LQVA9mSnZ1dKJUZecnOylbHSatWrrTTPQY0PRPw6Qb97ezPhbtRr8nxHFoEQD62b98uH7z/gS4/NXrUaF2vmpwcsJRhmR175OBsrlZACCmaQKH8z4x/tD3ldAJCCCla6Pif+a9ly5YyxPTtV69eJcnJyZJl5B5bbrHjnWwKVTkAsGRD/QZUDhQFXGHXDVAMwFkkRhUwwqCCsV9ApwLByjY/3O3AVGaTivNn9geowd5z+YNtEPoD7YOlwN59e2X/gf1SqVIl1a55cY91wyFpmJ/ILx4seP9EyMrK1HTdAHNLKDS8RyKtTBMvy+xDSE9LVwHcP/388u7FP5+BQBxvOrnS9lw2fiPfBxMOSnz8AUlKtkess811eg4nJ5CDe/fIlpUrnV+EEFK0WLxksYSFh0nnzp21L6bkbk4JIYScDPAudt7HJUqUkIaNGkrFihXl999/l8xMz+BfEejjF7pygBQddu+Ok1WrVmvYunWrs9VGRXwjZWoddCosBPTpM2bImDFjZMHChSow+zoWJmLMzl2yZPES2bJ5i2+bl82bNsuK5Stk7969zhabtLQ0WbZ0mYwd+6MsXLjoEH8HrrlNXmAKxAyTrx9++EEfog0bNjh7cuMK3ghYNWP27Nm+AM2cCuAIDvv27pPVpmywHdYU8xfM17jxB+OdGDaxsbtlypSpui8/3HgI06fPCOg7AV6kt2yxyw/lstCUM8obviASEzCz3QblkZSYJDt37HS2EEIIIXmD1QkiwiOkXr16zhZCCCFFkdKlS0uLFi1UvnEtg1WG0W8nlyAjIBZaPmJM+OiPKbJn01Z557ar7Y3khLN9+w5HkP5NrQRAqVKlpHHjxirY/zvrX1m2bJk0aNBAKyLifPP1N/LdyO8kJSVVNVgRERFSrFgxefHFl6R7924SHR0tL7/8snzxxRfSr18/s/1FTTc0JFQVCBs3bpQHH3hQli1fJo88+ohcdeVVcuDAAVm4YKF8/PHHsmTpEhWGsc5yZESkXD50qAwaNEjn3SAPcEY4ZMgQOavzWfLrb79K8eLFNf1x48bpWs3wvIyHB8sxYRmQ9u3by3333aeeP5Hm/PkL5JNPP5aEgwl6XYsWLdK8uLRr206uu+566dLlLC0LnO+dt9+RhMRE6d+/v3z33beSkpyieQmPCNe4MNGcNGmi7Ny5U78j3+3at5Mnn3hSatWuJaGhoap02Lp1mxHwR6uQD4E+MztT5xJ1aNdBbr3tVp37GRUVJStWrJDPPvtMO3CdOnaS5cuX5yqXpk2bygMPPGDy2EXz98Ybb+h1oByxRmr58uXl559/kdq1a6tZEjlxpJnw898z5Ldxf8tX7z1jbySEkCLEjTfeKI0aNVK/Qmi/CSGEFE0g0yxZskQuvfRS/YRsExwUbA+WnuQ+fsgTTz75pPP9mAnPEpk/8V/ZvnytXHJBb2crOdE8/vjj8u233+roeb169aVVq5ZGWA2VSRMnyu643Tq3/7bbbpOyZcvK9m3bVXj//IvP1ay+qxFM4UkTow+zZs8yQvkSqV69hlStWlWtBqZNn24qdLoK5dWrV5fgENv4ZP78+apcKFmipJx//vlSuXJlHeV/5plnZPWa1bp0R5cuXaVEdLQK7RD2y5Ytox2ZyMhismHDRhk9erTUMOe64oorJCwsTH766Sf58MMPZc3qNdKocSPp2bOn1KldR9JS03QN51mzZum5IOyvX79elQpTpkyR7Tu2a/4xp6d3796yaeMmVYbs3h0rTZo00XxjxB6Kh1WrVqpVBYT3tu3aSrq5NngPRfx58+apRUHjRo3VBGhX7C4Tf5WUKV1Gmrdorp2vzZs3y6effiLffPONZGVlS/cePeSsTp112sb0GdNlzpw5KuzDxBPnmTBhgi5fotYDlkj9BvV1/+7Y3ao0SE5KlmrVqkmx4sVk584YiY2NlYSEBFNOjaWpyXs/c73IC5UDJ5Z9JixJTZb4kGzp36q5vZEQQooIUDavXbtW2z2MRhFCCCm6YLATMsaChQukerXqKidgoDA/S+oTRaFOK4g0wk54UqpkxeeYR5MTC8xTYNIOQR+O7P7zn//IXXfdJTfccL106txJVyzwGotMnDRRhXhorG655Ra5/4H7ddQBI9jn9ztfhe6pU6eot3wI6I0aNTQC8RYVzuF107V/mTxpsk4n6NatmwrgEK7Hjhmr24YNu0Ieeughufnmm+WBBx+QW2+9VR+AX3/9VQV8VZL5PQx79uyRH3/8URYsWKCKBVwD8nfHHXfI3XffLS2at1Dh/fvvv1cB2gUKkQrlK8gjjzwi9957r1x7zbW6AgKsAVA2C+YvkP379juxbTAiDyUG0oWurF7derJt6zapXau23HrLrVoW9953r1x88SU6ij9p0iS1GAAoh/Hjx6uvhPvvu8+kcZdcd/11atUAoX/16tXqPRrTCVwwrSIyMlKVOCgXXBcsDKDkgCXBjp07VPkycOAAadu2rcY966yz5C6TdpkycI1HTjRYPyMtMlxCy5a0NxBCSBECbSX81MDKjxBCSFEnSGWhqlWqysyZM3Xg9qSbDDgUqnLgoEktuXwpCatW0dlCTjR//fW3EazjpFevXjJ40GAjrHeV5s2bS/fu3eUaIyh7gZIAHQoIrhiVv2L4FSqMYvrBWV3OUoEY1gUY5Y/bHafrcrZq1coI47tk8eLFqvWCM71dMbtk+vTpEhYaJm3atpFq1avp6Dvm0deoUUNuuulGFfAbNKivJvZXX32NWgzAEgEB+CvK1q9brxYDELrPOe9czX/9+vWlSdMm0uPsHjJs2DC1LvjbXK9X8C5dqrTms2/fvjqCAiuB8847T87pe47uh9JiZ0zOPH44AxkyeIj06dNH46PcypYrq9fWtWtXueSSS3QKQ48ePWTAgAv0eqGMgLZv27btMn3adFVkQCkyaMggadmqpSoVoIi5/PLLVekCSwFYGLhgisDZPc6Wfuf3c8qlgXqWxnZM8di3f5+UKl1KatWqpdePKQoVK1bQssd0D3LiiTKhxIFESduIyVOEEFK0QDsEBTMVyIQQUvSB3AMrZ8g2kGNgfVwEjAaUQlUOJJrUQmpXkYrNuFrByWLevLk6ug3hvpER8l0gpLZr11Y1VBilR9i//4CaykNbFRMTI7/99pu8++67Gj744AOdI4+RCJgqQmDF1AIIqBBiYSK/YcN6Sc/I0BH5LVu3SN26dXU+PJQOMJOHlQLyAuHYTRfhzz//UCeDcPyH4ObHC/KD0fmmTZpKo4YNc82fhD+CXr176Zx/dIiQR2BS0Txi1N0fCPjoOO3Zu0cOHjzobLV9MUBh4QXpgHLlykm58uX0O6Y+QNEBXMsL+CLAKD/Kb9Om/2fvLACjOL4//uIE4oEQEtzd3a1Q3FqsWAUvhQrlV/n9ofKrQ6lDjQItBVqguLu7BJcEEhLiRtz2P993t+ESkhDggCR9HzrN3d7e7uzM7N68N0/8aNnSZXx93//wPbtqIAgj4glcuXyF20LH3c2dFTCmQEkBDSL2i4sTy5uCBiJg2ASHU/gxSWUoCELBAwpo/EZBqSwIgiAUfODS3KFDB15QTTXKMgUBsyoHgIuLK/ubC08G+LJDWMXqgYMD1jvvAOETUYyxKg6wAg4fdwjwO3bsoK+/+vqu4uzkTI4OjhwkA0BYb9OmLQv/cAtISUmmzVs2U1JiEgvg6HsEBYQADhEaufq//lodC8XkuDHRMVStajU26Ycsnl05EKaE/sTkRHJycabi9sWzpAZE/XFDZQfHwHVjtd2wAYK8oaAyOcUAhfUBvsOpG3WyVoW/xQoB4zGQ5eHOPhasnEAmA1zXN199Q999+x3N+2Eex0wo6V6S21xMPQs/ibdvU1jgTeM7QRCEggNiDuB3Ecp7QRAEoeBjV8yOg5HDTToxCW4FBQOzKwcgKCUa/bGFxw+EUKyoY8U6NTXNuNVARnqGYdUcQq4qMFGHyToE5ObNm9PklyffVWC+P2LECKpUuRIfo3yFChywEHn3t27ZSrExsXTy1Ek+TstWLamMVxk+HoqmBPoyXl4c/BBxDEyPO3r0aBo6dCgfC0K9paUVH18HJjaIm5CkbhbdMkAH1wZffigMYFGAc+sg+icyCzB8nRm8X4b6i/fZgRUCri1T+QChP5tyAI3Fx2Etg+GYQLd4gIVBl85dMq9t0uRJmdc8bPgwGjBwALs3CIUbKzWmi+WglBIEQRAEQRCEooBZlQMQ0cJvBpHf5SuGDcJjp3GjxuxCgNSCIcHBxq3EPvIwqUfAu/SMdF7x9ypThvNsYuW8Xdt2HCgQgf9QpkyZQiNHjuTomXXq1mUBGJQqVZIaNmzAEfXhv48Vc0Twr1W7NpvzY+UCcQpgjm9haUGenqXppZdeyjwuyrhx46hho4asSIBvPcz4sxkOcIYFRydHTr2IoIamCgAoB5DiLz09nWMX6FYEENRDQkIN5jlpqYZVfigG1PXiGMhEAKUFlCc6OAZSGOJvTsoDHVgOqKMZ3xkoXtyebG1toDuguvXrcVDBKa9MocmTJnPwxZGjRrJSANYREiugcIOeL16qFJWrW8ewQRAEoYCA38Qs1m+CIAiC8ICYVTlQWslXrr43KfHMReMW4XHTuk1rFvaRKWDvvr2sFIDgC/P+P/9catzLIEgjDSF8FCH4njl7hoVq7AsLAwjMiPL/1ttv0fJlyzgGgA6E/xrVa7Cy4f0P3ueJSf/+/ai0p9GcX+FZ2pMqV6rMsQU2bNhoOK4S1PEXwQs//eRT+mruV3Tq5CneX/fz14GiAWkREen/7LmzfB369yMjI9m/H69r16mdabKPY9wKCqLDhw7TxfMX+TqwD6wJlixZwtdQvVp1jruQnXTdciAHoBbQ3Qr4vfE10hnCjSI8LIxOHj/B59SvE64dn3z8Cc2YMYP+XPKnqtfDBbLDcVGEJ0OEKqHepahEq/qGDYIgCAUEBPY1jaUjCIIgCA+K2d0KhCcLTPURlO/ylcssgL/++hs0b958+uabb+n7778z7kVUzK4Y2Rezp86dOrNlwOrVq+n551+gzz/7nBYuXEjvv/8+/fjjj5wasEXLlnxMHbzGNpj7X7xwkVcskB2A4wcYBei27dpytH4oHF5//TX64P0PaNmy5fTxxx/T9Demc5aEnj17coFeAFYGpsBPf0D/AVSpUiX69Zdf6Q11HYsXL6a5c7+isWPH0pWrVzidYf/+/TmYnylwOfhy7pf0rbpm7I84CQEBAdSoYSNWnsBiIQvZ3Qh0UC+j64ApuF78A2g/ZDnYsHEDTZo8mb75+ltODYn2m//jfLawgKsBFAn3g8GawnBeKENmz55Nc+bMyRLYUBAEQRAEQRAEwVyYVTkQqo4WXcmT7OtWMW4RHjfIif/hhx/SiOdGcKDB339fTP/734e0cuUKqlunLrsdsIm+6isLKwtqo4T4V1+dRp06dqIzZ07T3K/m0n//77+04LcFVL5cefryyy9p4MABmW4FAK+bNWvKq/sQ6qGQgGJAD3QIEBQQZvXvvvsuR/VHBP8ZM96kb775hq5eu8p++M8Ofpa8vL1YEM4O6vjiSy+yC4KNrQ0tVtfxzrvv0BezP+csAA0bNKRFixZxdgT9vBDYsZLv6OhI69auY2H6u2+/5fgFEOA/VO2A9ISm9WQLCvXeymSbji6gZyoI7q4m9e3Xl90J6tWrRz4+Z5QQ/wVNfXUq/b7kd26/adOmseuDqStDvlDnKlu2HLVt05YtFaCkQVBHUQ48GZAcrFRQJCUcuWTYIAiCIAiCIAhFDIsMtpE2DzCcXn7wGN0OCqb/Duxt2Cg8dmDS7u8fQBfOn6eQ0FDeBtP76tWrsaAJpQHy8hcvgQRtxJkDkAbp0qXLnGcfQDhv2rQJ59+EG0F24RYmjOfOnqO4+Dj2q8dKP7IhmAJzfmREOHXqFMcO8A8IIG8vL6pYqSIrFuDSUMKhBK/EIyYA9nNxdqFGjRtlxhhAffxv+HOqRAj5qAeyJ8CdAGkV9f3gqgA3CKQ2HDx4MNfbz9ePBf+atWryNeAvvguCg4Pp2rVrHINAD4rI16iE8uPHjvNqfbVq1ah8+QrcZtANILUi3BwQxLCJahs9vWJYaBjXEUoPHBOBC62trKldu7Z8nXDzwLEh4CObBNqugjpuufKG1Ig6iFaKvqleo7rhvKpdoqIi2cpCp3XrNhxjAfURHh/JqixduZmWL1xF61fPM2wUBEEoABw5fIQmTJhA09+czkGEBUEQhMLB7du3WY6CDACZoSBgduXA6pM+lBgSQa9172jYKDwxoCTQI/dbW9uQo2Pe6fSwr+63CGEZ1gC8Yv6QwFceQi+EY6zqIwgihHIdNtLPICXI53wujNCEhHiKi4tjZQCC+yFYYSbqc105gPq/9tpr1Lt3b4qKjOL6l/Ioled16IGcsrs24LjZb47Mw+h/TXaA8kBf2cf5EMzxgdoPX8FxUbJ9PUPVFcd8kMMKDw6UA78vXUu//7iUdu74w7BREAShACDKAUEQhMJJQVQO3G1L/ZAgtV1YmGG1WniyYGUbq9Yo91IMALgkwH8fBbmSH0iwzQEI9HBFqFy5Mh/XVDEAdPP9vLC3L87fxXGyKwZ0TPVcsGJAgESP0h73PDaUAncpBoDahK+alkx04d0EWBQgxgAK4jI8cPvpx33ArwuPBqQxdC+TLV6FIAiCIAiCIBQRzKocKJFBlHIjiILPSypD4f7IS47GZ7AqgIsAC9y68JxNOAdmNIQRhEwSVcnwLEkeTSSVoSAIgiAIglA0yVQOWCiZ6mGLcwZRiZAoSrlxJ7++IDwO4AKBYIMdO3bklfuiCnQjD2qQIDw4carEuDmSXbWiO7YEQRAEQRCEfzdmtRxIUUJLmr0dWTkYAt0JwiNDM/41Urt2bc6M8L///Y9atGhh3Fr0MJerh3B/IBynbXIqpcfGGzYIAsBzyLQIgiAIgiAUYsyqHAi3Ioqv4kWODaoZtwiCIBR+kMrQNTCcYg+eM2wQ/vXAgwmZSUyLuDUJgiAIglCYMXtAQs8ynlSlSlXjO0EQMpHVxUJNbEQE3Th/wfhO+DcDJUBGRjq/xl/Da2xD5hV1k8t9LgiCIAhCIcTsygFBEARBKMogw4qVpZXhtYUh2wr+WXJQEN4sCIIgCIJQ6DC7ciAkOIT8/HyN74oI+oqvXgThflBjhlcauWRQeno6l4yMDF5plDFVOHB0c6NyNWoY3wkFmVu3btGlS5e44LXZwS+nKpxFxcqSi4WVhaEgLWoeCgI/Pz86e/YshYeHG7c8BuQZIwiCIAhCPrBQAgtPG5Bt4GFJziCaO28RnTt7gRZ9/7FxaxEge9sUoJWhqKgo2rlzJ23bto369OlDHTp04Hz7D0NCQgLt3r2bdu/aTS1bteRjurrC6/rfga+vL61ft57i4+OpY6eO1LJlS+MnDweUAREREXTkyBHatGkT3fC/QS2at6Q33nid7OzsjHsJ2Tlw4ADt3LGTylcoT507dyFvby/jJ4+PUFVWn71EZ46fpW9GDzJsFAoMqamptGLFCjpzxocuXrzA91laWhp/Zm1tTe7u7lSzZi2qX78eDRo0iGxsbPiz7ISFhdHWLVvpjI8Pvx86dKj6Xg0qVqwYv89OSmoKff3V15SSkkLVq1fnjCllypQxfmp4lp4/f55Wr15Nx48fZ6UgtqFuOKatra2qmyHTSp8+val8+fLGb2YFSo7du/dQQECAccvdpKenkZubG2dr8fAoTV26dDZ+YlBOSjDTosuRw0dowoQJNP3N6TRs2DDjVkEQBKGgc/v2bSpbtiwdPXqU5xEFAauZs2bNwgtzTBusM9SP1J7DFHjjppqA9TRuLcRo+I//x3/5tRGYkBYEJUFMTAwL8r/8/AuV9S5LjRs3Jnt7e+On9waTzkWLFtHBgwd5YomUgImJiSyQ/TDvB3J1caX6DeqTs7Oz8RtFH39/f1q4cCH5+vlyFoQaWC1GXz9kf0M5cOzYMfr1l19px84dbJZcUx27VetWLMDkCoZdfs6tD88CMC7Nyfr1G2jZ0qVkY2tDjRo15HH6uIlS5Zx6gMfExdHTNaoYNgpPnOTkZH6G/fjjT3zP7tu3n06fPs2r8zdv3uSC+xkKvytXrvKKfWhoGJUq5UFOTk533XcQvn+YN4/WrVtLZ86cVgJ2FypXrhwL8dmBQuLKlSv07jvv0uHDh6levXr8vHB0dOTPYUW3ds1a+nLul7R923Y6eeokXbt2jc8RGBhIN27c4HqhXL58iS5dvEQlSpSgChUqkKVlVqO+EydO8PVt2bKFrw91gyLE58wZ9fcMnVbl1ClsO6P2Pa6e5we4Tv43/KlW7VpkaWHJxxQFQdEE42nd+nWsZMI4FARBEAoHWFyYM2cOjRs3jhcyCgKZMxBNzRketsSqoyWUcibbsh7GoxZuIGvBrgKm4AYTcFXUa2zT5bAnDSaiSN03ZOgQqlCxoprs5rwilhshISG0detWWrNmDV29epW3YRW7SZMm1Lt3b2rdpjVPov9txN6O5RU+c3P58mXauXsnW3e89tprbO2R2yrm/WIYmwVlZJoPD49S1K59ex7nT+rBWUIVx+g4SvZ9BCbqwgMBJSaEZqQv/emnn3hlPigokJVHzZs3p86dO3PBa2zDZ9gH++I7J0+epKSkJOPRDEDZAEELrggoaUbrg5zAvqeVQA5FxPXr19liwMXFhT+7cP4Cn+e7779jq66bgTf53qxSuQp17dqV7/tWrVqpse3Bz5mLFy/SipUr6Msvv6Rdu3bxtZkSH5+g6hPMyo5AdSzUESUoKMhQjHX29b3G17V371767bffuA4/zv+RIiIjiuSzQTCgx7wQBEEQhIcl03LAHESq36YzUVFkZWdDTzWoa9z6kLAgrv6piQ0mY1gFgil9bGwsm2XmtOKKFR1MorBfdFQ0T/AggFlZGQJIAWyDKQe249jR0dEUHBxCkZGRaj9Lgxmp2q4pgQv76sqBOxMsw1+8T09LZ81PWrphIoltKPAn1wvQV21gWorz4FpgxorVIlMBEdcJiwAcMydz1ri4OK4vjgPlAMxI69WrTxUrVlSTYNfMVSfsFxwczJNG7I86ZXc5uHDhAu3Zs4cno3Vq12HTFigDPD09eRUMlgioH0Cbo25QHuBvaGgotyEmt7BWyL7apYN64jphpp/XfnmRmJDI14J+jYzEOi7xsXJaCUPdcD5MnmFejOtGO+Z0XnyG/oX/L+qHawsLDaMtW7dwf2MCn2k5oNDHAY6PPsL147g5rSzmxK7du9jEGG37ySefUGnP0nwNqCf6C2MUAgv6DPXRFTP6qIOAA0EkNiaWx4zujoB7JCPdEM8A/aK3M64rPCyc4uLjMtuB91evcQ1YxcT5UP88rReMoJ44B86LfkefYFyg7hiLen/g3kNB+6B9UZ+cwH0QEHBTHTeSxyD6Th9vOg4OjtSgQQM2CdfdW/Q+trG2IWsb68zzoV3QP2ibBxlnuYEjXTpxno5vPUCDBz5l2Cg8UXx9/ejXXxeo8qsaf7epdGlPXunv27cv9e7dhzp17EitW7VWz7AmVLlyJR5XUM7dvh1LZ8/68LiqUaN6FoUTlKWwVLl502C+P2zYcKpUqWKO9zfG/bKly9hNCIqBl156iZ/BuHeX/7Wc5s+fz89XjP127dpRz549WeHau1dvdtWqX78+VatajZ+1GLMQ8mFNgHEN5SzGuv6bBeUBntO43/BMGDhwoDpGe2reojk1a96MmjVrTs3V37p16/LvAe7lkBD1fFb3pY/PGXJydKJKVSqRQwkHPp5QtAgKDKJ169axMl8sBwRBEAoPBdFywKzKgThVbkTHkh1ZUauqFQ0bHwTIF0ZhDEIRBAisEO3bt482bd7Mqz9YsYHwhBUhBwfDhAdCToB/AB0+cphXwo8eOcr7wvQTCgNMqnThGBO4VatWUdxtg6C9ectm2rFzJ/t8BAT4s0CD49ra2bIQuHbtWp7oQXiGYKQLQRB+YKq6e89unlhicgggfJkW7A+hCueFyf62bdtV2coTSwhw+ByTVxwbx9mzew8dPnyErxFmrbqgA+EYK0sH9h+gtNQ08vLyYmER5qS4NgwsTCj1/TZs2Eh79+5hU1RMPHE8RzVRtLMrxpPGDRs20OFDhykpMYnrgHaC4AqhEd/BoEW7QRiD+wL8Z7ENq1Pwmz916hSfG20IwdPevjifH60DgRSTWo5foAr2hcCOiTCOg3pDiNMF4NxA/x86dIj7dOfOXXRSjYUb12/wZBordbogjP6/ccOfXSRgfrtjxw4248fKnq2NLbm4umSZ5MdEx3Ddscq2R7XRqdOn+LojoyK5fRFkzFQ5kJyUzPvv37+fdql6YGydOnmK+6tE8RJ5mrtjwo8xq5sFY5KOfkW7QbD488+lSnC5wu0Gc+F169azsNuwYUP2a4ZQs3//Ptqsxr/BJ/oMXz/GKYRyjBuML7TBwoWLeDuUBDu27+C2R71xbZxqTY1H1APbMQ5hlg1hAsJITsooUzZu3Mj9CGUA+hYTUowFXBOUBfj++Qvnue3RD9gXYx51NG0f9CnqtHXrNlWXzdxP589f4DbATV+2XFnjnhDYgrkPMTZxHIw/mFBv2LCe788LFy/Qzl07eYwcP3GcnwHFitnzqqy5QKK6EyfO0qFdB2mMxBx44kBJhbH488+/8PMZ9zV+WKdMeYWVAw0bNqBq1apxqVu3Dlud4D7WzfpxD4SFhSoBvQFVqVJFjX+DEH4/ygE8tz/77DO6FXyLnn32WerevTvfQ3guLliwgJ9x+A1p3bo1/WfGf2jCxAkcv6Rq1arsOoDnLJQGsGzAMxNjGvcVfq8qV6pM1apXy/xtM1UOeJb2pG+/+ZZGjRpFPXr2oKeffpqe7mEo7du3p/r16pNHaQ9uF9x7EZHh/NsF9wL990soWgTeFLcCQRCEwkhBVA4ggrpmrhKoytyDx7QPV67PeYf8FiNKGNAiwiO0lStWap07dtZcnF00by9vrXat2pqbq5tWrUo1bd7387Sw0DD+3oXzF7Q333hTq12ztuZVxkurWaOmVr5cea2YXTGtfbv22p9L/tQiIyJ53507dmr2xey1Fs1baM8Ne06rXr2GKtU1Jdxrjg6OvP+qlas0JTRrFy9c1JQAqlmQhbZv7z5NCYnGGmqaEg6158e8oDk7OWtDBw/VtHTjB8D0mlTx8/XTPnj/Q61qlap8Hfhb1rusZmdrp/Xv11/buGGjdjv2tnbpwiVt2tRpmouTi9awfkPt/NnzWkpyipaYkKh98/U3Wp3adfi7sz+frd0KuqV98vEnfIw3XnuD2yIhPkH75qtvtIYNGmoepTy4HdBm5cqW49e/LVioxcbEajP/b6ZWs3pN/i5KaY/S2nPDn9OU0KzN+2Eet8+EcRM036u+3LZDhwzlc/fr00+rW7suH09NYjUlGKvrKKeu7QPN95qvlp6Wwe2mBGxt6NChmrWVtTq2p1alchXNydGJz4H6NG/WXFv659K72sm0REdFa8uXLdc6d+rC/YLrrlSxkubq4qpZWlhq33/3fWb/Hzt6TJv+xnRNTY41z9JltOrVqnP9MFYGDRikbdm0ha8N+8bHxWubNm7SunXtpinBWPPy8tIqq/q5u7lrapKvVaxQUevYoaO2ZvUa3j8xMZGPP1AdB31dxrMM9yGOXaFcBW3G9Bma/w3/zHpnL2iLMaPHcH9YWVpxm6F/Xpv2Gvcr+qVBvQba2BfH8lgv6V5SGz92PI+1s2fPauPHjVf9UZzHc80atbi9i9sX1zp16MR1VEKFlpSQpAXfCtFKlfTQ2rZppz2lrq1e3XpaxfIVuZ6uLm5ar569tI8/+pjvJfQH7hP0fd8+fbWtW7Zxv+VUf70MHzac275F85Zap46d+PvoW1wPxsOsWbO0bk9143sT5y3lXkqrUqmK9t93/8tjTj/O33+tUPV7SiunrgN9VLdOXe5XtH/nTp21a1evqXGkbia17ycff8p1nThhonbl8hXt8sXL2rRXDPfHmFFj1Jisq1UoX4HbBnVDG894c4YWHhZuOB/uSeN5H7QkqbLgr43a073G5vi5lMdbNm/azGMfz2Q831u3aq3F3Y7LcV+94BmK5zXuXdyD+O7M/87UbgbczNwHn7du1YY/Q1m7Zl2Ox8V9uXfP3sz9NqzfwM+UqMgobcL4CbwN91Wrlq20zRs33/X97OWSGtPDhg7PPF7jRo21E8dPZH6+csUqrVHDxvwZ7qvTJ08b7o+cUPsnxCXwb1xVdR9aWlpCx66NGjlKO33qdOYxpRTygu43lsMHD6vx0Uhb8seSnPeVIkWKFCkFsmBuDNno0sVLOX7+JIr57G4VWHsJDwwiv0tXDBsekpiYWPaH/+H7H3gVRgkdNOXlKfTDDz/QgP4DKDommj799FNSQh6vmGIFeM6Xcyg+IZ4mTpxIc7+cS2+88QavvmJl8rvvvuPVdB2shmPlF6uoQwcPodlfzCYlxLD2HRYEMAvFarsSwqhenXq8uoOV2PCIOymo/K770ekzp8jL24uGDc89SjDqh2t5/733eFV30qRJ9OGHH9KUKVPYvBR1wPmwClu9RnUaM+Z5qlOnDq/C4hphCXD27Dn655/VHMAK5rPPPPus8ehZwerr6jVreFV6iLqur776ir7//ntSQrk6TqA67we86tyxY0d6qttTbIaK1etBAwex5iov0A8wubcvbk+vvvoq/d///R+1a9eeoqIiad68ebwarEYWt9tff/9FK1eupCpVqqrrGUMzZ85U9e7K14rV6vyACN3ffPMtHT1yhE1xP/jgA3rnnXfZPBer3YsWLWYLBKxaL1myhOtgaWlFL774In3++edcv359+3G/z5w1k44cOcor7LiOxYsXs8UHVhcnT5ys+uZ9euaZZ+n8ufO8uqgDSwffa748njZt3sirkC+9+BL34cABA6l4ieL0+++/8/iCBjAnvL3L0nPPjaAePXqShYUlVa5chWb+30x6QdVTX5U8e+4s/f7H77xC3r9ff2ratCmv/P380y/q2v5k8+OpU6fRV3Pnqr+vUKNGjdlKBv2LYGYwO0DbJycnsZXB8ePHeGVyxowZbNKclpbKliIff/wx12PmzFk0fvx4VZfKvNq5ZvVquhV0b596jCuYZWMcjx8/gUaPHs3mzKjre7PeY4sFrGKOGz+O2ndoz1YT//zzD9+DAPfCgl9/pWNHj1Gjxo25HvPn/8j1rFixEltkfPzRx7m2pU5MbAy3V6lSJWns2LH02quv0dPdnyYbG1u2XICVBWMw8nkoMlQpoc5Tvl4dwwbhiYH7F5YqcNGBxRBW4eFakJvrig6slBAJuEOHjvy8c3N1Y0uBB0kpiLG+csVKfo3z4hkCyy1YHF28cJG3437Fqn637t34fV4gA8foUaPY8gBFf6bdF6wCMLzE8xm/e4hgD6spC/UP1new3EL7CYIgCIIg5EgOCoMHLlqaps3+dL42fNjLOe+Q32IEK+1YIbS3s+cVmKOHjxo/Uaj9unbpqqmJj/blnC+17du2a927defVS6yMmh4PK7pYGcVK8+uvva5lpGfwqgreYxV41sxZWkREBB8W+/OK8lPdeJX8px9/0mKjY7VffvqFV9K7dnlK8/HxMeyakaHNmT1Hs7G20dq3b88rwLlZDuzcvlPr0b0Hr25++vGnWT7zvean9e7Vm1eiv/j8C64fVqvWr1vPx8ZqEVblez7dk1eAUbdNGzbxd3OyHPhp/k+8sj9k8BDt0MFDmSuwQYFB2qCBz2gOJRx4xR6r8rt37daUQMUWFMv+XMb75WU5gDbr/lR37czpM5n1R8HKN+q5eNFiLTUlVftx3o+8gtukSZO79h0z+nleub6X5QDaASvVOOfokaO1677XMz+Dpg2rzGgf9M1fy/9W/f+0VqtGLU0J8WontZvqn+TEZK5PvTr1+Ho+/eRTLeRWCLczjtusaTOuH1YV9TJp4iStVMlSmZYDaFNYKDiWcORtkeGRXDe9LrDSqFShkta1c1ft5PGTmdtzKhirtta2vK/pdrQfVjNbNGuhrfnHYK2Qobptz649mrOjs+bl6aXG+A7DGDN+B2O4T+8+bCGBcYi6Yzw4ODhwX3zx2RfarcBbvO+Z0z7a2JfG8nacSz8GyuwvZvMxBj87RDt44FCWz7IX9AeOMfjZwdq5s+d4G1ZM165Zy5YdaFNYt4SGhqovaNru3bu5jrB0+PCD/2lpqWk85mAJAGsBrADjGGhPjE/UBRYR7du25+Pis9wsB3AuWAqYWiRcPH+RxynuE9zr+vaHLQGqfHPFV5u2+t6rwFIebcFK/2uvvsbj0MXZVXtu+Igc98up4Fl41ucsPyO/+vIrbdvW7er+NlqYqJJfywHs17JFK37+9OnVRwu8GcjbP//scx6r+C6eb/q9nJ8CqzY8l/RiaomUL8sBk2PpBfcGnrX69fzvw/9pwbeCc9xXSiErqvthpYdySD23xXJAihQpUgpfKfKWA+YmLS2dUtPSeGUIAZgaNmqYZXXknXfeod8X/86rokqAYz/0SpUq0dSpUw07GMHKuJqoUbmyBh9vrBYB1QRcYGWAlH36cbGSj4J9sWLs4OhA/fr145WnPXt2k5rE8X5KqGSfalgWVChXweDLiVVKkzrqYKX+8pXLnEIL9TUFua1r16rNMQTgd419sQqFFeqPPvqIj4vgddt3bOdVKqzwIwr3vcAqFnxfkdIKlC5dmhb89itdv3Gd+g/oT07OTrwqjpIfVGvxahjqhfqaXmO5cuUzV+7QpljVRYC5qpWrsm+tKb169WQ/33vh5+vHfYBVuZatWlG58uWMnxC3z6qVq+irr76mLl27kL8/0oJdo/oNG1C3bt25LVEsLNWU2MKChj83nLzKeLEFxrnz53gMoD3at+/A9UPf6qVWrVpZ/H6w2oY4EUilB/9grMrpMScA6oUC3+Njxw2r4zmCr6iC7/L37xwik/ETxlP3p7vz6+joKB4zaPfOXbpQs2ZNs/gLw8IFBZYkmavkJmDlEL7HwMXFma8XfY4gk3pdUGCBwXEiTK7pXuCe4lgMCqzeoj9gAVGzRk1Vz2bk7uZOqSmp/Bf3pA7OgzgOsMyBpU+nTp14O3yp4VONdoblB/rhXiDexMsvv5zFH7xqtaq8Kmx6nwtFC/jfowAXZ2dq2qQJv84PGKs1a9akESNHGCxb2rfLM1ZIFkzuGfjzwzIH47lN2zaZzz4fHx+2mgIY9/q9nB8wnmGNpBfcY/dE/63J9nujg/rhea3X79zZc+pZeccqShAEQRAEwRSzKgdC1dGiK3lSsTqVjVseEONEB3nmIfBZqAkdhCIIMaa0aN6CzZcRBDAkNIRN/DH50ydCOmx6WrEClfIoxUJDaEgob8d+mDgh6JOpYFSqVCkuMI8+feY0fwaBEOaoEFogdENgvKAmqBcuXKQqVatwaqq8hCu4IsBU/cKF8/TMs89w9HW9NG7ciH5b+BsHwktPN2RGwLEwWRw2bBhnEUhLS2Mz6yFDhihBsTMLqrkxcNBAatuuLZtv//XXXzRy5Ei+zpEjRtLihYs5eJEST+9LGNSBcqBK1arcJ1AC6OjCJQoEPT1YIMx48ZkpEPZhOnsvrimhF/2F79vYWHM/6mAbonQPGzaUJ9Hpxkj9pUqWpPLlymXWTa8TAuVx3W4Fs9kv6uisBItKauxkrx8ihSPolw76A6b+iE6O9GAQfk37b9q0aWyyi/3QT3mhtztKTqCeurALAeS633V+rSsuTL+nb8N5MTbwGQRrnAWByUqqMQwXBgAliS7Ew40gC+qQqFd+Qd/pgS8Z4/dxLmzDfYpzoQ9Qp+ztizrjXkDe9n79+rMS46mnnqL//OctDvSY35rwvV7Mns+tg3Pp586v0is/YLSWCoqkhKP5c4cRHh3paelcAMZX9t+Fe4ExgvsMBWPRUt0b9wOCY27etJmfN/j+0KFDOagqtuvZPADOk1Mgw9zAteA3SS+mz7scyUUhYArq0LJlq8zfxDRVt4wMcSsQBEEQBCFnzKocSFNzLLeyXlSxZjXjlgcDE3tM/mKVcASBDPnbcwICO6KXYwKmC8+5gejoyCyAiVtqWipvw/6IDJ1diMBkEwXH1P0+8b6bEmCQUeDgoUOcOihECZohSsiEZQME9rzAsSBgIkp93Tp1OYWVaWnXth317dM3S6Rh1AvCsR6VXt9mKpTnBFbCEA8AObbhE47I11AIwN8cMRkQVwCR3e/bp1WBySYie6MOXIu7qoKsDAZBHRPn4tnS0gH0F45zLxATQp9o5wQm91BAoG8QhRwCP46NcQEhGcUgTFtwmj8WolUfJCUncXtaqc9zmrxDgEZ6vOygzh6lPFjhgVVzvUBZ0KNHD7YIYYsKM4E6Y4yiHaHEMFzL3XBfGMeEpdoHe1lb25CGsaKPbfUx9rFUAjyOZwp/I+dD54h+f5iiW2hwHY3HMtQk64HRB4hLgfgTP/wwTwlUvqykadK4CY0Y8RxbeIB7jfHHDa42KSycbp4+Z9ggPDEC1fMQBcASplHjRvz6cRESHMKxYfAsh4IaimQ8G0yfV7BegRL0SYP7Eb9ZupJQEARBEAQhL8w+Y7ArZqcmIw+XSxlyAQpWqVH4TQ5s27aNg8RB0HVxdqHSHqWNn9wNTNxTklN4ogSBEmAiFxFpyINvCpQIUErgmBCsAYShXr178YTwyJHDmenhkO6udu0690w/ASUG9oGZ9+gxY2jGf2ZkKQiohrRUUA7oZq5IZYeUVVBsYCUb1hMIHIfrxrbcgJCMlFhYkR079iUOyvfJp5/QS+ocTk7OHPAN6fiwMp0p0OUTqAQMyhS02d39gkNhJQ7HRB0QuCs7sPLIj2KijOp79FdOoO/27dvPwSmPHztOdkrIL+FQgm7H3aaoyChedeOiJsWoyy3VJolJiarvnTmdF8ZAQmICB8vLztWrVyk6Ktr47g5QRrRo2YJef/11evPNNzMLgi0i6GGb1m3IWR3fXEBJUcrDw6AkUn2VfZyibVEwXqCwwHXyaqPqA7QPiv4d9Fvm97N1G9oouxB/v0D40LQMVhLox0J98ErLuHNCKGVw7yCFp6OjA40dN5bee/89evX1V+nZwYPVddTIYVQVDNJSUihBPRuEJwueHfrzA8q9ez17zYLJ7cEWZadP8/3Zrn27HBWd+MzJMe8UrYIgCIIgCAUNsysHkDs+TE2eHgY2gVZCN8zFUSAkw5eTBWKj7AGhDtHpsToOIR3CHnyqsdKu+9jrYBviEURFR2XupwMBav+B/aw80CeAWBVCLAEI8g0aNuBtELrgQ4oMAhB6kWMb/uXly5WnFs2b8z55UcazDPvZG4S2NF5t1gtWmK5cvcJKDgjsEIjj4+PpxPETHOXdvaQ7TZ02lfN3ow2Q7/+4+iw3tmzZSl9//TXtV8IzTMDhYjBYCV4vvPACde3ahSezcItA3v77BYKebr2QXVgFEAfRxii4losXL5C/v3+msIqCfP+YYN8LmL/jOKGIJ3HjBitt0Ec4BqwpkBcUmQwwFmqrfilbthxdvXKV/dmhpEDB/pGREawQQX0QXwAFyhpEKYfbCMaXKdgXygQdrGzDOgTnhdKoUaNGnElAL6mpabR3314ehwZx+P7RlRkQqHWgaKhcuRILQoh14X/DP9OCBCB3+YXzF6hkyZJ8TYjRgbgHBuVNVh0A91u66jdTJYERuKhAoZOUlMiZDu4X1BnWCGgfmC9bqXsXsKJCYWr5g7qd9TnL14T4DchA0rpVa6pXtx7ZWFvTuXNnWcmQm7VQfsG582Odcj/YOziQu1cZ4zvhSeHq6sIFYLU+P8+Sh0bdMriHbsfe5mcnFJy4b1q1bJU5zqBA1u9fxKUJDArk108S3OrIUpL1aSAIgiAIgpAzZlUOlFDzj1T/WxR8/uFSGWJ+BWEFsQDKepdlv2Kkovvll19YYEb58ccfOV0ZJmMQ9BAQrnad2hxw7ttvv2Wf0JMnlJB/8hQtWriIhTessCLYHI6rg6Bp3337Ha1atUoJ54f5mMuWLuOVTawwIxWcKd26daNSJUux8gA+pog30LhJY+OnuVNJCXlYyUeQtKVLl3LgNbg0HFbnRNBApDGE0ARgSg7B75dff+E4BBCgRo0aRc8//zwLzBBet27dwgJyTkRGRNDBgwdp4aKFtHr1ag6qiH1vXL/Ovt4QDmFlYWtna5jMqv9QL6TFO3vWUIfcgNCG7+N7+kQ4C2oT/G/ht4/rRcpAXBvaE+Xnn3/mNIuwbrgXrm6u7NNfrJgdW0ssW7aMV+ygREFqxg0b1vMKXWnP0tS2bVuqWqUqn2/58uW8Os3te/gI/fHHEhY6odxBnSDoV61ala1SUKcff/yJ0+yhIEbDnt17WKGg4+HhQS1btmTz4SPqeEgriL8YA+vWrWMlFVw2bgbepJKlShq/lTcQ0k3B6j1bOZgoFyBoI54GxiyUY99+9y0H7YPyA/fDurXreLuXlxcH+ctQwjniaejCv2n/QChPN/oaQ0VgCgR7CNNQFj2Iwgh1hmDPygF1r8Jdg7fDikD9pysrdCBEoY7h4RF0/foNdgmBFciff/7JqUKxP+4B3MumypD7QVe2mItEVdJLlySPxpLK8EkD6ycUACXTNfV8u1981LMW9zuUjomJ+VOIYVxiTCINq5W1FSuu69U3pLgFUMRi/AMoovPzjDMF9w/uXzzf8PsQGxNr/ORh0Pge0p8Jzs5O/MwUBEEQBEHICbMqB5yVDFAiJIpS/O9vUpQbuhl3//79edUG+dm//PJLLshhj8n/8OHP8eotfL+xH4SpFStW0AcffkBz587lHPAwqceq8+BnB2dGRwf4Ps4BAeuLL76g2aogO8C27dtYEESQNKwSm4LI+BAuYT2AFX4IbvmJKo3vQLGAaO6I0o7zwST+i9mGc2IFDBkRsJqKlSnk0F67di0ff9ToUeSsJsO4TkSnx2QUwjIEU6xkZadjp47UskVLvi5c/7z58+gnJQB/OfdL+vvvv3mVFsI03CZwnTg2JskQqiGg5cUdpYBecgb1nDx5MguuyEWPvkD56OOPDAERc1Is5EDv3r2pT5++HGH7s88+4+vBcWA1UK1adT4Hsj3UqVNb9VdXtgrZvn07ffrJp9y+PF7Uvlhdf/75FzKVQx07duSxg3p89NH/1PG+5PLuO++ypQnGhQ72R9sjOGRaehr7y8+eM5vrgrz+cNGA0gH9h+vNFczPVYFwnJu7RHbKlSvHucqhFIJCBNeNguwV6P9i9sWoa5euPG5M2xTnwDgxmPkblBG6gMD1MIG/p7ZlV1jcDzgPhCccS1dw6PUxdStAvZB5AUo13AeLFy9m5R2uDdY4Lq4u3FewBoHCjq1FCgBxqsS4OZBdtXxEkBceKVAWogCDcuAav84PGKOwZPrpp5/4ft+4cdN9ZbWAYuDgoYNsTQSrLygY9XEO9wbPMndcoRBjBhZg+QX7blD3wJzZc+iLz78g/wB/4ycPDq738uXLmfF4YL3GrnqCIAiCIAg5YDVz1qxZxtcPTaqSAfafOkthSrga2Ocp49YHwDDXIjtbOxaqYXYPQQfxAbA6i8kcBPJhw4ZzEDNMeOCPDyERygGsGGPSCNPP4JBgFjZgVj/iuREsHILr16/TH3/8wcIXovkH3Aygm0poRYR/+P2/9OJLnFUg+yoLhGkINZiQwhx60DOD+Jz3Ar6xqF+t2rUoPCycrl67ytYBMFPHyvQLSnBFJoLyFcrzBHTDxg0saI4ePZrdCXB9qAv2hZAHU1q0D9Jy6aa1rVu3ZmUG6oPVe5iRB90KYnN3pP7CBBFKlOlvTudo9pjE4nrQnvg+VqohXEOJgW1QUiAFJAJ+QZESoAR01AGr6GhzdJMufCJaPwQ/fBef4Vjly6u+q1qNV6Ov+V7jlTAE8Hqq61MUHBxCNja21KZNW6qt2iQ3ENgL7YD5N0zmYfmAmAJY+Z88+WUaNGggux4AnBcWEWHhYaruQTwpjo29zRYIaEc9swHARB5jC3W4dStY9X2AqtMt3hfjxM3djS1HIACg3yAMwIoB/YWxhbaBNQb6FSkGEXegV69efOy8gGsA0jxCOQMFis7BAwe5zxDY0DSbAPoI8QSgoMC5ITSjr6CcQv1R1yFDhxj6W8vgNsa4atSosTpHG17NhPACtxlkakhMSORr4nSGRnAdcLGooPoLShDvsrkLwLplCcYa0n0CCCBoE1h1wO0Gfth6NgoIPOg3rF42V32PzBzo75TkVIqOiqKbqj9xLyGQ4tNPP03Dhw/nNsUKLejSpQvXDddet25dVsJgnOGYuCbEeTBdvQXod7iQQGGCcW4O4OF+NTiMQm4EUo/6uY9X4dGD5925c+fY/QsglSyekbCA0QX13IDAvmjRIlYcwmoIqWUbNmyQKTDjubd+/QZ+HgD8xlSqVJHHJMYwFLaLFy3m58iIESOzBJAFsFzC/QcFI56t+BzPkXsBqwE8X995913asXMHP18GDRrEzx6A5zeshmCNAKUuFJX4LdCfvzmB+xLPildeeYWfF/gNgfUZ7guhaKCrXYPUeFm/fj3/pmQfk4IgCELBBbIZFv0QLP6xxFDKDxlK0jRXCVTlv+s2axO/+THnHfJbdNTrjHRNS0tN11KSU7TbMbe1k8dPcklKTMr6HZOihFHt/LnzmSU+Lv6ufXbu2KnZ2thq9evV19TESbt08bJ26OAh7azPWU0Jn3ftrxclXGlKINM8SnloU1+Zql27ci3H/fIquJbLly5rGzds5PolxCfkuJ85Cs7z919/a+vXrtfOnz2f4z4otwJvaVcvX83xsxyL6hcuOX2mSkxUjOZ3zU8L8L/JbaYm5XzdKPv37dc6duio9e3TV9u1c1eO389e0lLTtNDgUO77cz7ntOTE5Bz3Q7kdG6f68Zy2Y/sOzc/3upaepiqaw34oqNvFC5e0TRs3cYm7HZfjftnL6VOntSOHj2jhYeE5fv6oCvpQvwdCgkNy3Cez5NE/T7wo0O5Hjxzj4n8jIPMz3A8HDxzkPs/ynSdYklT5a/N+bcykD3P8XMrjLXO/nMvPbwuy0Mp6l9W2bd2mpaak5rivXjLSM7SoiCitU4dOmn0xe/7uF5/P1iLCIzP3OXXylNa6VRv+DGXtmnWZz4Qb12/wM9/aylpr17addu2qb+b39PLdt99ptWvW5u+W9ijN++OZl32/7AW/OYsWLso871Ndu2k+Z85mfr5yxSqtUcPG/FnF8hW10ydPa+nqd9H0GNlLbEys9tuC3zKvtVbNWtrmTZtz3FdKISyq+9PTMrgcOnBIjY9G2pI/luS8rxQpUqRIKZAFv9VOjk5KDr2U4+dPopjVrQCU8SpDVas+ZAonqMONKnEsBCHAGVaFHBwdqGGjhlywCpIbWOWBhYBecvOxxGoNAvyppqDqNarxqnad2nV4ZSa7hTVWYbDqdOjgIV6Jh3873A4qV8mWMz4f4FpgDYGVUtRPz0H9KMB5sALVs1dPtlrIDZjDwtQ732DBKo9FOsRLqFqtKvXr15dX0rCihzZUE2Vatmw5W0fAwgGr3/kBK8OlPEpx3yO2BOIl5IaDQwl2M4ALScWKFfL0PYf7QI0a1al79+5c8mvuj1VzrMA/bi0f+lC/B7BymCd5L6I+WdT9hXZv2rQJl3Ll7qyu4n6AdYqpNUBBICYigq6fP298JzxJYE1UvVp1fo1n+Oeffc6WJHiW5wY+RxDZI0ePsIUYxpe3txe5uRmsXO7FxYuXuMDaoEWLlhwsNDvIWgJXODzvsGoPl6Mrl6/kWS98Bku2n3/+xbiF1G9oFfUserDYADgefttgBQFXLKxKoD4tWrRgSyxBEARBEITcMLtyoLChmfhD5wZMprdt3UZTXp5C8MKAfz4CwCF+gJAzMF1FrACY/44YMYK+/+57zqAwesxoWrZsqZqQuysBsFWm2awgCEJ+gfJowMAB/BqCPjLOfPLJp6woyAmY1SMWyTPPPMNKAjB06DCqVas2v84PO3fu4AI3NbjP5ASU43j2we0JwNVm2PBhrCCAcjQn8IxEytpDhw4atxDHGXnQZyOUEnCdgOsBXGxwXrgqIVsNspoIgiAIgiDkhtmVAyHBIeTrm/8AUU8SrBrD95pXlqEj0FfDs62KYyUGCoLVa1bT0WNHqXPnztSvfz/OkCDkDNp16tRXqG/ffhwADCtYCL64ectm8vAoTW+99Rb16tUzz1V9QShIOLm5UfmaohAsCGAFHJZbiNGhP59//HE+TZwwkX75+RfO1oL4GCgI3jpr1nv08ssvc+wK7N+gQUMlLD9PNWvWMB4xb+Drj5SqsB4rU8aTY3PkBJ5niJOB3wgAwdzX15cGDxmsnofTDNlj1HsEZT2w/wA/F1999VVasXIFHxtWMwjQWblS5VwtZ5AJ4ZtvvzUEef0ya3njjTdo6NCh9N///pcD0sKCAMCXEbFLCpo1jvBwIFaLIAiCIJgTC7gXGF8/NMkZRF/9sIjOnb1Ai77/2Li1YILc9ghohVUgBDrLS0hNT0uniIgInmxhsoeJKUziTVMi3pN/4W84VuugGIClxdWrVzmQmB4tG4ERkVpSEAoDyKS/+uwl8jlxlr4eNciwUXiiIJMFlABz535FmzZt5G0IzImgqviLwJUAlgUwsYeAj+d8rZq1aMqUKWx5gKCBpmClf9Kkyeq4B/j9mjVrqVOnjpwSFRlCtm3bSs8++yz99ttvubqD4TmH3wqkcF3w6wKuB8z63dzdVd08ODsM3t+Ou80BRhFwMz4hnpwcnWjAgAGciQfuSqa/SatW/UMffPABnTp1kgV8PDvhAmWR7YclITGBg3HimuG+ht8pWG4999xzHHwX24QignHmpuZwdPTIEZo4aSJNnz6dLUYEQRCEwgHmMghcjDTlUOIXBMyqHLBIJ5oz+0c6fsqH/vjjG+NW4d+OHtsBfzGpzU9UcUEoSCB3wj/X/Oja+Sv0ZZ9uho3CEwc/qlDybtmyhVflkalGT9uXHQjTXbs+xRYDWPmHYkBXIOjkphxYuHARfffdt5yxYNKkSTR16lT+PDegIEBdUKffF/9Ol69eziLI88+uegZi5RfpOxs2aEg9e/SkTp07cbT57Cv8psqBvIDCGtlbEI8E2VPg4oAsK1DIZr9WoWiQkSHKAUEQhMJKgVYOWJhBRRCrjvH1osV09eJ5+u3jgm05IAiCkF9uq7Lx+Ak6tP8gzXllsmHjIwKe6do9dGdWZlPpFn4gsCNN5779++jYsWN069YtCg+PUAJ6EtnbF6eSJd1ZWMbKeePGTahNm9a5mtfDX3/z5s2cShAgRgGCpuK4UELAIgEpOatXz0fQXdVHsFjYtGkT3fC/QWHh4RSq3usBAu3sipG7uxtVqlSZFQJNGjcmd1XXnEDsAAQ3xPHyAtYMuoIAAQjzk0ZRKNzgUXDsyFGaMHECu5WIckAQBKHwUOSVA0FqQvv7vi0UE3id/jd4nHGrIAhC4WfdunW0fPlftGjRQuOWR0Oqeo7e63Fso3YQ25u7CQoKYgEa5vqJiUkc8R8WAlg5h7vBY0X1EUy+NS2DMtIzKFjVKyQ4mK0KLCwtyM7Wjtzc3bheuWXUEYRcMXkAnDxxiiZOnMDxK4YMGWLcKgiCIBR0CqJywOzR4DARq1A+f+npzAEmgxcvXqSAgAAOSnU/IH4AAlTBHz43U1QGM3VVoEaBfyiCLsKn899AVGQUhYeF84S2oIB+Q8yIK1euciwIrBz+68FE8QGlxRvXb9D58+c5nRoeUvcDXEWio6PpZsBN7pd7gX2wLwS4PO+5AgjaJiDA3/jOzBifMVyEBwYpDhs1akTdunXjNKpdu3Zls/rHrhgA6n60tLRgKwUbWxtO19m0WVNq07YNtW7dmpo0bUKVKlUSxYBw/2R71lvbWJONtQ1ZWkiAX0EQBOHhMPsvSVJSIgeiexxAoPn99z/oq7lf0fp163m16H5ASqu9e/fSD9//wMJKjsKNcbIOAwuUdWvX0fr169l09XGBesJnH+2qR59+1OBab8fe5mvdsWPHfbftowSKihMnTtIPP3xPhw4demzjraADJQnMoVHyozDBeL906RItWLCA5syew/7RN2/Cuz7/IPjZrl27OHUahGejIVKO8JhS+2DfjRs3soKnMIFYGfcVhPR+UM2GpjMU9awxbMosgiAIuVEcwTEtLNhSRRAEQRAeBrMqB+AHG3krhPyv+hq3PDpS01Jp6itT6f/++19auXIlr/7fb8ClmOgYzr//zbffcK7p7NYA+J3Fj62hZKj3GfTRJx/R4t8XZ/qkPmqgDLhw4QL9s+of9nm935XdBwWC45kzZ+jtd96mlatWFijlAPrp8OHD9MMPP9DevfseW5sUOHRrAeMqUnRUNH3z9TdcsJqfFxBAYTWDAFZz5n7JfQzFwP1GMw8KDOIc7R9/8jHfg0jHlptUi8+wD/Zdvmw5RYRHGD8p+EBt6OZZmuo1aWzY8AiAbjJdFd0U3aAiEARByEa252uVqlXUs9taPUMez+KBIAiCUHQxq3LAQ01qe5aqSD0rNzBueXT4X/fnFXUEdho7diy9+eab5O3tbfz00ZDXquijAivAq1atoulvTucVfAh0gpATyH/Ouc9VudeqPJQ/Z33O0qVLl0nL0OjVaa9yBPaqVasa93hwdIVaURJuo9S1ZNSoSPWeMXOmAhPlTob6l5aRxv2hZajnjeojVkri3EWqNQVBeCh05QAKNJd4XhSxZ64gCILwZDAoB0x/aB6iIGI0QC77xwF+DOFf2rxFcyrpUdK4NZ+gzvmEV/Hww6vKk6JA/Ogb+/me5Hc/U4wCkvBwPMg4rVu3LrVq05r9tc0D6qAEWyXcwvIFf5/kvWMOrt+6Tmeu+RjfmRnVNBmqcFulI3idaj9sEARByAldqSiPCUEQBMHMWKSma5qF+pFBeRDi45Pp/SuxdD4+ldJSrCgt1ZIDMLm52VOrGvY01d64o5mAaTLiDMDUfvny5Ww+3bZNGxoydCh17dqFypQpw37Qf/65lC6qfQ4eOsjRH5HaqUP7DtS5S2fOtY8fVQQzhNXB1m1bac2aNdS+ffvM4FDnz53n3NlwN4i9fZvPUbt2bRrzwhiqWqUq55xu27Yt7wvgZvD3X39zyioER/Qq40WdO3em1kroQpBGgDgF8JGHiX6XLl3Iz9ePli5bSmW9y9LQYUOpZs2avJ8OVn9/+ukn2rRxEx06cojq1K7Dx0Q04saNDebNMAX/c8mfXM9Tp0/xPnXq1KFBzwyiGjVq8D75Aam60AaBNwPJ1taWv4tAXqPHjObgWTNmzKCGDRvxvhgruMbff/+dfNU16CAAGPZ1c3UjHx8fWr9hA1t3DBkymNvOFAS/W7duPcd6QG7vzqqkJKew2fmJEyfoyJGj/F3QsWMHeuqppzgdGUC7/PDDPNUH79PUqdNo8uRJnKYM+Pv70+7du+nQwUPcJ4gKXqliJRo1erRq3xpUrFgx3u/MGR/uCzc3V6patRotWriQ/K77sVCGcTBg4AAOFqaDeqEv6terT9VrVKe1a9fSxYuXyMnJkTp06ECdOnXisQlfevRFYGAQ98Nrr756V3oymOLv3rOHTqv+QjuAihUr0vjx47OcE/vBnx/j5pWpr9DixYtp586dHHizjGcZrme79u04f/vJEydp+V9/0Y8//sjfffGFF6hWrVrUq3evu6wB0K4HDhygeaoNN2/dzAFEu3TtSm0QJK1JE6pcuTLfQ4jHgTGtjyuMBwRTgzLB2dmZjwXrg2nTptHhI4e5rkjJZmlpycqA/fv2s7ULgng6OjpSDTW+GzSor/qzI7Vr246++OILql3nzrjANfzxxx/cjkG3grhPe/bsybnakUIOoC327d2nxp0vtWzVknzQj4cPUeNGjWmoegZ4eZtHwXFTjXFEbfgnhOhgYDKFRcdRfEoy2ahnm3sJByrrWYJeqUhkZ0nkqZ4lhlFlmKvnVw9i+sxFKJGUtFS2uDBM/C3Iwkr9UeMX1lHYiJz4lkYtmrVxN0EQ/uUYnzf4HR07biwNHzbcsEEQBEEo8MA1uqBlK7B69/9mzsILTDwfhB07dtGaWEu6lmZN0ak2FJthR9HplhSWlEGxMUnUIjmIBQnDBPfhweoaBCQoBgIDb7KgExwSzAI/8jqjkb/++msW5CBkOjk6sSLh9OnTdOToERZAa9WsxUoA7AshD4IGcgMjnzXM9jcoofaHeT+wH/bp02foypXLLITsUQIdhP9yZcuxkF6+fHkWfCAQfv7557T6n9V06tQpPi7+Hjx4kJUXEOSgIIAyYs3qNRyz4JISLP9c+if7ziOdVbNmzVixYQoi8X/x+Rd08vRJFgiTVd2vXL7CgwfKAcQEmP3FbFq6dCmdO3+OzwFBDueGkFzaozSVK28QmnMDwulfRqESSgifsz6c/eHkqZOcV/vGjRusKIAiBBG/g4ODWWB87733uB9Qh4sXL6g2vqgE+iMsGEJAg//75i1baOvWLRwwENHDTVmyZAn99ttvlJaWzooX1P3E8RM0TQn727ZvV4LiCdVGFzm/N2ItBCmhsGTJUuTlVYZjDkCZsWfPbmrXrh01bdqMhUcEqPzll1+478+ePcv9AAUB2mPvvr1UsUJFKqO+D+UH6v7NN9+wIgH13rZ9G8XHxbNgf8bnDCsP3N3dWVBOSkrm83366ad0S10/Ylzge+fPX+CxgXF28OAh2rZtO4+BEydPqHpf4XG3fcd27is9WjoCAC5cuFDV82cek/Hx8XT8+HF13vPqmLsM7eflzQL/2XNnOa7C1q1b1XmusDIGiiVcJ/r76LGjlJaaxsI9+uHb775VxzNk7ED/l/IoxefWlSo6EPx//fVXHvsY76iD77VrrECDAgBj+quvvqKffvyJjp84zvfuBdXHGFu4B9B+UDhA0RIaFsp53NHOY8aM4etEHVf8vYJ++vknzhl/5uwZ7g/UFwoE1K1K5So8JlBHKIj++ecfvm+hkLt46SKPGTwoocRITUkl77LeXD/fa77094q/2dUGbYkAoafPnOb7v1WrVgbFnxmIUI+rk37naKN/Kp2NVs+2FAtK0mwpPsOaIpI1CktIoZJxp8nd1Z3crKzJNFJDfpUD+n74m5GhUTqCDijgQsCodofFEN6ZPj2xxUptMc8TVRCEogB+V6DchYJWEARBKBwgc9ecOXNo3LhxLHcUBKzefPvtWWnpGUrISKdUJajlVjBBtbK6E6IAq2pbVFlyJZr8NHtKtbRWs1ZMkQ1BATHPTY3PINtbRJ7VHMnREqteDw8EFVdXF3J2Ngj9ECqxYvjMM89wJHEII4bVU0MsguHPDaf2HdorwbIkC9ZY8fZWwlet2rXodtxtWrsmq3JguxJMIThBAGverDlNfnkyr/J7lPagdevXUXJKMq/y6soBBMSDkAnhBwL0uPHjqEePnupY5XllGkoFCP8QpuJux9EuJQDiHFgZxSr0008/Tf369eOVdXtEHDYBFhhYdYYAB4EKK8WDBw/mVeoA/wCaN28eWz1UrFSR/vOf//BxUAekHoRwDzcPXHeFirmnlkSgw98W/EYhoSGc9uull16iDh078PeQqQCZAbACzsoBj9J0UAlraF+0fccOHWnCxAnUvXt3o9brmGoHH179btyksRKkb3EEfAh6qBsEXvQfMi9AiIeg2LJlC7aEQL+8/fbbdPTIUeqs2nvkqJHUq1dPddxydE31z3ElnKN9cO2myoE2bdpS06ZNeBtW1qHoQN1xHYMGDeJVaitLK9qzdw/XB6vpqCsUNxDyobCxtbWhsS+N5bbt+lRXuqYEZWRDsLWxYeUAVr2hNFi48DdV9yg2v8dNPGBAf1Wn4kpIvcj9DwHvKdWGo0aNUnVqqsbVNVZMQHmBNrl9O5ZWrVxFC35dwALv888/z2MXdYSECEURrCKg/MEYg0IAdYSyBhYdsOLAOIcVBRQfOGdxdf6mzZpR1WpV1X3hStu2bVO9qtF///tf6tOnD7v46NYSOugDXBOUELBewAo9xn/fvn1ZAYN2RR8j/dqLL75EI0eO5HZHP0IJAeUCxj6OHRp6t3IASqXfVFuhHXFtL41VY6p9Bx7L6B9YFeB+0JUDUK7Nnz+fj4H74YUXXjCOqXLqerayYgKv0SY4384dO1lpAMUbFFfoN1xrtWrVyM7OzniVD0e0krwPH0+mU1E26rWVcesd0lMyyMU/g2pVdiUPOytWDmjqOxko6nUaC/sa/4U1QHpuBfupv+qP+gv3C1WgFGDJ36AY4L/qBbtmoOio/bAb7yoIwr8T40NAlAOCIAiFj4KoHLBMSUtTwn+aqlzeJXsKPUyAz6ly0aE0JVjnPCFPSbekC+EOdDaEKNlMQXSxsgphFcIDVgmxKgqhtl27thQREc6m6hAa+vbtowSbF3k/CJ+TJk5SgmhLzum+b3/uEe4h2EBwhPDzwosvsKAHoQedBqGsRHEl4Bqn4xDkjh07yivAEHamTptKo0aPogED+7Nw2qd3HxausQKqm48DFs4cHOnll1+mCeMnsACV04onhOnuT3dnk26s1sLiAQIpFAlYxV29ZjVnaMB1QoBDOwwfPpyVIiXdS7KgCPP63IAwBmUFVl4hNKM+ptcLc3lThUVYeBibj1+6fImF/ylTp/D+KBMnTlQCWm9uE6yEI5AihFxYjcAU/MD+A5ljCAImFDIQSnX3CLQ79oGwB4XDaNWOI0aOoPHjx1H//v1Y6Dt8+BCvsENiyu7DDkEZZvBQBEApMGb0GPW9/ixMT5kyRfV9K64X9oMVhg5Wo5/q+hT3V3/VtiNGjKBJkyazAmG/EkCPHz8BGYx7HPXHKjvaZ/To0XzdOH6VKlVZkQNzeyiT8NnzY56nNq3bsGB+/tw5Xo338/NjNxfdkgL79ejRg/vs5Skv88QOShe4MABcIwqsXLqqsYd+HjBgAO/fpXMXFsTD1ZgPCwulGjVrcP11cO1w8cD1ZQd9CmUPlC8YY1B2oB7Y39//Bq1Zs5bP+9JLY9VYeondRdAur776Kl8j+g+KDLRFTkBZgLbGvi++8CKNHjWa2wx9wsoa1VY6aJcD6n7DdWN/jEGcC/UfN24s9e7Vmy1ocJ+Zpg/FcwDXj0CkcMfAWNVdD8zB1WuqbsFulJaSVbGioynpPT7Kg65csVbjybjNWLDyn5aRQako6er5qr/Oo6Rx4EGEJIRCwKAU0LMWIGYDopCnIx6Beo2+Meyd9R4QBOHfjdgTCYIgCA+LpR5Z/FGBQ4eGK8Hq3mnXHxqYvMMc3dXFlQUoCA+6IFK5SmU2mS5eojivaKJkBwoDrNBD8ICLAkz9AQRwWBUMfnYwr7jqQODHqi58pCHcI7I4FAEo/jf8ybOMJzk5O/GqL4qOfTGDcAafaZj9Q/DPCRYCjAIBgOUGFAsQbrHiDSGzXt161L1bd/5cBxYGqC8E9YjI3NPFwZwbMQsgwENxAqULQDo7rJgPHDgwy/VCoIdgCIWHRykP1afpLCSi4Fhod/vi9twu1/2uc/YICJwQIjdv2ZyZex8WFag/LDNQQkJC2d/cSrUz2iNRXR8sCOBbDosC1AHWFzgHhE5daDaFV9cDA3n1GP7szi4Gn3j0f4OGDXjlGwqGa0rqCwu9k5YRsSGwao5VbbQtgKBcuXIlFtJ1QR2fYRyULg1lVBclsJfg7Z6epdmSBRYsCI6JuBEYP2hTKBjQlljtTkiI5/a75nuNXN1cqZI6PpQFWAFHgbsLFF3oW3//AFZw8SWqgmNBkeDp6Zk5nitWqsTjG22Lfc0FLGb27t3D53r22Wf5HHq7wGwfyhwIqbh/4M6THVgVwFoC38E4RNujPdAOGJNQYpmmS+R7UbUxxjiuE25CsApBP2OMwFoAyhG0VagaJzrOTs7Uvl17VtiZtou5gC7PGPIiT7Bfgsl+6DJYAbDwbhyn+t+8Cu+DA6h2wytsw9Gy7qeeA3xwVXhnQRAEQRAEQTAflgh4hQnpowKHVvIxWZp37p4jECywEonV2qbNmt4lMECI8CztyQIMfOmzA2Ea5unYDz7REFZ0cKwWLVtkXUlXQiYKTEKw8vnlnC8zy+w5s2n7tu1sQh8TG8NFx66YHdWvXz//Ao2xe3R54HbsbS4uzi4cHK9kqayZGpxdndkNAnWFIJ9oKr2YgLqhzWD1gGIK6oZVfFPFBYRc+JPjmFiBnz17NpvC6GXDxg3s0gA3CBSY0kNxgXPAGgPtrsdjgBCMYHTIz5yUlMh1SUtLZWXAl19+SZ9/9nlmgWsCBEUcB/spMUnVJqt0BIE6TJ0b1w03i+yUK1eWxwUUDKbCNJQ3TZo2Mb4z4OjowCvuyclJ6jpieDUGwi6EWm/vskq4d1Ptk9VJxkkJq1AQ5AUUT3AHQRvASoLHirpWvcB1AW2LdoYgrAuF1lbWVEaNSV1IBzA9MlXcAEM9oUAyKJEeBCiccB9AkVKmjKdx6x0wTqAwQEwJjH3UzxQohtBPiMsBwd60jjhm9nEfEmzoD9xDiC0x98u5WQpcTzCWcF/jr46D6iNYGjwq1DBSY9/4Jg881H52JvvxyETTo/3xVw8omEcx7K9/By8U6PsMQ/8DHCNL4a2CIPxbwG8rXM2wCCIIgiAIjwpLrOpB0LG+R8F+pmBy6q1KmeRYss3I2SzA2lIjL8ckqltOTaANoQgeC9kFFh2YhWP1GteS3Q/7XmBCjoCBWD3ODoTVhMQEun7jembBinxyajJVq16NfQAf1I9EFwaYXK6LwUe6xKBe43yIwQAhHLEOcgKTjNxMw3MCQh0KLCUioyL5+xDa9YLzwToDQhssKeADX6duHY4BgBViWB2c4QCPV1iQrl6tOpuCo7/S0tM4OCEUCFAA4Phc1Gv0G1adGzZsyCv32D97H8OlBD79UIjAZSM7CDaY3TUmLxwdne4oglS7QolmqYRua2sr1R+GzfdLQnwCK2oSVLnh78/B/KCsQMEqPIRnWG9UUkI1lDLsf84dm09QT9Px8gjAKr6NrTXXC+0ByxZTEJMhJSXV+C7/oM5oG9N7yO+GH6Wmp/IYQrvo1iCPA7jtunvEk6V1ztdiYaGRXfFYalA/Q40V40YFWh7BXa34uWpFllzU8zOXomcjyNJnqsvR63f6Xn2ujmdpqY6l/hq+o85j/FQQhKLPzcCbtG7dOlryxxIOggslsmAmjI9ftraMiGAl/ZMG8yy2wjQp+uJMUQcLKJgLog0EQXj8WMKU287WRgl2xfIsdkogMAWGwUNVGRlziUqn3i18QpdQ0imDhtSPoBqWWpZo3o8Kg6LDiqN+YyUyO9iGB6u7m/tdqfUABH8cA8HiYEFgKkxCCIK5c1JiknGLwfweBaukU15+hXbt2MVl987dvOK5ft16Wr5sOadsg1n7/aILDbrgoAvFupAOgTo5KfkuQRkPVJjZQ/iEkgBB33ICbQDBHdeKYgqOiW26S4MpENTfeOMN9vE3LQgs9/fff9O77/6XGjZqyPvCtWDkiJGslNmwfgOnS8QqcKOGjdi0HuD60PYuSvibNu1VziRgetzNmzar467gwI/wRed2gGm1CXCDKF3ak3/Y4V6QnTM+PhQbe5v7y0oJ+Do4VvYfIIyRoKBA/oFCOwPTfnhQEHEfrgaNGzWi+fPncZBEZD3QC4IPIvPE+AnjeT++zqyXeU843d1D1BMxG9AXOHdO95Bu3g/LCrhB3BFgDVSpUplKlCjOgTvRjlnuITWWoIzCsXUQ9BCWEYh5MXPWTNq3bx+7k6Ds3bOXxwzuoY8//phTGj5OvCoHkLNbnHomZG1PNK+NLVGlulfJxi5rG+lXhu9AqWqjxlp2RateWIGgCp453G/8Wv2FQoFfG/+qffGXx6K1JWk4toV6BkBpYDyfIAhFGyjHoUCe9d4sjquzaOEiFhh1BbrwcGCOsmXzFs4ohdhUTwr0JazksJiC3z3TglS/x44dZ8XQgyjhCwu7du2mrVu3UXBwiHHL3WB+CgUC+u1Ro8+HMH/BfNF0DiMIRRFLFoiNAtCD0L3b0+SlhARbNWG1sVSTZguNi7uTNTVv4saTfkxsHweOTo5Utlw59dBIpNOnzmR5aOCBC7Nt+FSDnCwAEJgNK9lXr13lwHtYDdfBAwGCCywEdCDcomAFHYoDCJ22drYGgUcd/5/Vq2ns2HE0Y8YMOnTosPFb9weENR0oKPBQghsBBH5okZEeDivS6RmGyQGENaR7i4qOYoEZpv25TRwg7KJvkMoPZv+m++F6IbDCRFxHV0qgDmhbU8UBXi9buowD+yGt45XLV1lSgvKhc5fO/DmCHyJlIB7oT/d4OjMYIVbpYa6Ph+811faGhy9/RIjjsHHTRpr6yiv04Qcfqs99eXv2h7NBkLLgPkP6Q9PPcTwfnzPqwR7HMQlMU0biYY8sFvr++Iu+RJ96epbhoisGHlY5oAt4UI6cPXuOz4VxgoJj48f/ueee41SautTHfub3gV7P7O2TXxB7AYoJWJsgVSMyMOigz+E+gzaGkgVjHe1uCgJ5wroA9xna0TS+A1wWcG2m9yX6A6kvEdsBsTp4DOLaVcF1LFu2jF54/gX68MP/8f37uEAVmtVoQvWrVSQ3J3VPq2eaFWUooVyj4rZWVKWcC3Vt0olKFCueKaDrLYVhgkfePYtqOitrgxIBFimGYq3a1jAm8N4Gf3Hf6YoCC/U3h+wJgiAUfRD3BbGA4Bb55ow3OcbNhx9+yL9XD/rM/1eCptKL8QGORYXf//idU+oijtKTAvO6n3/+mZXhCxYs4CwUepk+fTq1b9+OJk2axL/FRQ2MYcwV33jjdZo9+wueD+YE5hD79u2nb7/5ll1RHzWwwIUr7erVaziFMuaUglCUQQJCslIPSEslgzxIcSpuRz80Lk3725elFTVSaV7JG7S0WgxtbFac3i5uOMnjolKlypydAFpVpPbDw1Nf/UTaP+Txx6p3i5YtqbSnIe98dhDgD/scVsI8cq8DaCgRZf7rr75mszMdCELwoUZwOkTSRwpEnYsXL9Ei9TDfv38fp4eDb/0DoX64IBhgjdAQ2MywGbnt69apyxYCb86YkTkxCLoZxD8sEKRq1qjJJTehFu4OCAiIFIUIEojc8QAKASgGkM7O1D8fwd+QEQGCHHLuI2icDlb45/84n/PUu7u7qUlLDd4O9w0IgFASoT98fHx4xdk0ij6C//Xo8TQrDfBjuGDBb+zrD1APvEdmhvDIcHWsrLERdJCGDz+miGewYuUK9u0H6LvXX3+Dz4vPmzVvliUzBNpv2qvTWEGAHyU/Xz/Vfr9wVgS4SDRUxVy0a9eOC8756y+/sIuFDsYOLC+gONAF/IcBKx/4QbtfalSvQS1btKSr167Re++9x+NIVwJ9++23bM6KLBRoS8TmyMlKoWmTpvwZYm4YUisaxhT6BtYfphYJUF7BDQXCMPpaH4M453nVB99/9z3fe95eXqrAkenxUF7dTlVUecuTaFMzO/q2diQNdzxIb3hdpF3tStBCNQxrq0vHPtkdlNAi9yqWquDZC4uqYuoNir0S/oupYqM+tbEw/MWdb2WMIWH4Z/i+IAj/PvCbbWqFiGcp5jbYjsC2QuEHc6n/+7//45hXkydPpuXLl9OKFSu4jBnzPP+2wr3km2++Nn6jEJCPHy385kdHx9DBg4d43gYrUcw1cgKfI0gzFlTgwvuogUyBOdq0aVPVPOZ0ljmMIBRFLJKUVImJqo1R6HwYoE0763OWomOiH8iM/n6A0IL0aPALR3585EfHDQuBFQ/WAwcOkpdXGRZOMbGG0OXm6sYPnOdGPMfCKlZAkd9+67atbO6O6OrQyL836z36Z/U/LERiFRV/4ScP+Tsw8CanqHv/g/c54wC0iN9//z3/QGOVXI8tgIcXjt+2TVtOAYfVcwigc7+ay0qH/8z4D6evyy1TgQ6uCUqJTz/7lK/DVV3D22+/RZ07dWZh/NNPP+XgbDDft7G24QcsUr6V8SxDr772Kkecx0pubsImJhQfffQRm/Kj7hDacQwIcwgmh+vr168fWz8gGj+EbAh4UA7A0gLHBlgVvnUrmHPO4wGKfXWgCf/g/Q/ox59+5Ot5/fXXafz4CVTVRGECc/XPPvucflTXhIB3iFeAVXYcF9+vU6cut+Pgwc+yXzva+8MPP6Dp05HKbhzHMIBiAQIsVgDQb9gGf360B9r5//77fzRw0EA+/k8//cTjBsfHj62tjS2vhKN++CFwcHDka37++THcduvXb1A/RqPY2gGZF5DSEkDg/eCDD9ii4ZVXXqEXXnietyP7AAds/HIOp+N77fXXOMDjju07OPgg0mmi/fS4BnCHwBhFWr6JEycZ9t2xnVP1IfgfFAeIX6Fb4eAH9KOP/sfXN23aNBr+3HAeu31796XzF87z9WOFCZYcGOvZwQo9+hL3A1afZs6cyatS6PcdO3bwuMK1wcqidu06nOIQ4xkBPQcPGcz9XKVKFb7fcX5Y2sCVBpNUWA1ghQOWNrgn0JcYU1BgIcXmgYMHOH0k3G0QlBLmk7Nnz6G//lrO+2MMYl+4zPgH+FO/vv3otdde48CRUE4gkOORo0doxpszaJzq+8dBcFoKHQvxp+OH9tLVf3bS6dOnjJ/cQVPjRMtvJACW8g1CP75haQV3EMQTsOSxqge8hOVIinquxicmkAWsSIzPaQv1UpQEgvDvAwr73AQimJ0j+45wD0znu8ZHNhTqSKV7M+Am/96MHDXS8MFjBPPXuXPn0vbt2zmlL+ZKiOWkA3eD+fN/pF9++YXnt++88w4vjDwSsssED/qDo38Pawx5HANzLywgfaXmuytW/M1Wg1iMwsJBduDyiTkO/mK+ghTJjxLEzPrkk0/U/bWEvv/hexqULZOXIDwM+niG9WxuCrHHjUWamoXzPNXw/qGwSCcloC2lcxcuq4n//xm3Phog1P3yy6/8Q9mzZ4/MtIMwEz99+jQtXbqM0xrq5vZYae+h9kM+dAiD8N2DQIaI6PDZm/7mdM67D3MlrIzv2b2H9uzZww+FVLWtiRIK8WOx4u8VLLj16t2Lo7HDrxo/1DDLh380ggYhcj5WOjt17sT57BvUb8DB1CCkblfC4fFjx6h3nz6qLu1zfPCZArN6rIJ/9913FBkRydsgnEH5AiEYK/7btm1XAtZpvib4b2NwwWy/TZs2nHKQyaWD0Y5IsYcV3s2bN3PKRQgnENomTpxIixYtYuuIPr37UPkK5VnpAaESyhQIdVgFB1hlh3CJeuH8utIAQODcv38/Lf1zKSuQJqjjNmrUMEtQSLQj6gHLA2jOA9QPNPoCCouGDRtQ586duY/xHn28W/XP1q1bVBt25HaEAArlxM6dO9R1bGFlTlhYKJVX/Q6mTJlCLVu2YOETba4rB9A+0M7/9fdfrAiBwItMFbBA6dipIwvHEKQvXLhIP6vv1FCC9IsvvcDKBIA+gOIgJDiYOqgfKJj8AdQd42GTalNYH2DsYXzFRMfQKSVYQvOvr6oDrNj37tNb1bEVlfX2JjvVNr5q7K1ctUq1hT9ryE2VPFBG4AcUipMePXuq9unErgDr1q6jNWvX8PmbNm1KAwcOyqKE0YHwjb5HNghkd8A4xcMJwIIDZpVYsYDCITw8gtzcXKl8ufI87lupOsKtBeMEYx8/mL6+17iOEOzxI49xgfGErAxh4WFU3L441a1Xl1OMou1xnX3U9cKKJDExiZUPiDOAH3qc81bwLdUOZamb6ofu3btRrZq1qIRDCXUeP9qqxojfdT96+ukealLQgev8qLmlyiZVr7MnT9FQby9uo+wY5lL38STlXZGtQFP/h7WI4T0UQNzPeK/6CfE10vVcsCYTtvs4kyAIRQQ8IyGo5IQoB/IHfje3bd1Gl9U8IVj91iCFcvu27XkRJrtyAHMWzMGgAMc8AHMV0KZ1a2qnfu8x98A8FAst+9XvHX6LkcI5M6CxwuBKeJbnJbAIgHI9JzDnhFsm5laYl2BxIDv4bV64cBH/TmKxBCvopmzdupX3wSIKgHUeLDNNM1JhDocFNMxTMR86d/4cLzQgHhfAbztcF/A3E/WbdPToEdq5YydbzQ4bfmecYT6I9NOxtw0ZhbCIgLbBAlrmD1WGYT/sA+vcy5cu0xmfM9SkSRMaNWoULyBgYQZptTGPgAIEn5mCOctJ9Rv8zz+reE6MucbwYcPpWdWemH96GONr4VpwLiwmAMzjevXqxQslpnNT9CXmUitXrqBbQbd4vg0Mc9nOnOUKMgBiQa1fv55dJZ/u/jQv9g0ZMiSLi6opuBbMpTEXw7wW50G/16hRk1o0b67mkQbLWlPQb3DlvHXL4M5crWo1tnTF/FsHfQ6LzGJqbMGKVnfHhPUvQH9Nfnly1n5TQOmCsYW+7qnmi3q9T5w4qWSXA3yNmFdjkRFzbe43E9CWGLtYhMV8HrE54D79zDPP8CIXFmt//ulnSkk1WFTAYrlR40Yc1yy3NhLuUCCVAxmQEswElANzZv9Ix0/5qB+pb4xbHx0QIBMTE3iFGA9oHTwwsBJterPjYYMHkr6yD7CfnsceD07TGwqKA9yIEUowwoDHwxAR0+HPXqJECT6nqXCLhxY+g2YXgoOToxPHI4AiQt8PD4gIJeDHxERnro7rwt69wLH1HyXcbBByAUzH8fCBzyFW2rH6iM8gyN+PZhMPU7RFbEwsx07A9eGhhIcKNNeor/5jh4cD9kfBjx7Aj0FZ9SCFlQX80U3BgxLtglR+EHTgYmGqDdeBEK63O/bH93BOXC/aEe2u78cZDVRBv5qeE9vggwaBFtkL9P6GoGz6Y60rB7BqjiCKUAywdYk6FqwzKlaskCWVJeI64LiIa4H66P2GPsFEA3/Rn/g+wG2FHzp8hjgWaE/T9oNSAf2mg3pC6WTaLtgPx8CDI3vaPvQ7lE1Q1kDAxvHRXhh7GPt4jfrjwa23W05cu3qNiqvPIfxDuaSD60X9ELuCx7O6Bv0eMm0X3UIG9cEPgW7ZALAdk6r4hHjuH9QRDz5YFuB6MU5NxwomWHDrgOURrhnnrKp+IJGhQt8P50Hf6ve93t6PGqzT/XPNj66dv0Jf9ulm2GgG8PBl7Wwe4GMLsz2lBUEorCAA4fz5BotBgMk+3P0w4Yew9N///leUA/cAgvf8efPp0OFDPN/Abw1+0zAHhFIbArKuHMDvOn6vZs2axYpwpEvWFbXlypWnfv36sqCPudby5X+pfvmEhXEoabAYoIM0vb/99htb40FIzUnoB7pyAFZ4UDCgTxE7CkFpdRBY+fp1P4pSwj/mXFjQQDwqCG8YGxAwUFco3YGrqwsLu4hn1KVLF96G+FDz5s/jeWpqWirP/TBPrVSxEgt6mDMgYDLiQelgLvjrr7/Q/n372Vrh7Xfe5jk0FtjWrV/H8w5XF1duMwTLxnwZwuOo0aP4+1q6Rv0HDqD01DS+HoxlpDKGheMP837gY6FvsMA0beo0Gj9hghKYsroSRhmtKKe/8QZneMI8C3OJIYOH0NixY6lqtWpK4D3OwjzaEvNiuCNC8MV8vEePnrwogb7G3AUKjU9Un6Hf0RaY14WEhqi5hQcvOqJvMS/BfQXlDualmAc1bNCQrYBhKZkdLMxgrvjWW2/x9fCinbpPMXeBjAG3TVgvQwBH/YNvBdPSZUs5HhO+p891UBcoMwYOGEhDhg7hbXC1xHExp0LfYFEFrs4Iio7zYq72xezZvGCmzzfx+eLFi9naFwtsUCziMyzewFUC/QrQRpi/od8wRhH0FHNLMEH1BRb4EBQVQdmxAFuvfj22rsV1ffTxR3T65GmekwH0L9qpd+/eNHLkSFEQ3IMCqRxQwprBdMAM3FZy+NcLl9O1i5dowSf/NW4VhIKHrhyA0A2XCkHIC6zBrDnmQ4f3naDvp2VdqXlY8iP3m+kRLQhCIQaKbMSCgdADIQqxX7C6itVWKAjGjRsnyoE8uAgLwJ9/psW/L2ahUl91h6IdbQuFNiw9deUAFg3gjgg30379+qv5Qh0W9rDQgXkDrApgYQnhCcIo+gBAkEK/6AtOS5YsYdc9KP/hEtmiRQvenh0Ih4j19L///Y8VDnDphIIfK8iwvsPKLixWnZzvCO0ALniffPIpxyGAcgKCJxZUINgi4DRW0FE3KC3Aj/N/ZCsJCI6wnsQxWxgtK1E/CO6oM5QJ9uq8YOmff9KXc79kgRYufbB0RBtMnTqV26G/ah+kHUa2L1w/SvUa1dltFfWHAqOmEnajIiP5WmrVrsUWp6hrnz59WFHzxedf8Dk2bdrEY9p0AQ5AoIciA5mdYKkIRQSUAljRxr3gf8Ofvvv+Ozp08BBbKkLBgmuCdcDvqs9hNQCXR6z643xwRYUypkP7DuxiaW1jTdf9rrMlKYRejAMIuHBxQDwkCMUYBxC+ITyjjbMDBcLy5cvZzRSKO9ynWDjC2IJADmEc50fgS7TVgt9+U6+/gpEgHxdzUpwbbYsxBQtg1BPnunD+Ao0eM5oXCyHgY0EJLhU4PoKew6Li5ckv03/e+k/mAiIUCnPmzKHtO7bTiy++yIopKDoQlw3jG+7UcJfF4iKUWLCAgbIM9YdrC4AyCPWB4gKWtXBxRZvVb1Bfjblv2Yr1+THPc5Yy7INjwDUGdYDbqX4cIWcKonIAK7kaivHPQ5VAVT7avkd787c/c95BSqEst4JuaWfOnOGC1zntU9iK+nHUSrqX1Dp26Jjj51KkmJYkVf5Ys0N75rnpOX4uRYoUKY+y3Ay4qc35Yo7Wr28/7f333tcOHzyc5XP8linhL8s2KVnL4oWLtYoVKmpKwNHmz5ufuR1tO27sOE0JylrD+g21Rb8t0iIjIrWffvxJs7G20WpUr6Ht27tfS0pM4v39fP20d95+R6tQvoLWp3cfLcA/QLtx/YbWrGkzzdrKWvvhux+0sNAw3jc0JEz7z4y3NHc3dz6Hfs7cyt49e7XevXprdWrX0SzIgkvrVq21rl26akoA0z784H/air9XaL7XfNUXNE0JmNqli5e0enXraWW9y2pzv5yrBQUG8bFwDQt/W6jVrlVbq1ypCl+nEtK1+T/MV+8ra85OztpLL7ykbd60mT9TgrE29ZVpmq2NrTZs6DDehuOjYMy5urhy3bAfPuv2VDdun7f+8xa3gX4Nu3fu1nr37K15e3lrs2bO4nqmpaZp1apV4+vBZytXrNTCw8Izv4M2rVmjplaxfEXDtRm351RiY2I1J0cnPpYSWnlbQnwCX7uXp5fWvl17bc/uPZn7h4dFaC+9+BLP+V584UXt3Nnz2rGjx7RnBj3D2z7+6GMtOSmZ90WbvTfrPa3H0z24/7Ht6pWr/H37YsW1BQt+4/Prx85eQkNCVRtO1exs7bQP3vtAC7pp6IvY6Fht4YKF3I+TJk7i9kCbtWvbXh3XnttQv+6423HaPyv/0Vq2aKl5lvbk8ZiSnKKd8zmnNW3SlK+7V89e2j+r/tEi1LXFRMdoS/9cxmOvcaPGPBb1+qz4e6XWpnVbVdpo27Zu0yLCI1VffqAVsyumDX52iHbwwCEtMSGR9z3rc1abMH6C5ujgqPXv1z/zGBjjDiUc+D6YNWuWduTwER7f+/bt01xcXLTixYtr27duzzzOyRMneRz17dNXW/DrgszjSMm56OMZ93FOnz+JcsdWyUy4uLoQ8s0LRQOYip09d5ZmznyPC15jW2EH5ugwn6perYBo6YQCT2JcHIUHBhrfCYIgPD7g8odVJaxAw8y5eYvmhg/YN8nwUsgdrMZev3GdV3DhTggrCx2syA8aOIhN9HXgNnnq5Cle/Yd7W/Hi9uybDTcDHAsr9HAtgOsfVpSVoM1BsrFyunbdWt4OkEYZBavzWEnOFWM/wp0T/YvgiFidxsozVqPhirj6n9X0/nvvkRK4afmy5bxSDvdDBChG3ZB6Ga5/sAhAPWERgVVgjBuk+D58+Ai7ZeogkxQsABBzCG0Aa4pOnTryPlj5x3UCnBvHh3k85k0wE4f7J/zk09LSOAsT6ohzosCsHKvLMHPXs1opkYP/wl2wW/duhPhfOB/ACjqsYXAOmL5ntxjICQsLS0N8HtjVqUPDlQLuAUnJSRyvCMfW6xMSEsx9DrN3nAMpEnGNsESAOwNcKRADCm4AqHPfvv3o3Xff5YCI9wtW4F1cDC7DyLSE9N1oy8CgQLZugFsA3BVgbYG4C3CDwBhDu6IvUV+0LVxYmzVtxi7La9eu5XbWQWBnWJWguLm7cZs2b96MvMp48ViEdQWuDa4CiL2G68X4g6UGXDL37dvL1w+LAXjIwoUU50Wd0U7oK7QJVrT1fgM9evTgGA+wBEFKdYx1WC3gWIgVhjaE9QEsBoYMGcxWJXmOeaHAYnblAKK0Y/AJhR+YHJ3x8aEFCxbSqlX/cMFrbMNnhRmYDk59ZSqNGCnmTkL+sFI/hMXyiN8gCILwqIAZNgLCmmYCEqVA/gkPC+cCQQrBdbMDE3jTGDZpqWksHCN+D+IRIUsTMg0hmwAKsk7dvBnAQhhiCyFIXPt27dnvHubjcBFIT0tXAqcPF8RtytJ3OaCpf3AngICMzEXwnce5YN4OZQFM3BGDAGb/cBGA/z3Of+zYURbQIEj++edSNiPXy8KFC9mMHELw5cuX+Hp0qlapmsUfHG4PUE5AUYDg2hC48T2kGcYx9FSaOA+C5+nA7N30nHp8hQQlC2AxyUS+ZMEd5vCmbR0TG8PB8aB8gJm8adDA3OAYW5ZW6pXB6Q7uADgXhOgrV69kqQ8K4jjAzQLCPwoEWAjHUJ6sXbOWXp32Kgdo/umnn5WwfI3HCcr9AsVGc9V/ELIRqBzKvBkz/sNZGJBlCdeNWAIYX1BUQfiGIgOuK6b1hfvLwUOHWImArE2m/Yb2Qzua4ujgSIjfgDbcsmUrj0koHxBsEsoHnBPXjP6E8gDHO378GLvYmp4X7gBoE7QjlEumygEoN6D00cE4eeH5F1jpgnsDsSI+/PB/3P+IiQEF2uOKCyWYF7MqB3CbRgQGkd9lQ5A/ofCCdHg+Z31YY7lkyZ/GrfCd+5O34TPsU1ipWq0qDRg4gDXegnAvsNZSvFRJKlevtmGDIAjCkwLzdRQJRnLfwFfbveSdwNQ6EHRMgzgjMC6EcAhTV65cZgF5167dtFsVrJJiBRr++Ag8CIEQ6WcRCBoCFN5DWEVwOz8/XyWohXLsAFPLhExUP0IAy1AFAfdwXKzUQ3jD6ni9uvXo+eef5+wBCxct5ECACOocpAQ3CODJySksqKenI411EB06dJD9w/WClWQcC0G1ESTuXmCfCeMncEamv//6m4KDQ3hVGYIsLBNwHFMQgwHZEUzPiYLVb2QJQ2YjLUPLImRmB0L70SNHuP0RwBDCaV5ghRsCr7WVFTIC832gHx1xCHDu7PXBNaDv0Q9QgkDJAgUMFok6dOzA9cPK97x5P3BWJViWwDICSpf7AYoNWEZ89tlnHEsBYwHKhmXLlmbGBEFMAgSC1EFwRcRJQFwAvcDqICIinFf8ocAxDfacE4hDgXpjNR9CPxQge/ft5etGAEYE5QZQNkCJgjGBcQxlwI6dOzgLCs6LuT0yEXiX9eZj5QXuGWTVeGXKVI7vgOxwu3fv4ngQL7zwAr3//vs8/oTCh1mVA6XVPeRy7RYlnr5i3CIURiD042ENUzo8gIebpKzBa93MDvsUZgWBIOQXJBEN9XanEq1EOSAIwhMGSgG9qFkcp0NVAhObWAs5wu2jCkylsSKenSuXr3C2Ix3e39KCzabfeOMNFrJgMYk0gCdPnKSjR4+xUIwUzQhmB+ESq9kwuYYQeuDgAVqzZi0L+1iN1zMF3IXqMpwL4u2vC35hCwZEs4dQaqnOn71LEdwNJTIygs3o7e2LEdI0QzmByPBQYhhM5w0Fq8SoN9JeI3gf5m95YWtrR7Vq1+YVaGQsCA8P4wCM+F6LFs15BRpAWMX1IoCerizJcs6Ll1hpsWnjJtU2d1a9s4N2g5XF3yv+pnZt2/Ex84OlajPdrQDHQBPiPVwokM3DtD4oCOKH9kJgQQTYQyYzmMa/Mu0VWvXPKtq2YxvNnDWTA/rhGOhbBEaEu8P9gLpA8IbbBFbQYd3x++Lf6bVXX6MGDRpyVonFixZzZiZDvxN17tiZU3BfvXKVV/tRMB5R31OnTrMLCcZUXqB/ataqyQI9BH64xaBdMaYRHBPpuXX08yJbAdwHkLXqijo3zo9+O3f2HG3ZvJUqVKiYu1JCIw4yicwW06ZNpQ0bN9CKFSvYUqJL5y58jkWLFrHFDdpEKFyYVTkgFH7wI4IfweLFS1CZMp40fvw4ev/994yfEr/GNnyGffQfTEEQBEEQHgOY25sIjYhinpKSmm/B6t8IVkJR4BsPoSk7MKOHubwO3ABgdo6VaLgFQOCDQAoxB6v8R44cpvdmzeLUcFA2QBiCgDZlyhRWKGB1GCb9l5WQ5+Xlna8o5HB3qFO7DkVHRfNKck7AXBwlJzAfg/LDFETHRypGZFXYsGFjFt91pK02mObfAbEVEHcA0egR0wBuChD269SpywXg+qCQgAIDK8NoI1PghvH7H3/Q6FGj6LcFvxmFd8OAheuEKVjhhpUFVtyRY98qW31yA8fjYxrvg0qVKrMZO4Ri+L1nB9koxr40ll5/7XVWesACpF+ffjRl8hQWgBEtfszzYzjSP6L6w3QfpvGwmLgfYPXRp3cfLngNy5J27dvR62+8Tq+/blAQxN6O5fhdGGO4BrRvQkK88QgG0IZQCiD14jvvvHNXG+cEFAOInYG0jD98/wOtX7+eKioBHykIdWztbPnacM2wjIHrDBQsaEb007Zt21U/dKHRo0epfUweMjroPlUwzqCEGD16DI0bN55TZ0IJBgXUH0v+oLdVnRHTAvfU/bah8OQxq3IgVB0tupIn2dfNwXRKKPDA1OiiEvQ3bdrM6XSgMUUQpOxgGz7DPtgX3ykKQQoFITfgNVcqKJISjlw0bBAEQSgoqMk6BFfDFF/ICQhDlZUACTN9rCJ/8vEnxk+IzclhCg0zfR2Yz2P1F8LT9u3bWEiGQGRra0Nnz/oowX8RLV22jM37YaoOIQ/ngJBrcC2wV4LzKVbY4Di1a9/b6gyr8khdd+nyJZo+YzodOHAwi1n76dNneLUXZvIQvPr17cduAC+99BIrJrDaDX/zoKBbvL+fErqXKQFz/vz5dOzYMU6Vl1WBdPd4wXVglRopBiFILl68iOMNQBmAou9TsmQpGj9+Al8zYiJAQQUgnCM+1fx58+j0mdMcIBD7ozBZdQO8so3rhfk9Vrgt1PHuhwD/AIqNva36qxwrc+AygPgCiNegAwuGX375hf36YTFQxtOLzevhUw9zeqzko51RB1w7FEhxt+N4XyiFdNLT0+jQwYMcODA3sD+sahFvACkXIeRDaMdxEZMNqRxxHgTDRn27dOnK7ieff/4FHT9+go8RFhrGcRDgx4+5NdJQwpLjXuA8zz33HLsYbNm6hQMNok0Rw0IHMTHgToHxsnjxYlZgYBhAaXPs6DFa8scfdCs4iGpUr2H8Rs7AYgB1ggJi06aN7DoB5QKuDXEwLl26yO4duB88PDyM3xIKC2ZVDqSpAeZW1osq1LgTsEIoHHCkWHVzL1/+l3qILqCYmFj1kHUkL29vNinTwWtsw2fYB/viO/ju/ZpfCUJhAdOppLBwCjgjbjSCIBQglLAFv25M8OHzK+QOVnBffOlFJcQQ5/NHfvznX3iBI8jfuOF/R4BVQHjCCit8xCHAwlS9X/9+1P3p7jT55cm0YcMGtqCEwA1FgC4Ao7Ro0ZJcXV1YSKpQoTzVrl2Lhaa8wPcqV67C0d0RKPDM6TP0yitTuI7IJoAybtxYFvSRox8C4+Ahg1nYh3IC+ftxjh9++J6GDh3C+48cOYJ++22BEuQcOJMCAuyZXmNuQOgbDiFT7Y9rL+NZhlflIRDq4PqmTHmZo+zDyuGFF1/gXPcTJkyg2bO/YMEQgZ/hcpHZNjkoI2B1ATeNWjVrsW88lA2sQMimRDAF+2DfDLXTRx99RF99NZeF6Jaq3Z96qhuvxMPfXW+3F1XdoDjBCjoyEECRgO8j+n7AzQBWDL069VWOPzBgwABa+NtCri+EdwQWhICL64fVxZo1azjbADIb5ATiJiCLAGIKfP311xxIEhYLzzzzDH362aeUlp7O/vl16tZhIX7UyJFURfX73r17aPLkSSzcT5w0kb5QbYhYBLDgaNK0iaFd7gH2wb64NtQVsRvq1qubJU4ElCe4RhQoD6AowBhHefW1V9kdpn7d+jRq1CjjN3IG58Jxn3lmEIWFh/F9NXXqNHr77Xd4DCBgJ9obQRLvFbtAKHhYzZo5axa/uvfz4p7AIOtqeARZpKRRq6oVDRuFQoHfdT/6/PPZ9Ndff/N7H5+z6sH2DRdoyHXwWt+OfQD+wnSoeYtmVNqjNG8ThKIEptynTl+gEwdP0JjRgwwbBUEQngSm8zUlRCEY3ZIlSzjoGCLKCzkD4daQss+Nzf0hHCHlYDE7Oxo/YTw1atSYhfkGDRtwwDqs9lZRgrq3lzddV8IuTL8T4g0ZDNq3a8eBAhHMzhDV/o5yoFSpkrwSDZ9tpMVr165tFsE6JyA42yohCpHrISwiLTgEZ6xS6+kAIbTXVEL0s88OVuWZzACHENRQXygJoCyIjIikqOgorn/zZs1pxIjn2M9ej74fE2uwCEVqO5iCw03AFFwDBEssBlWsWIkFbAipMIPXwXnwPSgyUpUgihV8WA1EKBkAqfz6qPNBYQDlgd428Gv39PRkqwT0A8B3ULp26cqCrbWVNe+bZYznANxao6IiuS/KeJWh2rVqc6BGtAMEebgrQEmAVXxYf/Tpo+rzwvPUqlUrvja0Da7H2tqGXWOxH8zfgwKDqF79ejRyxEh1DX3Y3QDCLa4V7YzgijgnfPhNMz3ooI/wHUTphxInIOCmaht/bnO4l/Tv348DB0KwxnV6lPZgVxKMD9QB+6Pu1ZSAj9gSzw5+Vo2jCrwvFFYXL13k+rVp24azBJiCfRAgEn2DeADILAElEuqjg2uAggDHhDIJ7gqwMIGrTXH74tT1qa704gsv8nOEXTxUP8CNBQoSHA8BEnVwLqRPhMUAXENu347law5XYwCKtRHPjeCxU7zEvbNP/JtB0FNkikDASj2955PGQg101s9pZlAOwJBp0a59FBMQRB+PGGzYKBQKEKF05sz32BzsQRgwoD+9995MNtkThKIGvP3+XruDVi3dQH//8YVhoyAIwpPAZL4GYeX27Tjq1asnrzgiD7mQNzD13rN7D0VEGgIQuitBrn2H9iyIQ0BDyjdd8IOQHxYWTgcPHuDXOhDMEUcgN6Efrgvol7JlvbMI1fkB/tvXr/txDAGAVXiYZhsEWk92KSithMrsREVF8Qo6BNzEpESuGwRDCIKmGQBwPRCEISR6epbO9RqwOg7rB3f3knnuBx9/BLXTze3h6oDgeKinKdgP11a9ejVuYyi2QkJD+VqRmg9CPoRXBmM8J+sBtR3CKPrp6NGjfE60TbWq6pilDMeEcA0XEVOrV6SRhOIAQq4OBGPsg2CNpkA5g/qbpuGDAIdrvH7jOisHWrZsmasgh/rBkhbBBENDQzhtIQRkjAPUwVTA1kGgQsQAgLIKlCtnsDjhdjIBFhBQ8iATRG5CN8Y3Yk3gu3ftp9oHLgQYy1COBd8KpoCbN7kt3NzdqIYa09xvaj/EpIDSCouHcMHAmDcdy7hOKF4QyBDBE+GGAcUEsmzAqgb3h7gU3Bu4K+E+xXjOT2ySx4FZlQOx6khfL/qLfC9epgUfvWPcKhQG8CBDgJQFCxZyukJkJdADEeLh2blzV369Y8e2TBOl//u/mZn7Pv/8aKpbpy5rhQWhqBGtypqjZ+jQ3uP0/WvPGzYKgiA8CUzmaxnpGlvuiXJAKFSwkGrw0ddUgVLA0jqb6TxLJ3cDoRSCqEF6MdwOWDVHdgn8E/JAtRnEPrThnQZGvAxD+3HbphviLEDIRyyTPJs0ex9J8983BVE5YNaYA85qPJUIiaKUG+J7XtiAUA9t6eDBz9KLLz5Pzs5OasJxm4ICA7P4K+E1tuEz7IN98R18VxQDQlEFLlOxbo5kV81gCikIgiAIwgNiFCIhlHLWBKt8iiNKGIUAq6UbhFguGUZhN7ugKuQI5H0OYKqEf0OBAkCX6vXt+GvclBv4PKciFHrMqhxIUSXN3o6sHMW/pDACP62aNWrQ0093Z98XCPsImJIdbMNn2Af74jv4riAUVRBOxzY5ldJjsqYbEgRBEATh/jHIpFjrzyZRQsjPTdBXu8LKwNrGmjNHoNio1wZzdpFM74ne5tzuxk0mr3W4V9CeeTUp+gifmxZR0BQJzKocCLciiq/iRY71JVtBYQVBRJByB4F3bt0Kpvnzf2T3AR28xjZ8hn2wL74jCEUZF1VcA8Mp9uA5wwZBEARBEIRCCoR/QwrUO+C1warAdGse6IocvQhFArMqB4BnGU+O7ioUXhD1FQFlrl69wkFYEFdAB6+xDZ9hH+wrCP8GYiMi6MYFQy5nQRCEggAm8mxmbXwvCIUOXQ4VAfPxgTY3LUBve9Ntwr8SsysHhKIBhH5kHujTpw8HHNTBa2zDZ6IYEARBEITHjD6JN/69euUKJcTHq/m8zOgFQRCEh8PsyoGQ4BDy9b1mfCcUZuAuUL9ePc5EgFSFKHiNbeJKIPzbcHJzo/I1axrfCYIgPEFMVlg5xZ6suAqCIAhmwKzKAfcMInvfIIo9c8W4RSjsINAgUhS+995MLngtwQeFfxtIZRjtVZKcW4q1jCAIBQgxFhAEQRDMiFmVA3YakU18EqXHSkTvogQyE8CNAEXSFQr/RlJVSba3JStXR8MGQRAEQRAEQShimFU5EGtBlFDKmWzKehi3CIIgFH5KqOIUFUcpvrcMGwRBEARBEAShiGFW5UCcOppVBS8qXUdSGQqCUHQorop1cDiFHZNUhoIgCIIgCELRxKzKAeDi6kKlS4vpuSAIRYvEuDgKCww0vhMEQRAEQRCEokWmcsBCe/gCUpJTKDExwfBGEAShiGBtY0PFSsDBQBAEQRAEQRCKHma1HLDSiMJvBpHfJclWIAhC0SFdFftSJal8/TqGDYIgCIIgCIJQxDCrcqC0mkG7+t6ixDNXjVsEQRAKP5GqhHq7U/GWtQwbBEEQBEEQBKGIYfaYA4IgCIIgCIIgCIIgFC7MqhwItSKKruRJxepWNm4RBEEo/LipUiookhKOXDJsEARBEARBEIQihlmVA2kWahJd1osq1qhu3CIIglD4sVIlKSycAs5IKkNBEARBEAShaGJ2twK7YnZUQiJ6C4JQxEhLSaHE27eN7wRBEARBEAShaGF25UBMdAyFhoYa3z1hLIx/hcKJMT2mIBQE7B0cyN3Ly/hOEARBEARBEIoWZlUOlMggSvUPopDzl41bChCiKChUaKIYKNoUsvsxUZX00iXJo3FtwwZBEARBEARBKGKYVTngnEFUIiSaUvxDjFsKGKIgKBRAMaBpGZShiiAUBOJUiXFzILtq3oYNgiAIBQmZ3wiCIAhmwKzKgRT145RqX4ysHJ5wzAH8SBp/KK9cvUJHjhyhsLAwwwb5AX2iXL58mQ4dOnSnP7LDigGNMjIyuFy6dIlOnzlNYeFqf5N+zQ+pqal048YN8jnjQyEhIfxeKDhERkbSmTNn6NLFS3S7gPvy26him5xK6TFQEwiCIBQAjL+HxYsXJysrhE0VBEEQhIfDrMqBcPXblFDZmxzr1zRueXwkJCRQUFAQBQYGUkpyCguZ4NOPP6W+ffrS5s2bKT0tPXO78GT48IMPqWfPnrRt2zbjlpyBggDlgw8+oHEvjaNtW9X+6Ltc+i8pKYmCg4NZCZCcnMzbYmNjaf78H+mll16idevWU0xMDG8XHjH5VOLs37+fJk6YSDNnzqSzZ88atxZMXFRxDQyl2EOnDRsEQRCeFKbPWPWbWL5CBSpWzN64QRAEQRAeHLMHJPQsU4aqVK1qfPf42LFjBz3zzDPUr18/Xm3WUSImC5mBAYEUER5h3JoHhV15kA+h7C7yELofNxlsNZBusBxIz6C0tDRKSU3hv3lx9MhReuGFF2j8+Ank42MQNNHv6elpbHmgKwwemvy0VWEfQ/eBrsTJ85pNP8Nrk/f6/ZkbmccvAMRGhNONCxeM7wRBEARBEAShaGF25UBBQxcuCoqAIeQf7jf97z36z8fHh65fv258dwfDMczb91Bg5AbO92+JlQA3DWQnCQkOobi4uBz7CJv09ofCB+4DKHgN8DnaM6fvQiEUGRlFYWHhFB+fkPkdQRAEwcCd3yPz/9YJgiAI/z7MrhyAabfvtWvGd4+H4FvBdOvWLdIyNDYvv6bOD19zCBO68JGWnkaJiYnkf8OfTp08xb7vN2/eNB5BofYzCHZYbTasWMMv/vjx43Ts6DE6eeKk2p5u3PkOEIx8fX35Nc6NffVi6keN7yYlJXNBPeAGER8Xr/aJ4/3i1F+sbmO/lJQUfh8dHc3HDw+PoGT1PRagjJYBSBe5e/ce+uuvv2j9+vV04eLFO0Kpickh9stJaMY5L1y4QJFRkfdlbYB2hkvAihUr6PTpM8atORMdFU1n1D4oMBu/l3CH9tigrmXjho3cRpZWVmRpYcHXjUvPC/Qvjh8REcGWI3AxARgTAP2JAquC7dt3cP+EhuSdcvPKlau8766du1j5ANIz0lVdEA8BA4Y3GdDbUG1LSzWMNbi3pKak8nuMt6NHj2Ydczng5+fHYw4FrzEeMFYetmBM5YeoqCg6ePAg/f777zy2MEZy6zeMoVOnT9OWrVvpytWrhv1MxhLfT2gvY1uhDpdUO6CgbdLSYCECV59sbanAdzH+Dx8+RHv37lFj2M981h8PiJO7O5Wv8fhdpgRBEARBEAThcWChJu7ZpuUPTrKSDeb+8AedO3uBFv3woXHro+err76iefPm0a1gg4Kgbt161LRpU/r0s09owvgJtG7dOho4cBBZW1uxiTmENVtbWypZsiSNGjWa+vTprT6z5mNBGDt58hStWLmC9u/fx4IVsLaypvbt2tObM97k74GjSsD8448/KCwslBo0aMBxDeDnrtOkSRP2qW7QsAELOyzcK/S/iIHw888/09bt26istzc999xz1KJlC4M5vaojlBPffPutOs8RmvLyFOrUpRMrDXA9OBcUIMlKyLKxsSEXZ2d6qttTNHHSRHJzdePjb1PHXfLHEnJwcKDXXn2NKlaqyNsBBMBvv/mWvLy9aPjw4dSwYSNScniurF27llavXs1CLq4Rq8Y4LtpizJjnqUePp/k9gNC9e/durufFSxd5G4IltWjRgi5euEiHjxym7777joYNG8afQaG0ceNGWrx4cWagQveS7tymcBextLCk1157nUaPHsWfZeeNN97gc0HwRlt4eXlRp06daNasWfTJx5/QN999Q5MnTSZ/f38KCAhgIRP7eXp6Urdu3WjKlCnGIxmAIuPXXxfQoUMHuf9R91KlSlHnzp1VPV7jfSwtLVV7oag3JooB9J2fEmTHTxhPdWrV4f18/XxZSZOalkrFihWjNq3b0Pjx46ly5crGLxoCNeIaduzYSSEhwbwNY7RmzZr0/PPPU6tWrXgbXuM633rrLa4PgOLi119/5XojMNWff/7Jf8Hff//NfVe7dh3+bpkynrw9JxCXYdmypXTl8hWKj48nC0sLcnR0pGZNm9E7777DbQDQX3//vUKVv3gsQBHi5OTEZcjQodSvX1/eF8qCjLQMDjq4aNEi8jnrwwoFgOOWdC9Jx44do4aNGql2fZXatGnDfQOlzGK1/xl1XVD2QIHg4OCo+rQj9ezZi2rVqpk51h4XyL+y5twF8jlxhr4eOcSwURAE4UmB3x385qg5Dyy3evXqyb//w4cNN3wuCIIgFHgwLy5btiwvIFavXt249cliVssBO/VDZZOQROmx8cYtj4fSpUsroacMC/AQ8l1cXKi0h4cS3PRVZ422K0EZUfKL2RWjKlWqKsHLjlc858yZw9HS9Uj2p06dogULfqV1SqCCoFKxQkV1LE9KiE+gP5f+SXO/nMsCJoDgcv78eRZs/1BCOEysvb3LcsHq9coVK2n58uVK2LnCdYGgiAJhE8XG1oaclVB/8cIF3vf8hfOZ++FzCGgQ1nbv2U2OTo5qLmBB69dvoN9++40FwgoVKqgJQS+qVq0aWy9AQPz22+84KCOARQWuB3WJi88aZT02Jpbrfu7cOV4tzkMvwAN2yZIlbC2Aa27evAV1796dhestW7bQZ599ypHnddasXaO2fUa7du9S7yyoRo2aVKlSJRZUT50+lalwAVBw/PnnUpo7dy73D4TG1q1ak5au0QZ1rX6+fsY9c8fby5sqVazEwmnJkqWokRI2a9asZfzUAKwrTp8+zUJmtWrVCdYhUGCsUO2Oa9DB608//ZSvFwqEjh07qfrXYIEcAu4Xn39BSYlJak/VGzk0GtQ+cXHxrNRYqvoOYyZFjS1cP8597eo1XpWfP3++4QtG0F5QcEFJ4O7urgTgWmocWNHKlSt5jB4/dpz3wyQQAvXBAwc5+CLGCcYd+mjnrp20Z+8eVixZWqkxZG1Fhw4fok2bNimB/pZq29wFaih+5s+fR4cPHWYFRuMmjbkO6G+MYSgO0MdQDECJA+UO+g5t3a9ffypfvgK351dzv6J/Vv3D+6ExoBhZuWoVtwPqXbVqNS5QKiCLSHBIsPEeNdTjVtAt+vmnn2jJn0tYSYKxXb9+A7p1K0iN+4V8btOYIo8LPB2Si9mSlaujYYMgCIIgCIIgFDHMqhyIVUdLKOVMtmU9jFseD+3ataO+fftSGc8yrCgYOWIEDRw0kGyskYDMsFIPgRT7zfjPDJo69RV6/vkx1KB+fTp+/BgLVnAJwIr3X0qAhXBbrlw5+s+M/9Crr75K0994gy0GsCK/dOlSFtQgpOnA/BmB79555x16/fXXuUyYMIFs7Wxp/4H9mW4HmRhXm7Ey265DO15lhRDme9WXwkINKftQ3wsXL/CKc6OGjVR9ypOf33XaunUL7wvhnM8zfjy9MmUKvTH9DVZmYMX1+PETrFjIC5wb7QKFA1bmuU65cOLECV79hcA9ceIkeuWVKTRp0iTOAoB2OnnyJJvAw/UBq84QjK9eu8qWE2+//RZNmzaVXn55CrVSQj/qZWriDsXJ+vXrWNAdofoNK+JYyf/Pf/5DdWrXYQUKKpdH9WjAwAHUpm0bcnZyVkJ4RXrmmWepf/9+xk8NQBgdNnwYvfnmdHrt9dd4haV58+Z0VZ1/86bN3BawWvjpp59p7dp11LlzJ5qh+n/y5Emq/tNo1KhRXO9ffv2FlQwpKbmYuEPQzYA7i0ahYaHUoUMHGjd2nGqzV2jGm2/SU089xa4ZEIwBLFUOHz6s+nUreXiUVm36Ik2fPl2N0WmqHV6m9u3b0549e2j9hvXsFtGxQ0dWHhw/cZzdZ0BMbAwL6gDHQ/0wFnyv+XJxKOFgVE7krBzAdcO6YP++/VS7Th0e66jvyy+/TCOeG0FR0VHs7oH9oDxYs2YNt8XQoUN5v4kTJ6j7ZBqPDShRfv3lV7p40WAxAveIFSv+ZkULxgzaEuWdt9+hEg4l2OrAoFJB+4fT9h3b2YIC9xqsNNAGkydP5jFRqlRJde7VWZQ5jwskZ3WKjqPkawZ3FUEQBEEQBEEoaphVORCnjmZVwYs8alczbnk8eHt7U9WqVcnB0YEFoIaNGlLNWjV5BV6nfv36nMkAZuQQCtu2bcuCG0zyIMhC2IHLwV4liEFW6dq1KyscYM7dsVNHzoTQqnUrCo8I5xXQ8PBw45GJXF1dqWXLltSnbx9q164tl2eVgOrh4cECVV4p9MqXL08NGzYkNzc3FrAN8QEsOK8/VnxhCYFjwRpi7969vNKPlexBgwbxNVSqXIlat25NY8aModq1a1NgUCAL81Ag5AXaBjEK8NfCCpoK4wc5UKVKFRYEYfo9ZMgQqlu3LisFYK1Rrmw5tnYICgyipOQkOqra5urVq1S9WnV69tlnuc0bN26s2rwZKwnQVqbA1B/XhONA0OzTpw/VrVeXevTswcWrjJdhhT6P+lWsWJHbD6vl9vb27FYAEx0AJQho0KAht2OXrl2oWdOm7ErS9amuFJcQxwItTOChqDhy5DBbnUAZ0FOdHyvXGC8DBw7kdsa+SMFnEGqNGFe9AdoU2RXQruhbKImeUudp1qwZPf300yzsQxkEQR8r/vgLYRvKph7qc7h4dOnShZo0acwpH6EwgWANNxKMpY4dO7IrB9oYSgZYfUBJALOkypUqs1vNtu3b2f0E1iVQulStVjVPU6WzZ8/xaryzi7M6d2fq2asnNWnahMf+kKFDqEePHqyQwDXBHQWWNk3V5yNHjmTXD1iwYPxDkdagQX06d/4cW0gg7gNcA2DJApeSSZMm8zhA6T+gP99/uosOCAjwV9e5hZUdg9U4g5IH32vcuBGfC/cklDxQ5t1rfJsbOGlYB4dT2PFzhg2CIAiCIAiCUMQwq3IAsEm/Z+5+zY8SCKkQ8thFAAIbZF5Iluo/CC8sIKnt2AYh0t3NXe2ksWCF70HIgrAFU3+s2MOkG6b0CMyG1xDysV+AEhBjY+8EG8Sqfvv2HbKc183djaxtrHkFN3O7Dl7r79Xfrl26Urny5VgxgICJEGehfNBXSGElgHa9dPEiC0WIqYACcC0wH4d/OpQDdrZ2SigLZOEwL6wsrfgvm58bX+cGhLLRo0ezwA3hGe0Bv/alfy5lJQZWyZNTkrltzivBEG4XtWrXYuWFDszfIVxXKF+B6wrQ7tiXBdsqlVnpYAr6DII+7Aay2A7o7YeCzapAiQIzfNQBq+c63P8KKGDQhojzAEWQk6MTeZb2VPsbglDie5cvX+HPEO8AQRRxnXrZvWs3W1hgP1hRoF+zYOxPfI7PIEjXrFGTxxwUVrh+1AVCNq4J50Efo66wDIClCGJmbFeCvX5OuKtgTOJ7UKDA5B5KL1jHYJxC8L+qhPBLly6za8WAAQO5jidPGixHrl+/QVHR0axMQuyC3PDz82Xrl3r16nHR2xZtirgIb775Jo0cNZItEOAmgNgJ6CuMNx1cb8WKFXg73BJQVwTxvO7nx0oyKFjKlTMobHQg+EPBpIP7C/vrfbZ69T/sioKCewFjH/ctrg2KkcdNohqn4UaXHUEQBEEQBEEoaphdOZCiBKNEE5/yJw2CxgEIabAwyA+6/z7MmvUyY8YM2rdvHysOsEpty+buBlxcnKlSxTvB/gCEKgSFg+DMRZcecwBWDeXLledV/0uXL7EQBDNxrFJjhb5a9WpK6LdlARKKBg+PUlxM4ZVqdQysMucHXlHHf0ZBLC8goC5e/Du7Tbw67VVujw8++IA2bd7EAiquTwfWD9iGFWHUPTt16tThuAIAfukQ8rBv7Vp3BE0drEpDsMwPuI7sl2LYZlAsID6CnZ0dv84JCPVo79TUNBb+53w5h1fC9TJz1kzasnULHycxKTHLNWdHz5CQH6Ac0JUNy5cvN7SxyXm//fZb7lsI0fgLYM2A+mKcXjh/npVBFZRg/sygQWyZgf5CTAkokxKUIA2rGlhX5AZcalAPjG0UU6DUgJKGgwWm4N5O5H7NqW9NiU9QArzq36jIKCpRvAQrYu4FxjYE/+joGPpStT/cK+A688brb3DQSVjSYHxDwfIksLKxpWIlHm8gREEQhLvQf8bu/fMtCIIgCPeFWZUD1komCg+8RX6Xrhi3FBxS09KyrCjnBQSp/v37s6+zXuAv/eKLL9ILL7xAHdq3v8s8PjsICpcpQOYmKxq3I4tAo8aN+D0CCG7auIlWrVrFK91jXxprEPjVJADKA5ifQ4iCOXp2sBqNc8J6AEJdXkAYhYCZHxCgb86c2XTG5wxbBLw8+WUWYhF8rmWLllnOBQEc9UX9UJ/sQLBGRH9T0FYQULMDZUhO13k/6MohHVhKcOBKVUwtJqBEgEUDFAxYaR8yeAhNmjgpsyDrBPpi1MhRNHLEyEwFR3bQ5VAE5aaEyItePXtxdg3T844fN57POWzoMFY24biwwICiC4qVAwcPsjIApv0VK1VitwMoaGBpgFgGWMWHpUFe4wHuCmhr3B/Z7xGMJyh7oMiB0gMKCvRrTn0L9OOU9ihNJZUQb2Vtzekf2XrmHsBlAFY5sLTo3bsPj7Opr0ylV6a+QlOnTuW4A7gX4eagW588LtAqxUuVpHL17lZiCYIgCIIgCEJRwKzKAQ81g3b1vUWJPleNW548+mqyHiQuL/SVZviEIwsAguLpBauYHdp34DR0iIp/L9L5fAbhKu+zGqhVsxab7cPMfteuXeRzxodKlCjBQRR1wa5G9RpsteDvH0A3bvjzNh0IX8h2AKEfAjxM43VQB87LbwRKAWQGiI6KNm7JHewLX3yYnc+YPoPN3d948w1WktSoWYMFP1Pq1qnLvvZYhUeOfFNwLPisI8AdQFtD2Ay6FcRR9bMLpoh+j5gE5oTPaWXJRY9HAFAPWJdA6ETmA5jRv/3O25kFQQwHPfMMWz7Uq1+flSDmAub7qBfiEbw85eXMc7719ls0dtxY1Z+1OVAgYgcgQCNM9OGagPY9ePAAC+RYyS9Rojg91a0bHw8ZLQJuBlCTxk04ZkReQLGAMQ0lAIopWMk3BB2cyNYATs5OPB4QcDB7f+E94jHAPcCzjCePD0/P0vwe6R2z33/Y33RbKQ8PtqJxdXXhIIdTp001FKNioE+fvtSkSVNqrK4prxgKjwLk4gj1dqcSrUQ5IAiCIAiCIBRNzKocKMhgBTq7MJMdpC2EWTUEWBRTsFL6+Rdf0IiRIzgF4P2g5D4W/vIC/tsQ8AJvBtIBJfBBYEa0/wYNG2QqB9jMvpQHHT16hIsOVt2PHDnKUd4hzMG/3NT0OjIyii5fuawqAaVFOgeqQ6o++Liz8iKb0GYK/MZhoo5o91iB1kGcAETc37lzZ5bVfcSbcHFxpbM+Z9lPXwdtf+DAgSyB/BBAD8cFiPEAH3tTThw/QSHBWYVVBk2pF2PV0QapKfdenYYSALEJUEz7BAI1AgBi1Xrd+nWqfY+pa7wTtwEC8aRJE2nKK1Po8KFDd8cceEBgZTFm9Bged4g3cOO6IesAQBsj8wMCOf7ww/eZq+8YJ7BcwDhEgaIApv9QbFSvVo2vEWkN4Z6CWAto57xo26YtK6YQ8BKuMzqwUkGKQwRDxLgCGIPoM2TsQKpJHYyBbdu2s6ICygu4QSCmBwoUDuh7jO3MflMsW7YsiwIJlga1a9VipRVSciK4I+J2oCAtJ6xXBgzozy4HgiAIgiAIgiCYF7MqB0KVDBtdyZOK1c1bGHmUwPx54cKFHEDQVGjNSwDWadvOkMEAPvDIiz/z/2bS2jVr6Y8/ltCoUaNp//59SuguyQLXvf2ecT6NBdB7KQYAsg7AtQAr2jATd3RwpGZNm7HQqjPomUG8Gnv27FnOM//+++/Tzz/9TN9//wPNmjWLhUlE2cfKPc4JRQLKRSWAffrxJ5wm8O233qa3336bI8jnx62gdp3anAUClgArVq7gVI4QCv/3v/+xNYUusJ48eYoVKhBSmzVrStdvXOe0f2+8MZ1mz55Dn3/+BVsbmK5M41phIj527Fj2n8fx3pz+JgeBfPedd+n3339nV4r8AIWId1lvOnfuPP3yy8+q/1cZP8kKzPItVdugZO8XxJEYNmw49/+iRQtVm86kBb8uoHnz5nFQPihV4HLQuUtnNvE3B1AODB48mIV9KCXmzp3LqQBRpqu2w3mxz/Dhz/FfAOEfQjqUBFC6QLEAxRYrB2pU5xgDAEoDjBcEx8wLxCuAqwL2hyIALiNff/216rfZHGsD4woWLLBagUVN0yZN6djxYzT3q7n024LfaOPGTfTtN9/Syy9P5v7t0KGjqlt5KlmqJDVu0phqKYH/lBofQ4YOpR/n/8RlystTuD1NFXawjOjTrw8rkLZu2cJjB+N78aLFNP3N6exqAysI1OVxgxYsFRRBCYcNKRoFQRAEQRAEoahhNWumkirNRIyStXxj4qm4XTHqUMsgoDxO4IONyO/4C1/rzp07c5q4y5cuc8R/CFS6sI2VUESk37FzBzVt2pRNuuHjD+EDf5EqDmbtWPFkM38lyCAY3eeff8YCMKKmI1I8BGIIOJ07dVbCaVnD8VU7pKWl02Il3CIgHIRJjgKfB7AOwOo5VoKRtQAC1fsfvJ8lQByuycnJmWJiYtmnHCkLjxw+wib5N5QwjlR9r0x5hapUrcL1cHVzJUcnRz4ugt5dvXKVv4dVb6TWi4yIJG/vstSmjSGLQE5AIIV7w+XLlzl/Ps6J9oAw37JlKxo0aCC3ESLjI1K9HkQQ50TKuStXLvN3UOCugaj68C3v3bs3twnM2bEdq9RYtUYKPLg8oLRr344tAtA2SKuHY+cGlDUnT56kvXv3cDDHpKREtgRA3XCsrl2f4vMht76+eg3rhvVKIK9SpaoS0J/l41SuXIXPiWtF/VEO7D/A7g34/rvvvsuuBbn58KPfAwNv0uLFi3mFHakcTd1QYI6PcYXvIx0lBHcI3dgXbXDylLqGfXtp3/59fD1QBCCd4YsvvsAKBF2hER+fwGMlMjKCFVroe115AIsNmPFDSdCndx9WPOUF6oI4G1AWYZyjvY4fP84pOxGPAIERUQfEOUCsDWR6CA4OocNq3J06fYp27tzFdUa7IzbHiBEjqbK6HigrYG2C60O60PNq7KHOOD6UCxiDUC7hvkL/IognMiJgjN8KClJ1UONG1QN9iL7C9QwbPoyzZ+CYjxOo0U4dP00Htu6m54b2M2wUBEF4Ehh+Bhise8CyccmSP/iZeq+5hiAIglBwwPN7zpw5NG7cuCcWcDs7FhryuJmJIPWDtfrEeUoMjaTXut9JY/c4wGojBHoIHvBxxkpoi5Yt6NCBQywowUS/atVqLDRDvoIA6HvNl4UbRH/HDyqEb6D7y2OF3s/XjzsLq5oQjCCIQVgGyOMOYQcCTr269Vgo5kBplujsVNq+bRtHeIelQWa0+DxaG3EGMEBWrlpJffv0pcW/LzZ+cgcI1khdd0oJkQEBN3kbVrwhWEE4R/o8W7s7wdqQLg8CKbIgIL0chE3s5+lZRl1ngLomNyXs1s4zK0BkZCQL9xCYoVCA3znaDMIahDSYo+McEPhxbLQH2g+CNdoSoN0RLA+BAJGTcJxVAAAb7klEQVT+EJMYvU0gFMNsH8IoCoDCBgUr0Ug/iDgKuMa8wHfRHwBCKRQ+sCS4ePECNWrUWAngFTP7GEAJg6B9MIHHvjqoC4TjCxcuUkx0NLsaQMCG1QDqBMVQdqsDHSiK0ObbVN/rQq+plQGUDBDA0Q9I9agHNsTqPNoQbQxlFoBlQNlyZdnlBOc2JSwsXI1PHz4XFFqNGzfm7Tj/4UOHyT/An8etrqzJD7BYQftBuYYsA+gzL28vdhOANYqufED8ifPnL9A5dX8EhwSzsqq0Okdpz9KsOEMMA9OYDKFhoXTsqOob1RfhEeFszYKYGIgbANcHtAH6F/WEawj6HPVAH+iWBfgMYw7Xir41Z8yH/AAnkt+X/kO//7SEdm5fbtgoCILwJDD5+clI1/g3tFevnjRx0kQaPmy48RNBEAShoIP5P1x7ITM97nhauWF25cCinQcp2j+IPhk1yLj18QINDJQDWI3mH1B1dRAu4b9s8DW3ZOVAfsBxICg5OzlTGa87+dizoI6PY0OIgcDIlgOK9PQMPg+C3mUKkvdoaWQpmD1nNoUrwQ+p254b8Zzxk7vBZAAp34CNjXWWeAA5gXaBIIbrh6CVm3CbF/AFj70dy6npTAMeArgpQBg1Fb5hnYGVZ4DzYvDjb27AogGCOYAgeL8CYH5cR/ID2gbKJrQX2tnevji7GiDg36Mm7nYcC9MAQjRcOh436Ac8rGBRkFdWDuwXFRXFVgyuLi5sqZLbuEpLT6MYNV4RvwKWOc4uznmOBfQlrE901xcXVxeyL2bPr58EUA6sWLeNVi5dR3//PtewURAE4Ulg8pgV5YAgCELhpcgrB2LUkb5e9Df5XrhCCz55y7j1CYIfUOPV6YLjgwjF+UIdHufQI+DjdJmn0v8a65IdrJLCTB+ZAHbt3EWdOneiTz75hFeeBUF48iCvx5pjp+nQ3mP0/asvGjYKgiA8CUzmFJh3+N/wpyFDh3DaV1EOCIIgFB4KonLArAEJnTOISoRGUkpAkHHLE8ZEGIdS4JEpBoA6tOnxs5wJ9chFMQA2b9pMn3/2Oe3csZPNyJEyURQDQpEij/FfGEDeilhXJ7KrWs6wQRAE4UmRZU5hsHTLnlZYEARBEB4EsyoHUpREnGpvR1aOj978ukBiqhHIoh24N/Djh7/26FGj6aluTxm3CkIR4T7vh4IGoi3YJqVSeowhpaMgCMITxfhMheWAl7c3FbO749InCIIgCA+KWZUD4VZECVW8yLFeNeMWIT+8+tqrtHbtWlr+13IaN34cm5cIglBwcFHFNSicYg+eM2wQBEEQBEEQhCKGWZUDwLOMJ1Ux5lkXBEEoKsRGRNCNCxeM7wRBEJ48lhYWpGmGwK0Whd1ESxAEQXjimF05IAiCIAiCIDxioAsw6gMeaUwlQRAE4V+D2ZUDwcHB5Ot7zfhOEAShaODk5kbla9YwvhMEQXiC6AEJLQzRrtPS0owbBEEQBOHBMatywD2dqPi1WxR7xpCrXhAEoSiAVIbR3iXJuWVdwwZBEIQnjVFBgGwFGRkG1wJBEARBeBjMqhywUz9UNglJlB4rEb0FQSg6pKqSXMyWrFwdDBsEQRCeIMhSkJqKJxNRqVKlyNbWll8LgiAIwsNgVuVArDpaQikXsi3rYdwiCIJQ+CmhilNUHCVfCzJsEARBeMKwK4FG5OzsTHa2dhJ3QBAEQXhozKociFNHs6pQhjzqSCpDQRCKDsVVsQ4Op7Dj5w0bBEEQnjDWVtYccwBKAWtra7K0NOuUThAEQfgXYvZfEhdXFypd2tP4ThAEoWiQGBdH4YGBxneCIAhPCA06AQuysbExbiCDcsBClAOCIAiFjYJm9WX2X5KU5BRKTEgwvhMEQSgaWKuJeLEScDAQBEF4gujzSPw1BiXE5DIpJTkzDoEgCIJQsEEg2fj4+MzkMwUFsyoHrNXVhd8MIr/Lkq1AEISiQ7oq9qVKUrl6dQwbBEEQniTZFpqsbawp+FYwRYRHGBQGehEEQRAKJCkpKXTp0mUOKFuQ3MLMWhMPNYN29b1FiWeuGrcIgiAUfiJVCfV2pxKtahk2CIIgFCDq1atPJUqUoKTkZM5kIAiCIBRsdMuBTh06UvHiiG5VMBAHNUEQBEEQhEKMk5MjXbt2jQIC/ClDy+BJZ4amqb+aWBAIgiAUQBITE+nw4UPkXrIkWVlZGbc+ecyqHAhV1xVdyZOSyrqR7zVf41ZBEITCTXp4EiUe8qeEwxeNWwRBEAoO1apV58kl+69qmugDBEEQCjjp6ekUEx1D9erVI1tbO+PWJ49ZlQNpFkRuZb2oXNXKlJycbNwqCIJQuNHSNMqIT1ElybhFEASh4NCsWTNehQoJCTVGvhb1gCAIQkEmISGB9u7bR+3btWO3AvYIKwCPbrO7FdgVs6PUlFS65nvNuEUQBKFwExYWRjExMVS+QgXjFkEQhIKDh0cpdi2IjY2hyMhI0uBOIAiCIBRIkhKT6ObNQLKxsSZvb2+ytoZbQcF4bj+SmAPQXnPEXEEQhCJAfFwcP9fcXF2NWwRBEAoOcClo2rQppzK8dOkSR76GBQFbEWTLbCAIgiA8WcIjIujo0aPUp09fXljnB3UB0emaVTlQIoOosq0juWu2FBgUaNwqCIJQuAmNi6JLMbcouphxgyAIQgGjRYsWlJSUTAcOHKCo6CjWCbCHgSAIglBggDvB2bM+tHPXDho4cABZW1sb3cEKBmZVDjhnEDV186Aajs6suY6MQAIwQRCEwktcXBxdvOlLxyOvU3jByTQjCIKQhTJlypCdnS1dvHhRTTzPGrcKgiAIBYng4GA6fPgwJcQnUPXq1Q3KAbW9oCgIzKocSFHXZOFsSy5lXdg04uTJk8ZPBEEQCic3rt+g8Fuh5O3oTiWLORi3CoIgFDyaNGlCLi4uPPGMi48zbhUEQRAKAgjYjwV0pJ4dNmwYu4RZWhjcwAoKZlUOhFsR7YmJpmuaJWtCjp84bvxEEAShcOLr50v2SUSjmnShbuVqGLcKgiAUPDp27Ej169enY8eO0aFDh4xbBUEQhIIAlALbt2/nOFYvvviiYaOuF2DzAcPLJ4nZAxLeCr5F0THR5OXlRfv27aeMjAzjJ4IgCIULPL/OnTtH0dFR1KpVfapdy934iSAIQsGkS5curCD45ptvOUChIAiC8ORJT0+nDRs2kI+PD73zzjvGrUYKjuGA+ZUDoGTJklS7Tm1KSkqiI4ePcGMIgiAUNq5euUpBQUFUxsuBqlWVTAWCIBR8kBarc+fOnN7w888/N24VBEEQniTr1q1jy4H+/ftTvXr1jFsLHuZRDiD1grGU8SxDVatWYwVBjRo16NNPP6WUlBTeTRAEoTCx/K/lnDO8Tu3aFB2dRBcuSpBVQRAKNkhj2KhRIxo0aBCvUi1atEgsCARBEJ4gu3btopUrV1Lp0qUzYw0UVMyjHDCaQrhnELV1dqG2XqVZcz10yBC6FRxMZ06f4QAMgiAIhQVod6/7XadGDRtR3bZt6VBsJG31v2T8VBAEoeBib29PrVq1ounTp9OCBQto6dKldPv2beOngiAIwuNi586dtHjxYqpVqxaNGTOGg8YWZMznVmBBZKcRlbS2Jnc7WypWrBi7FgwaOJB++fVXio6ONu4oCIJQ8Fm+fDlreNt3aE+Obm4UmZ5CoUkyuRYEoXDg7OzM8QcmTpzIyoHVq1dTRESE8VNBEAThUQOLASgGnJ1d+HlcsWJF4ycFF7PGHIhVR7uQlEiXYg3pcxwdHalfv34ceGHH9h0UFRXF2wVBEAoyB/YfoAMHDlD1GtWpZs2aVEJtq27nQPVcvQw7CIIgFAIcHBxowIAB7GKwadMmdjHw87tu/FQQBEF4FMCVa8kfS+iXX36hatWq0dChQ9hyoDBgNWvmrFnG1w9NhCXRkaAQCgoNo3qepdjvzcHRgXyv+dLpM2eorLc3lSpVimxsbIzfEARBKDhomka3gm7R/Pnz2Sz36aefpkqVKrEWtYSlDZUp7kjujraGnQVBEAoB8G1FDIJbt27R8eMnKDDwJufUdnJy4uecIAiCYB4QZ8/Pz49WrVrFAQirVKnCrgR16tQhW9vCMX80q3LgtgXRqes3KDokjFpVNZhNQEFQvnx5TmsYGRGhXlfgYIWCIAgFDWh6Yf516tQpGjxkMDVu0phdpJBvxcrOilycbElUA4IgFEaaN29OaWmpdObMGbp8+TLFxcWRtbU1lSheotBMWgVBEAoiiYmJFBAQQEeOHKVt27bTsWPHqHGjRjTllSnk6elp3KtwYHblwPXIGLJMS6emFbx5G7TTUAZkpGfQvv37ydXVhcqVK0d2dnb8uSAIQkEAigFoe+fOnUvdunWj7t27ZyoyoRxITMug5MQ0crAtuBFmBUEQ8gKrV7Vr1+ZJ7H41J7t+/QalqWdfMftivJgDZYGlhWWByrktCIJQUImJiWGrLChdt2zZSju2b6fk5CR6/fU3qF//flS8eHHjnoUHCy1DQxJCsxCqyrnIWLJKSqH2XndbB6xcsZIbr2XLlhzkqzA2mCAIhRxMek2feup9WkoaXb9xnX6c/yNnWhk9ZnSWaLIJqlwJuU3BN6Ope5Nyho2CIAiFGMzHkMng0KFD1OPpHtSwUUN2oypZshTZ2tiQrZ0tu4FCYYAiCILwbwVup1hE0rPvwVIgPj6eLU2haL106RK5u7vTM888Q7179+Z9CitmVQ7w8lqGKnDQzWVx7f/+bybduH6dhgwZQt2f7l6g8zwKglDE0FfDTJ56GRkZHBfl+++/p8NHDtOWLVuoRAmEILzDTVX+ueZH185foS/7dDNsFARBKOQkJSXTjRvXafv27bRs6TJ2N+jWvTt5epamevXqUdmy5ci7rDd5e3kZnptiUSAIwr+QpMQk8vX1pTM+Z/j9oUOYL27mmAItWrRga9MOHTrwZ4Wdx64cSEpKoq+//oY1LYjc2LdvX+MngiAIj5gclAPnz5+nn3/6mS5dvkTLli1jxQDcoUwR5YAgCEUS9SyEgjQtLY1SUlPo9u3btGfPXjpx4gQFBQXR6dOnyN/fn10OsHImCILwbwTPP8wPu3Tpyu+bNWtGPXo8zfEEdOuqomJhZVblAA4UEhpOiYlJVKFiWcPGHIiMiKQVK1fRuvUbqXnzZvTO2zOMnxiwlN8fQRAeA1BSLlu2nGLVhHjGjOlUrnx54ydZSVPlasBN8vO7QT3atzFszIaFPLcEQSjkQFEAU1mYzMKEFgs6iL4tCILwb4ez8Dk48Gu4xiNlf1F0uTKvcsCCKDAohOLUD0v1apWNW3MmJCSUVq9ZS//8s4aaNWtKQ4cOoxrVK3PDY5ItlmuCIDwq/G/4q+fParp69SrVrVuP2nVoTzVqVDd+mjPwM4Pi08XF2bglK6IcEARBEARBEAozZlEOBKuSpKT5sEiioJAksrdLo2qVHchGbffO4+jBwcG0a/ceOnrkKL/v0qUTdezYgdPqCEJOJKkSrMZahhpXAeEZhNHr6WJJxWyJ3NRrJ8NugpAre/fspU2bN1FgYCA1bdKU+vbry+lWTYGiE4SrEq9KSGQi3QyNI8fitlS9vDMrL2EbBQ8qIIoBQRAEQRAEobBjFuXA/oRwuhh8k24FuFJcTGmyd4gkz7JBVNnTi55y8jLulTPwb4Np7969++j69etUu3Ytatu2LdWsWTPTdEMQdCLSiHZHplBAwE0Ki9XYlcW1hAV5lylFzUs5UJViYnMi3A1MZWEtAKXAoYOH+NmCrCl41lSsVNG41x105cD+0Hg6HxZNwWGxFB6dRPbFrKm8pyO5u7jQwPLOZGNpIYoBQRAEQRAEoUjwwMoBfAmramGJEfT3zdt08kYwxUe5EqV6EllHkJ1TINUoW4ZGVXCg0o6lqSRZ5BajkP3aMHHfunUrnfHxIVc18a5QoQLVb1CfatWsRc65mPEK/x6QSi48lehCRDotv55AATcDDB8Y8SjlQV3LW1Kb0tZUuriTWBAIDFwBbty4YcznfZ2ioqLIzc2NOrTvQI0aN8qSrtCUCAsi/7B4+scvgU6G3Ga/Wx1LSysq5epML1W1pypejuRhZUm2xs8EQRAEQRAEobDywMoBJCbwURPo3Zf20YqbFSg4+W5xzMkqkZ4pfZq61OtC9S2tyc64PS/27NlDBw8cpLNnz5KHhwc1atSIKlasSB6lPaike0lyc3cz7in8mwhR5VhkEm25eJs2xuQsijW086U+leyofaXaVOFhVnPF+KBQExcXRxHhERQSGsJRtpGN4MCBA1SjRg0aOnQoNajfgIqXKG7cO2fOqTGw4fB12hBhR4F0977WpFE3ukUDOlShxsVtydG4XRAEQRAEQRAKKw+lHDiYSLR82wY6QLUo1vpuod0+I55aJBykwd36UUMnazK1+EY8AigLcBx1mCzYqxrt272bNu3YSZfV5N7OvjjnkaxQrjw1qVaLXF1dKdHWgoo7OJC1tRXZ29qQg4012arv4XiIf2BKMbUdVgspanuqYROD3Yobrz5BvTFtCNTvnsdTJdXks4c+ntpu1vrdz/HUG4jcT+J69e/Bf1sXw2ApgKyYOiHqQHt8Q2jN8Zt0zrmqcWtWysaeoG5lralX01ZU2db6weunyhPvD1XueTxVCvP4M+1fHIuPp7YnZjsengdWquB4KJlkaJQeY1jRD0m6TWkZGXT7diz5+fpSwBU/unnVl/wCbpCjhwu1b9+BhgwZTDY2NnnXz/CS9scl0+q952lfsiuF27kat97BSkunJpHnaEDnetTZw4lcrfXoA4IgCIIgCIJQOHlg5UCqmtn/fono8NHbdMwxg2IhUWXDXs28m4VaUIMGjlSvTgpZWCSTpibw1tY2VNbGjipaWlOslkFn05IpJSWZv2Nra0d1yY6clKh4Q4keR0LD6ciZi5xz9+rpc1Q3yor9hM+4pFKlOjXJycmJPF1KUHVbG/JISqMENUm/6WBH9vb2fLyk5CQlNCaRfVoGhdnb0O0SxVhAgA+ylphEFdVn4LpTMbKwL8bZEuDm4BifRKUSUynR2opuqs+K2RkukI+nBBI+XvEcjmcUVq47Zz9eovF4qn7Zj2daPwd1PNU++a/fPY6X5/XaZz1egvF4qu75u97EnOuXpo4Xl8/64XrVWEiHYBgfT1USbvN+14o7klWJEmRpZcXtEZNoSWeuhNJR38DclQPRl6lhiVRqXK86VSjtQMnRMVQx2lg/F1W34neu1+G26g9crw2u157sixnql5iE+iWq+qXnvz/u53pl/PF+fk72WY7nhPZT/ZGg+iNQ1d3OeLxkdTxvdU3F1QMH1xvL48VwvKToOEo8YHAvWRtzhW6np5DPyZMUERpK7SrWoqFNO1CVxrUpo4ZbpltAMdXPdSxt1PPFgp8vAakp6vxpqh5W5GhrS43tDClpvj6qxtn1m+RjUzpP5UD5Mp40rkk5qqjGlyAIgiAIgiAUZh5KObDkCtHBI9F0zJEo1i7bcp/CPk2jZiEZ1KiRK9m4+9DlK6c5AGHZcuXoqWoNqKVLeQpKjqUVN06xGwGoW7cuDfJuSF62TrQ/LILW+5wnX19fjjvQrHZ9qhHBu9EffscoOsVgc3DhwgXy3XOE6GoQkYsDObStTx06dODPjh47ShHbjlBaRAwVq1OJKrdvQZUrV6bomGg6deAwxe04zvs5dG5CDVu3IBdnFz6f757DlHTOj6zdXci9Sxtq1rQZ78fH2248Xu0cjrfTeLxO2Y93gJLOXyXrks5UsmsLjpIOjh0/RuHbDlNaOOpXmSp3UMerVIliYmLo1MHDdHv7Md7PsUtTatiqBTk7O2ernzO5d22etX75ud5OLVX9Wma93vPG43XJdrxcr/eQut5DvF+W+vn5ke9u1M83X9dbo0Y9ik+won1b1lPCzj95v+KdhlHbbr3IvaQ7VaxQkby8vCgkLIwOX8tbOdDIIYX3D/C/QYvm/5ylP5p3bEdurq506fJlurID/WG43lKqfm3aGHLXwzc9bNtedb1R+e+PPK5Xxl/O1+vYuZXxeKp+flmPl2P9TI9XqbKqXzSdO3aS3C6qe15RecTTZOtiMO7H+XrVq01tSrlTYGIS/Xn5Gh07ariOps2a0rDqVcjbvtid58u1m+RQvDQ1q1uTxjc1BFD97ngQ+fgG0Jl7KAcqeZehFxuXpYrOohwQBEEQBEEQCjcP5VZwOoNo4eY/aX96U4q18jB8YIJ9xm1qkbyZxvQeRfWsLck6Q31Lnc3C0oJsLK3IysKSMtSGVLU9I91gZGxpZUk2FlZkaWFBaRmaKuqzjAyyUO+t1HcsjbXFdwyx6lVd1Hcz0tIM+e0s1H/WVmRtbVgBTE9T31cFOe8s1LEt1WdYrdTUe3ym4TMFvmOlCs6D8+E7Guqk3uM7VpnHS8t6PCt1PFUMx0vLdjxrw/HScX3ZjwfDZnPW70GOl1f9HuR6H7R+OJ7hXFoajOVxPFuug6UaK5ZqnISra9h1I5T+PhyQu3Lg9lHqVdGW+jdpS97q3CkpKTlfL9dPnSuzftZZ65euxlKW+j2u/pDxd+d4+bnedLJQdQGWcCNR3+XX6nzWakxZq7GDx1uq2iddHR9Yqe/aqM+zPl/wHLEga3V8W1XAafWdZdvO0K4ElzyVA6N6N6aWziXI6W7dqCAIgiAIgiAUKh46IOER/+P0p28ZCkwoYfjABGebZBpR/hK1qdaa6imBPz8BCQUhJxCQ8FRsGu24mkirQgwCYXaaOwRQ70p21KpsNQlIKDwUCEi45fhNWhdmQwEZd1sFICBhb9tw6tW6PDW2l4CEgiAIgiAIQuHngZUD+FK8KnGp8bTyVggduXqVokNKE6VUJLK5RcXdr1L9ylVoZDlvcirmSCWUxCUhu4QHBfYE8elE12Iz6C+/eHYNMKV8uXLUvVIJal4SvuPFOKigIDwoeLZFxaXQyqsxdNg/guITsMWAtZU1eZUuSZPruFFp12LkaJl7mlZBEARBEARBKCw8sHLAlGMpsXQjOpICA0pQVJQLOTrGUbnykVTGxY3a2t9tkisID0pUOtGR+DQKC4+gm+EZ7Eni6WpJHu5OVM/JniogjL4gmInjscnkGxtPN0Ni6WZoPDkWt6GaFV3JqXhx6layOFkbXRkEQRAEQRAEobBjFuVAlCpY2Y2NI4pLILIvRuTqRLyaVhI7CIKZwDjDeMOgDYvV4IpOrg4WZKsGG0y7885eLwj3R4wqyHMQfTuZwpElws6avEvBDoqolCqiGhAEQRAEQRCKCmZRDgiCIAiCIAiCIAiCUHiRMABCoQfaLdFwCYIgCIIgCIIgPDhiOSAUaPIzOP+/vTtIQRgGogA6UUEE739WUQuaaDaVLrIoBuY9KExKu5tNPiHTwoESbcylY94AAADjhAP8Xe3ArS5cv67r9v1n2fT6dIg4SgcAAACGCQeYw0YXLnWz/93w18kE92fE7fGul98frucSF9MKAAAAhrlzAAAAAJITDgAAAEBywgEAAABITjjAHPrdAqunlwAAAOxHOMDUioAAAABgd8IBAAAASE44AAAAAKlFvAA/PYhuzgIVowAAAABJRU5ErkJggg==;" vertex="1" parent="1">
          <mxGeometry x="-130" y="40" width="1031" height="663" as="geometry" />
        </mxCell>
      </root>
    </mxGraphModel>
  </diagram>
</mxfile>
